<?xml version="1.0" encoding="utf-8"?>
<!-- Generator: Adobe Illustrator 27.5.0, SVG Export Plug-In . SVG Version: 6.00 Build 0)  -->
<svg version="1.1" id="Capa_1" xmlns="http://www.w3.org/2000/svg" xmlns:xlink="http://www.w3.org/1999/xlink" x="0px" y="0px"
	 viewBox="0 0 2122 2122" style="enable-background:new 0 0 2122 2122;" xml:space="preserve">
<rect x="-0.004" style="fill:#FFFFFF;" width="2121.32" height="2121.328"/>
<g>
	<g>
		<g>
			<circle style="fill:#AEDBF0;" cx="1060.658" cy="1060.66" r="766.313"/>
			<path style="fill:#CCE8F3;" d="M1826.969,1057.43c-0.809-195.051-75.59-389.852-224.41-538.672
				c-148.816-148.816-343.617-223.602-538.668-224.41L1826.969,1057.43z"/>
			<path style="fill:#88CDEC;" d="M502.336,535.813c-282.684,300.363-277.23,773.063,16.441,1066.734
				c293.668,293.668,766.367,299.121,1066.73,16.434L502.336,535.813z"/>
		</g>
		<g>
			<g>
				<polygon style="fill:#FFFFFF;" points="1235.516,398.391 1310.504,417.543 1235.516,436.691 1216.367,511.676 1197.215,436.691 
					1122.23,417.543 1197.215,398.391 1216.367,323.41 				"/>
				<polygon style="fill:#FFFFFF;" points="1349.355,504.125 1378.926,511.676 1349.355,519.231 1341.805,548.789 1334.258,519.231 
					1304.695,511.676 1334.258,504.125 1341.805,474.563 				"/>
				<polygon style="fill:#FFFFFF;" points="1133.055,488.992 1162.613,496.543 1133.055,504.094 1125.504,533.656 1117.957,504.094 
					1088.387,496.543 1117.957,488.992 1125.504,459.43 				"/>
			</g>
			<g>
				<polygon style="fill:#FFFFFF;" points="937.992,494.68 957.144,419.699 976.293,494.68 1051.277,513.832 976.293,532.984 
					957.144,607.969 937.992,532.984 863.008,513.832 				"/>
				<polygon style="fill:#FFFFFF;" points="1043.727,380.844 1051.277,351.277 1058.828,380.844 1088.387,388.395 1058.828,395.941 
					1051.277,425.508 1043.727,395.941 1014.16,388.395 				"/>
				<polygon style="fill:#FFFFFF;" points="1028.594,597.144 1036.145,567.582 1043.695,597.144 1073.254,604.695 1043.695,612.246 
					1036.145,641.813 1028.594,612.246 999.031,604.695 				"/>
			</g>
		</g>
	</g>
	<path style="fill:#616161;" d="M1927.242,1799.523c0,8.848-7.172,16.027-16.023,16.027H210.098c-8.848,0-16.024-7.18-16.024-16.027
		l0,0c0-8.852,7.176-16.023,16.024-16.023h1701.121C1920.07,1783.5,1927.242,1790.672,1927.242,1799.523L1927.242,1799.523z"/>
</g>
<g>
	<g>
		<path style="fill:#E96F4C;" d="M1064.438,1105.832H893.969c0,0-173.418,43.176-173.418,101.332v507.137
			c0,36.727,29.773,66.5,66.5,66.5h289.313c36.727,0,66.5-29.773,66.5-66.5v-507.137
			C1142.863,1170.438,1142.863,1105.832,1064.438,1105.832z M902.051,1557.305c0,14.414-11.688,26.102-26.106,26.102h-84.836
			c-14.41,0-26.094-11.688-26.094-26.102v-229.668c0-14.414,0-32.766,26.094-47.195l84.836-37.758
			c17.547-8.332,26.106,11.676,26.106,26.094V1557.305z"/>
		<path style="fill:#D8DADE;" d="M741.605,1333.855v249.551c0,19.34,15.68,35.012,35.016,35.012h113.82
			c19.328,0,35.008-15.672,35.008-35.012v-328.504c0-19.344-11.469-46.203-35.008-35.016l-113.82,50.645
			C741.605,1289.906,741.605,1314.512,741.605,1333.855z M765.016,1327.637c0-14.414,0-32.766,26.094-47.195l84.836-37.758
			c17.547-8.332,26.106,11.676,26.106,26.094v288.527c0,14.414-11.688,26.102-26.106,26.102h-84.836
			c-14.41,0-26.094-11.688-26.094-26.102V1327.637z"/>
		<path style="opacity:0.1;fill:#FFFFFF;" d="M781.727,1181.863c4.348-37.391,124.094-64.918,124.094-64.918h150.27
			c54.648,0,56.172,40.363,56.215,64.918H781.727z"/>
		<path style="opacity:0.1;fill:#FFFFFF;" d="M884.016,1192.941l-152.414,81.512v429.367c0,34.805,28.219,63.023,63.02,63.023
			h274.172c34.801,0,63.012-28.219,63.012-63.023v-471.332c0-39.547-19.5-39.547-19.5-39.547H884.016z M741.605,1333.855
			c0-19.344,0-43.949,35.016-63.324l113.82-50.645c23.539-11.188,35.008,15.672,35.008,35.016v328.504
			c0,19.34-15.68,35.012-35.008,35.012h-113.82c-19.336,0-35.016-15.672-35.016-35.012V1333.855z"/>
		<path style="fill:#F6C08E;" d="M912.836,1655.898c18.742,0,33.922-15.184,33.922-33.914v-389.066h132.676
			c0,0,15.949,0,15.949,32.344v410.066c0,28.465-23.078,51.539-51.543,51.539H819.637c-20.121,0-47.598-4.035-47.871-32.488v-38.48
			H912.836z"/>
		<path style="fill:#BD916C;" d="M962.391,1474.93c0,32.469,26.32,58.781,58.777,58.781l0,0c32.469,0,58.777-26.313,58.777-58.781
			v-168.613c0-32.469-26.309-58.785-58.777-58.785l0,0c-32.457,0-58.777,26.317-58.777,58.785V1474.93z"/>
		<path style="fill:#957253;" d="M980.926,1470.813c0,22.223,18.016,40.234,40.242,40.234l0,0c22.23,0,40.246-18.012,40.246-40.234
			v-161.559c0-22.227-18.016-40.254-40.246-40.254l0,0c-22.227,0-40.242,18.027-40.242,40.254V1470.813z"/>
		<rect x="962.391" y="1555.086" style="fill:#957253;" width="111.625" height="15.434"/>
		<rect x="962.391" y="1583.406" style="fill:#957253;" width="111.625" height="15.438"/>
		<rect x="962.391" y="1611.73" style="fill:#957253;" width="111.625" height="15.434"/>
		<rect x="962.391" y="1640.047" style="fill:#957253;" width="111.625" height="15.438"/>
		<rect x="798.523" y="1676.805" style="fill:#957253;" width="275.492" height="8.305"/>
		<path style="opacity:0.3;fill:#FFFFFF;" d="M909.348,1131.559c-1.723,1.723,146.844-13.969,176.242,7.707
			c20.941,20.941,19.027,41.516,20.75,39.793c1.727-1.715,6.43-25.078-14.512-46.019
			C1062.531,1105.133,911.074,1129.84,909.348,1131.559z"/>
		<path style="opacity:0.3;fill:#FFFFFF;" d="M1047.883,1156.695c0,8.852,7.184,16.023,16.031,16.023
			c8.859,0,16.031-7.172,16.031-16.023c0-8.859-7.172-16.031-16.031-16.031C1055.066,1140.664,1047.883,1147.836,1047.883,1156.695z
			"/>
		<path style="opacity:0.3;fill:#FFFFFF;" d="M1116.898,1328.43c0,69.289-6.305,125.469,0,125.469
			c6.32,0,11.438-56.18,11.438-125.469c0-69.269-5.117-125.449-11.438-125.449C1110.594,1202.98,1116.898,1259.16,1116.898,1328.43z
			"/>
	</g>
	<g>
		<path style="fill:#2D4A6A;" d="M933.441,1050.176c0,26.777,21.711,48.492,48.492,48.492H1016
			c26.777,0,48.488-21.715,48.488-48.492v-58.578c0-26.781-21.711-48.492-48.488-48.492h-34.066
			c-26.781,0-48.492,21.711-48.492,48.492V1050.176z"/>
		<path style="fill:#182F46;" d="M1064.488,1030.984v19.191c0,26.777-21.711,48.492-48.488,48.492h-34.066
			c-26.781,0-48.492-21.715-48.492-48.492v-14.449L1064.488,1030.984z"/>
		<g>
			<path style="fill:#2D4A6A;" d="M915.477,1093.016c0,7.078,5.727,12.816,12.801,12.816h141.383
				c7.078,0,12.805-5.738,12.805-12.816v-42.832c0-7.07-5.727-12.805-12.805-12.805H928.277c-7.074,0-12.801,5.734-12.801,12.805
				V1093.016z"/>
			<path style="fill:#182F46;" d="M925.203,1037.793v52.73c0,6.246,5.07,11.32,11.32,11.32h124.891c6.242,0,11.32-5.074,11.32-11.32
				v-52.73c5.578,1.371,9.73,6.387,9.73,12.391v42.832c0,7.078-5.727,12.816-12.805,12.816H928.277
				c-7.074,0-12.801-5.738-12.801-12.816v-42.832C915.477,1044.18,919.629,1039.176,925.203,1037.793z"/>
			<path style="fill:#182F46;" d="M1052.246,1045.227c2.105,0,3.82,1.711,3.82,3.82v54.766h-7.633v-54.766
				C1048.434,1046.938,1050.141,1045.227,1052.246,1045.227z"/>
			<path style="fill:#182F46;" d="M1031.465,1045.227c2.105,0,3.82,1.711,3.82,3.82v54.766h-7.637v-54.766
				C1027.648,1046.938,1029.359,1045.227,1031.465,1045.227z"/>
			<path style="fill:#182F46;" d="M1010.684,1045.227c2.106,0,3.82,1.711,3.82,3.82v54.766h-7.637v-54.766
				C1006.867,1046.938,1008.578,1045.227,1010.684,1045.227z"/>
			<path style="fill:#182F46;" d="M989.91,1045.227c2.102,0,3.813,1.711,3.813,3.82v54.766h-7.633v-54.766
				C986.09,1046.938,987.797,1045.227,989.91,1045.227z"/>
			<path style="fill:#182F46;" d="M969.117,1045.227c2.117,0,3.824,1.711,3.824,3.82v54.766h-7.637v-54.766
				C965.305,1046.938,967.023,1045.227,969.117,1045.227z"/>
			<path style="fill:#182F46;" d="M948.348,1045.227c2.105,0,3.813,1.711,3.813,3.82v54.766h-7.637v-54.766
				C944.523,1046.938,946.23,1045.227,948.348,1045.227z"/>
			<g>
				<rect x="1041.609" y="1040.484" style="fill:#406F95;" width="4.758" height="58.184"/>
				<rect x="1020.832" y="1040.484" style="fill:#406F95;" width="4.754" height="58.184"/>
				<rect x="1000.055" y="1040.484" style="fill:#406F95;" width="4.75" height="58.184"/>
				<rect x="979.273" y="1040.484" style="fill:#406F95;" width="4.75" height="58.184"/>
				<rect x="958.492" y="1040.484" style="fill:#406F95;" width="4.75" height="58.184"/>
				<rect x="937.707" y="1040.484" style="fill:#406F95;" width="4.75" height="58.184"/>
				<polygon style="fill:#406F95;" points="1062.398,1098.668 1067.141,1094.113 1067.141,1040.484 1062.398,1040.484 				"/>
			</g>
		</g>
		<path style="fill:#406F95;" d="M967.891,963.387c-4.008,13.523,12.352,30.281,36.531,37.449
			c24.184,7.164,47.039,2.016,51.031-11.504c4.016-13.519-12.352-30.281-36.523-37.449
			C994.746,944.719,971.891,949.875,967.891,963.387z"/>
		<path style="fill:#708AAB;" d="M973.625,961.352c-1.02,3.426,20.945-2.102,41.941,4.109c20.996,6.223,33.074,21.856,34.09,18.422
			c1.008-3.426-10.238-20.543-31.238-26.754C997.43,950.898,974.633,957.938,973.625,961.352z"/>
		<path style="fill:#708AAB;" d="M976.879,975.172c0,5.074,4.133,9.195,9.211,9.195c5.082,0,9.203-4.121,9.203-9.195
			c0-5.09-4.121-9.211-9.203-9.211C981.012,965.961,976.879,970.082,976.879,975.172z"/>
	</g>
</g>
<g>
	<path style="fill:#182F46;" d="M1193.469,504.449c-16.73,0-30.285,13.555-30.285,30.277c0,16.727,13.555,30.285,30.285,30.285
		c16.727,0,30.277-13.559,30.277-30.285C1223.746,518.004,1210.195,504.449,1193.469,504.449z M1193.469,553.754
		c-10.512,0-19.023-8.523-19.023-19.027c0-10.508,8.512-19.027,19.023-19.027c10.5,0,19.016,8.519,19.016,19.027
		C1212.484,545.231,1203.969,553.754,1193.469,553.754z"/>
	<g>
		<rect x="1169.098" y="554.465" style="fill:#C1C1C4;" width="48.723" height="1138.059"/>
		<rect x="1203.516" y="554.465" style="fill:#F9F9F9;" width="14.305" height="1138.059"/>
		<rect x="1169.098" y="554.465" style="fill:#979597;" width="14.973" height="1138.059"/>
	</g>
	<rect x="1158.852" y="554.465" style="fill:#2D4A6A;" width="69.223" height="21.086"/>
	<rect x="1155.551" y="1513.195" style="fill:#2D4A6A;" width="75.844" height="60.277"/>
	<rect x="1155.551" y="1513.195" style="fill:#406F95;" width="14.336" height="60.277"/>
	<polygon style="fill:#182F46;" points="1231.395,1573.473 1193.469,1573.473 1231.395,1513.195 	"/>
	<path style="fill:#2D4A6A;" d="M1193.469,1556.293c-108.184,0-195.883,87.699-195.883,195.883h391.762
		C1389.348,1643.992,1301.645,1556.293,1193.469,1556.293z"/>
	<path style="fill:#27425F;" d="M1292.801,1583.375c0.09,1.813,0.195,3.645,0.195,5.477c0,81.004-88.707,146.652-198.129,146.652
		c-34.105,0-66.203-6.375-94.227-17.621c-1.977,11.148-3.055,22.586-3.055,34.293h391.762
		C1389.348,1680.262,1350.57,1617.43,1292.801,1583.375z"/>
	<path style="fill:#182F46;" d="M1418.406,1768.504c0,9.008-7.309,16.32-16.328,16.32h-417.23c-9.012,0-16.316-7.313-16.316-16.32
		l0,0c0-9.023,7.305-16.328,16.316-16.328h417.23C1411.098,1752.176,1418.406,1759.48,1418.406,1768.504L1418.406,1768.504z"/>
	<g>
		<path style="fill:#406F95;" d="M1224.418,1599.445c10.348,27.164-20.629,64.184-69.211,82.711
			c-48.574,18.531-96.348,11.547-106.707-15.617c-10.359-27.145,20.629-64.18,69.199-82.719
			C1166.273,1565.309,1214.059,1572.301,1224.418,1599.445z"/>
		<path style="fill:#708AAB;" d="M1212.301,1596.18c2.629,6.871-43.391-1.055-85.559,15.023
			c-42.184,16.094-64.543,50.105-67.172,43.234c-2.613-6.879,17.828-43.84,59.996-59.922
			C1161.738,1578.43,1209.695,1589.305,1212.301,1596.18z"/>
		<path style="fill:#708AAB;" d="M1207.766,1625.07c0.801,10.445-7.027,19.57-17.465,20.371
			c-10.445,0.793-19.566-7.023-20.359-17.473c-0.805-10.445,7.016-19.559,17.473-20.371
			C1197.844,1606.805,1206.969,1614.625,1207.766,1625.07z"/>
	</g>
</g>
<g>
	<g>
		<path style="fill:#F5AE2E;" d="M1492.82,1012.066c-14.039,1.793-23.984,14.621-22.191,28.66l-5.676,109.297
			c-5.066,7.582-6.633-6.082-6.633-6.082l0,0l-14.387-177.145c-3.25-15.113-18.137-24.723-33.262-21.473
			c-15.098,3.25-24.719,18.141-21.461,33.266l4.012,157.731c-2.379,8.238-6.043,0.766-6.043,0.766l-24.102-193.145
			c-3.836-15.305-19.344-24.609-34.656-20.773c-15.305,3.828-24.609,19.336-20.773,34.637l13.699,187.641
			c-3.504,10.602-9.109-0.184-9.129-0.223l-45.824-144.43c-6.699-14.289-23.703-20.441-37.988-13.746
			c-14.285,6.691-20.438,23.703-13.738,37.988l67.137,260.574c1.789,15.246-11.309,7.969-53.184-24.125
			c-94.941-77.836-93.656,2.629-69.543,25.645c26.129,18.277,157.441,139.934,157.441,139.934l20.59,365.328l259.922-33.023
			l-71.406-358.879l-4.156-366.223C1521.246,1014.305,1506.852,1010.285,1492.82,1012.066z"/>
		<path style="fill:#D39526;" d="M1503.824,1012.094c19.473,182.828,13.598,803.168-169.746,726.531l3.031,53.766l259.922-33.023
			l-71.406-358.879l-4.156-366.223C1521.305,1019.625,1513.508,1013.578,1503.824,1012.094z"/>
		<path style="fill:#FAC52F;" d="M1394.199,970.375l8.883,278.367c-8.863,44.848-29.629,16.848-29.629,16.848l-40.008-252.414
			c-7.016-44.781-4.75-65.188-20.555-58.555l31,312.742c-11.77,16.723-41.125-42.406-41.129-42.43
			c0,0-104.449-281.664-69.406-160.645l64.172,235.102c1.43,12.164-19.629,18.398-53.086-7.262
			c-75.887-62.223-61.828-9.402-42.559,8.984c20.887,14.617,123.387,111.316,123.387,111.316l16.469,291.992
			C1341.738,1704.422,1518.727,1731.691,1394.199,970.375z"/>
	</g>
	<g>
		<path style="fill:#FAC52F;" d="M1810.078,1028.809c-14.16,0-25.633,11.48-25.633,25.629l-19.391,107.719
			c-5.984,6.879-5.816-6.891-5.816-6.891v0.012l8.059-177.539c-1.332-15.414-14.895-26.82-30.297-25.5
			c-15.395,1.32-26.805,14.879-25.484,30.285l-15.906,156.988c-3.395,7.879-6.082,0-6.082,0l0.426-194.648
			c-1.871-15.668-16.09-26.844-31.754-24.973c-15.664,1.875-26.852,16.082-24.98,31.746l-10.059,187.875
			c-4.813,10.07-9.016-1.34-9.027-1.379l-27.246-149.055c-4.848-15.02-20.945-23.262-35.949-18.422
			c-15.023,4.844-23.277,20.938-18.434,35.953l33.766,266.969c-0.148,15.336-12.227,6.473-49.715-30.648
			c-84.383-89.184-93.242-9.188-72.23,16.672c23.625,21.438,138.555,158.656,138.555,158.656l-25.609,365.02h262.012l-25.609-365.02
			l42.023-363.82C1838,1034.605,1824.223,1028.809,1810.078,1028.809z"/>
		<path style="fill:#F5AE2E;" d="M1820.996,1030.219c-3.738,183.817-87.727,798.469-259.957,699.332l-3.77,53.727h262.012
			l-25.609-365.02l42.023-363.82C1837.387,1039.883,1830.41,1032.906,1820.996,1030.219z"/>
		<path style="fill:#FCD576;" d="M1717.492,975.016l-26.266,277.262c-14.445,43.371-31.52,12.988-31.52,12.988l-7.879-255.449
			c-1.313-45.313,3.512-65.277-13-60.672l-8.672,314.141c-13.793,15.105-35.441-47.25-35.453-47.27
			c0,0-68.109-292.586-48.598-168.113l34.027,241.309c-0.121,12.262-21.797,15.789-51.75-13.887
			c-67.449-71.277-60.145-17.113-43.352,3.559c18.895,17.125,108.379,125.977,108.379,125.977l-20.469,291.742
			C1572.941,1696.602,1745.078,1745.938,1717.492,975.016z"/>
	</g>
</g>
</svg>
