<?xml version="1.0" encoding="utf-8"?>
<!-- Generator: Adobe Illustrator 27.5.0, SVG Export Plug-In . SVG Version: 6.00 Build 0)  -->
<svg version="1.1" id="Layer_1" xmlns="http://www.w3.org/2000/svg" xmlns:xlink="http://www.w3.org/1999/xlink" x="0px" y="0px"
	 viewBox="0 0 2000 2000" style="enable-background:new 0 0 2000 2000;" xml:space="preserve">
<rect y="0.001" style="fill:#FFFFFF;" width="2000" height="2000"/>
<g>
	<path style="opacity:0.5;fill:#B0CFF4;" d="M271.855,1855.292c-132.013-158.042-141.11-415.962-9.097-665.375
		c132.013-249.414-248-571.286,120-887.286c211.98-182.026,788.815-247.84,1223.539,248.241
		c367.61,419.494,233.376,1038.74-7.403,1304.42C761.351,1855.292,271.855,1855.292,271.855,1855.292z"/>
	<path style="opacity:0.25;fill:#FFFFFF;" d="M201.146,467.654c37.629-5.668,75.867-0.917,113.683-4.476
		c37.807-3.558,75.027-15.509,109.103-35.032c9.434-5.405,18.754-11.439,28.976-14.261c13.729-3.791,28.059-1.53,42.152-0.856
		c27.466,1.314,55.139-3.563,81.061-14.287c8.754-3.622,18.522-9.61,19.964-20.357c1.84-13.721-10.914-23.53-22.064-28.236
		c-11.15-4.706-24.534-10.512-26.941-24.11c-1.083-6.111,0.371-13.015-2.452-18.308c-1.928-3.615-5.426-5.58-8.767-7.267
		c-37.021-18.693-77.264-25.997-117.313-27.955c-8.775-0.429-17.827-0.059-26.96,0.405c47.953-32.227,98.749-59.302,151.886-80.467
		c25.407,1.582,50.88,1.962,76.394,1.057c53.395-1.895,110.792-8.01,156.384,24.614c5.92,4.236,11.886,9.643,13.835,17.444
		c4.811,19.253-16.176,32.401-32.775,37.315c-2.618,13.346,12.419,20.925,23.926,23.313c37.098,7.697,73.635,19.111,109.081,34.075
		c25.133,10.61,53.036,27.56,57.986,58.324c3.48,21.636-6.444,44.015-21.079,57.821c-14.636,13.806-33.268,20.366-51.713,24.556
		c-62.796,14.265-127.729,4.474-191.404,11.593c-8.493,0.949-17.369,2.38-24.283,8.239c-10.935,9.266-13.869,26.644-21.516,39.672
		c-15.183,25.868-45.622,30.595-72.374,32.305c-59.571,3.808-119.293,4.378-178.909,1.708c-15.022-0.673-30.327-1.517-44.835,3.101
		c-15.253,4.854-28.632,15.422-42.765,23.718c-33.605,19.725-71.47,26.578-108.624,33.229
		c-38.119,6.825-76.563,13.699-115.036,12.601c30.092-59.286,65.194-114.663,104.585-165.385
		C187.249,470.128,194.174,468.705,201.146,467.654z"/>
	<path style="opacity:0.25;fill:#FFFFFF;" d="M602.263,1033.009c5.844-9.415,14.783-15.436,23.635-20.72
		c130.097-77.632,285.225-50.674,430.758-64.24c37.261-3.474,75.06-9.984,108.625-29.263c39.193-22.511,73.356-62.464,116.92-65.643
		c30.616-2.233,71.184,9.1,84.338-23.375c3.239-7.996,3.062-17.165,4.043-25.94c13.354-119.398,206.537-84.688,225.381-83.658
		c46.154,2.523,92.309,5.047,138.463,7.571c45.656,62.733,84.922,132.046,116.638,206.543c-43.397-0.476-86.797-0.805-130.191-1.289
		c-21.405-0.239-43.208-0.414-63.68,6.922c-27.905,10.001-51.266,33.226-79.093,43.524c-21.376,7.91-44.228,7.776-66.645,7.569
		c-81.098-0.747-162.195-1.495-243.294-2.244c-15.315-0.141-31.065-0.193-45.328,6.344c-14.003,6.417-25.389,18.643-38.039,28.167
		c-41.753,31.432-94.384,31.949-143.117,42.925c-15.468,3.483-32.501,9.638-39.908,25.927
		c-12.337,27.135,11.013,58.188,34.566,71.733c94.538,54.362,210.944,1.625,311.55,38.085c26.903,9.75,51.857,25.645,78.076,37.685
		c85.99,39.484,181.685,36.02,273.533,24.695c77.742-9.584,155.807-24.389,233.656-21.942c5.841,47.682,8.876,96.424,8.876,145.999
		c0,15.546-0.331,30.999-0.919,46.375c-43.434,1.146-86.867,2.29-130.302,3.437c-82.038,2.163-164.252,4.322-246.042-3.456
		c-45.823-4.356-92.017-12.012-134.516-32.56c-25.627-12.392-49.647-29.35-76.003-39.422
		c-46.345-17.712-96.381-12.987-145.066-15.85c-75.191-4.421-148.591-27.275-221.333-50.006
		c-112.075-35.021-388.21-87.452-395.294-220.177C591.738,1061.484,594.598,1045.358,602.263,1033.009z"/>
	<g>
		<path style="fill:#709CD1;" d="M1717.428,1856.003L1717.428,1856.003c-0.006,5.708-2.783,10.335-6.205,10.332l-1544.279-1.453
			c-3.42-0.003-6.189-4.636-6.184-10.344l0,0c0.005-5.71,2.783-10.336,6.204-10.333l1544.279,1.453
			C1714.663,1845.662,1717.433,1850.292,1717.428,1856.003z"/>
	</g>
	<g>
		<path style="fill:#F47458;" d="M1259.563,1846.175H631.278V901.833c0-11.928,9.67-21.598,21.598-21.598h585.089
			c11.929,0,21.598,9.67,21.598,21.598V1846.175z"/>
	</g>
	<path style="fill:#F7CC7F;" d="M854.771,894.761l-3.553,22.602H669.863l3.546-22.602h-18.77l-149.695,951.414h19.2l13.931-88.794
		h181.103l-13.958,88.794h18.676l149.55-951.414H854.771z M721.676,1741.488H540.568l29.831-190.139h181.165L721.676,1741.488z
		 M754.062,1535.457H572.892l29.83-190.14h181.227L754.062,1535.457z M786.448,1329.426H605.216l29.83-190.139h181.289
		L786.448,1329.426z M818.833,1123.395H637.539l29.83-190.14H848.72L818.833,1123.395z"/>
	<g>
		<path style="fill:#F7A491;" d="M402.277,785.164c-0.197-3.012,13.767-1.523,15.247-4.102c1.481-2.579-16.021-7.671-15.973-10.284
			c0.088-4.814,19.512,4.397,19.694,2.185c0.181-2.213-19.381-12.698-16.125-15.678c3.256-2.979,19.15,12.989,20.401,10.702
			c1.25-2.289-16.117-13.521-14.288-18.791c0.977-2.815,27.249,22.962,31.28,22.402c4.032-0.56,0.301-16.107,3.722-17.311
			c3.421-1.204,3.49,30.464,5.195,31.992c1.7,1.525,36.989,37.096,50.852,45.042c3.199-4.495,33.15-29.498,36.06-33.778
			c6.717,8.28,15.077,11.481,22.209,19.31c-10.612,13.949-51.427,49.514-56.335,50.274c-14.942,2.313-54.47-54.528-62.696-64.662
			c-8.234-10.142-14.761-9.407-21.059-13.636C414.164,784.6,402.473,788.174,402.277,785.164z"/>
		<path style="fill:#184655;" d="M718.719,750.618c-2.002-22.611-18.639-40.58-40.611-42.553
			c-3.541-12.138-12.105-22.793-23.051-28.517c-21.592-11.292-55.155-10.841-61.065,13.701
			c-13.438,13.857-20.261,37.108-10.082,53.313c-10.836,20.64,3.836,47.583,30.786,54.231c5.048,17.937,20.044,32.735,38.268,35.523
			c4.374,0.669,11.123,1.405,12.12,1.967c-1.276-0.62,22.086,30.368,56.946,2.361C757.602,812.066,751.569,763.839,718.719,750.618z
			"/>
		<g>
			<path style="fill:#F7A491;" d="M591.84,928.076c0.674,0.529-14.059,11.502-27.373,18.458c-11.492,8.327-23,18.771-29.583,31.813
				c-10.01,19.828-35.316,124.495-41.006,130.865c-39.765,21.896-83.717,92.351-96.574,113.999
				c-2.506,4.219-6.158,7.635-10.526,9.869l0,0l-5.953,26.844l11.567,18.629c0,0,2.528-22.521,13.874-36.593
				c0,0,111.854-97.401,119.059-105.22c16.138-23.481,85.582-147.462,85.582-147.462l16.036-28.478
				C626.943,960.8,591.897,928.121,591.84,928.076z"/>
			<path style="fill:#355389;" d="M367.39,1236.866c0,0,5.629,17.888,4.829,24.028c-0.799,6.141,6.554,38.224,16.48,40.978
				c1.33,0.369,3.076-9.173,3.863-23.115c-6.607-12.009-5.232-45.99-5.232-45.99S369.125,1232.263,367.39,1236.866z"/>
		</g>
		<path style="fill:#F79C8D;" d="M640.091,767.02c0,0,49.409-50.124,60.924-60.498c11.515-10.374,46.299-54.644,47.594-56.41
			c1.294-1.766-7.26-29.659-3.657-29.532c3.603,0.125,3.646,14.466,7.69,13.877c4.044-0.589,23.46-29.693,25.072-27.535
			c3.017,4.04-11.188,18.292-9.435,19.925c1.753,1.632,13.412-16.296,17.273-14.602c3.862,1.694-12.649,15.889-11.951,17.74
			c0.697,1.852,17.373-11.21,18.593-7.1c0.663,2.231-15.12,11.246-13.075,13.068c2.045,1.822,15.242-3.162,15.762-0.523
			c0.518,2.637-11.667,2.669-16.781,7.972c-5.113,5.303-11.62,6.403-17.218,17.296c-5.6,10.894-20.782,51.725-38.822,69.191
			c-18.04,17.467-57.794,56.172-57.794,56.172L640.091,767.02z"/>
		<path style="fill:#F7A491;" d="M602.671,978.214c0,0,52.64,112.552,52.976,132.342c0.288,16.963-9.201,112.132-6.552,191.386
			c0.096,2.862,3.719,6.665,8.995,9.083c2.968,1.359,17.302,7.764,17.302,7.764l1.97,5.127l-49.369-3.516l-0.704-13.476
			c0,0-19.648-118.56-17.646-152.09c0.315-5.269,2.875-36.803,2.875-36.803l-59.366-114.621l37.338-49.064L602.671,978.214z"/>
		<g>
			<path style="fill:#F47458;" d="M493.963,1090.724c0.003,0.021,0.01,0.021,0.021,0.002
				C493.982,1090.725,493.963,1090.724,493.963,1090.724z"/>
			<path style="fill:#3C8F7C;" d="M651.492,804.74c3.679-7.961,22.375-25.245,25.831-29.796c0,0-9.682-23.165-22.226-25.097
				c0,0-23.83,22.525-33.361,20.858c-9.53-1.666-42.56-9.31-49.245-7.427c-6.684,1.883-41.305,32.417-41.305,32.417
				s15.63,28.333,24.419,30.721c0,0,7.214-7.888,9.63-9.38c0.138,4.633-2.671,70.038-6.84,84.945l4.976,6.259
				c14.723,20.684,43.432,24.816,63.564,9.148l0,0c0,0,3.975-21.006,10.206-39.665C646.903,848.492,657.28,834.396,651.492,804.74z"
				/>
			<path style="fill:#355389;" d="M668.311,1081.241l-41.377-163.854c-6.832,0.782-13.235,1.336-20.151,0.781
				c-15.04-1.206-34.065-11.707-48.389-16.188c-0.15,0.539-0.31,1.004-0.477,1.39c-4.953,11.396-24.025,26.163-39.023,67.943
				c-18.666,52-27.613,110-27.66,115.004C559.653,1096.645,644.059,1095.736,668.311,1081.241z"/>
		</g>
		<path style="fill:#F7A491;" d="M611.602,742.068c0,0-1.734,19.829-4.499,27.072c-2.765,7.243-6.049,32.151,9.05,36.428
			c15.098,4.275,11.331-29.682,11.93-37.365c0.599-7.685,6.524-30.341,6.524-30.341L611.602,742.068z"/>
		<path style="fill:#F47458;" d="M631.778,749.27c1.478-6.238,2.83-11.407,2.83-11.407l-23.005,4.206c0,0-0.355,4.055-0.999,9.167
			C618.963,755.557,626.344,753.921,631.778,749.27z"/>
		<path style="fill:#F7A491;" d="M618.637,687.969c0,0-9.066,2.345-14.638,11.334c-5.572,8.989-9.327,35.134,9.164,46.828
			c18.492,11.692,32.784-5.868,32.964-22.648C646.31,706.701,642.76,684.401,618.637,687.969z"/>
		<path style="fill:#F7A491;" d="M650.333,718.126c-1.56,4.087-4.674,6.678-6.956,5.786c-2.282-0.891-2.866-4.927-1.306-9.014
			c1.56-4.087,4.675-6.679,6.956-5.787C651.31,710.003,651.894,714.038,650.333,718.126z"/>
		<path style="fill:#F7A491;" d="M603.784,722.627c1.353,4.328,0.143,8.653-2.702,9.66c-2.844,1.007-6.247-1.684-7.6-6.01
			c-1.353-4.327-0.143-8.651,2.702-9.659C599.029,715.609,602.432,718.3,603.784,722.627z"/>
		<path style="fill:#355389;" d="M627.827,1329.796h62.367c2.307-0.206,2.869-2.067,2.069-3.216
			c-1.647-2.362-8.922-4.097-17.101-7.861c-14.345,1.494-45.58-8.309-47.844-11.596
			C626.011,1313.706,626.544,1329.516,627.827,1329.796z"/>
		<path style="fill:#FFFFFF;" d="M617.773,731.006l13.953-0.218c0,0-0.239,5.401-6.372,5.678
			C617.875,736.803,617.773,731.006,617.773,731.006z"/>
	</g>
	<g>
		<rect x="937.061" y="579.023" style="fill:#E3AA5B;" width="16.72" height="121.365"/>
		<rect x="945.421" y="579.023" style="fill:#F0BB73;" width="8.303" height="121.365"/>
		<polygon style="fill:#FFBF66;" points="945.421,228.192 1016.596,372.407 1175.746,395.533 1060.584,507.789 1087.77,666.296 
			945.421,591.459 803.073,666.296 830.259,507.789 715.096,395.533 874.247,372.407 		"/>
		<g>
			<polygon style="fill:#4F4F4F;" points="945.421,228.192 945.421,447.244 1016.596,372.407 			"/>
			<polygon style="fill:#4F4F4F;" points="1175.746,395.533 945.421,447.244 1060.583,507.788 			"/>
			<polygon style="fill:#4F4F4F;" points="945.421,447.244 874.247,372.407 715.096,395.533 			"/>
			<polygon style="fill:#4F4F4F;" points="803.073,666.296 945.421,447.244 830.259,507.788 			"/>
			<polygon style="fill:#4F4F4F;" points="1087.77,666.296 945.421,447.244 945.421,591.458 			"/>
		</g>
		<rect x="819.573" y="750.612" style="fill:#BD6B4F;" width="251.697" height="109.488"/>
		<rect x="819.573" y="848.144" style="fill:#CDD6E0;" width="251.697" height="11.955"/>
		<rect x="819.573" y="747.544" style="fill:#CDD6E0;" width="251.697" height="11.956"/>
		<path style="fill:#FFBF66;" d="M1008.964,714.824h-31.239c-9.949-13.744-23.608-23.89-32.304-23.89l0,0
			c-10.537,0-23.462,9.717-32.832,23.89h-30.711c-5.219,0-9.449,4.23-9.449,9.449v22.485h145.984v-22.485
			C1018.413,719.054,1014.183,714.824,1008.964,714.824z"/>
		<path style="fill:#BD6B4F;" d="M1075.814,754.702H815.028c-6.603,0-11.956-5.353-11.956-11.956l0,0
			c0-6.602,5.353-11.956,11.956-11.956h260.786c6.603,0,11.955,5.353,11.955,11.956l0,0
			C1087.77,749.349,1082.417,754.702,1075.814,754.702z"/>
		<path style="fill:#BD6B4F;" d="M1075.814,880.235H815.028c-6.603,0-11.956-5.353-11.956-11.956l0,0
			c0-6.603,5.353-11.956,11.956-11.956h260.786c6.603,0,11.955,5.353,11.955,11.956l0,0
			C1087.77,874.883,1082.417,880.235,1075.814,880.235z"/>
	</g>
	<g>
		<path style="fill:#153D4A;" d="M1138.547,1269.612c15.049-9.655,44.07,0.73,48.049,42.934c4.15,44.017,21,66.566,34.5,77.566
			c-23.663,44.5-82.313,45.934-88.247,40C1068.122,1365.191,1116.498,1261.612,1138.547,1269.612z"/>
		<path style="fill:#966259;" d="M1318.223,1413.098c0.893-2.556-11.533-4.619-12.195-7.203c-0.661-2.585,15.689-2.786,16.274-5.057
			c1.079-4.183-17.921-0.881-17.546-2.837c0.374-1.956,19.799-6.326,17.699-9.683c-2.1-3.356-19.67,6.633-20.201,4.356
			c-0.532-2.278,17.174-7.82,16.857-12.814c-0.17-2.668-29.063,13.31-32.412,11.858c-3.352-1.451,3.604-13.994,0.935-15.855
			c-2.668-1.861-10.325,25.494-12.166,26.406c-1.834,0.91-40.872,23.189-54.76,26.731c-1.688-4.652-21.577-33.45-23.064-37.849
			c-7.793,5.546-15.787,6.307-23.83,11.362c5.826,14.603,32.572,55.137,36.631,56.971c12.361,5.584,60.164-34.063,69.706-40.848
			c9.551-6.791,15.017-4.59,21.474-6.734C1308.084,1409.758,1317.331,1415.652,1318.223,1413.098z"/>
		<g>
			<path style="fill:#966259;" d="M1120.083,1491.144c-0.71,0.295,9.392,13.314,19.231,22.521
				c7.936,9.955,15.377,21.743,17.938,34.596c3.895,19.54,0.655,116.082,4.045,122.953c29.118,28.467,50.204,99.91,56.122,121.707
				c1.154,4.248,3.491,8.076,6.73,11.056l0,0l-1.295,24.631l-14.468,13.327c0,0,3.218-20.072-3.212-34.958
				c0,0-73.313-111.027-77.665-119.514c-8.315-24.168-38.593-147.994-38.593-147.994l-7.027-28.463
				C1081.891,1511.006,1120.023,1491.168,1120.083,1491.144z"/>
			<path style="fill:#355389;" d="M1240,1811.901c0,0-9.156,14.11-9.939,19.61c-0.782,5.499-5.659,17.974-11.054,18.762
				c-1.226,0.179-22.204,1.719-22.052-0.903c0.116-2.004,7.711-4.864,11.236-7.3c6.096-4.21,15.557-38.496,15.557-38.496
				S1239.605,1807.506,1240,1811.901z"/>
		</g>
		<path style="fill:#966259;" d="M1117.02,1340.355c0,0-30.681-55.18-38.145-66.909c-7.465-11.729-26.908-58.341-27.604-60.178
			c-0.695-1.837,13.391-23.894,10.246-24.649c-3.144-0.756-6.623,11.629-9.976,10.149c-3.354-1.479-13.154-31.294-15.065-29.815
			c-3.578,2.767,5.281,18.495,3.375,19.486c-1.908,0.99-7.684-17.304-11.428-16.766c-3.744,0.538,7.121,16.768,6.073,18.201
			c-1.046,1.434-12.327-13.858-14.367-10.598c-1.108,1.77,10.371,13.349,8.167,14.433c-2.205,1.084-12.416-6.39-13.498-4.234
			c-1.082,2.155,9.443,5.107,12.592,10.917c3.146,5.811,8.507,8.322,10.732,19.081c2.227,10.76,5.553,49.695,16.955,69.121
			c11.402,19.426,36.477,62.419,36.477,62.419L1117.02,1340.355z"/>
		<path style="fill:#966259;" d="M1057.422,1533.929c0,0-47.221,100.964-47.521,118.716c-0.258,15.217,8.254,100.587,5.877,171.682
			c-0.086,2.567-3.336,5.979-8.068,8.148c-2.662,1.22-15.521,6.964-15.521,6.964l-1.767,4.6l44.286-3.154l0.631-12.089
			c0,0,17.625-106.353,15.829-136.431c-0.282-4.726-2.579-33.014-2.579-33.014l53.254-102.819l-33.494-44.013L1057.422,1533.929z"/>
		<g>
			<path style="fill:#F47458;" d="M1165.66,1655.213c-0.009,0.018-0.015,0.016-0.019-0.004
				C1165.644,1655.209,1165.66,1655.213,1165.66,1655.213z"/>
			<path style="fill:#F7CC7F;" d="M1098.115,1370.225c-1.27-7.764-13.283-27.189-15.179-31.952c0,0,13.927-17.7,25.232-16.36
				c0,0,15.193,25.188,23.831,26.034s39.021,2.164,44.348,5.396s27.926,37.93,27.926,37.93s-20.309,20.739-28.479,20.695
				c0,0-4.344-8.549-6.073-10.419c-1.231,3.972,10.374,114.064,13.874,253.661c0,0-116.5,8.403-185.5-44.097
				C1018.93,1546.141,1085.996,1394.469,1098.115,1370.225z"/>
		</g>
		<path style="fill:#966259;" d="M1147.631,1325.624c0,0-3.26,17.556-2.607,24.479c0.652,6.925-2.485,29.242-16.562,29.315
			s-2.673-28.374-1.347-35.159c1.326-6.786,1.64-27.791,1.64-27.791L1147.631,1325.624z"/>
		<path style="fill:#7A433A;" d="M1128.464,1327.008c0.22-5.746,0.291-10.539,0.291-10.539l18.876,9.155c0,0-0.667,3.59-1.336,8.163
			C1138.032,1335.517,1132.045,1332.332,1128.464,1327.008z"/>
		<path style="fill:#966259;" d="M1154.529,1277.175c0,0,7.274,4.202,9.934,13.309c2.659,9.108-0.367,32.606-19.156,38.277
			c-18.79,5.67-26.93-12.938-23.06-27.485C1126.117,1286.727,1134.535,1268.304,1154.529,1277.175z"/>
		<path style="fill:#966259;" d="M1119.897,1295.637c0.368,3.907,2.438,6.894,4.624,6.67c2.186-0.223,3.66-3.571,3.291-7.478
			c-0.367-3.907-2.438-6.895-4.623-6.671C1121.003,1288.381,1119.529,1291.729,1119.897,1295.637z"/>
		<path style="fill:#966259;" d="M1159.053,1310.695c-2.207,3.416-2.199,7.444,0.018,8.998c2.217,1.553,5.804,0.043,8.012-3.372
			c2.206-3.415,2.199-7.443-0.019-8.997C1164.847,1305.771,1161.26,1307.28,1159.053,1310.695z"/>
		<path style="fill:#355389;" d="M1034.856,1849.313H978.91c-2.069-0.184-2.573-1.854-1.856-2.885
			c1.477-2.119,8.004-3.675,15.34-7.052c12.868,1.34,40.887-7.453,42.919-10.402
			C1036.484,1834.879,1036.006,1849.061,1034.856,1849.313z"/>
		<path style="fill:#FFFFFF;" d="M1144.951,1314.582l-12.008-3.536c0,0-1.09,4.726,4.145,6.437
			C1143.472,1319.568,1144.951,1314.582,1144.951,1314.582z"/>
	</g>
	<g>
		<g>
			<path style="fill:#F8A492;" d="M1606.08,1419.649c-0.643,2.219-1.015,2.954-1.833,4.445c-5.28,9.61-17.532,23.323-17.532,23.323
				l-9.477-21.351c0,0,1.545-6.705,4.225-16.289C1590.616,1412.167,1599.334,1413.551,1606.08,1419.649z"/>
			<path style="fill:#466EB6;" d="M1551.745,1401.127c0,0,52.858,22.764,54.567,22.328c1.101-0.279,21.682-34.729,21.9-67.125
				c0.103-14.962-15.436-32.96-32.773-29.4c-8.728,1.793-8.593,4.221-21.506,22.983
				C1561.021,1368.678,1551.745,1401.127,1551.745,1401.127z"/>
			<path style="fill:#F7A491;" d="M1506.623,1809.233c0,0,1.254,20.76,1.262,20.803c0.461,2.636,2.276,9.148,2.276,11.543
				c0,9.001-42.742-7.641-33.163-11.629c0.867-0.361,5.409-3.092,5.694-6.156c0.438-4.721,1.554-14.269,1.554-14.269
				L1506.623,1809.233z"/>
			<path style="fill:#3C8F7C;" d="M1477.104,1829.863c0,0,10.035,2.754,15.175,3.441c5.14,0.689,11.916-5.107,15.551-3.542
				c4.002,1.724,3.845,17.234,3.845,17.234s-53.815,4.416-68.946-0.151C1436.733,1845.035,1456.588,1836.277,1477.104,1829.863z"/>
			<path style="fill:#F7A491;" d="M1594.059,1809.233c0,0,1.254,20.76,1.262,20.803c0.461,2.636,2.276,9.148,2.276,11.543
				c0,9.001-42.743-7.641-33.164-11.629c0.867-0.361,6.757-5.132,7.042-8.194c0.439-4.721,0.207-12.231,0.207-12.231
				L1594.059,1809.233z"/>
			<path style="fill:#3C8F7C;" d="M1564.54,1829.863c0,0,10.035,2.754,15.175,3.441c5.14,0.689,11.914-5.107,15.551-3.542
				c4.001,1.724,4.161,17.234,4.161,17.234s-54.058,5.148-69.263-0.151C1524.261,1844.787,1544.025,1836.277,1564.54,1829.863z"/>
			<g>
				<path style="fill:#F7A491;" d="M1590.092,1293.059l4.846,30.647c0,0-18.465,14.827-29.229,11.7
					c-9.031-2.625-2.838-14.432-2.838-14.432s4.812-16.361,3.335-24.937S1590.092,1293.059,1590.092,1293.059z"/>
				<path style="fill:#FE875E;" d="M1586.612,1302.324c-4.628,2.186-13.778,5.168-20.899,5.891c0.683-4.289,1.07-8.826,0.493-12.177
					c-0.682-3.958,4.354-4.893,9.974-4.759c7.355,0.631,13.911,1.779,13.911,1.779l0.932,5.891
					C1589.625,1300.424,1588.154,1301.598,1586.612,1302.324z"/>
				<path style="fill:#F7A491;" d="M1613.395,1257.708c0.762,0.005-7.299,34.239-19.773,40.129c-12.476,5.89-31.08,2.819-34.572-6.4
					c-3.86-10.199,10.225-45.128,27.771-49.567C1604.365,1237.434,1613.395,1257.708,1613.395,1257.708z"/>
				<path style="fill:#13375B;" d="M1598.959,1226.251c9.965,5.747,14.538,14.271,16.077,17.762
					c4.677,2.22,10.336,7.021,13.052,19.955c3.341,15.903-8.534,28.163-21.125,31.852c-12.59,3.686-14.534,12.017-14.534,12.017
					l-1.428-8.966c0,0,2.801-7.805,7.012-11.713c4.212-3.907-1.995-9.6-2.54-14.245c-0.421-3.576,2.213-10.518,1.643-16.388
					c0,0-6.996-10.601-13.893-13.222C1571.467,1238.838,1586.174,1218.877,1598.959,1226.251z"/>
				<path style="fill:#F7A491;" d="M1593.656,1278.874c-1.631,3.954-0.965,7.88,1.488,8.768c2.452,0.889,5.763-1.597,7.394-5.551
					c1.63-3.954,0.964-7.879-1.489-8.768C1598.597,1272.435,1595.286,1274.921,1593.656,1278.874z"/>
			</g>
			<path style="fill:#F8A492;" d="M1547.187,1431.999l-72.613-11.839c0,0,8.262-20.799,11.214-20.799
				c2.951,0,54.905,22.68,54.905,22.68l4.133,8.299L1547.187,1431.999z"/>
			<path style="fill:#184655;" d="M1584.381,1481.786c0,0,7.244,35.018,4.291,61.571c-2.951,26.553-3.184,120.877-3.184,120.877
				l11.265,150.92l-26.728,0.582c0,0-31.694-150.846-31.104-146.975c0.59,3.873-10.627-106.211-10.627-106.211l37.784-84.084
				L1584.381,1481.786z"/>
			<path style="fill:#13375B;" d="M1577.296,1480.127c0,0,4.724,31.531-1.181,45.36c-5.903,13.829-50.638,149.524-51.228,160.587
				c-0.591,11.063-15.467,133.351-15.467,133.351l-31.079-0.874l-6.725-135.959l14.079-170.879l13.67-43.203L1577.296,1480.127z"/>
			<path style="fill:#F7A491;" d="M1594.938,1323.706c0,0-7.663,5.029-14.812,4.447c-7.148-0.582-17.255-7.179-17.255-7.179
				l1.404-4.762c0,0,18.492-2.692,18.958-2.402C1583.7,1314.103,1594.938,1323.706,1594.938,1323.706z"/>
			<path style="fill:#F8A492;" d="M1513.254,1398.334c0,0-27.467,25.92-39.865,21.495c-12.397-4.426-17.528-19.554,12.723-41.684
				C1513.184,1358.337,1513.254,1398.334,1513.254,1398.334z"/>
			<path style="fill:#50BFA5;" d="M1494.642,1430.34c4.08-22.199,33.652-91.275,36.014-104c1.148-6.186,17.099-6.324,32.292-5.516
				c16.048,0.854,31.989,2.882,31.989,2.882s14.207,2.335,20.458,8.19c6.25,5.857,7.911,22.055-1.075,52.803
				c-7.093,24.273-15.885,37.6-20.237,55.279c-0.881,5.932-1.636,11.781-2.637,18.617c-1.6,26.436,0.019,61.359,0.019,61.359
				s-77.34,16.042-106.269-8.297C1485.196,1511.658,1490.462,1453.082,1494.642,1430.34z"/>
			<path style="fill:#466EB6;" d="M1474.922,1382.609c0,0,30.348,25.049,32.119,25.049c1.141,0,43.306-31.017,53.039-56.5
				c5.381-14.087-5.905-29.848-18.797-29.797c-8.936,0.037-12.908,2.339-30.619,17.274
				C1492.952,1353.572,1474.922,1382.609,1474.922,1382.609z"/>
		</g>
		<path style="fill:#FFFFFF;" d="M1561.215,1276.629l11.387,6.242c0,0-2.983,4.789-8.082,2.209
			C1558.304,1281.934,1561.215,1276.629,1561.215,1276.629z"/>
	</g>
</g>
</svg>
