<?xml version="1.0" encoding="utf-8"?>
<!-- Generator: Adobe Illustrator 24.3.0, SVG Export Plug-In . SVG Version: 6.00 Build 0)  -->
<svg version="1.1" id="Layer_1" xmlns="http://www.w3.org/2000/svg" xmlns:xlink="http://www.w3.org/1999/xlink" x="0px" y="0px"
	 viewBox="0 0 500 500" style="enable-background:new 0 0 500 500;" xml:space="preserve">
<style type="text/css">
	.st0{fill:#FFFFFF;}
	.st1{fill:#BBE2F2;}
	.st2{fill:#1C31B5;}
	.st3{fill:#009CF8;}
	.st4{fill:#006BDE;}
	.st5{fill:#18315B;}
	.st6{fill:#000B29;}
	.st7{fill:#F97853;}
	.st8{fill:#EA5143;}
	.st9{fill:#FFA681;}
	.st10{fill:#264CBE;}
	.st11{fill:#E3E3E3;}
	.st12{fill:#1D567E;}
</style>
<g id="BACKGROUND">
	<rect x="668.1" y="484.2" class="st0" width="500" height="500"/>
</g>
<g id="OBJECTS">
	<path class="st1" d="M216.8,158.1c-15.6-56.7-86-75-126.4-32.6c-0.6,0.6-1.2,1.2-1.7,1.9c-57.8,62.9-30.5,217.9,90.2,257.2
		s246.3-32.5,253.4-96.6s-48.6-84.3-135.1-66.4C248.3,231.8,226.5,193.4,216.8,158.1z"/>
	<path class="st1" d="M317.2,167.8c-16.1,2.6-20.6,16.9-8.1,27.1c4.1,3.4,10,6.1,18.4,7.5c32,5.3,48.9-8.8,36.1-27.2
		C355.7,164,333.2,165.2,317.2,167.8z"/>
	<path class="st1" d="M59.6,282.3c-10-12.9-24.8-10-27.7,5.8c-1,5.2-0.6,11.7,2.2,19.8c10.6,30.6,31.2,38.7,41.1,18.7
		C81.4,314.2,69.6,295.1,59.6,282.3z"/>
	<path class="st1" d="M443.7,295.4c-1.5,7.8,4.9,13.3,12.2,10.3c2.9-1.3,5.4-3.5,7-6.3c8.2-12.8,4.1-23.8-7.4-22.7
		C448.4,277.5,445.1,287.7,443.7,295.4z"/>
	<path class="st1" d="M402.8,213.2c7.8,1.6,13.4-4.7,10.5-12c-1.3-3-3.4-5.4-6.1-7.1c-12.7-8.4-23.7-4.5-22.8,7
		C385,208.1,395.1,211.6,402.8,213.2z"/>
	<path class="st1" d="M214.1,129.8c6.1,5,14.1,2,14.9-5.9c0.2-3.2-0.5-6.4-2.2-9.1c-7.4-13.3-19-14.9-23.5-4.3
		C200.6,117.1,208,124.9,214.1,129.8z"/>
	<path class="st2" d="M462.9,334.4c12.3-12.4,21.7-26.4,12.4-28.6s-25.1,22.2-27.8,44.4l-2.7,7.3c2.3-16.2-3.3-35.8-11.4-36.6
		s-3.2,12,3.2,22.9c4.9,8.3,6.1,14.9,6.5,18.2l-12.9,34.6c3.5-25.6-5.2-56.6-18.1-57.9s-5,19,5.1,36.3c7.7,13.1,9.7,23.4,10.3,28.9
		l-2.6,6.9c1.1,0.6,2.3,1.3,3.4,1.9l15.4-41.2c4.2-3.1,8.9-5.5,13.9-7.1c12-4,24-10.5,17.4-15.2c-5.7-4-19.2,3.8-28.5,14.8l5.3-14.3
		C454.2,345.6,457.6,339.7,462.9,334.4z"/>
	<path class="st2" d="M74.3,172.7c1.6-15,0.4-29.4-7.1-25.9s-4.8,28.4,5.3,44.8l2.1,6.4c-7.2-12-21.5-22.3-27.4-18.5
		s4.3,9.7,14.5,13.6c7.8,3,12.2,6.7,14.2,8.8l10,30.2C74.4,213.1,51.8,197,42.5,203s6.8,15.5,23,21.6c12.2,4.7,19.2,10.5,22.4,13.9
		l2,6c1.1-0.2,2.2-0.4,3.3-0.6L81.3,208c1.2-4.3,3-8.5,5.5-12.2c5.9-9.2,10.5-20,3.5-19.6c-6,0.4-10.9,12.9-11.2,25.3L75.1,189
		C74.1,183.6,73.8,178.1,74.3,172.7z"/>
	<path class="st3" d="M379.7,375.6c0.2,0.9,0.3,1.8,0.5,2.8l0,0c2.2,10.3,7.7,27.2,19.9,30.5c0,0-6.7-34.8,17.1-43.9
		s21.2-17.7,19.8-33.1s-6.6-18.3,9.9-32.7s13.4-35.8,13.4-35.8s-15.6,24.5-32.3,25s-19.6,14.8-18.9,25.4s-13.4,11.8-21.1,17.9
		s-9.1,38.4-9.1,38.4S379.1,372.3,379.7,375.6z"/>
	<path class="st4" d="M379.7,375.6c0.2,0.9,0.3,1.8,0.5,2.8c1.5-4.6,3.7-8.9,6.4-12.9c5.3-7.9,12.9-14.4,19.6-17
		c10.8-4.1,16-14.6,17-34.2c0.6-11.4,12.5-18.1,12.6-18.2c0.3-0.2,0.5-0.6,0.3-1s-0.6-0.5-1-0.3c-0.5,0.3-12.7,7.2-13.4,19.4
		c-1,19-6,29.1-16.1,33c-7.1,2.7-14.7,9.2-20.3,17.5C383.1,368.1,381.2,371.7,379.7,375.6z"/>
	<path class="st4" d="M116.4,408.7h16.7c-9-1.5-31.4-11.1-33.4-30.4c-2.5-24.4-11.2-24.1-25.9-26.7s-18.7,1.6-28-17.3
		s-30.1-21.4-30.1-21.4s18.9,20.6,15.3,36.3s8.9,22,19,23.9s7.6,15.5,11.5,24.1c1.7,4,8.9,8.1,16.1,11.4L116.4,408.7z"/>
	<path class="st2" d="M80.2,384.6c0.7,7.3,4.9,16,11.2,23.3l0.7,0.8H94c-0.6-0.6-1.1-1.1-1.5-1.7c-6-6.9-10.2-15.6-10.9-22.5
		c-1.1-11-9.6-18.5-27.7-24.4c-10.5-3.4-13.8-16.1-13.8-16.3c-0.1-0.4-0.5-0.6-0.8-0.5c0,0,0,0,0,0c-0.4,0.1-0.6,0.5-0.5,0.8
		c0.1,0.6,3.5,13.6,14.7,17.3C70.9,367.1,79.1,374.2,80.2,384.6z"/>
	<path class="st3" d="M125.4,363.4c-0.3,1.2-0.8,2.5-1.2,3.9l0,0c-4.8,14.4-14.5,38.6-32.5,41.5c0,0,14.2-49.6-18.3-66.2
		S45.9,314,50.2,292.3s12.2-25.1-9.1-48.1S27.6,191,27.6,191s18.5,37.3,42.2,40.7s25.7,24.1,23,39.1c-2.6,15,17.4,18.9,27.4,28.8
		s7.1,56.2,7.1,56.2S126.7,358.8,125.4,363.4z"/>
	<path class="st4" d="M125.4,363.4c-0.3,1.2-0.8,2.5-1.2,3.9c-1.5-6.7-3.9-13.2-7.1-19.3c-6.4-12.1-16.1-22.5-25.4-27.2
		c-14.7-7.4-20.6-23.3-19-51.5c0.9-16.3-15-27.8-15.2-27.9c-0.5-0.3-0.6-0.9-0.3-1.4c0,0,0,0,0-0.1c0.3-0.5,0.9-0.6,1.4-0.3
		c0,0,0,0,0.1,0c0.7,0.5,17.1,12.2,16.1,29.7c-1.5,27.2,4,42.5,17.9,49.5c9.8,4.9,19.6,15.4,26.3,28.1
		C121.7,352.1,123.9,357.7,125.4,363.4z"/>
	<path class="st5" d="M138.3,397c0.1,3.8,0.1,7.7,0.2,11.7h36.4c0.1-4.3,0.1-8.5,0.2-12.4c0.1-10.6,0.1-19.3,0.1-24.7c0-3.8,0-6,0-6
		l-37.1-0.4c0,0,0,3.2,0,8.5C138.1,379.4,138.1,387.8,138.3,397z"/>
	<path class="st6" d="M138.1,373.6c0,5.8,0.1,14.1,0.2,23.4c12.2,1,24.5,0.7,36.7-0.8c0.1-10.6,0.1-19.3,0.1-24.7L138.1,373.6z"/>
	<path class="st5" d="M92.5,388.7c0,5.9,0.1,12.7,0.2,20h36.4c0.1-4.3,0.2-8.5,0.2-12.5c0.1-8.7,0.2-16.5,0.2-22.1s0-8.9,0-8.9
		l-37.1,0.4c0,0,0,3.9,0,10.5C92.4,379.6,92.4,383.8,92.5,388.7z"/>
	<path class="st6" d="M92.4,376.1c0,3.5,0,7.7,0,12.6c12,3.5,24.4,6,36.8,7.5c0.1-8.7,0.2-16.5,0.2-22.1L92.4,376.1z"/>
	<path class="st5" d="M153.4,170.1c0,0,5.8-5.6,5.8-11.2s-3.8-3.9-5.8-9.1s-8.1-8.3-11.4-7.7s-10.3-12.2-19.7-10
		s-8.6,14.4-12.7,16.2s-2.9,9-0.8,10.6s3,8.2,4.3,8.1S153.4,170.1,153.4,170.1z"/>
	<path class="st7" d="M114,170c0,0-3.7-4.9-6.4-0.9s1.1,16,7.8,13.1L114,170z"/>
	<path class="st8" d="M114,178.5c-0.3,0-0.5-0.2-0.5-0.4c-1-3.7-4.9-5.2-4.9-5.2c-0.3-0.1-0.5-0.4-0.4-0.7c0.1-0.3,0.4-0.5,0.7-0.4
		c0,0,0.1,0,0.1,0c2.7,1.1,4.7,3.3,5.6,6c0.1,0.3-0.1,0.6-0.4,0.7c0,0,0,0,0,0C114.1,178.5,114.1,178.5,114,178.5z"/>
	<path class="st8" d="M110.1,176.6c-0.1,0-0.2,0-0.3-0.1c-0.3-0.2-0.3-0.5-0.2-0.8c0,0,0,0,0,0c0.5-0.7,1.3-1.3,2.1-1.7
		c0.3-0.1,0.6,0,0.8,0.3c0.1,0.3,0,0.6-0.3,0.7c0,0,0,0,0,0c-0.6,0.3-1.2,0.7-1.6,1.3C110.5,176.5,110.3,176.6,110.1,176.6z"/>
	<path class="st7" d="M151.9,170c0,0,3.7-4.9,6.4-0.9s-1.1,16-7.8,13.1L151.9,170z"/>
	<path class="st8" d="M152,178.5c0.3,0,0.5-0.2,0.5-0.4c1-3.7,4.9-5.2,4.9-5.2c0.3-0.1,0.4-0.5,0.2-0.8c-0.1-0.2-0.4-0.4-0.6-0.3
		c-2.7,1.1-4.7,3.3-5.6,6c-0.1,0.3,0.1,0.6,0.4,0.7c0,0,0,0,0,0C151.9,178.5,151.9,178.5,152,178.5z"/>
	<path class="st8" d="M155.8,176.6c0.1,0,0.2,0,0.3-0.1c0.3-0.2,0.3-0.5,0.2-0.8c0,0,0,0,0,0c-0.5-0.7-1.3-1.3-2.1-1.7
		c-0.3-0.1-0.6,0-0.8,0.3c-0.1,0.3,0,0.6,0.3,0.7c0,0,0,0,0,0c0.6,0.3,1.2,0.7,1.6,1.3C155.4,176.5,155.6,176.6,155.8,176.6z"/>
	<path class="st9" d="M142,192.3v11.9c0,0-3.6,6.1-8.3,6.5s-9-5.2-9-5.2v-12.3L142,192.3z"/>
	<path class="st7" d="M142,192.3v5.3c-3.2,3.6-8.9,4.5-17.4,3.2v-7.6L142,192.3z"/>
	<path class="st9" d="M154.6,161.8c-0.2,5-0.7,10-1.5,15c-0.2,1.2-0.5,2.2-0.7,3.2c-2.5,8.8-8.8,23.8-26.3,17.5
		c-7.7-2.8-11.3-11.4-12.9-20.2c-0.9-5.4-1.3-10.8-1.2-16.3c0.1-4.4,2.5-8.4,6.3-10.6c10.3-5.9,21.3-3.7,28.5-0.9
		C151.6,151.5,154.8,156.4,154.6,161.8z"/>
	<path class="st5" d="M113,177.4c0,0,1.7,10.1,3.3,13.8s6,4.4,7.7,7.5c2.3,4.5,5.9,8,11.8,5.8c4.9-1.8,4.7-4.3,7.4-6.2
		c4.7-3.3,7-7,7.2-10s2.6-11.5,2.6-11.5l-2.5-0.2c-1.1,2.2-2.3,4.2-3.6,6.3c-2.1-4.7-12.4-1.3-12.4-1.3l-1.9,0.6l-2-0.6
		c0,0-10.4-3.2-12.4,1.6c-1.3-1.9-2.2-4.1-2.7-6.4L113,177.4z M132.6,183.8c11.7-2,9.6,4.9,9.6,5.1l0,0c-0.7,0.7-1.5,1.3-2.4,1.8
		c-4.6,2.5-5,2.1-6.8,2.2c-2.4,0-4.8-0.6-6.9-1.9c-1.2-0.7-2.3-1.6-3.3-2.5C122.7,188.6,120.9,182.3,132.6,183.8L132.6,183.8z"/>
	<path class="st5" d="M125.6,171.5c0,1.3-0.7,2.3-1.5,2.3s-1.5-1-1.5-2.3s0.7-2.3,1.5-2.3S125.6,170.2,125.6,171.5z"/>
	<path class="st5" d="M142.9,171.5c0,1.3-0.7,2.3-1.5,2.3s-1.5-1-1.5-2.3s0.6-2.3,1.5-2.3S142.9,170.2,142.9,171.5z"/>
	<path class="st5" d="M147.2,163.9c0,0-6-2.4-10.7-0.4l0.5,2.6c0,0,6.8-0.6,10.3,0.8C147.6,166,147.6,164.9,147.2,163.9z"/>
	<path class="st5" d="M118.5,163.9c0,0,6.1-2.4,10.8-0.4l-0.5,2.6c0,0-6.9-0.6-10.3,0.8C118.1,166,118.1,164.9,118.5,163.9z"/>
	<path class="st7" d="M133.2,181.1c0.7,0,1.4-0.2,2-0.4c0.3-0.1,0.4-0.5,0.3-0.7c-0.1-0.3-0.4-0.4-0.7-0.3c0,0,0,0,0,0
		c-0.7,0.3-1.5,0.4-2.3,0.2c-0.2-0.1-0.3-0.3-0.3-0.5c-0.2-2,0.3-8.6,0.3-8.7c0-0.3-0.2-0.6-0.5-0.6s-0.6,0.2-0.6,0.5l0,0
		c-0.3,2.9-0.4,5.9-0.3,8.9c0,0.6,0.3,1.1,0.8,1.4C132.3,181.1,132.7,181.2,133.2,181.1z"/>
	<path class="st0" d="M126,185c0.4,2.2,1.9,6.1,6.7,6.1s6.2-3.6,6.6-6.1H126z"/>
	<path class="st5" d="M154.6,161.8c-0.2,5-0.7,10-1.5,15l-2.5-0.2c0,0,0.6-3.9,0.9-6.4s0.8-7.3-1.4-7.9s-0.9-6-3.9-8.4
		s-9.7-4.4-14.1-1.7s-9.5,1.2-11.5,1.7s-4.8,3.3-4.1,5.9s-1.5,4.2-2,7s1.2,10.1,1.2,10.1l-2.4,0.5c-0.9-5.4-1.3-10.8-1.2-16.3
		c0.1-4.4,2.5-8.4,6.3-10.6c10.3-5.9,21.3-3.7,28.5-0.9C151.6,151.6,154.8,156.5,154.6,161.8z"/>
	<path class="st4" d="M182.8,383.4c-11.3,2.9-22.7,4.8-34.3,5.6l-1.6,0.1c-1.6,0.1-3.1,0.2-4.7,0.3c-7.8,0.3-15.6,0.2-23.3-0.4
		c-1.6-0.1-3.1-0.3-4.7-0.4l-1.5-0.2c-9.4-1-18.7-2.7-27.9-5c-0.1-8.6,0-35.7,0.5-65c0.1-3.5,0.1-7.1,0.2-10.7
		c0.8-38.7,2.4-78,5.3-82c2.8-3.8,11-8.6,18.9-12.9l1.4-0.8l5.2-2.8c3.5-1.9,6.5-3.6,8.4-4.9v1.1c0,0,4.2,5.6,9,5.2
		c4.4-0.4,7.7-5.4,8.3-6.3c3.2,2.1,6.6,4,10,5.7l3.7,2l1.4,0.7c8.7,4.6,18.2,9.9,21,13.7c0.3,0.4,0.5,0.9,0.6,1.4
		c1.7,5.7,2.7,24.5,3.4,47.2v0.2c0,0.9,0.1,1.9,0.1,2.8c0,0.1,0,0.2,0,0.4c0.2,8,0.4,16.4,0.5,24.9v2c0,0.3,0,0.7,0,1
		c0,1.7,0,3.3,0.1,5c0,1.2,0,2.4,0,3.7C183,345.6,182.9,374.5,182.8,383.4z"/>
	<path class="st10" d="M182.1,278.2c-2.8-4.5-5.7-9.1-8.5-13.1l0,0c-1.2-1.7-2.3-3.3-3.4-4.8l-0.1-0.1l-1-1.4
		c-0.1-0.1-0.1-0.1-0.1-0.2l0,0c-0.1-0.4,0.1-0.8,0.5-0.9c0.3-0.1,0.6,0,0.8,0.3c3.3,4.4,7.6,10.8,11.7,17.3c0,0.1,0,0.2,0,0.2
		C182,276.4,182.1,277.3,182.1,278.2z"/>
	<path class="st4" d="M178.2,225.9c0,0,17.2,31.6,27.8,47.6c0,0,6-5.5,13.8-12.8c8.4-8,20-21.3,20-21.3l6.3,7.6
		c0,0-25.9,46.6-37.5,52.5s-33-35.6-33-35.6L178.2,225.9z"/>
	<path class="st10" d="M105.2,350.4L105.2,350.4c-0.4,0-0.8-0.4-0.8-0.8c0.9-25.5-12.3-33.8-12.5-33.9c-0.4-0.2-0.5-0.7-0.3-1.1
		s0.7-0.5,1.1-0.3c0.2,0.1,3.7,2.2,7,7.7c3.1,5,6.7,13.8,6.2,27.6C105.9,350.1,105.6,350.4,105.2,350.4z"/>
	<path class="st10" d="M161.6,326.4c-0.4,0-0.7-0.3-0.8-0.7c-0.4-5.4,1.4-9.3,3.6-14.2c0.6-1.5,1.3-3,2-4.6
		c4.4-10.5,2.2-22.6,2.1-22.7c-0.1-0.4,0.1-0.8,0.6-1c0.4-0.1,0.8,0.1,1,0.6c0,0,0,0.1,0,0.1c0.1,0.5,2.3,12.6-2.2,23.6
		c-0.7,1.7-1.4,3.2-2,4.7c-2.2,4.9-3.9,8.5-3.5,13.5C162.4,326,162.1,326.4,161.6,326.4C161.7,326.4,161.7,326.4,161.6,326.4
		L161.6,326.4z"/>
	<path class="st0" d="M116.2,209.3c0.3,2.5,0.8,5.8,1.4,9.5c0.2,1.1,0.3,2.2,0.5,3.4c0.5,3.8,1.1,8,1.6,12.2
		c0.1,1.1,0.3,2.3,0.4,3.4c0.4,4.2,0.7,8.3,0.9,12.1c0,1.2,0.1,2.3,0,3.4c0,2.7-0.2,5.3-0.5,7.9c-0.2,1.5-0.4,2.9-0.6,4.3
		c-0.2,1.2-0.3,2.3-0.4,3.4c-0.4,4.3-0.7,8.4-0.7,12.2c0,1.2,0,2.3,0,3.4c0,4.3,0.3,8.4,0.6,12.2c0.1,1.1,0.2,2.3,0.3,3.4
		c0.5,4.2,1,8.2,1.6,12.1c0.2,1.1,0.3,2.2,0.5,3.4c0.2,1.8,0.4,3.6,0.6,5.4s0.3,4.2,0.4,6.7c0,1.1,0,2.2,0,3.4
		c0,3.7-0.1,7.9-0.3,12.2c0,1.1-0.1,2.3-0.2,3.4c-0.2,4-0.4,8.1-0.7,12.2c-0.1,1.1-0.2,2.3-0.2,3.4c-0.3,4.2-0.7,8.4-1,12.2
		c-0.1,1.2-0.2,2.3-0.3,3.4c-0.4,4.2-0.8,8-1.1,11c7.8,0.6,15.6,0.7,23.4,0.4c0.2-3.2,0.7-8.4,1.2-14.4c0.1-1.1,0.2-2.3,0.3-3.4
		c0.3-3.9,0.6-8,0.7-12.1c0-1.1,0.1-2.3,0.1-3.4c0.1-4.2,0.1-8.3-0.1-12.1c-0.1-1.2-0.1-2.3-0.2-3.4s-0.2-2.3-0.3-3.3
		c-0.4-2.9-0.5-5.9-0.5-8.9c0-1.1,0-2.3,0.1-3.4c0.2-4,0.6-7.9,1.1-12.1c0.1-1.1,0.3-2.2,0.4-3.4c0.4-3.7,0.9-7.7,1.3-12.1
		c0.1-1.1,0.2-2.3,0.3-3.4c0.3-3.7,0.4-7.7,0.5-12.1c0-1.1,0-2.3,0-3.5c0-3.8-0.2-7.8-0.5-12.2c0-0.4-0.1-0.8-0.1-1.2
		c-0.1-0.8-0.1-1.5-0.1-2.3c-0.2-4-0.2-8.1,0.1-12.1c0.1-1.1,0.1-2.3,0.2-3.4c0.3-4.1,0.8-8.1,1.3-12c0.1-1.1,0.3-2.3,0.5-3.4
		c0.6-4.2,1.3-8.2,2-11.8c0.2-1.2,0.4-2.3,0.6-3.4c0.4-2.4,0.8-4.6,1.1-6.4c-3.5-1.7-6.8-3.6-10.1-5.7c-0.6,0.9-3.9,6-8.3,6.3
		c-4.8,0.4-9-5.2-9-5.2v-1.1C122.8,205.7,119.7,207.4,116.2,209.3z"/>
	<path class="st11" d="M117.6,218.8c0.2,1.1,0.3,2.2,0.5,3.4c5.2,0,10.4-0.7,15.4-1.9c5.5-1.3,11.2-1.4,16.8-0.4l0.6-3.4
		c-6-1.1-12.2-0.9-18.2,0.4C127.8,218.2,122.7,218.8,117.6,218.8z"/>
	<path class="st11" d="M119.7,234.4c0.1,1.1,0.2,2.3,0.4,3.4c4.6-0.2,9.1-0.8,13.5-1.9c4.7-1.1,9.6-1.4,14.4-0.8
		c0.2-1.2,0.3-2.3,0.5-3.4c-5.2-0.6-10.5-0.3-15.6,0.9C128.5,233.6,124.1,234.2,119.7,234.4z"/>
	<path class="st11" d="M120.9,249.9c0,1.2,0.1,2.3,0,3.4c4.2-0.3,8.5-0.9,12.6-1.9c4.2-1,8.5-1.3,12.8-0.9c0.1-1.1,0.1-2.3,0.2-3.4
		c-4.6-0.4-9.3,0-13.8,1C128.8,249,124.9,249.6,120.9,249.9z"/>
	<path class="st11" d="M119.4,269c4.8-0.2,9.5-0.8,14.1-2c4.3-1,8.6-1.3,13-0.9l-0.1-1.2c0-0.8-0.1-1.5-0.1-2.3
		c-4.5-0.3-9.1,0-13.5,1.1c-4.3,1.1-8.6,1.7-13,1.9C119.6,266.7,119.5,267.9,119.4,269z"/>
	<path class="st11" d="M118.6,284.5c5-0.1,10-0.8,14.9-2c4.4-1,9-1.3,13.5-0.9c0-1.1,0-2.3,0-3.5c-4.8-0.4-9.6-0.1-14.3,1
		c-4.6,1.2-9.3,1.8-14.1,1.9C118.6,282.3,118.6,283.4,118.6,284.5z"/>
	<path class="st11" d="M119.3,296.7c0.1,1.1,0.2,2.3,0.3,3.4c4.7-0.2,9.4-0.8,13.9-2c4.2-1,8.5-1.3,12.8-0.9
		c0.1-1.1,0.2-2.3,0.3-3.4c-4.6-0.4-9.3-0.1-13.8,1C128.3,295.9,123.8,296.6,119.3,296.7z"/>
	<path class="st11" d="M121.2,312.2c0.2,1.1,0.3,2.2,0.5,3.4c4-0.3,8-0.9,11.9-1.9c3.6-0.8,7.3-1.2,11.1-1c0.1-1.1,0.3-2.2,0.4-3.4
		c-4.1-0.2-8.2,0.2-12.2,1.1C129,311.4,125.1,312,121.2,312.2z"/>
	<path class="st11" d="M122.7,327.7c0,1.1,0,2.2,0,3.4c3.6-0.3,7.2-0.9,10.8-1.8c3.2-0.8,6.5-1.1,9.9-1.1c0-1.1,0-2.3,0.1-3.4
		c-3.6,0-7.2,0.4-10.7,1.2C129.4,326.8,126.1,327.4,122.7,327.7z"/>
	<path class="st11" d="M122.3,346.8c3.8-0.3,7.5-0.9,11.2-1.8c3.6-0.8,7.2-1.2,10.9-1c-0.1-1.2-0.1-2.3-0.2-3.4
		c-3.9-0.1-7.7,0.3-11.5,1.2c-3.4,0.8-6.8,1.4-10.3,1.7C122.4,344.5,122.4,345.6,122.3,346.8z"/>
	<path class="st11" d="M121.3,362.4c4.1-0.3,8.2-0.9,12.2-1.9c3.6-0.8,7.2-1.2,10.9-1.1c0-1.1,0.1-2.3,0.1-3.4
		c-3.9-0.1-7.9,0.3-11.7,1.1c-3.7,0.9-7.4,1.5-11.2,1.8C121.5,360.1,121.4,361.3,121.3,362.4z"/>
	<path class="st11" d="M120,378c4.6-0.2,9.1-0.9,13.5-2c3.2-0.8,6.5-1.1,9.9-1.1c0.1-1.1,0.2-2.3,0.3-3.4c-3.7-0.1-7.3,0.3-10.9,1.2
		c-4.1,1-8.2,1.6-12.4,1.9C120.2,375.8,120.1,376.9,120,378z"/>
	<path class="st10" d="M146.9,389.2l1.6-0.1c3.1-18,1.3-44.5,0.6-52.6c-0.7-8.4,0.6-19.3,3.6-29.7c2.3-8.1,0.9-27-0.2-42.1
		c-0.3-4.2-0.6-8.3-0.8-11.6c-0.6-10.6,3.3-30.4,5.4-40.2l-1.4-0.7c-2.1,9.8-6.1,29.9-5.5,41.1c0.2,3.3,0.5,7.3,0.8,11.6
		c1.1,15,2.5,33.7,0.3,41.6c-3,10.6-4.3,21.7-3.6,30.3C148.3,344.7,150,371.3,146.9,389.2z"/>
	<path class="st10" d="M115.5,315.8c1.8,11.1,1.2,18.3,0.6,26.6c-0.2,2.7-0.4,5.5-0.6,8.6c-0.5,9.6-2.1,29.1-2.8,37.5l1.5,0.2
		c0.7-8.4,2.4-27.9,2.8-37.6c0.2-3,0.4-5.8,0.6-8.5c0.7-8.4,1.2-15.7-0.6-27c-0.4-2.4-0.8-4.9-1.2-7.3c-2-12.1-4.2-24.6-3.2-30.6
		c0.2-1.5,0.6-3.1,0.9-4.9c1.3-7.2,3.1-16.2,2.5-24s-3.7-28.7-4.9-36.6l-1.4,0.8c1.3,8.3,4.3,28.4,4.8,35.9s-1.2,16.5-2.5,23.6
		c-0.3,1.8-0.7,3.4-0.9,4.9c-1,6.2,1,18.3,3.2,31.1C114.7,310.9,115.1,313.3,115.5,315.8z"/>
	<path class="st9" d="M85.7,238.6c0,0-15.4,51.5-19.3,69.8s-4.1,56.5-4.1,56.5s-6.8,14-6.9,20.2c-0.2,6.6,3.3,11.9,2.9,16.3
		s4.9,2,3.4-6.8s2.7-16.8,4.6-16.5s-1.5,9.6,0.1,13s3.7-3.2,5.8-7.2s2.1-13.1,1.1-19.6s10.7-45.5,10.7-56.8l14.8-49.9
		C98.8,257.7,93.9,236.8,85.7,238.6z"/>
	<path class="st4" d="M100.7,256.4c-0.5,3.3-2.3,9-4.7,16.1l0,0l-0.6,1.9v0.1c-0.6,1.8-1.2,3.6-1.8,5.6l0,0c-2.6,8-5.5,17-8,26.4
		c-0.8,3.2-1.6,6.4-2.3,9.6c-0.9,4.1-1.6,8.2-2.2,12.2c-2,14.5-5.8,32.8-5.8,32.8c-5.5,2.3-14.2-0.7-14.2-0.7s-0.2-26.4,1-36.6
		c1.3-10.8,3.3-21.5,5.9-32c6.6-28.5,18.3-56.4,21.5-63.8l0.6-1.4h2.8C98.2,230,102.1,247.5,100.7,256.4z"/>
	<path class="st3" d="M60.6,355.1l0.4,6.1c0,0,8.2,2.7,14.4,0.8l1.6-5.4C71.1,356.9,65.6,356.7,60.6,355.1z"/>
	<path class="st10" d="M95.9,272.5L95.9,272.5c0,0.1,0,0.2,0,0.3c-0.2,0.5-0.4,1-0.6,1.6v0.1c-0.6,1.7-1.2,3.6-1.8,5.6l0,0
		c-3.2,10.3-5.9,20.8-8,31.4c0-1.7,0-3.3,0.1-5c-0.8,3.2-1.6,6.4-2.3,9.6c0.5-4.3,1.3-8.5,2.3-12.7c2.4-10.5,5.4-20.9,8.9-31.1
		c0.1-0.4,0.6-0.6,1-0.5c0,0,0,0,0,0C95.8,271.9,96,272.2,95.9,272.5z"/>
	<path class="st5" d="M372.1,408.7h36.5c-0.1-2.5-0.2-5-0.4-7.2c-0.6-12.5-1.2-21-1.2-21l-29.6,1.3l-2.5,0.1l-4.4,0.2
		c0,0,0.4,7.6,1.1,18.7C371.8,403.3,371.9,405.9,372.1,408.7z"/>
	<path class="st6" d="M374.9,381.9l-4.4,0.2c0,0,0.4,7.6,1.1,18.7c12.2,1.1,24.4,1.3,36.6,0.6c-0.6-12.5-1.2-21-1.2-21l-29.6,1.3
		L374.9,381.9z"/>
	<path class="st6" d="M378.9,408.7c-0.7-11.6-1.2-21.4-1.5-26.9l-2.5,0.1c0.3,5.5,0.8,15.3,1.5,26.8L378.9,408.7z"/>
	<path class="st5" d="M361.4,408.7c0.2-3.1,0.4-6.1,0.5-8.8c0.6-10.6,1-17.8,1-17.8l-4.7-0.2l-2.5-0.1l-29.3-1.3
		c0,0-0.3,5.1-0.8,13.1c-0.2,4.3-0.5,9.4-0.8,15.1L361.4,408.7z"/>
	<path class="st6" d="M325.7,393.6c11.9,2.8,24,4.9,36.2,6.3c0.6-10.6,1-17.8,1-17.8l-4.7-0.2l-2.5-0.1l-29.3-1.3
		C326.4,380.5,326.1,385.5,325.7,393.6z"/>
	<path class="st6" d="M356.7,408.7c0.7-11.5,1.2-21.4,1.5-26.8l-2.5-0.1c-0.3,5.5-0.9,15.4-1.5,26.9H356.7z"/>
	<path class="st4" d="M412.3,386.1c-7.3,2-14.8,3.6-22.3,4.6c-2.6,0.4-5.2,0.7-7.8,0.9c-3.5,0.3-7,0.5-10.4,0.6
		c-5.8,0.2-11.5,0-17.3-0.4c-11.3-0.8-22.5-2.8-33.4-5.8c-0.1-10.4,0.1-47.6,0.8-83.5c0-1.6,0.1-3.2,0.1-4.8c0-0.3,0-0.7,0-1v-1.1
		c0-1.1,0-2.3,0.1-3.4c0.1-2.3,0.1-4.6,0.2-6.9c0-1.4,0.1-2.7,0.1-4c0-0.3,0-0.5,0-0.8l0.1-2.6l0,0c0-0.3,0-0.5,0-0.8
		c0-0.8,0.1-1.6,0.1-2.4s0-1.3,0.1-2c0.9-24.2,2.1-43.3,3.9-46c3.1-4.6,13.5-10.6,21.9-15.6c3-1.8,6.6-3.6,8.6-4.9
		c3,2.4,5.1,4.6,9.5,4.4c4.9-0.2,6.1-3.1,8-5.7c1.1,0.8,4.1,3.1,5.6,4c1.3,0.8,2.7,1.6,4.2,2.4c2.3,1.3,4.7,2.7,7.1,4.1
		c3.5,2.1,7,4.2,9.9,6.3s5.2,4,6.3,5.7c1.6,2.5,2.7,18.4,3.4,39.3c0,0.7,0,1.5,0.1,2.2v0.3c0,0.8,0.1,1.5,0.1,2.3
		c0.1,2.4,0.1,4.8,0.2,7.2v1.6c0,0.4,0,0.8,0,1.2c0,1,0,2,0.1,3c0,0.2,0,0.4,0,0.6c0,2.7,0.1,5.4,0.1,8.2c0,0.8,0,1.6,0,2.4
		C412.6,333.6,412.4,375,412.3,386.1z"/>
	<path class="st10" d="M412,295.9l-11.8,11.9l-11-11.1l-11,11.1l-11-11.2l-11,11.2l-11-11.2l-11.1,11.2l-12-12.1
		c0-1.1,0-2.3,0.1-3.4c0.1-2.3,0.1-4.6,0.2-6.9l11.7-11.9l11.1,11.2l11.1-11.2l11,11.1l11-11.1l11,11.1l11-11.1l11.6,11.7
		c0,2.7,0.1,5.4,0.1,8.2C411.9,294.3,412,295.1,412,295.9z"/>
	<path class="st10" d="M391.7,357.4L391.7,357.4c-15.8-0.1-29.2-7.2-37.7-13.2c-5.4-3.8-10.4-8.2-14.8-13.2
		c-0.3-0.3-0.2-0.8,0.1-1.1c0.3-0.3,0.8-0.2,1.1,0.1c0,0,0,0,0,0c4.4,4.8,9.2,9.2,14.6,12.9c8.3,5.9,21.5,12.9,36.8,12.9
		c0.4,0,0.8,0.3,0.8,0.7c0,0.4-0.3,0.8-0.7,0.8C391.8,357.4,391.7,357.4,391.7,357.4L391.7,357.4z"/>
	<path class="st10" d="M381.8,348.1c-13.4-2.6-25.3-12.9-25.8-13.4c-0.3-0.3-0.4-0.8-0.1-1.1c0.3-0.3,0.7-0.4,1.1-0.1c0,0,0,0,0,0
		c0.1,0.1,14.1,12.2,28.4,13.5c0.4,0,0.7,0.4,0.7,0.8c0,0,0,0,0,0c0,0.4-0.4,0.7-0.8,0.7C384.1,348.5,383,348.3,381.8,348.1z"/>
	<path class="st10" d="M355,231.5c-0.4,0-0.8-0.3-0.8-0.7c0-0.4,0.3-0.7,0.6-0.8c19.2-3.6,25-16,25-16.1c0.2-0.4,0.6-0.5,1-0.4
		c0,0,0,0,0,0c0.4,0.2,0.5,0.6,0.4,1c0,0,0,0,0,0C381,215.1,375.1,227.7,355,231.5L355,231.5z"/>
	<path class="st10" d="M331.5,264.8L331.5,264.8c0,0.1-0.1,0.2-0.1,0.2c-0.3,0.5-0.6,0.9-0.9,1.4l0,0.1c-1,1.5-2,3.2-3,5l0,0
		c-1.6,2.8-3.3,5.9-4.9,9l0.1-2.6l0,0c0-0.3,0-0.5,0-0.8c2.6-4.9,5.3-9.5,7.5-12.9c0.2-0.3,0.7-0.4,1-0.2
		C331.5,264.1,331.6,264.4,331.5,264.8z"/>
	<path class="st9" d="M428.3,236.7c0,0,24.5-7.9,31.8-24c2.1-4.7-15.2-52.1-15.2-52.1l-8.4,0.4c0,0,2.4,16.4,3.8,25.7
		c1.2,7.7,3.1,16.8,3.8,19.8l0.2,1l-1.2,0.2c-11.5,2.3-26.1,9.8-26.1,9.8L428.3,236.7z"/>
	<path class="st7" d="M450.5,212.2c0.4,0.3,0.8,0.2,1.1-0.2c0.3-0.3,0.2-0.8-0.1-1.1c0,0,0,0,0,0c-2.3-1.6-4.8-3-7.3-4.3
		c0.1,0.7,0.2,1,0.2,1l-1.2,0.2C445.7,209.1,448.2,210.5,450.5,212.2z"/>
	<path class="st4" d="M390.7,215c0,0-7.4,17.4,11.5,27.1c13.1,6.7,42.9-10.8,42.9-10.8l-10.6-22.6C434.5,208.8,407.2,220,390.7,215z
		"/>
	<path class="st9" d="M440.6,134c-0.7,0.5-0.6,3.7-0.3,6.7h-0.3c-0.9-4-2.6-10.9-4.1-9.6c-1,0.9,0.3,6.8,1.2,10.3l-0.6,0.2
		c-1.1-4.2-3.5-12.3-5.2-10.7c-1.1,1,1,8.1,2.1,11.8l-0.5,0.2c-1.1-3.5-3.5-10.2-5.1-8.6c-1.5,1.4,2.7,11.5,2.7,11.5l0,0l1.1,3.9
		c0,0-1.3,0.6-3.3-1.7s-4.5-2.7-2.8,0.6c1.9,3.8,4.7,6.4,6,9.1s5.1,3.5,5.1,3.5l7.9-0.4c0,0,1.5-13.3-1.4-19.6l0,0
		C442.8,137.6,441.9,133.1,440.6,134z"/>
	<path class="st5" d="M343.5,164.6c0,13.4,8.2,22.6,21.6,22.6s22.7-9.9,22.7-23.3c0-3.5-0.6-6.9-1.8-10.2c-0.1-0.2-0.1-0.4-0.2-0.5
		c-0.1-0.4-0.3-0.7-0.4-1c-0.2-0.5-0.5-1-0.8-1.5c-3.5-6.3-9.7-10.2-18.1-10.2C350.5,140.4,343.5,151.2,343.5,164.6z"/>
	<path class="st7" d="M346.5,170.4c0,0-3.7-5-6.5-0.9s1.1,16.2,7.9,13.2L346.5,170.4z"/>
	<path class="st8" d="M346.5,179c-0.3,0-0.5-0.2-0.5-0.4c-1-3.7-4.9-5.2-5-5.3c-0.3-0.1-0.4-0.4-0.3-0.7c0.1-0.3,0.4-0.4,0.7-0.3
		c0.2,0.1,4.5,1.7,5.6,6c0.1,0.3-0.1,0.6-0.4,0.7c0,0,0,0,0,0C346.6,179,346.6,179,346.5,179z"/>
	<path class="st8" d="M342.6,177.1c-0.1,0-0.2,0-0.3-0.1c-0.3-0.2-0.3-0.5-0.2-0.8c0,0,0,0,0,0c0.5-0.8,1.3-1.3,2.1-1.7
		c0.2-0.2,0.6-0.2,0.8,0.1c0.2,0.2,0.2,0.6-0.1,0.8c-0.1,0.1-0.2,0.1-0.3,0.1c-0.7,0.3-1.2,0.7-1.6,1.3
		C343,177,342.8,177.1,342.6,177.1z"/>
	<path class="st7" d="M384.8,170.4c0,0,3.7-5,6.5-0.9s-1.1,16.2-7.9,13.2L384.8,170.4z"/>
	<path class="st8" d="M384.9,179c0.3,0,0.5-0.2,0.5-0.4c1-3.7,4.9-5.2,5-5.3c0.3-0.1,0.4-0.4,0.3-0.7c-0.1-0.3-0.4-0.4-0.7-0.3
		c-0.2,0.1-4.4,1.7-5.6,6c-0.1,0.3,0.1,0.6,0.4,0.7L384.9,179z"/>
	<path class="st8" d="M388.8,177.1c0.1,0,0.2,0,0.3-0.1c0.3-0.2,0.3-0.5,0.2-0.8c-0.6-0.8-1.3-1.3-2.1-1.7c-0.2-0.2-0.6-0.2-0.8,0.1
		s-0.2,0.6,0.1,0.8c0.1,0.1,0.2,0.1,0.3,0.1c0.6,0.3,1.2,0.7,1.6,1.3C388.4,177,388.6,177.1,388.8,177.1z"/>
	<path class="st9" d="M374.8,193v12c0,0-3.6,6.1-8.4,6.5s-9.1-5.3-9.1-5.3v-12.4L374.8,193z"/>
	<path class="st7" d="M374.8,193v5.3c-3.2,3.6-9,4.5-17.6,3.2v-7.7L374.8,193z"/>
	<path class="st9" d="M387.5,162.1c-0.2,5.1-0.7,10.2-1.6,15.2c-0.2,1.2-0.5,2.3-0.8,3.2c-2.5,8.9-8.9,24.1-26.6,17.7
		c-7.8-2.8-11.5-11.5-13.1-20.4c-0.9-5.4-1.3-10.9-1.2-16.4c0.1-4.4,2.5-8.5,6.4-10.7c10.5-5.9,21.5-3.7,28.8-0.9
		C384.5,151.8,387.8,156.7,387.5,162.1z"/>
	<path class="st5" d="M358.1,171.9c0,1.3-0.7,2.3-1.5,2.3s-1.5-1-1.5-2.3s0.7-2.3,1.5-2.3S358.1,170.6,358.1,171.9z"/>
	<path class="st5" d="M375.5,171.9c0,1.3-0.7,2.3-1.5,2.3s-1.5-1-1.5-2.3s0.7-2.3,1.5-2.3S375.5,170.6,375.5,171.9z"/>
	<path class="st5" d="M378.8,163.9c0,0-4.7-1.8-8.2-0.3l0.4,2c0,0,5.3-0.4,7.9,0.6C379.1,165.5,379.1,164.6,378.8,163.9z"/>
	<path class="st5" d="M351.7,163.9c0,0,4.7-1.8,8.2-0.3l-0.4,2c0,0-5.3-0.4-7.9,0.6C351.4,165.5,351.4,164.6,351.7,163.9z"/>
	<path class="st7" d="M365.9,181.7c0.7,0,1.4-0.2,2.1-0.4c0.3-0.1,0.4-0.5,0.3-0.7c0,0,0,0,0,0c-0.1-0.3-0.5-0.4-0.7-0.3
		c-0.7,0.3-1.5,0.4-2.3,0.2c-0.2-0.1-0.3-0.3-0.3-0.5c0-2.9,0.1-5.8,0.3-8.8c0-0.3-0.2-0.6-0.5-0.6c0,0,0,0,0,0
		c-0.3,0-0.6,0.2-0.6,0.5c-0.3,3-0.4,6-0.3,9c0,0.6,0.3,1.1,0.8,1.4C365,181.6,365.5,181.7,365.9,181.7z"/>
	<path class="st0" d="M358.2,184.6c1,3.3,3.6,6.6,7.4,6.6s6.4-3.3,7.4-6.6H358.2z"/>
	<path class="st7" d="M365.3,194.8c1,0,1.9-0.3,2.8-0.8c0.3-0.2,0.4-0.5,0.2-0.8c-0.2-0.3-0.5-0.4-0.8-0.2c0,0,0,0,0,0
		c-0.7,0.4-1.4,0.6-2.2,0.6c-0.7,0-1.4-0.2-2.1-0.6c-0.3-0.2-0.6-0.1-0.8,0.2c-0.2,0.3-0.1,0.6,0.2,0.8
		C363.4,194.5,364.3,194.7,365.3,194.8z"/>
	<path class="st5" d="M386.9,170.4h-2.6c0.3-2.6,0.7-7.2-1.4-7.8c-6.7-2.1,2-6.8-1-9.2s-10.6-1.4-15.9-1.5s-13.8-0.1-15.9,0.4
		s-0.9,3.9-0.2,6.6s-2.5,5.6-3.1,8.4c-0.1,1.1-0.1,2.2,0,3.2h-2.2c-0.2-3.4-0.3-6.5-0.2-9c0.1-4.4,2.5-8.5,6.4-10.7
		c10.5-5.9,21.5-3.7,28.8-0.9c5,1.9,8.3,6.9,8,12.3C387.4,164.7,387.2,167.6,386.9,170.4z"/>
	<path class="st0" d="M356.4,178.6c-3.6,0-6.5-2.9-6.5-6.5s2.9-6.5,6.5-6.5c3.6,0,6.5,2.9,6.5,6.5c0,0,0,0,0,0
		C362.8,175.7,359.9,178.6,356.4,178.6z M356.4,166.7c-3,0-5.5,2.4-5.5,5.5c0,3,2.4,5.5,5.5,5.5c3,0,5.5-2.4,5.5-5.5l0,0
		C361.8,169.2,359.4,166.7,356.4,166.7z"/>
	<path class="st0" d="M374,178.6c-3.6,0-6.5-2.9-6.5-6.5c0-3.6,2.9-6.5,6.5-6.5c3.6,0,6.5,2.9,6.5,6.5c0,0,0,0,0,0
		C380.5,175.7,377.6,178.6,374,178.6z M374,166.7c-3,0-5.5,2.4-5.5,5.5c0,3,2.4,5.5,5.5,5.5c3,0,5.5-2.4,5.5-5.5l0,0
		C379.5,169.2,377,166.7,374,166.7z"/>
	<path class="st0" d="M351,170.1c-0.1,0-0.3,0-0.4-0.1l0,0c-1.8-1.7-4.4-2.4-6.8-2c-0.3,0.1-0.5-0.1-0.6-0.4
		c-0.1-0.3,0.1-0.5,0.4-0.6c0,0,0,0,0,0c2.8-0.5,5.7,0.3,7.8,2.2c0.2,0.2,0.2,0.5,0,0.7C351.3,170,351.1,170.1,351,170.1z"/>
	<path class="st0" d="M379.5,170.1c-0.2,0-0.3-0.1-0.4-0.2c-0.1-0.2-0.1-0.5,0.1-0.7c0.2-0.1,4.8-3.1,8.7-2.4c0.3,0,0.5,0.3,0.4,0.6
		c-0.1,0.3-0.3,0.5-0.6,0.4c-3.5-0.6-7.9,2.2-8,2.3C379.7,170.1,379.6,170.1,379.5,170.1z"/>
	<path class="st0" d="M367.9,170.7c-0.7-0.9-1.7-1.5-2.8-1.6c-1.1,0.1-2,0.7-2.6,1.6l-0.9-0.6c0.8-1.2,2.1-2,3.5-2.1
		c1.4,0.1,2.8,0.9,3.6,2.1L367.9,170.7z"/>
	<path class="st9" d="M329.4,263.8c-4.3,8.2-9.3,16.1-14.8,23.6c-2.2,2.9-4.6,5.6-7.3,8.1c-3.9,3.6-7.8,5.4-10.9,3.8
		c-11.6-5.8-37.5-52.4-37.5-52.4l6.4-7.6c0,0,11.5,13.3,20,21.3c7.8,7.3,13.8,12.8,13.8,12.8c1.1-1.6,2.2-3.4,3.4-5.3
		s2.6-4.1,3.9-6.3c9.7-15.9,20.5-35.1,20.5-35.1L329.4,263.8z"/>
	<path class="st7" d="M314.6,287.5c-2.2,2.9-4.6,5.6-7.3,8.1l-4.9-27.4c1.3-2,2.6-4.1,3.9-6.3L314.6,287.5z"/>
	<path class="st4" d="M326.8,226.8l-23.3,36.6l7.8,32.2l19.3-31.4C330.6,264.2,332.9,242.8,326.8,226.8z"/>
	<path class="st4" d="M297.5,408.7c-1.7-9.2-3.3-19.6-4.8-29.7c-0.3-2.2-0.6-4.5-1-6.6c-1.2-8.4-2.3-16.3-3.1-22.8
		c-0.3-2.5-0.6-4.8-0.9-6.8c-0.8-6.5-1.3-10.6-1.3-10.6l-36.8,1.4l-36.9-1.4c0,0-1,8-2.5,19.7c-0.3,2.1-0.6,4.4-0.9,6.7
		c-0.8,6.1-1.8,12.9-2.8,19.8l-0.1,0.3c-0.3,2.2-0.6,4.3-1,6.5c-0.5,3.3,0,0.1,0,0.1l0,0c-0.8,5.2-1.6,10.5-2.4,15.5
		c-0.4,2.1-0.7,4.1-1,6.1l-0.3,1.8L297.5,408.7z"/>
	<path class="st10" d="M221.2,343.1c0,1.9-1.5,3.5-3.5,3.5c-1.9,0-3.5-1.5-3.5-3.5s1.5-3.5,3.5-3.5c0,0,0,0,0,0
		C219.7,339.7,221.2,341.2,221.2,343.1z"/>
	<path class="st10" d="M229.9,356.5c0,1.9-1.6,3.5-3.5,3.5s-3.5-1.6-3.5-3.5c0-1.9,1.6-3.5,3.5-3.5S229.9,354.6,229.9,356.5
		L229.9,356.5z"/>
	<path class="st10" d="M246.8,349.6c0,1.9-1.6,3.5-3.5,3.5s-3.5-1.6-3.5-3.5c0-1.9,1.6-3.5,3.5-3.5S246.8,347.7,246.8,349.6
		L246.8,349.6z"/>
	<path class="st10" d="M220.1,370.8c0,1.9-1.5,3.5-3.5,3.5s-3.5-1.5-3.5-3.5s1.5-3.5,3.5-3.5c0,0,0,0,0,0
		C218.5,367.3,220.1,368.9,220.1,370.8z"/>
	<path class="st10" d="M241.2,369.3c0,1.9-1.5,3.5-3.5,3.5c-1.9,0-3.5-1.5-3.5-3.5s1.5-3.5,3.5-3.5c0,0,0,0,0,0
		C239.7,365.9,241.2,367.4,241.2,369.3z"/>
	<path class="st10" d="M212.6,355c0,1.8-1.4,3.3-3.1,3.5c0.3-2.3,0.6-4.6,0.9-6.7C211.7,352.3,212.6,353.6,212.6,355z"/>
	<path class="st10" d="M275.7,389.7c0,1.9-1.5,3.5-3.5,3.5c-1.9,0-3.5-1.5-3.5-3.5s1.5-3.5,3.5-3.5c0,0,0,0,0,0
		C274.1,386.2,275.7,387.8,275.7,389.7z"/>
	<path class="st10" d="M274,370.8c0,1.9-1.5,3.5-3.5,3.5s-3.5-1.5-3.5-3.5s1.5-3.5,3.5-3.5c0,0,0,0,0,0
		C272.5,367.3,274,368.9,274,370.8z"/>
	<path class="st10" d="M292.7,379c-0.4,0.2-0.9,0.3-1.4,0.3c-1.9,0.1-3.5-1.4-3.7-3.3s1.4-3.5,3.3-3.7c0.1,0,0.2,0,0.4,0
		c0.1,0,0.3,0,0.4,0C292.1,374.5,292.4,376.7,292.7,379z"/>
	<path class="st10" d="M277.5,403.5c0,1.9-1.6,3.5-3.5,3.5s-3.5-1.6-3.5-3.5c0-1.9,1.6-3.5,3.5-3.5
		C275.9,400,277.5,401.6,277.5,403.5L277.5,403.5z"/>
	<path class="st10" d="M292.3,398c0,1.9-1.6,3.5-3.5,3.5s-3.5-1.6-3.5-3.5c0-1.9,1.6-3.5,3.5-3.5C290.8,394.5,292.3,396.1,292.3,398
		C292.3,398,292.3,398,292.3,398z"/>
	<path class="st10" d="M261.5,408.7c-1.1-1.6-3.2-2-4.8-0.9c-0.4,0.2-0.7,0.6-0.9,0.9H261.5z"/>
	<path class="st10" d="M217.8,392.7c0,1.9-1.6,3.5-3.5,3.5c-1.9,0-3.5-1.6-3.5-3.5c0-1.9,1.6-3.5,3.5-3.5c0,0,0,0,0,0
		C216.2,389.2,217.8,390.8,217.8,392.7C217.8,392.7,217.8,392.7,217.8,392.7z"/>
	<path class="st10" d="M208.6,381.8c0,1.7-1.3,3.2-3,3.4c0,0,0-0.1,0-0.1c0.3-2.2,0.7-4.3,1-6.5
		C207.9,379.2,208.6,380.4,208.6,381.8z"/>
	<path class="st10" d="M204.6,403.5c0,1.5-1,2.9-2.5,3.3c0.4-2,0.7-4,1-6.1C204,401.4,204.6,402.4,204.6,403.5z"/>
	<path class="st10" d="M226.4,405c0,1.9-1.5,3.5-3.5,3.5s-3.5-1.5-3.5-3.5s1.5-3.5,3.5-3.5c0,0,0,0,0,0
		C224.8,401.5,226.4,403.1,226.4,405z"/>
	<path class="st10" d="M244.7,402.3c0,1.9-1.6,3.5-3.5,3.5c-1.9,0-3.5-1.6-3.5-3.5c0-1.9,1.6-3.5,3.5-3.5c0,0,0,0,0,0
		C243.1,398.8,244.7,400.3,244.7,402.3C244.7,402.3,244.7,402.3,244.7,402.3z"/>
	<path class="st10" d="M231.6,385.2c0,1.9-1.6,3.5-3.5,3.5c-1.9,0-3.5-1.6-3.5-3.5c0-1.9,1.6-3.5,3.5-3.5c0,0,0,0,0,0
		C230.1,381.8,231.6,383.3,231.6,385.2z"/>
	<path class="st10" d="M250.2,381.8c0,1.9-1.5,3.5-3.5,3.5s-3.5-1.5-3.5-3.5s1.5-3.5,3.5-3.5c0,0,0,0,0,0
		C248.7,378.3,250.2,379.8,250.2,381.8z"/>
	<path class="st10" d="M258.6,363.5c0,1.9-1.6,3.5-3.5,3.5c-1.9,0-3.5-1.6-3.5-3.5c0-1.9,1.6-3.5,3.5-3.5
		C257.1,360,258.6,361.5,258.6,363.5C258.6,363.5,258.6,363.5,258.6,363.5z"/>
	<path class="st10" d="M288.6,349.5c-0.2,0.1-0.5,0.1-0.8,0.1c-1.9-0.1-3.4-1.7-3.4-3.6c0.1-1.8,1.4-3.2,3.2-3.4
		C288,344.7,288.3,347,288.6,349.5z"/>
	<path class="st10" d="M270.5,349.6c0,1.9-1.6,3.5-3.5,3.5c-1.9,0-3.5-1.6-3.5-3.5c0-1.9,1.6-3.5,3.5-3.5c0,0,0,0,0,0
		C269,346.1,270.5,347.7,270.5,349.6C270.5,349.6,270.5,349.6,270.5,349.6z"/>
	<path class="st10" d="M283.2,362c0,1.9-1.6,3.5-3.5,3.5s-3.5-1.6-3.5-3.5c0-1.9,1.6-3.5,3.5-3.5C281.7,358.5,283.2,360.1,283.2,362
		C283.3,362,283.3,362,283.2,362z"/>
	<path class="st10" d="M262.1,392.7c0,1.9-1.6,3.5-3.5,3.5c-1.9,0-3.5-1.6-3.5-3.5c0-1.9,1.6-3.5,3.5-3.5c0,0,0,0,0,0
		C260.5,389.2,262.1,390.8,262.1,392.7C262.1,392.7,262.1,392.7,262.1,392.7z"/>
	<path class="st3" d="M288.7,333c-19.4,12.7-55,11.7-77.4,0c2.1-13.3,4.9-26.6,4.3-44.4c-0.1-1.9-0.1-3.9-0.2-5.8
		c-0.1-1.7-0.2-3.3-0.3-5c-1.9-29.5-7-53.6-4.5-56.7c1.5-1.7,3.2-3.1,5.1-4.3c0.9-0.6,1.8-1.2,2.8-1.8c2.3-1.4,4.9-2.8,7.5-4.2
		c6.1-3.3,12.4-6.3,15.5-8.4c2.6,1.3,5.4,2,8.2,2.1h0.4c2.9-0.1,5.7-0.8,8.2-2.1c2.9,1.9,8.4,4.6,14,7.6c4,2,7.8,4.2,11.5,6.7
		c1.8,1.2,3.5,2.6,4.9,4.2c1.2,1.5,0.7,8.3-0.3,18.3c-1,9.9-2.6,22.9-3.5,37.2c-0.3,4-0.5,8-0.6,12.2
		C283.7,306.3,286.5,319.7,288.7,333z"/>
	<path class="st4" d="M276.8,318.3L276.8,318.3c-15.6-0.1-29-7.2-37.4-13.1c-5.4-3.8-10.3-8.1-14.7-13c-0.3-0.3-0.2-0.8,0.1-1.1
		c0.3-0.2,0.7-0.2,1,0.1c4.3,4.8,9.2,9.1,14.5,12.8c8.2,5.8,21.3,12.8,36.5,12.8c0.4,0,0.8,0.3,0.8,0.8S277.2,318.3,276.8,318.3
		L276.8,318.3z"/>
	<path class="st4" d="M266.5,309.2c-13.3-2.6-25.1-12.8-25.6-13.3c-0.3-0.3-0.3-0.8-0.1-1.1s0.8-0.3,1.1-0.1
		c0.1,0.1,14,12.1,28.1,13.4c0.4,0,0.7,0.4,0.7,0.8c0,0,0,0,0,0c0,0.4-0.4,0.7-0.8,0.7c0,0,0,0,0,0
		C268.7,309.5,267.6,309.4,266.5,309.2z"/>
	<path class="st4" d="M246.8,240.4c-0.4,0-0.8-0.3-0.8-0.7c0-0.4,0.3-0.7,0.6-0.8c19-3.6,24.8-15.9,24.8-16c0.2-0.4,0.6-0.5,1-0.4
		c0,0,0,0,0,0c0.4,0.2,0.5,0.6,0.4,1c0,0,0,0,0,0c-0.2,0.5-6.1,13.1-25.9,16.8L246.8,240.4z"/>
	<path class="st9" d="M272.4,209.9c-3.8,8.6-13.1,17.6-25.1,15.5c-11.7-2-17.3-8.2-21.3-14.6c6.1-3.3,12.4-6.3,15.5-8.4
		c2.6,1.3,5.4,2,8.2,2.1h0.5c2.9-0.1,5.7-0.8,8.2-2.1C261.3,204.3,266.8,207,272.4,209.9z"/>
	<path class="st0" d="M262.3,203c-0.3,0-0.6,0.3-0.6,0.6c0,0,0,0,0,0c0,0.5-0.2,11.9-10.4,12.8c-9.5,0.8-13.4-8.3-14.6-12
		c-0.1-0.2-0.3-0.4-0.5-0.4H236c-0.3,0-0.5,0.2-0.5,0.5c0,0.1,0,0.1,0,0.2c1.3,3.9,5.4,13.3,15.1,12.9c0.2,0,0.5,0,0.8,0
		c11.3-1,11.5-13.8,11.5-13.9C262.9,203.3,262.7,203,262.3,203C262.3,203,262.3,203,262.3,203z"/>
	<path class="st5" d="M269.5,142.4c0,0,9.1,14.2,8.1,28.9s1.4,31.8-11.9,31s-36.7,5.3-44.2-6.2S269.5,142.4,269.5,142.4z"/>
	<path class="st6" d="M272.9,168.5c0,0,2.4,21.4-7.8,27.3s-17.5-0.7-17.5-0.7S269,165.2,272.9,168.5z"/>
	<path class="st7" d="M230.8,168.4c0,0-3.6-4.9-6.4-0.8s1.1,15.9,7.8,13L230.8,168.4z"/>
	<path class="st8" d="M230.7,176.9c-0.3,0-0.5-0.2-0.5-0.4c-1-3.7-4.8-5.1-4.9-5.2c-0.3-0.1-0.4-0.4-0.3-0.7
		c0.1-0.3,0.4-0.4,0.7-0.3c2.6,1.1,4.7,3.2,5.5,5.9c0.1,0.3-0.1,0.6-0.4,0.7L230.7,176.9z"/>
	<path class="st8" d="M226.9,175c-0.1,0-0.2,0-0.3-0.1c-0.3-0.2-0.3-0.5-0.2-0.8c0,0,0,0,0,0c0.5-0.7,1.3-1.3,2.1-1.7
		c0.3-0.1,0.6,0.1,0.7,0.4c0.1,0.2,0,0.5-0.2,0.6c-0.6,0.3-1.2,0.7-1.6,1.3C227.3,174.9,227.1,175,226.9,175z"/>
	<path class="st7" d="M268.3,168.4c0,0,3.6-4.9,6.4-0.8s-1.1,15.9-7.8,13L268.3,168.4z"/>
	<path class="st8" d="M268.4,176.9c0.3,0,0.5-0.2,0.5-0.4c1-3.7,4.8-5.1,4.9-5.2c0.3-0.1,0.4-0.4,0.3-0.7c-0.1-0.3-0.4-0.4-0.7-0.3
		c0,0,0,0,0,0c-2.6,1.1-4.7,3.2-5.5,5.9c-0.1,0.3,0.1,0.6,0.4,0.7L268.4,176.9z"/>
	<path class="st8" d="M272.2,175c0.3,0,0.6-0.3,0.6-0.6c0-0.1,0-0.2-0.1-0.3c-0.5-0.7-1.3-1.3-2.1-1.7c-0.3-0.1-0.6,0.1-0.7,0.4
		c-0.1,0.2,0,0.5,0.2,0.6c0.6,0.3,1.2,0.7,1.6,1.3C271.8,174.9,272,175,272.2,175z"/>
	<path class="st9" d="M258.5,190.6v11.8c0,0-3.5,6-8.3,6.4s-9-5.2-9-5.2v-12.2L258.5,190.6z"/>
	<path class="st7" d="M258.5,190.6v5.2c-3.2,3.5-8.9,4.8-17.3,3.6v-8L258.5,190.6z"/>
	<path class="st9" d="M270.9,160.3c-0.2,5-0.7,10-1.5,14.9c-0.2,1.1-0.5,2.2-0.7,3.2c-2.5,8.7-8.7,23.6-26.1,17.4
		c-7.7-2.8-11.2-11.3-12.8-20c-0.9-5.3-1.3-10.7-1.2-16.1c0.1-4.4,2.5-8.3,6.2-10.5c10.3-5.8,21.1-3.6,28.2-0.9
		C268,150.1,271.2,155,270.9,160.3z"/>
	<path class="st5" d="M241.9,169.1c0,1.3-0.6,2.3-1.4,2.3s-1.4-1-1.4-2.3s0.6-2.3,1.4-2.3S241.9,167.8,241.9,169.1z"/>
	<path class="st5" d="M259.8,169.1c0,1.3-0.6,2.3-1.5,2.3s-1.5-1-1.5-2.3s0.6-2.3,1.5-2.3S259.8,167.8,259.8,169.1z"/>
	<path class="st5" d="M237.6,162.3c2-0.6,4.1-0.9,6.2-0.9c0.6,0,1.1,0.5,1.1,1.1c0,0.1,0,0.1,0,0.2l0,0c-0.1,0.5-0.6,0.9-1.1,0.9
		c-1.7-0.1-6.3,0.2-8.5,1c0-0.4,0.2-0.9,0.5-1.2C236.2,162.8,236.9,162.4,237.6,162.3z"/>
	<path class="st5" d="M261,162.3c-2-0.6-4.1-0.9-6.2-0.9c-0.6,0-1.1,0.5-1.1,1.1c0,0.1,0,0.1,0,0.2l0,0c0.1,0.5,0.6,0.9,1.1,0.9
		c1.8-0.1,6.3,0.2,8.5,1c0-0.4-0.2-0.9-0.5-1.1C262.3,162.9,261.7,162.5,261,162.3z"/>
	<path class="st7" d="M249.7,179.5c-0.4,0-0.8-0.1-1.2-0.3c-0.5-0.3-0.8-0.8-0.8-1.4c-0.1-2.9,0-5.9,0.3-8.8c0-0.3,0.3-0.5,0.6-0.5
		c0,0,0,0,0,0c0.3,0,0.5,0.3,0.5,0.6c-0.3,2.9-0.4,5.7-0.3,8.6c0,0.2,0.1,0.4,0.3,0.5c0.8,0.2,1.5,0.1,2.2-0.2
		c0.2-0.2,0.6-0.1,0.8,0.1c0.2,0.2,0.1,0.6-0.1,0.8c-0.1,0.1-0.2,0.1-0.3,0.1C251.1,179.3,250.4,179.4,249.7,179.5z"/>
	<path class="st0" d="M242.6,183c0.4,2.1,1.8,6.1,6.6,6.1s6.1-3.6,6.6-6.1H242.6z"/>
	<path class="st7" d="M249.1,192.3c-0.9,0-1.8-0.3-2.6-0.8c-0.3-0.2-0.4-0.5-0.2-0.8c0,0,0,0,0,0c0.2-0.3,0.5-0.3,0.8-0.2l0,0
		c0.6,0.4,1.3,0.6,2.1,0.6c0.8,0,1.5-0.2,2.1-0.6c0.2-0.2,0.6-0.1,0.8,0.1c0.2,0.2,0.1,0.6-0.1,0.8c0,0-0.1,0-0.1,0.1
		C251,192,250.1,192.3,249.1,192.3z"/>
	<path class="st5" d="M273.2,159.4c-0.3,0.5-0.8,0.9-1.4,1c0,1.4-0.1,2.8-0.2,4.1c-0.7,8.1-2.7,9.5-3.2,7.5
		c-0.3-3.8-0.3-7.6-0.1-11.4c-1-0.1-2-0.2-3-0.4l-1.9-7.9l-0.7,7.8c-2.8,1-9.4-0.6-9.4-0.6l-2.2-7.8l-1.4,7.4
		c-4.2,2.1-9.5,0.7-9.5,0.7l-1.2-8l-2.8,8c0,0-9,3.2-9.1,0c-0.1-1.9,1.3-7.2,2.5-11.3c1.2-4.4,4.2-8.2,8.2-10.4
		c11.2-6,23-2.8,27.1-0.4C273.5,143,273.2,159.4,273.2,159.4z"/>
	<path class="st5" d="M232.2,143c0,0-7.4,8.8-9.9,24.6s-5.8,27.4,3.7,32.6c10.3,5.6,9.4-5.9,9.2-9.1s-8.9-11.7-3.1-35.9
		C234,147.5,232.2,143,232.2,143z"/>
	<path class="st6" d="M230.4,175.6L230.4,175.6c0,0.1,0,0.7,0.1,1.7c0,0.6,0.1,1.4,0.1,2.2c0.4,5.3,1.4,14.5,4.4,17.7
		c1.2,1.2,3.5,1.9,6.2,2.1v-4.2c-2.8-1.4-5.2-3.6-6.8-6.4c-1.9-3.7-3.1-7.6-3.8-11.7L230.4,175.6z"/>
	<path class="st0" d="M271.1,180.8c0,0.7-0.6,1.3-1.3,1.3s-1.3-0.6-1.3-1.3c0-0.7,0.6-1.3,1.3-1.3c0,0,0,0,0,0
		C270.5,179.5,271.1,180.1,271.1,180.8z"/>
	<path class="st3" d="M297.8,279.7c-3.7,10.6-20.4,9.9-39.4,4h-0.1l-0.2-0.1l-2.6-0.8l-1.1-0.4c-2.1-0.7-4.1-1.4-6.2-2.2
		c-6.8-2.6-13.5-5.6-20.1-8.9v-0.1l1.9-5l0.7-1.7c0,0,35.2,3.8,52.9,0.1l0.9-0.2c0-0.4-0.1-0.8-0.2-1.2c-9.4-31.9,0.9-38,4.3-42.5
		C288.8,220.8,304.9,259.6,297.8,279.7z"/>
	<path class="st4" d="M292.1,269.8c-0.1,0-0.2,0.1-0.3,0.1c-0.3,0-0.5-0.2-0.7-0.4c-1.3-2.7-5.9-4.4-7.3-4.8l0.9-0.2
		c-0.1-0.4-0.1-0.8-0.2-1.2c1.8,0.6,6.4,2.4,8,5.5C292.6,269.2,292.5,269.6,292.1,269.8C292.1,269.8,292.1,269.8,292.1,269.8z"/>
	<path class="st4" d="M242.8,268.5c-7.2,0-13-0.4-13.5-0.5c-0.4,0-0.8-0.3-0.8-0.7c0-0.4,0.3-0.8,0.7-0.8c0,0,0.1,0,0.1,0
		c0.3,0,26.6,1.9,37-2.3c0.4-0.2,0.8,0,1,0.4c0,0,0,0,0,0c0.2,0.4,0,0.8-0.4,1c0,0,0,0,0,0C261.3,267.9,251.2,268.5,242.8,268.5z"/>
	<path class="st4" d="M255.6,282.8L255.6,282.8c6-1.7,11.5-3.3,14.7-4.3c4.4-1.4,8-5.8,9.7-9.6c0.2-0.4,0.6-0.6,1-0.4
		c0.4,0.2,0.6,0.6,0.4,1c-1.8,4.1-5.8,8.9-10.6,10.4c-2.3,0.7-5.8,1.8-9.8,2.9C259.1,283.4,257.3,283.4,255.6,282.8L255.6,282.8z"/>
	<path class="st3" d="M271.8,277.7c-54.4,18.3-71.1,6.3-71.1,6.3c-3.7-33.1,9.8-62.9,9.8-62.9c4,6.6,8.5,18,8.5,18l1.2,25.4
		l-0.1,0.7v0.3l-0.2,1.7l0,0l0.4,0.1c16.4,3.5,46.5-0.4,46.5-0.4L271.8,277.7z"/>
	<path class="st4" d="M220.2,267.4c-3,2.5-5.8,5.4-8.2,8.5c-0.3,0.3-0.7,0.4-1.1,0.1c-0.3-0.3-0.4-0.7-0.1-1l0,0
		c2.7-3.5,5.8-6.7,9.3-9.5l-0.2,1.7l0,0L220.2,267.4z"/>
	<path class="st9" d="M266.8,267c0,0,6-13.7,15.2-12.5l2.8,9.9c-5,2.1-5.7,10.7-12.9,13.2L266.8,267z"/>
	<path class="st9" d="M231,264.5c-2.7-5.7-7.8-9.9-13.9-11.5c-10-2.6-16.4,2.1-17,3.9s3.8,0.1,3.8,0.1c-1.9,0.6-3.5,1.9-4.6,3.5
		c-1.7,2.7,4-0.2,4-0.2s-4.1,1.8-4.6,3.5s4.9-1.1,5.9-1.1c0,0-4.8,1.9-4.8,3.6s5.5-1.1,9.6-0.9c3.5,0.4,7,1,10.4,1.9
		c3.1,0.6,6.3,1.1,9.5,1.2L231,264.5z"/>
	<path class="st4" d="M327.5,125.8c-3.7,0-6.7-3-6.7-6.7s3-6.7,6.7-6.7c3.7,0,6.7,3,6.7,6.7c0,0,0,0,0,0
		C334.2,122.8,331.2,125.8,327.5,125.8z M327.5,114.5c-2.5,0-4.6,2.1-4.6,4.6c0,2.5,2.1,4.6,4.6,4.6c2.5,0,4.6-2.1,4.6-4.6
		c0,0,0,0,0,0C332.1,116.6,330.1,114.5,327.5,114.5z"/>
	<path class="st3" d="M386.1,114.4c-3.7,0-6.7-3-6.7-6.7c0-3.7,3-6.7,6.7-6.7c3.7,0,6.7,3,6.7,6.7v0
		C392.8,111.4,389.8,114.4,386.1,114.4z M386.1,103.1c-2.5,0-4.6,2.1-4.6,4.6s2.1,4.6,4.6,4.6s4.6-2.1,4.6-4.6c0,0,0,0,0,0
		C390.7,105.2,388.7,103.1,386.1,103.1z"/>
	<path class="st4" d="M394.4,136.2c-0.6,0-1-0.4-1-1c0,0,0,0,0-0.1v-4.6c-0.1-0.6,0.4-1.1,1-1.2c0.6-0.1,1.1,0.4,1.2,1
		c0,0.1,0,0.1,0,0.2v4.6C395.5,135.8,395,136.2,394.4,136.2C394.4,136.2,394.4,136.2,394.4,136.2z"/>
	<path class="st4" d="M394.4,144.4c-0.6,0-1-0.4-1-1c0,0,0,0,0-0.1v-4.6c0.1-0.6,0.6-1,1.2-1c0.5,0,0.9,0.4,1,1v4.6
		C395.5,143.9,395,144.4,394.4,144.4C394.4,144.4,394.4,144.4,394.4,144.4z"/>
	<path class="st4" d="M400.9,138h-4.2c-0.6,0-1-0.5-1-1.1s0.5-1.1,1-1.1h4.2c0.6,0,1.1,0.5,1.1,1.1S401.5,138,400.9,138z"/>
	<path class="st4" d="M392.1,138h-4.2c-0.6,0-1-0.5-1-1.1s0.5-1.1,1-1.1h4.2c0.6,0,1,0.5,1,1.1S392.6,138,392.1,138z"/>
	<path class="st2" d="M358.9,108.1c-0.6,0-1.1-0.5-1-1.1v-4.6c0.1-0.6,0.6-1,1.2-1c0.5,0,0.9,0.4,1,1v4.6
		C360,107.6,359.5,108.1,358.9,108.1z"/>
	<path class="st2" d="M358.9,116.2c-0.6,0-1-0.4-1-0.9c0,0,0,0,0-0.1v-4.6c-0.1-0.6,0.4-1.1,1-1.2c0.6-0.1,1.1,0.4,1.2,1
		c0,0.1,0,0.1,0,0.2v4.6C360,115.8,359.5,116.2,358.9,116.2z"/>
	<path class="st2" d="M365.5,109.8h-4.2c-0.6-0.1-1-0.6-1-1.2c0-0.5,0.4-0.9,1-1h4.2c0.6-0.1,1.1,0.4,1.2,1c0.1,0.6-0.4,1.1-1,1.2
		C365.6,109.9,365.5,109.9,365.5,109.8z"/>
	<path class="st2" d="M356.6,109.8h-4.2c-0.6-0.1-1-0.6-1-1.2c0-0.5,0.4-0.9,1-1h4.2c0.6,0.1,1,0.6,1,1.2
		C357.5,109.4,357.1,109.8,356.6,109.8z"/>
	<path class="st4" d="M87.6,102.1c0-3.7,3-6.7,6.7-6.7c3.7,0,6.7,3,6.7,6.7c0,3.7-3,6.7-6.7,6.7c0,0,0,0,0,0
		C90.6,108.8,87.6,105.8,87.6,102.1z M89.7,102.1c0,2.5,2.1,4.6,4.6,4.6c2.5,0,4.6-2.1,4.6-4.6s-2.1-4.6-4.6-4.6c0,0,0,0,0,0
		C91.7,97.5,89.7,99.5,89.7,102.1z"/>
	<path class="st3" d="M60.6,127.7c0-3.7,3-6.7,6.7-6.7s6.7,3,6.7,6.7c0,3.7-3,6.7-6.7,6.7C63.6,134.4,60.6,131.4,60.6,127.7z
		 M62.7,127.7c0,2.5,2.1,4.6,4.6,4.6s4.6-2.1,4.6-4.6c0-2.5-2.1-4.6-4.6-4.6C64.8,123.1,62.7,125.1,62.7,127.7z"/>
	<path class="st4" d="M46.7,137.1c0.6,0,1-0.4,1.1-0.9c0,0,0-0.1,0-0.1v-4.6c0.1-0.6-0.4-1.1-1-1.2s-1.1,0.4-1.2,1
		c0,0.1,0,0.1,0,0.2v4.6C45.6,136.6,46,137.1,46.7,137.1C46.6,137.1,46.6,137.1,46.7,137.1z"/>
	<path class="st4" d="M46.7,145.2c0.6,0,1-0.4,1-0.9c0,0,0-0.1,0-0.1v-4.6c-0.1-0.6-0.6-1-1.2-1c-0.5,0-0.9,0.4-1,1v4.6
		C45.6,144.8,46.1,145.2,46.7,145.2z"/>
	<path class="st4" d="M40.1,138.8h4.2c0.6,0,1.1-0.5,1.1-1.1s-0.5-1.1-1.1-1.1h-4.2c-0.6,0-1.1,0.5-1.1,1.1S39.6,138.8,40.1,138.8z"
		/>
	<path class="st4" d="M49,138.8h4.2c0.6,0,1.1-0.5,1.1-1.1s-0.5-1.1-1.1-1.1l0,0H49c-0.6,0-1.1,0.5-1.1,1.1S48.4,138.8,49,138.8z"/>
	<path class="st2" d="M70.9,101.4c0.6,0,1-0.4,1-1v-4.7c0.1-0.6-0.4-1.1-1-1.2c-0.6-0.1-1.1,0.4-1.2,1c0,0.1,0,0.1,0,0.2v4.6
		C69.8,100.9,70.3,101.4,70.9,101.4C70.9,101.4,70.9,101.4,70.9,101.4z"/>
	<path class="st2" d="M70.9,109.5c0.6,0,1-0.4,1-1v-4.7c-0.1-0.6-0.6-1-1.2-1c-0.5,0-0.9,0.4-1,1v4.7
		C69.8,109.1,70.3,109.5,70.9,109.5C70.9,109.5,70.9,109.5,70.9,109.5z"/>
	<path class="st2" d="M64.4,103.1h4.2c0.6,0,1-0.5,1-1c0-0.6-0.5-1.1-1-1.1h-4.2c-0.6,0-1.1,0.5-1.1,1
		C63.3,102.7,63.8,103.1,64.4,103.1C64.4,103.1,64.4,103.1,64.4,103.1z"/>
	<path class="st2" d="M73.3,103.1h4.2c0.6,0,1.1-0.5,1.1-1c0-0.6-0.5-1.1-1-1.1c0,0,0,0,0,0h-4.2c-0.6,0-1,0.5-1,1.1
		C72.2,102.7,72.7,103.1,73.3,103.1z"/>
	<path class="st1" d="M271.7,102.6c-0.1,0-0.2,0-0.4,0c-1.3-0.5-2-0.8-2-0.8c-0.4-0.1-0.6-0.5-0.5-0.9c0,0,0,0,0,0
		c0.1-0.4,0.6-0.6,1-0.5c0,0,0.8,0.3,2.1,0.8c0.4,0.2,0.6,0.6,0.4,1c0,0,0,0,0,0C272.2,102.4,272,102.6,271.7,102.6z"/>
	<path class="st1" d="M309.8,142.7c0.5,1.4,1,2.8,1.4,4.2c0.1,0.3,0.4,0.6,0.8,0.5h0.1c0.4-0.1,0.6-0.5,0.5-0.9c0,0,0,0,0,0
		c-0.4-1.4-0.9-2.9-1.4-4.2c-0.1-0.4-0.6-0.6-1-0.5c0,0,0,0,0,0C309.8,141.9,309.7,142.3,309.8,142.7z"/>
	<path class="st1" d="M312.4,151.1c0.3,1.4,0.6,2.9,0.9,4.3c0.1,0.4,0.4,0.6,0.8,0.6h0.1c0.4-0.1,0.7-0.5,0.6-0.9c0,0,0,0,0,0
		c-0.3-1.5-0.6-3-0.9-4.4c-0.1-0.4-0.4-0.7-0.9-0.6c-0.4,0.1-0.7,0.4-0.6,0.9C312.4,151,312.4,151,312.4,151.1z"/>
	<path class="st1" d="M315.5,173.6c0.4,0,0.7-0.4,0.7-0.7c0-1.5,0-3,0-4.5c0-0.4-0.4-0.7-0.8-0.7c-0.4,0-0.7,0.4-0.7,0.8
		c0,1.4,0.1,2.9,0,4.4c0,0.4,0.3,0.7,0.7,0.8C315.4,173.6,315.4,173.7,315.5,173.6L315.5,173.6z"/>
	<path class="st1" d="M314.6,158.9c-0.4,0.1-0.7,0.4-0.6,0.8c0.1,0.7,0.2,1.4,0.2,2s0.2,1.6,0.2,2.4c0,0.4,0.4,0.7,0.8,0.7l0,0
		c0.4,0,0.7-0.4,0.7-0.8c-0.1-0.8-0.1-1.6-0.2-2.4s-0.1-1.4-0.2-2.1C315.4,159.1,315,158.8,314.6,158.9L314.6,158.9z"/>
	<path class="st1" d="M308.1,138.6c0.1,0.3,0.4,0.5,0.8,0.4c0.1,0,0.2,0,0.2-0.1c0.4-0.2,0.5-0.6,0.4-1c-0.6-1.4-1.3-2.7-2-4
		c-0.2-0.3-0.6-0.5-1-0.3c-0.4,0.2-0.5,0.6-0.3,1C306.9,136,307.5,137.3,308.1,138.6z"/>
	<path class="st1" d="M275.3,104.4c1.3,0.7,2.6,1.4,3.9,2.1c0.1,0.1,0.3,0.1,0.5,0.1c0.2,0,0.4-0.2,0.6-0.4c0.2-0.4,0.1-0.8-0.3-1
		c-1.3-0.8-2.6-1.5-3.9-2.2c-0.4-0.2-0.8,0-1,0.4C274.8,103.8,275,104.2,275.3,104.4L275.3,104.4z"/>
	<path class="st1" d="M286.4,111.4c0.3,0.3,0.8,0.3,1.1,0c0.3-0.3,0.3-0.8,0-1.1c0,0-0.1-0.1-0.1-0.1c-1.2-0.9-2.4-1.8-3.6-2.6
		c-0.4-0.2-0.8-0.1-1,0.3c-0.2,0.3-0.1,0.8,0.2,1C284.1,109.7,285.3,110.5,286.4,111.4z"/>
	<path class="st1" d="M299,123.6c0.2,0.2,0.4,0.3,0.7,0.3c0.1,0,0.3-0.1,0.4-0.2c0.3-0.3,0.3-0.7,0.1-1c-0.9-1.2-1.9-2.3-2.9-3.4
		c-0.3-0.3-0.8-0.3-1.1,0c-0.3,0.3-0.3,0.8-0.1,1.1c0,0,0,0,0,0C297.1,121.4,298.1,122.5,299,123.6z"/>
	<path class="st1" d="M293.1,117.1c0.3,0.3,0.7,0.3,1,0c0.3-0.3,0.3-0.8,0-1.1c-1.1-1-2.2-2.1-3.3-3c-0.3-0.3-0.8-0.2-1,0.1
		c0,0,0,0,0,0c-0.3,0.3-0.2,0.8,0.1,1c0,0,0,0,0,0C291,115.1,292,116.1,293.1,117.1z"/>
	<path class="st1" d="M304,130.8c0.1,0.2,0.4,0.4,0.7,0.4c0.1,0,0.2,0,0.3-0.1c0.3-0.2,0.5-0.7,0.2-1c-0.8-1.3-1.6-2.5-2.5-3.8
		c-0.2-0.4-0.7-0.5-1-0.3c-0.4,0.2-0.5,0.7-0.3,1c0,0,0.1,0.1,0.1,0.1C302.5,128.4,303.3,129.6,304,130.8z"/>
	<polygon class="st3" points="271.7,97.4 275,85.3 234.9,85.7 	"/>
	<polygon class="st4" points="234.9,85.7 269.7,100.4 269.8,100.4 271.3,102.9 271.7,97.4 	"/>
	<polygon class="st4" points="271.3,102.9 268.1,102.4 269.8,100.4 	"/>
	<polygon class="st3" points="265.4,98.6 269.8,100.4 260.8,110.6 234.9,85.7 	"/>
	<path class="st2" d="M456,416.3v0.7c0,4.2-3.4,7.6-7.6,7.6c0,0,0,0,0,0h-396c-4.2,0-7.6-3.4-7.6-7.6v-0.7c0-4.2,3.4-7.6,7.6-7.6
		h396C452.7,408.7,456.1,412.1,456,416.3z"/>
	<path class="st4" d="M456,416.3v0.4H44.8v-0.4c0-4.2,3.4-7.6,7.6-7.6h396C452.7,408.7,456.1,412.1,456,416.3z"/>
	<path class="st5" d="M311,384.7H186.7c-3,0-5.4-2.4-5.4-5.4l0,0v-65.1c0-3,2.4-5.4,5.4-5.4c0,0,0,0,0,0H311c3,0,5.4,2.4,5.4,5.4
		l0,0v65.1C316.4,382.3,314,384.7,311,384.7L311,384.7z"/>
	<rect x="238.4" y="384.6" class="st6" width="20.9" height="23.9"/>
	<circle class="st12" cx="248.6" cy="347.7" r="10.4"/>
	<path class="st5" d="M275.5,408.5h-54v-1.8c0-3.7,3-6.6,6.6-6.6h40.7c3.7,0,6.6,3,6.6,6.6L275.5,408.5L275.5,408.5z"/>
</g>
</svg>
