<?xml version="1.0" encoding="utf-8"?>
<!-- Generator: Adobe Illustrator 27.5.0, SVG Export Plug-In . SVG Version: 6.00 Build 0)  -->
<svg version="1.1" xmlns="http://www.w3.org/2000/svg" xmlns:xlink="http://www.w3.org/1999/xlink" x="0px" y="0px"
	 viewBox="0 0 680 500" style="enable-background:new 0 0 680 500;" xml:space="preserve">
<g id="BACKGROUND">
	<g>
		<rect style="fill:#FFFFFF;" width="680" height="500"/>
		<path style="fill:#D9E6FF;" d="M98.683,201.028l206-113.655c20.864-11.511,46.528-9.784,65.661,4.42L588.152,253.49
			c42.522,31.568,27.21,98.626-24.8,108.607l-297.05,57.01c-17.85,3.426-36.298-1.308-50.293-12.906L89.251,301.15
			C56.226,273.78,61.128,221.748,98.683,201.028z"/>
	</g>
</g>
<g id="OBJECTS">
	<g>
		<ellipse style="fill:#D9E6FF;" cx="340" cy="439.594" rx="257.013" ry="23.01"/>
		<g>
			<g>
				<g>
					<path style="fill:#3A9B9B;" d="M529.889,427.449c36.619,7.482,40.81-9.887,41.432-27.043
						c0.622-17.156,32.521-23.933,37.82-37.142c5.299-13.209-20.823-47.606-49.456-18.533
						c-28.633,29.072-58.383-19.289-77.619,27.988L529.889,427.449z"/>
					<path style="fill:none;stroke:#408287;stroke-width:3;stroke-linecap:round;stroke-linejoin:round;stroke-miterlimit:10;" d="
						M513.222,401.442c42.279-38.053,64.435-50.837,80.995-50.609"/>
				</g>
				<g>
					<g>
						<path style="fill:none;stroke:#3A9B9B;stroke-width:2;stroke-miterlimit:10;" d="M518.412,375.838
							c43.589-18.004,16.109-96.18,16.109-96.18"/>
						<circle style="fill:#FFE98F;" cx="534.047" cy="279.303" r="7.225"/>
						<path style="fill:#E8CF69;" d="M540.508,276.081c-0.105,3.039-2.596,5.473-5.661,5.473c-3.132,0-5.671-2.539-5.671-5.671
							c0-0.829,0.182-1.615,0.502-2.325c-1.733,1.32-2.857,3.399-2.857,5.745c0,3.99,3.235,7.225,7.225,7.225
							c3.99,0,7.225-3.235,7.225-7.225C541.273,278.143,540.993,277.052,540.508,276.081z"/>
					</g>
					<g>
						<path style="fill:none;stroke:#3A9B9B;stroke-width:2;stroke-miterlimit:10;" d="M515.866,380.813
							c60.053-31.803,41.398-83.684,41.398-83.684"/>
						<path style="fill:#FFE98F;" d="M564.37,292.984c0,3.99-3.235,7.225-7.225,7.225s-7.225-3.235-7.225-7.225
							c0-3.991,3.235-7.225,7.225-7.225S564.37,288.993,564.37,292.984z"/>
						<path style="fill:#E8CF69;" d="M563.605,289.762c-0.105,3.039-2.596,5.473-5.661,5.473c-3.132,0-5.671-2.539-5.671-5.671
							c0-0.83,0.182-1.615,0.502-2.325c-1.733,1.32-2.857,3.399-2.857,5.745c0,3.99,3.235,7.225,7.225,7.225
							s7.225-3.235,7.225-7.225C564.37,291.824,564.091,290.733,563.605,289.762z"/>
					</g>
				</g>
				<g>
					<path style="fill:#6BDDBC;" d="M329.131,429.574h224.51c0,0,22.05-38.386-1.822-56.925
						c-21.404-16.622-53.737,6.831-53.737,6.831s34.22-60.8-23.681-73.319C411.217,292.5,329.131,429.574,329.131,429.574z"/>
				</g>
				<g>
					<path style="fill:#9CF7C3;" d="M492.514,425.582c36.416-8.414,33.009-25.954,26.445-41.817
						c-6.564-15.863,19.633-35.284,18.963-49.501c-0.67-14.217-38.724-34.645-52.685,3.697c-13.96,38.342-61.118,6.72-58.966,57.715
						L492.514,425.582z"/>
					<path style="fill:none;stroke:#408287;stroke-width:3;stroke-linecap:round;stroke-linejoin:round;stroke-miterlimit:10;" d="
						M466.546,408.853c22.639-52.182,37.478-73.018,52.635-79.693"/>
				</g>
				<path style="fill:#3A9B9B;" d="M488.498,397.958c-1.564,0-3.071,0.235-4.498,0.658c-2.126-10.194-10.298-18.149-20.593-19.992
					c-0.647-17.254-14.8-31.054-32.212-31.054c-11.321,0-21.264,5.841-27.025,14.661c-3.423-2.182-7.476-3.464-11.836-3.464
					c-11.575,0-21.05,8.917-21.974,20.254c-2.034-0.518-4.153-0.823-6.348-0.823c-14.187,0-25.688,11.501-25.688,25.688
					c0,13.909,11.062,25.207,24.864,25.646v0.042h123.498v-0.111c0.595,0.068,1.198,0.111,1.811,0.111
					c8.73,0,15.808-7.078,15.808-15.808C504.306,405.036,497.228,397.958,488.498,397.958z"/>
			</g>
			<g>
				<g>
					<path style="fill:#3A9B9B;" d="M150.111,427.449c-36.619,7.482-40.81-9.887-41.432-27.043
						c-0.622-17.156-32.521-23.933-37.82-37.142c-5.299-13.209,20.823-47.606,49.456-18.533
						c28.633,29.072,58.383-19.289,77.619,27.988L150.111,427.449z"/>
					<path style="fill:none;stroke:#408287;stroke-width:3;stroke-linecap:round;stroke-linejoin:round;stroke-miterlimit:10;" d="
						M166.778,401.442c-42.279-38.053-64.435-50.837-80.995-50.609"/>
				</g>
				<g>
					<g>
						<path style="fill:none;stroke:#3A9B9B;stroke-width:2;stroke-miterlimit:10;" d="M161.588,375.838
							c-43.589-18.004-16.109-96.18-16.109-96.18"/>
						<circle style="fill:#FFE98F;" cx="145.953" cy="279.303" r="7.225"/>
						<path style="fill:#E8CF69;" d="M139.492,276.081c0.105,3.039,2.596,5.473,5.661,5.473c3.132,0,5.671-2.539,5.671-5.671
							c0-0.829-0.182-1.615-0.502-2.325c1.733,1.32,2.857,3.399,2.857,5.745c0,3.99-3.235,7.225-7.225,7.225
							c-3.99,0-7.225-3.235-7.225-7.225C138.727,278.143,139.007,277.052,139.492,276.081z"/>
					</g>
					<g>
						<path style="fill:none;stroke:#3A9B9B;stroke-width:2;stroke-miterlimit:10;" d="M164.134,380.813
							c-60.053-31.803-41.398-83.684-41.398-83.684"/>
						<circle style="fill:#FFE98F;" cx="122.855" cy="292.984" r="7.225"/>
						<path style="fill:#E8CF69;" d="M116.395,289.762c0.105,3.039,2.596,5.473,5.661,5.473c3.132,0,5.671-2.539,5.671-5.671
							c0-0.83-0.182-1.615-0.502-2.325c1.733,1.32,2.857,3.399,2.857,5.745c0,3.99-3.235,7.225-7.225,7.225
							c-3.991,0-7.225-3.235-7.225-7.225C115.63,291.824,115.91,290.733,116.395,289.762z"/>
					</g>
				</g>
				<g>
					<path style="fill:#6BDDBC;" d="M350.869,429.574h-224.51c0,0-22.05-38.386,1.822-56.925
						c21.404-16.622,53.737,6.831,53.737,6.831s-34.22-60.8,23.681-73.319C268.783,292.5,350.869,429.574,350.869,429.574z"/>
				</g>
				<g>
					<path style="fill:#9CF7C3;" d="M187.486,425.582c-36.416-8.414-33.009-25.954-26.445-41.817
						c6.564-15.863-19.633-35.284-18.963-49.501c0.67-14.217,38.724-34.645,52.684,3.697c13.96,38.342,61.118,6.72,58.966,57.715
						L187.486,425.582z"/>
					<path style="fill:none;stroke:#408287;stroke-width:3;stroke-linecap:round;stroke-linejoin:round;stroke-miterlimit:10;" d="
						M213.454,408.853c-22.639-52.182-37.478-73.018-52.635-79.693"/>
				</g>
				<path style="fill:#3A9B9B;" d="M191.502,397.958c1.564,0,3.071,0.235,4.498,0.658c2.126-10.194,10.298-18.149,20.593-19.992
					c0.647-17.254,14.8-31.054,32.213-31.054c11.321,0,21.264,5.841,27.025,14.661c3.423-2.182,7.476-3.464,11.836-3.464
					c11.575,0,21.05,8.917,21.974,20.254c2.034-0.518,4.153-0.823,6.348-0.823c14.187,0,25.688,11.501,25.688,25.688
					c0,13.909-11.062,25.207-24.864,25.646v0.042H193.313v-0.111c-0.595,0.068-1.198,0.111-1.811,0.111
					c-8.73,0-15.808-7.078-15.808-15.808C175.694,405.036,182.772,397.958,191.502,397.958z"/>
			</g>
		</g>
		<g>
			<path style="fill:#FFC154;" d="M221.898,130.564c0-2.147,18.467-81.168,114.236-81.168c64.42,0,121.968,42.087,121.968,102.641
				c0,42.087-31.352,67.854-72.579,85.462c-14.603,6.442-15.031,18.467-15.031,32.639v24.049H299.63v-46.811
				c0-18.896,0.859-34.356,20.185-46.811c26.196-16.749,50.677-18.038,50.677-48.529c0-20.615-15.461-35.216-34.788-35.216
				c-30.92,0-45.951,25.767-50.675,44.234L221.898,130.564z"/>
			<path style="fill:#FFC154;" d="M384.234,367.625c0,27.056-21.902,48.958-49.387,48.958c-27.056,0-48.96-21.902-48.96-48.958
				c0-27.485,21.904-49.387,48.96-49.387C362.332,318.238,384.234,340.14,384.234,367.625z"/>
			<path style="fill:#FFD876;" d="M369.523,348.309c-0.413,11.262-12.054,19.964-26.245,19.444
				c-13.969-0.512-24.944-10.042-24.531-21.304c0.419-11.441,12.062-20.143,26.031-19.631
				C358.968,327.337,369.942,336.868,369.523,348.309z"/>
			<path style="fill:#F4AE3D;" d="M454.394,175.683c-46.223,20.456-102.877,39.311-154.654,63.702
				c-0.089,2.593-0.11,5.255-0.11,7.991v46.811h70.862v-24.049c0-14.172,0.428-26.197,15.031-32.639
				C418.391,223.461,444.962,204.227,454.394,175.683z"/>
			<path style="fill:#FFD876;" d="M369.999,158.932c27.83-12.698,55.904-26.205,81.764-40.394
				c-5.164-13.038-13.276-24.64-23.557-34.444c-19.368,16.487-41.336,32.355-64.03,47.167c3.98,5.687,6.316,12.775,6.316,20.775
				C370.492,154.528,370.313,156.806,369.999,158.932z"/>
		</g>
		<g>
			<g>
				<path style="fill:#A0B8E8;" d="M152.773,52.223c-23.582-8.703-49.754,3.359-58.457,26.941
					c-8.703,23.582,3.359,49.754,26.941,58.457c13.352,4.927,27.532,3.193,38.903-3.514l15.496,7.509l-3.386-17.91
					c3.104-3.802,5.65-8.165,7.444-13.027C188.417,87.098,176.355,60.926,152.773,52.223z"/>
				<g>
					<path style="fill:#FFFFFF;" d="M136.489,70.542c-13.022,0-15.533,10.745-15.533,11.037l8.584,4.146
						c0.642-2.511,2.686-6.015,6.891-6.015c2.628,0,4.73,1.985,4.73,4.788c0,4.146-3.329,4.321-6.891,6.599
						c-2.628,1.693-2.745,3.796-2.745,6.365v6.365h9.635v-3.27c0-1.927,0.058-3.562,2.044-4.438
						c5.606-2.394,9.869-5.898,9.869-11.621C153.074,76.265,145.249,70.542,136.489,70.542z"/>
					<path style="fill:#FFFFFF;" d="M136.314,107.098c-3.679,0-6.657,2.978-6.657,6.715c0,3.679,2.978,6.657,6.657,6.657
						c3.737,0,6.715-2.978,6.715-6.657C143.03,110.076,140.051,107.098,136.314,107.098z"/>
				</g>
			</g>
			<g>
				<g>
					<g>
						<path style="fill:#FFB692;" d="M240.484,209.043l-7.698,39.614c-0.732,4.203,2.082,8.204,6.285,8.936l0,0
							c4.203,0.732,8.204-2.082,8.936-6.285l4.141-38.055L240.484,209.043z"/>
						<g>
							<path style="fill:#FFB692;" d="M209.031,223.913l35.267,19.616c3.687,2.146,4.937,6.876,2.79,10.563v0
								c-2.146,3.687-6.875,4.936-10.562,2.79l-35.267-19.617L209.031,223.913z"/>
						</g>
						<polygon style="fill:#D88D87;" points="209.031,223.913 201.258,237.265 223.188,249.464 225.951,233.324 						"/>
					</g>
					<path style="fill:#C14C4C;" d="M225.542,230.2l-9.844,17.05l-14.691-8.482c-4.546-2.625-6.104-8.438-3.479-12.983l0.339-0.587
						c2.625-4.546,8.438-6.104,12.983-3.479L225.542,230.2z"/>
					<g>
						<path style="fill:#FFB692;" d="M239.73,212.215c-5.254-6.357,5.215-12.208,5.215-12.208l3.215-7.734
							c0,0,6.764,3.163,2.46,9.286c0,0,10.002-3.405,14.032-1.228c1.893,1.023,4.534,8.946,3.835,13.376
							c-0.148,0.939-1.035,1.566-1.97,1.393c-2.246-0.415-6.794-0.797-10.839,1.696C250.042,220.268,240.716,221.775,239.73,212.215
							z"/>
						<path style="fill:#D88D87;" d="M250.62,201.558c0,0,2.348,5.67-3.36,9.968c0,0,4.359-4.66,2.909-9.81L250.62,201.558z"/>
						<path style="fill:#D88D87;" d="M253.764,213.381c0,0,0.708-4.923-1.158-9.54C252.606,203.841,257.05,206.857,253.764,213.381z
							"/>
						<g>
							<path style="fill:#D88D87;" d="M253.977,211.507l0.098-0.393c0,0,8.282-1.603,14.509,1.603
								c-0.007,0.141-0.017,0.279-0.03,0.415C266.081,212.171,260.062,210.252,253.977,211.507z"/>
							<path style="fill:#D88D87;" d="M253.795,205.901l-0.317-0.572c0,0,7.433-3.996,13.348-1.622
								c0.594,1.467,1.114,3.236,1.435,4.993c-1.933-0.694-7.792-2.374-13.94,0.065l-0.136-0.484c0,0,7.463-4.046,13.739-0.482
								l-0.869-3.464C267.056,204.334,260.641,202.011,253.795,205.901z"/>
						</g>
					</g>
				</g>
				<g>
					<g>
						<g>
							<path style="fill:#FF5A5A;" d="M208.663,438.081h-4.179c-2.791,0-5.074-2.283-5.074-5.074v-11.081
								c0-2.791,2.283-5.074,5.074-5.074h4.179c2.791,0,5.074,2.283,5.074,5.074v11.081
								C213.737,435.797,211.454,438.081,208.663,438.081z"/>
							<g>
								<g>
									<path style="fill:#4E4E7F;" d="M199.153,426.709h0.488c0.367,0,0.704,0.226,0.818,0.575
										c0.825,2.522,3.193,4.344,5.99,4.344c2.797,0,5.165-1.823,5.99-4.344c0.114-0.349,0.451-0.575,0.818-0.575h4.633
										c0.146,0,0.29,0.037,0.418,0.107l12.015,6.554c1.751,0.955,3.175,2.414,4.089,4.187l1.693,3.287
										c1.215,2.358-0.497,5.165-3.149,5.165h-31.34c-2.234,0-3.988-1.914-3.793-4.14L199.153,426.709z"/>
									<path style="fill:#3E3D5E;" d="M207.421,431.55c-0.317,0.049-0.641,0.079-0.973,0.079c-2.244,0-4.196-1.183-5.313-2.948
										c-0.687-0.235-1.386-0.453-2.099-0.651l-1.214,13.838c-0.195,2.225,1.559,4.14,3.793,4.14h17.642
										C217.731,440.232,213.451,435.091,207.421,431.55z"/>
								</g>
								<path style="fill:#C14C4C;" d="M199.354,447.143h36.075c0.954,0,1.734-0.78,1.734-1.734l0,0
									c0-0.954-0.781-1.734-1.734-1.734h-36.075c-0.954,0-1.734,0.781-1.734,1.734l0,0
									C197.619,446.363,198.4,447.143,199.354,447.143z"/>
							</g>
						</g>
						
							<rect x="177.787" y="322.665" transform="matrix(-0.1042 -0.9946 0.9946 -0.1042 -104.6352 571.4785)" style="fill:#3E3D5E;" width="54.531" height="20.395"/>
						<path style="fill:#3E3D5E;" d="M217.035,425.102l0.835-69.171l0,0c-11.263-0.136-20.503-2.419-20.639,8.844l-0.589,60.081
							L217.035,425.102z"/>
						<rect x="195.524" y="417.335" style="fill:#4E4E7F;" width="22.363" height="8.368"/>
					</g>
					<path style="fill:#3E3D5E;" d="M181.917,319.073h15.158c9.171,0,16.674-7.503,16.674-16.674l0,0
						c0-6.139-5.023-11.162-11.162-11.162h-26.182c-6.139,0-11.162,5.023-11.162,11.162l0,0
						C165.243,311.57,172.746,319.073,181.917,319.073z"/>
					<g>
						<g>
							<path style="fill:#FF5A5A;" d="M183.878,438.081h-4.179c-2.791,0-5.074-2.283-5.074-5.074v-11.081
								c0-2.791,2.283-5.074,5.074-5.074h4.179c2.791,0,5.074,2.283,5.074,5.074v11.081
								C188.952,435.797,186.669,438.081,183.878,438.081z"/>
							<g>
								<g>
									<path style="fill:#4E4E7F;" d="M174.368,426.709h0.488c0.367,0,0.704,0.226,0.818,0.575
										c0.825,2.522,3.193,4.344,5.99,4.344c2.797,0,5.165-1.823,5.99-4.344c0.114-0.349,0.451-0.575,0.818-0.575h4.633
										c0.146,0,0.29,0.037,0.418,0.107l12.015,6.554c1.751,0.955,3.176,2.414,4.089,4.187l1.693,3.287
										c1.215,2.358-0.497,5.165-3.149,5.165h-31.34c-2.234,0-3.988-1.914-3.793-4.14L174.368,426.709z"/>
								</g>
								<path style="fill:#FF5A5A;" d="M174.569,447.143h36.075c0.954,0,1.734-0.78,1.734-1.734l0,0c0-0.954-0.78-1.734-1.734-1.734
									h-36.075c-0.954,0-1.734,0.781-1.734,1.734l0,0C172.834,446.363,173.615,447.143,174.569,447.143z"/>
							</g>
						</g>
						
							<rect x="154.186" y="322.665" transform="matrix(-0.1042 -0.9946 0.9946 -0.1042 -130.6951 548.0059)" style="fill:#3E3D5E;" width="54.531" height="20.395"/>
						<path style="fill:#3E3D5E;" d="M193.435,425.102l0.835-69.171l0,0c-11.263-0.136-20.503-2.419-20.639,8.844l-0.589,60.081
							L193.435,425.102z"/>
					</g>
					<rect x="171.685" y="417.335" style="fill:#4E4E7F;" width="22.363" height="8.368"/>
					<path style="fill:#262638;" d="M175.821,291.237h27.349c4.03,0,7.549,2.285,9.333,5.623
						c-18.634,14.414-36.549,13.027-46.748,10.321c-0.323-1.254-0.513-2.559-0.513-3.91v-1.455
						C165.243,295.998,170.003,291.237,175.821,291.237z"/>
				</g>
				<g>
					<g>
						<g>
							<path style="fill:#FF5A5A;" d="M215.568,299.836c-8.688,2.395-21.231,4.62-36.079,3.077
								c-6.017-0.625-11.403-1.764-16.065-3.077c0-20.876,0-41.753,0-62.629c0-11.621,9.421-21.042,21.042-21.042h3.975
								c14.982,0,27.128,12.145,27.128,27.128V299.836z"/>
						</g>
					</g>
				</g>
				<path style="fill:#FFB692;" d="M203.723,222.933c-0.237,3.116-6.564,5.176-14.133,4.6c-7.568-0.576-13.511-3.569-13.274-6.685
					c0.237-3.116,6.565-5.176,14.133-4.6C198.018,216.824,203.961,219.817,203.723,222.933z"/>
				<g>
					<path style="fill:#FFB692;" d="M180.404,219.089c-0.017-23.086,4.5-11.092,10.06-11.096
						c5.561-0.004,10.061-10.516,10.076,11.081c0.006,8.091-4.503,7.395-10.063,7.399
						C184.917,226.478,180.409,227.18,180.404,219.089z"/>
					<path style="fill:#D88D87;" d="M200.326,212.331c-0.958-12.358-5.005-4.341-9.862-4.337
						c-5.384,0.004-9.789-11.241-10.048,9.003C189.021,219.803,195.693,216.534,200.326,212.331z"/>
					<g>
						<path style="fill:#FFB692;" d="M215.013,190.142c0.245-1.212,0.408-2.435,0.477-3.659l0.282-5.029
							c0.619-11.028-7.898-20.558-18.926-21.176l-10.881-0.611c-11.028-0.619-20.557,7.898-21.176,18.926l-0.282,5.029
							c-0.751,13.389,5.828,27.697,22.813,28.649l2.295,0.129c0.876,0.049,1.743,0.035,2.602-0.032
							C218.105,211.888,215.503,194.333,215.013,190.142z"/>
						<path style="fill:#323244;" d="M215.013,190.142c0,0,4.849-8.04,1.142-16.016c0,0,8.527-3.858,5.503-17.577l-3.674,4.311
							c0,0,0.264-7.934-5.256-12.58l-1.246,9.325c0,0-26.25-8.699-39.424,3.931c-13.174,12.63-6.678,25.641-6.678,25.641
							l6.413,1.624c0,0,7.355-2.297,7.312-14.404c0,0,19.777,8.155,26.385-0.146l-2.92-2.693l10.434,4.018L215.013,190.142z"/>
						<path style="fill:#4C5E72;" d="M173.42,160.343c0.826-0.663,1.692-1.257,2.592-1.784c12.145,9.741,33.031,14.1,46.288,3.378
							c0.016,2.154-0.296,3.965-0.792,5.472c-6.578,2.856-12.567,4.227-17.984,4.516l-0.956-0.368l0.431,0.397
							C189.754,172.494,179.978,166.578,173.42,160.343z"/>
						<g>
							<g>
								<path style="fill:#3A2E2E;" d="M184.214,185.496c-0.074,1.316,0.934,2.443,2.25,2.517c1.316,0.074,2.443-0.934,2.517-2.25
									c0.074-1.316-0.933-2.443-2.25-2.517C185.415,183.172,184.288,184.179,184.214,185.496z"/>
							</g>
						</g>
						<g>
							<g>
								<path style="fill:#3A2E2E;" d="M201.445,185.899c-0.074,1.316,0.933,2.443,2.25,2.517c1.317,0.074,2.443-0.934,2.517-2.25
									c0.074-1.316-0.933-2.443-2.25-2.517C202.645,183.576,201.518,184.583,201.445,185.899z"/>
							</g>
						</g>
						<g>
							<path style="fill:#D88D87;" d="M195.643,199.937c1.831,0.103,3.995-0.208,6.53-1.185c0.324-0.125,0.485-0.488,0.36-0.812
								c-0.125-0.323-0.489-0.484-0.811-0.36c-10.019,3.86-13.396-3.345-13.535-3.653c-0.142-0.317-0.513-0.458-0.83-0.315
								c-0.316,0.142-0.457,0.514-0.314,0.83C187.073,194.509,189.451,199.59,195.643,199.937z"/>
						</g>
						<g>
							<path style="fill:#D88D87;" d="M188.865,193.845l-2.694,1.113C186.171,194.958,186.701,192.835,188.865,193.845z"/>
						</g>
						<g>
							<path style="fill:#D88D87;" d="M199.758,194.623c0.173,0.01,0.35-0.052,0.482-0.186c1.047-1.06,1.444-2.101,1.181-3.094
								c-0.397-1.495-2.172-2.289-2.99-2.581l-0.805-4.866c-0.057-0.342-0.38-0.571-0.722-0.517
								c-0.343,0.057-0.574,0.38-0.517,0.722l0.933,5.635l0.384,0.109c0.609,0.173,2.245,0.836,2.504,1.821
								c0.141,0.532-0.149,1.168-0.861,1.888c-0.244,0.247-0.241,0.644,0.006,0.888C199.465,194.554,199.61,194.615,199.758,194.623
								z"/>
						</g>
					</g>
					<g>
						<path style="fill:#FFB692;" d="M171.958,185.995c-0.17,3.034-2.767,5.355-5.801,5.185c-3.034-0.17-5.355-2.767-5.185-5.801
							c0.17-3.034,2.768-5.355,5.802-5.185C169.807,180.364,172.128,182.962,171.958,185.995z"/>
						<path style="fill:#D88D87;" d="M169.318,185.847c-0.088,1.576-1.438,2.782-3.014,2.693c-1.576-0.089-2.782-1.438-2.694-3.014
							c0.088-1.576,1.438-2.782,3.014-2.693C168.201,182.922,169.407,184.271,169.318,185.847z"/>
					</g>
				</g>
				<g>
					<g>
						<path style="fill:#FFB692;" d="M135.423,209.043l7.698,39.614c0.732,4.203-2.082,8.204-6.285,8.936l0,0
							c-4.203,0.732-8.204-2.082-8.936-6.285l-4.142-38.055L135.423,209.043z"/>
						<g>
							<path style="fill:#FFB692;" d="M166.877,223.913l-35.267,19.616c-3.687,2.146-4.937,6.876-2.79,10.563v0
								c2.146,3.687,6.875,4.936,10.562,2.79l35.267-19.617L166.877,223.913z"/>
						</g>
						<polygon style="fill:#D88D87;" points="166.877,223.913 174.649,237.265 152.719,249.464 149.956,233.324 						"/>
					</g>
					<path style="fill:#C14C4C;" d="M150.365,230.2l9.844,17.05l14.691-8.482c4.546-2.625,6.104-8.438,3.479-12.983l-0.339-0.587
						c-2.625-4.546-8.437-6.104-12.983-3.479L150.365,230.2z"/>
					<g>
						<path style="fill:#FFB692;" d="M136.177,212.215c5.254-6.357-5.215-12.208-5.215-12.208l-3.215-7.734
							c0,0-6.764,3.163-2.46,9.286c0,0-10.002-3.405-14.032-1.228c-1.893,1.023-4.534,8.946-3.835,13.376
							c0.148,0.939,1.035,1.566,1.97,1.393c2.246-0.415,6.794-0.797,10.839,1.696C125.865,220.268,135.191,221.775,136.177,212.215z
							"/>
						<path style="fill:#D88D87;" d="M125.287,201.558c0,0-2.348,5.67,3.36,9.968c0,0-4.359-4.66-2.909-9.81L125.287,201.558z"/>
						<path style="fill:#D88D87;" d="M122.143,213.381c0,0-0.708-4.923,1.158-9.54C123.301,203.841,118.857,206.857,122.143,213.381
							z"/>
						<g>
							<path style="fill:#D88D87;" d="M121.93,211.507l-0.098-0.393c0,0-8.282-1.603-14.509,1.603
								c0.007,0.141,0.017,0.279,0.03,0.415C109.827,212.171,115.845,210.252,121.93,211.507z"/>
							<path style="fill:#D88D87;" d="M122.112,205.901l0.317-0.572c0,0-7.433-3.996-13.348-1.622
								c-0.594,1.467-1.114,3.236-1.435,4.993c1.933-0.694,7.792-2.374,13.94,0.065l0.136-0.484c0,0-7.463-4.046-13.739-0.482
								l0.869-3.464C108.851,204.334,115.266,202.011,122.112,205.901z"/>
						</g>
					</g>
				</g>
			</g>
		</g>
		<g>
			<g>
				<g>
					<path style="fill:#A0B8E8;" d="M582.799,60.985h-70.102c-9.345,0-16.921,7.576-16.921,16.921v35.051
						c0,8.937,6.934,16.238,15.713,16.86v18.997l18.936-18.936h52.375c9.345,0,16.921-7.576,16.921-16.921V77.907
						C599.72,68.561,592.144,60.985,582.799,60.985z"/>
				</g>
				<g>
					<path style="fill:#FFFFFF;" d="M547.222,70.542c-13.022,0-15.533,10.745-15.533,11.037l8.584,4.146
						c0.642-2.511,2.686-6.015,6.89-6.015c2.628,0,4.73,1.985,4.73,4.788c0,4.146-3.329,4.321-6.891,6.599
						c-2.628,1.693-2.745,3.796-2.745,6.365v6.365h9.635v-3.27c0-1.927,0.058-3.562,2.044-4.438
						c5.606-2.394,9.869-5.898,9.869-11.621C563.806,76.265,555.981,70.542,547.222,70.542z"/>
					<path style="fill:#FFFFFF;" d="M547.047,107.098c-3.679,0-6.657,2.978-6.657,6.715c0,3.679,2.978,6.657,6.657,6.657
						c3.737,0,6.715-2.978,6.715-6.657C553.762,110.076,550.784,107.098,547.047,107.098z"/>
				</g>
			</g>
			<g>
				<g>
					<g>
						<g>
							<path style="fill:#FFC154;" d="M470.521,438.081h4.179c2.791,0,5.074-2.283,5.074-5.074v-11.081
								c0-2.791-2.283-5.074-5.074-5.074h-4.179c-2.791,0-5.074,2.283-5.074,5.074v11.081
								C465.447,435.797,467.73,438.081,470.521,438.081z"/>
							<g>
								<g>
									<path style="fill:#4E4E7F;" d="M480.032,426.709h-0.488c-0.367,0-0.704,0.226-0.818,0.575
										c-0.825,2.522-3.193,4.344-5.99,4.344c-2.797,0-5.165-1.823-5.99-4.344c-0.114-0.349-0.451-0.575-0.818-0.575h-4.633
										c-0.146,0-0.29,0.037-0.418,0.107l-12.015,6.554c-1.751,0.955-3.175,2.414-4.089,4.187l-1.693,3.287
										c-1.215,2.358,0.497,5.165,3.149,5.165h31.34c2.234,0,3.988-1.914,3.793-4.14L480.032,426.709z"/>
									<path style="fill:#3E3D5E;" d="M471.763,431.55c0.317,0.049,0.641,0.079,0.973,0.079c2.244,0,4.196-1.183,5.313-2.948
										c0.687-0.235,1.386-0.453,2.099-0.651l1.214,13.838c0.195,2.225-1.559,4.14-3.793,4.14h-17.642
										C461.453,440.232,465.733,435.091,471.763,431.55z"/>
								</g>
								<path style="fill:#EAAC3D;" d="M479.831,447.143h-36.075c-0.954,0-1.734-0.78-1.734-1.734l0,0
									c0-0.954,0.781-1.734,1.734-1.734h36.075c0.954,0,1.734,0.781,1.734,1.734l0,0
									C481.565,446.363,480.785,447.143,479.831,447.143z"/>
							</g>
						</g>
						<polygon style="fill:#3E3D5E;" points="487.115,306.808 481.433,361.042 461.15,358.917 464.803,301.188 						"/>
						<path style="fill:#3E3D5E;" d="M462.149,425.102l-0.835-69.171l0,0c11.263-0.136,20.503-2.419,20.639,8.844l0.589,60.081
							L462.149,425.102z"/>
					</g>
					<path style="fill:#3E3D5E;" d="M497.886,318.238h-16.395c-9.919,0-18.035-8.116-18.035-18.035l0,0
						c0-6.64,5.433-12.073,12.073-12.073h28.319c6.64,0,12.073,5.433,12.073,12.073l0,0
						C515.921,310.122,507.805,318.238,497.886,318.238z"/>
					<g>
						<g>
							<path style="fill:#FFC154;" d="M501.353,438.081h4.179c2.791,0,5.074-2.283,5.074-5.074v-11.081
								c0-2.791-2.283-5.074-5.074-5.074h-4.179c-2.791,0-5.074,2.283-5.074,5.074v11.081
								C496.279,435.797,498.563,438.081,501.353,438.081z"/>
							<g>
								<g>
									<path style="fill:#4E4E7F;" d="M510.864,426.709h-0.488c-0.367,0-0.704,0.226-0.818,0.575
										c-0.825,2.522-3.193,4.344-5.99,4.344c-2.797,0-5.165-1.823-5.991-4.344c-0.114-0.349-0.451-0.575-0.818-0.575h-4.633
										c-0.146,0-0.29,0.037-0.418,0.107l-12.015,6.554c-1.751,0.955-3.175,2.414-4.089,4.187l-1.693,3.287
										c-1.215,2.358,0.497,5.165,3.149,5.165h31.34c2.234,0,3.988-1.914,3.793-4.14L510.864,426.709z"/>
								</g>
								<path style="fill:#F4C85B;" d="M510.663,447.143h-36.075c-0.954,0-1.734-0.78-1.734-1.734l0,0
									c0-0.954,0.78-1.734,1.734-1.734h36.075c0.954,0,1.734,0.781,1.734,1.734l0,0
									C512.397,446.363,511.617,447.143,510.663,447.143z"/>
							</g>
						</g>
						<polygon style="fill:#3E3D5E;" points="514.266,306.521 511.081,361.042 490.798,358.917 490.962,304.683 						"/>
						<path style="fill:#3E3D5E;" d="M491.797,425.102l-0.835-69.171l0,0c11.263-0.136,20.503-2.419,20.639,8.844l0.589,60.081
							L491.797,425.102z"/>
					</g>
					<path style="fill:#262638;" d="M504.479,288.131h-29.581c-4.359,0-8.165,2.472-10.095,6.081
						c20.155,15.59,39.531,14.09,50.563,11.163c0.349-1.356,0.555-2.768,0.555-4.229v-1.574
						C515.921,293.279,510.772,288.131,504.479,288.131z"/>
				</g>
				<path style="fill:#513C32;" d="M533.975,236.089c1.713,10.049-7.458,19-18.247,17.688
					c-45.333-5.512-58.392-18.191-59.568-27.254c-1.341-10.339,0.798-58.486,29.071-62.154
					C510.454,161.096,525.335,185.392,533.975,236.089z"/>
				<g>
					<path style="fill:#A56F62;" d="M472.022,179.412l-27.094,30.001c-2.926,3.115-7.823,3.269-10.938,0.343l0,0
						c-3.115-2.926-3.269-7.823-0.343-10.938l27.833-26.017L472.022,179.412z"/>
					<g>
						<path style="fill:#A56F62;" d="M459.396,180.416c0.193,6.905,10.021,4.821,10.021,4.821l6.292,3.103
							c0,0,2.52-5.725-3.57-7.211c0,0,8.184-3.369,9.524-6.965c0.629-1.689-2.075-8.141-4.959-10.548
							c-0.611-0.511-1.516-0.417-2.01,0.208c-1.187,1.5-3.844,4.249-7.769,4.908C461.456,169.652,454.745,173.845,459.396,180.416z"
							/>
						<path style="fill:#8C5C53;" d="M472.139,181.13c0,0-1.647-4.869-7.616-4.432c0,0,5.318,0.534,7.244,4.581L472.139,181.13z"/>
						<path style="fill:#8C5C53;" d="M467.6,171.942c0,0,3.161,2.714,4.531,6.653C472.131,178.595,473.27,174.243,467.6,171.942z"/>
						<g>
							<path style="fill:#8C5C53;" d="M468.768,173.005l0.279,0.194c0,0,6.106-3.557,8.264-9.012
								c-0.082-0.085-0.165-0.166-0.248-0.245C476.033,165.912,473.297,170.441,468.768,173.005z"/>
							<path style="fill:#8C5C53;" d="M471.745,176.64l0.115,0.536c0,0,6.89-1.579,9.31-6.339c-0.434-1.252-1.082-2.655-1.849-3.94
								c-0.836,1.503-3.603,5.794-8.824,7.647l0.181,0.38c0,0,6.937-1.565,8.928-7.273l1.363,2.663
								C480.97,170.315,478.207,175.318,471.745,176.64z"/>
						</g>
					</g>
				</g>
				<g>
					<path style="fill:#A56F62;" d="M460.073,239.552l-26.54-30.493c-2.742-3.278-2.308-8.158,0.97-10.9l0,0
						c3.278-2.742,8.158-2.308,10.901,0.97l26.54,30.493L460.073,239.552z"/>
					<path style="fill:#4976B7;" d="M461.18,210.768l13.988,15.617c3.711,4.574,3.011,11.289-1.562,15l0,0
						c-4.574,3.711-11.289,3.011-15-1.562l-13.988-15.617L461.18,210.768z"/>
				</g>
				<g>
					<g>
						<g>
							<path style="fill:#5295FE;" d="M462.753,296.548c8.635,2.38,22.219,4.777,36.978,3.244c5.981-0.621,12.87-1.443,17.504-2.749
								c0-10.376-5.779-21.063-5.779-31.439c0-10.373,4.242-20.746,4.242-31.119c0-11.55-9.363-20.914-20.914-20.914h-3.951
								c-14.891,0-26.963,12.072-26.963,26.963l4.242,22.927L462.753,296.548z"/>
						</g>
					</g>
					<path style="fill:#A56F62;" d="M475.261,220.759c0.237,3.116,6.565,5.176,14.133,4.6c7.568-0.576,13.511-3.569,13.274-6.685
						c-0.237-3.117-6.564-5.176-14.133-4.6C480.967,214.65,475.024,217.643,475.261,220.759z"/>
					<path style="fill:#4976B7;" d="M511.456,265.604c0,0.115,0.007,0.229,0.008,0.344c-3.303-5.985-6.746-14.939-6.475-25.986
						l8.664,9.707C512.568,254.981,511.456,260.292,511.456,265.604z"/>
				</g>
				<path style="fill:#A56F62;" d="M499.16,212.623c-1.25-22.912-5.074-10.76-10.593-10.459c-5.519,0.301-10.561-9.885-9.392,11.55
					c0.438,8.03,4.874,7.092,10.393,6.791C495.086,220.203,499.598,220.652,499.16,212.623z"/>
				<path style="fill:#8C5C53;" d="M479.018,207.009c0.272-12.317,4.729-4.582,9.549-4.845c5.344-0.292,9.098-11.693,10.466,8.383
					C490.647,213.804,483.846,210.926,479.018,207.009z"/>
				<g>
					<path style="fill:#A56F62;" d="M549.398,231.139l-29.152,28.005c-3.024,3.021-3.026,7.92-0.006,10.944l0,0
						c3.02,3.023,7.92,3.026,10.944,0.006l25.645-28.424L549.398,231.139z"/>
					<path style="fill:#A56F62;" d="M500.96,231.827l17.944,36.224c1.971,3.792,6.644,5.268,10.435,3.296h0
						c3.791-1.971,5.268-6.644,3.296-10.435l-17.944-36.224L500.96,231.827z"/>
					<path style="fill:#8C5C53;" d="M501.981,233.887l15.35-3.872l8.803,17.771c-3.742,1.324-9.46,3.564-14.504,5.579
						L501.981,233.887z"/>
					<path style="fill:#5295FE;" d="M527.957,241.873l-9.038-18.917c-2.795-5.184-9.264-7.12-14.447-4.326v0
						c-5.184,2.795-7.12,9.263-4.325,14.447l9.038,18.917L527.957,241.873z"/>
					<g>
						<path style="fill:#A56F62;" d="M544.655,238.659c-5.254-6.357,5.215-12.208,5.215-12.208l3.215-7.734
							c0,0,6.764,3.163,2.46,9.286c0,0,10.002-3.405,14.032-1.228c1.893,1.023,4.534,8.946,3.835,13.376
							c-0.148,0.939-1.035,1.566-1.97,1.393c-2.246-0.415-6.794-0.797-10.839,1.696
							C554.967,246.712,545.641,248.219,544.655,238.659z"/>
						<path style="fill:#8C5C53;" d="M555.544,228.002c0,0,2.347,5.67-3.36,9.968c0,0,4.359-4.659,2.909-9.81L555.544,228.002z"/>
						<path style="fill:#8C5C53;" d="M558.688,239.825c0,0,0.708-4.923-1.158-9.539
							C557.531,230.286,561.974,233.301,558.688,239.825z"/>
						<g>
							<path style="fill:#8C5C53;" d="M558.902,237.952l0.098-0.393c0,0,8.282-1.603,14.509,1.603
								c-0.007,0.141-0.017,0.279-0.03,0.416C571.005,238.615,564.987,236.697,558.902,237.952z"/>
							<path style="fill:#8C5C53;" d="M558.72,232.345l-0.317-0.572c0,0,7.433-3.996,13.348-1.621
								c0.594,1.467,1.114,3.236,1.435,4.993c-1.933-0.694-7.792-2.374-13.94,0.065l-0.136-0.484c0,0,7.463-4.046,13.739-0.482
								l-0.869-3.464C571.98,230.779,565.565,228.455,558.72,232.345z"/>
						</g>
					</g>
				</g>
				<g>
					<g>
						<path style="fill:#A56F62;" d="M461.255,189.706c0.365,2.816,2.945,4.803,5.761,4.438c2.816-0.365,4.804-2.945,4.438-5.761
							c-0.365-2.817-2.945-4.803-5.761-4.438C462.877,184.311,460.89,186.89,461.255,189.706z"/>
						<path style="fill:#8C5C53;" d="M463.706,189.388c0.19,1.463,1.53,2.495,2.993,2.305c1.463-0.19,2.495-1.53,2.306-2.993
							c-0.19-1.463-1.53-2.495-2.993-2.305C464.548,186.585,463.516,187.925,463.706,189.388z"/>
					</g>
					<path style="fill:#A56F62;" d="M466.334,191.103c-0.31-1.108-0.544-2.232-0.691-3.363l-0.603-4.647
						c-1.322-10.192,5.935-19.613,16.127-20.935l10.056-1.305c10.192-1.322,19.613,5.935,20.935,16.127l0.603,4.647
						c1.605,12.374-3.529,26.098-19.227,28.134l-2.121,0.275c-0.809,0.105-1.616,0.151-2.417,0.147
						C464.94,211.493,466.164,195.025,466.334,191.103z"/>
					<g>
						<g>
							<path style="fill:#3A2E2E;" d="M494.005,185.126c0.158,1.216-0.701,2.331-1.917,2.488c-1.216,0.158-2.331-0.701-2.488-1.917
								c-0.158-1.217,0.7-2.331,1.917-2.489C492.733,183.051,493.847,183.91,494.005,185.126z"/>
						</g>
					</g>
					<g>
						<g>
							<path style="fill:#3A2E2E;" d="M477.516,187.266c0.158,1.216-0.701,2.33-1.917,2.488c-1.217,0.158-2.331-0.701-2.489-1.917
								c-0.158-1.217,0.7-2.331,1.917-2.489C476.244,185.191,477.358,186.049,477.516,187.266z"/>
						</g>
					</g>
					<g>
						<path style="fill:#8C5C53;" d="M484.974,198.879c-1.692,0.22-3.721,0.078-6.14-0.656c-0.309-0.094-0.483-0.42-0.39-0.729
							c0.094-0.309,0.421-0.482,0.728-0.389c9.559,2.902,12.204-4.013,12.312-4.309c0.11-0.303,0.445-0.46,0.749-0.348
							c0.303,0.11,0.459,0.446,0.348,0.749C492.559,193.26,490.697,198.137,484.974,198.879z"/>
					</g>
					<g>
						<path style="fill:#8C5C53;" d="M490.851,192.765l2.575,0.85C493.426,193.616,492.791,191.681,490.851,192.765z"/>
					</g>
					<g>
						<path style="fill:#8C5C53;" d="M480.795,194.227c-0.16,0.021-0.329-0.025-0.46-0.14c-1.044-0.913-1.483-1.852-1.306-2.791
							c0.267-1.415,1.861-2.272,2.6-2.598l0.417-4.57c0.03-0.321,0.314-0.556,0.635-0.529c0.322,0.03,0.558,0.313,0.529,0.635
							l-0.483,5.293l-0.349,0.127c-0.553,0.202-2.027,0.928-2.2,1.86c-0.095,0.504,0.217,1.074,0.927,1.694
							c0.243,0.213,0.267,0.582,0.055,0.825C481.062,194.143,480.931,194.209,480.795,194.227z"/>
					</g>
					<path style="fill:#3A2E2E;" d="M492.278,183.395l3.635-1.079c0,0-0.621,2.608-2.533,2.92
						C491.47,185.547,492.278,183.395,492.278,183.395z"/>
					<path style="fill:#3A2E2E;" d="M474.706,185.674l-3.79-0.116c0,0,1.266,2.363,3.194,2.177
						C476.037,187.549,474.706,185.674,474.706,185.674z"/>
					<path style="fill:#513C32;" d="M480.351,162.412c12.852-11.905,33.316-3.362,33.889,9.68c0.138,3.135,1.229,6.397,2.721,9.673
						l-7.736,1.615c-5.199,1.234-5.944-4.508-5.944-4.508s-19.635,4.627-21.893-9.077c0,0,0.242,5.567,4.398,8.627
						c0,0-5.269-1.156-6.103-6.967c0,0-6.651,14.7-14.736,10.95l-2.925-0.189C463.347,169.834,466.244,161.664,480.351,162.412z"/>
					<g>
						<path style="fill:#68493E;" d="M484.774,176.209c0.189-0.019,0.367-0.022,0.56-0.047c10.762-1.396,17.144-9.325,20.746-16.345
							c2.461,1.462,4.535,3.375,5.976,5.612c-6.815,8.073-14.677,12.234-22.361,13.371
							C487.889,178.277,486.182,177.455,484.774,176.209z"/>
						<path style="fill:#68493E;" d="M482.072,176.296c0.528,0.026,1.071,0.029,1.633,0.003c0.554,0.766,1.233,1.498,2.082,2.124
							C485.787,178.423,483.799,177.981,482.072,176.296z"/>
						<path style="fill:#68493E;" d="M464.433,170.946c0.94-2.296,2.215-4.199,3.992-5.621c1.772,4.295,4.597,8.257,9.094,10.026
							c-0.472,0.736-1.013,1.518-1.612,2.29C471.638,176.259,467.72,173.962,464.433,170.946z"/>
					</g>
					<g>
						<path style="fill:#A56F62;" d="M506.008,184.335c0.364,2.804,2.931,4.782,5.735,4.418c2.804-0.364,4.782-2.931,4.419-5.735
							c-0.364-2.804-2.932-4.782-5.736-4.418C507.622,178.963,505.645,181.531,506.008,184.335z"/>
						<path style="fill:#8C5C53;" d="M508.448,184.018c0.189,1.456,1.523,2.484,2.979,2.295c1.457-0.189,2.484-1.523,2.295-2.98
							c-0.189-1.456-1.523-2.484-2.98-2.295C509.286,181.228,508.259,182.562,508.448,184.018z"/>
					</g>
					<path style="fill:#513C32;" d="M466.699,193.929l-2.667-13.63h4.994c0,0,0.364,3.704-1.426,5.259L466.699,193.929z"/>
				</g>
			</g>
		</g>
	</g>
</g>
</svg>
