<svg xmlns="http://www.w3.org/2000/svg" xmlns:xlink="http://www.w3.org/1999/xlink" viewBox="0 0 2556.29 1486.83"><defs><style>.cls-1{fill:#00dbef;}.cls-2{fill:#bbf6f9;}.cls-3{fill:#6d36c1;}.cls-4{fill:#ffa100;}.cls-5{fill:#8f3b99;}.cls-6{fill:#ff753c;}.cls-7{fill:#db6f26;}.cls-8{fill:#6f36bb;}.cls-9{fill:#52286c;}.cls-10{fill:url(#linear-gradient);}.cls-11{fill:url(#linear-gradient-2);}.cls-12{fill:#ffde69;}.cls-13{fill:url(#linear-gradient-3);}.cls-14{fill:#522878;}.cls-15{fill:#ed985f;}.cls-16{fill:#522b73;}.cls-17{fill:#462160;}.cls-18{fill:#ffb27d;}.cls-19{fill:#6bb7bf;}.cls-20{fill:#8ad8db;}.cls-21{fill:#ed9f4a;}.cls-22{fill:#ed975d;}.cls-23{fill:#f99f46;}.cls-24{fill:#00b9e3;}.cls-25{fill:#d3671e;}.cls-26{fill:url(#linear-gradient-4);}.cls-27{fill:#ea9c68;}.cls-28{fill:#fff;}.cls-29{fill:#2e3552;}</style><linearGradient id="linear-gradient" x1="2213.75" y1="366.51" x2="2507.47" y2="366.51" gradientTransform="matrix(1, 0, 0, -1, 0, 1521.16)" gradientUnits="userSpaceOnUse"><stop offset="0" stop-color="#f1cc52"/><stop offset="1" stop-color="#ff6935"/></linearGradient><linearGradient id="linear-gradient-2" x1="2025.39" y1="169.3" x2="2347.06" y2="169.3" xlink:href="#linear-gradient"/><linearGradient id="linear-gradient-3" x1="513.61" y1="278.88" x2="850.25" y2="278.88" xlink:href="#linear-gradient"/><linearGradient id="linear-gradient-4" x1="1864.57" y1="322.25" x2="1970.32" y2="322.25" xlink:href="#linear-gradient"/></defs><g id="Layer_2" data-name="Layer 2"><g id="Layer_1-2" data-name="Layer 1"><path class="cls-1" d="M2524.47,1171.57c-.1,5.25-.27,10.47-.51,15.63s-.52,10.23-.88,15.28a663.33,663.33,0,0,1-11,82c-.27,1.35-.53,2.7-.82,4l-.13.76c-.75,3.61-1.5,7.21-2.29,10.75q-.63,2.85-1.28,5.68-1.52,6.64-3.12,13.13c-.29,1.12-.57,2.25-.85,3.37-4.06,16-26.41,79.8-26.41,79.8-7.82,20.79-15.44,37.81-21.52,50.82-6.2,13.28-10.74,22.75-12.93,27.26-.7,1.46-1.12,6.37-1.12,6.37s-2264,.34-2264.1.27C59.79,1396.91,107,1221.8,253.77,1092c110-97.26,197.82-122.65,140.1-326.71-16.29-57.68-12.42-109.63,3.76-155.66,51.2-145.81,225.72-232,272-251.29,4.51-1.86,9.08-3.69,13.7-5.45,16.25-6.21,33.17-11.73,50.63-16.58q14.87-4.17,30.22-7.67,9.24-2.11,18.65-4a866.4,866.4,0,0,1,99.41-13.88c4.31-.36,8.61-.69,12.94-1,6.62-.45,13.27-.86,19.93-1.19q13.4-.68,26.83-1l5.32-.11c6.53-.14,13.08-.21,19.61-.23h4.79q11.47,0,22.91.25,19,.41,38,1.42c1.07,0,2.13.11,3.2.17q12.27.69,24.43,1.63c2.53.19,5,.39,7.55.6a1145.41,1145.41,0,0,1,139.42,20.1q6.18,1.29,12.22,2.66h0q34.08,7.65,64.37,17.33,16.56,5.24,32.06,11h0l.09,0,.34.13q22.08,8.19,42.17,17.28c2.11.94,4.19,1.9,6.26,2.86a605.55,605.55,0,0,1,133.69,84.58c10.83,9,21,18.07,30.68,27.14,1.34,1.23,2.66,2.5,4,3.74,3,2.82,5.92,5.66,8.78,8.48,1.34,1.3,2.64,2.6,4,3.92q12.75,12.69,24.29,25.13,5.85,6.27,11.44,12.39c20.42,22.45,38.4,43.53,55.5,61.59,2.17,2.29,4.31,4.52,6.46,6.7Q1650,623,1656.44,629c18.51,17.26,36.69,30,56.68,36.14,2.73.84,5.51,1.53,8.32,2.12a90.94,90.94,0,0,0,12.22,1.64c21,1.37,45.44-2.17,73-7.51,2.71-.53,5.46-1.07,8.23-1.63,36-7.29,77-17.06,122.16-22.9q8.64-1.11,17.46-2c2.18-.24,4.36-.44,6.54-.65,51.72-4.76,108.34-3.31,168.76,13.15,6.4,1.75,12.84,3.64,19.33,5.74A459,459,0,0,1,2198,672q4.13,1.88,8.24,3.85,18.92,9,38.21,20.37c2.67,1.57,5.33,3.17,8,4.81q19.65,12,39.68,26.7c.32.25.65.49,1,.73q8.64,6.36,17.36,13.26,10.16,8.06,20.41,16.85,24.85,21.28,50.19,47.2,18.29,18.75,33.81,38,10.7,13.22,20.11,26.6c1.15,1.6,2.27,3.19,3.38,4.81a489.42,489.42,0,0,1,28.87,47.44q1.61,3,3.11,6a474,474,0,0,1,28,66.31c.63,1.85,1.23,3.71,1.83,5.55s1.25,3.91,1.85,5.87c.38,1.21.75,2.43,1.11,3.64q2.29,7.59,4.3,15.13.68,2.58,1.34,5.16c.91,3.58,1.77,7.14,2.57,10.72.12.46.22.93.32,1.39.69,2.92,1.32,5.83,1.93,8.76q2,9.87,3.68,19.69A545.27,545.27,0,0,1,2524.47,1171.57Z"/><path class="cls-2" d="M1713.12,665.13v362.23H882.28V310.77q6.44-.54,12.92-1,10-.69,19.94-1.19,13.4-.68,26.84-1l5.31-.12c6.53-.14,13.08-.21,19.61-.23h4.79q11.46,0,22.9.25,19.06.41,38,1.41l3.2.18q12.27.68,24.43,1.63c2.52.19,5,.39,7.55.6a1145.12,1145.12,0,0,1,139.42,20.1c4.12.87,8.19,1.74,12.22,2.66h0q34.08,7.66,64.38,17.33,16.54,5.24,32.05,11h0l.09,0,.34.13q22.08,8.19,42.17,17.28c2.1.94,4.19,1.9,6.25,2.86a605.4,605.4,0,0,1,133.7,84.58c10.83,9,21,18.07,30.68,27.14,1.34,1.24,2.65,2.49,4,3.74,3,2.82,5.92,5.66,8.78,8.48,1.34,1.31,2.64,2.6,4,3.92q12.75,12.69,24.29,25.13,5.85,6.27,11.44,12.39c20.42,22.45,38.4,43.53,55.5,61.59q3.24,3.42,6.45,6.7Q1650,623,1656.44,629C1674.94,646.26,1693.13,659,1713.12,665.13Z"/><path class="cls-3" d="M947.29,307.45v700.61h-65V310.77q6.45-.54,12.92-1,10-.69,19.94-1.19,13.4-.68,26.84-1Z"/><path class="cls-3" d="M1721.44,667.24v340.82h-65V629c18.5,17.27,36.69,30.06,56.68,36.14C1715.85,666,1718.63,666.67,1721.44,667.24Z"/><path class="cls-4" d="M1656.44,629V741.12s-188.66-32.94-214-156.57c-20.49-100-60.12-124.37-126.09-168.42-10.2-6.79-21-14.07-32.5-22.19q-9.16-6.42-18.86-13.62A205.26,205.26,0,0,1,1219.46,334q34.08,7.66,64.38,17.33,16.54,5.24,32.05,11h0l.09,0,.34.13q22.08,8.19,42.17,17.28c2.1.94,4.19,1.9,6.25,2.86a605.4,605.4,0,0,1,133.7,84.58c10.83,9,21,18.07,30.68,27.14,1.34,1.24,2.65,2.49,4,3.74,3,2.82,5.92,5.66,8.78,8.48,1.34,1.31,2.64,2.6,4,3.92q12.75,12.69,24.29,25.13,5.85,6.27,11.44,12.39c20.42,22.45,38.4,43.53,55.5,61.59q3.24,3.42,6.45,6.7Q1650,623,1656.44,629Z"/><path class="cls-3" d="M1775.54,1041.47H811.35a.23.23,0,0,1-.24-.23h0a46.18,46.18,0,0,1,46.19-46.18h872.29a46.18,46.18,0,0,1,46.18,46.18h0A.23.23,0,0,1,1775.54,1041.47Z"/><path class="cls-5" d="M947.29,582.18s124.64,41.92,132.45,193.54,156,57,165.75,219.34H947.29V582.18Z"/><path class="cls-3" d="M1316.34,362.52v645.54h-32.5V351.37q16.54,5.24,32.05,11h0l.09,0Z"/><path class="cls-4" d="M2146.1,747.79l2.34,178,7.1,541.24a13.87,13.87,0,0,1-13.92,14.06h-1.21a14.79,14.79,0,0,1-14.74-15l8.32-572.3,2.12-146Z"/><path class="cls-6" d="M2237.74,1482.85l-194.37-.54h0a43.61,43.61,0,0,1,43.72-43.48l108.72.3a42.06,42.06,0,0,1,41.94,42.17Z"/><path class="cls-7" d="M2146.1,747.79l2.34,178a289.37,289.37,0,0,0-14.45-32l2.12-146Z"/><path class="cls-8" d="M2265.66,854.82l-244.29-.68A17.82,17.82,0,0,1,2004,832.48l7.55-34.13L2056.94,593a23.35,23.35,0,0,1,22.86-18.31L2201,575l16.88,0a16.52,16.52,0,0,1,16.18,13.4l47.6,247.08A16.21,16.21,0,0,1,2265.66,854.82Z"/><path class="cls-9" d="M2266.93,854.82l-250.69-.69a13.68,13.68,0,0,1-13.32-16.64l8.65-39.14C2164,736.5,2194.79,617.48,2201,575l16.46,0a17,17,0,0,1,16.68,13.82l47.76,247.91A15.16,15.16,0,0,1,2266.93,854.82Z"/><path class="cls-4" d="M2253.62,1229.16s48.24-196.5,51.72-213c1.55-7.36,6.33-10,11.14-10.7-8.48-.87-14.64-.94-14.64-.94-16.69,0-31.52,12-36.88,29.7-11.68,38.72-56.95,103.54-78.73,176.27C2187.33,1210.44,2253.62,1229.16,2253.62,1229.16Z"/><path class="cls-4" d="M1968.59,1403c7.69,49.29,58,80.68,109.59,80.68h102.19l-7.19-283.74s-98.31-34.86-122.79-5.09c-21.46,26.08-79.64,129.31-82.7,190.42A86.23,86.23,0,0,0,1968.59,1403Z"/><path class="cls-7" d="M2239.86,1226.74s-137.85-70.36-164-24.4c-13.87,24.41-52,121.77-54.84,182.88-2.73,59.37,48.7,98.41,101.61,98.41h94Z"/><path class="cls-10" d="M2507.47,1025.11c-10.24,36-37.3,130.13-59.34,198.9-14,43.57-25.93,77-30.33,78.92s-28.69,1.29-59-1.5c-21.87-2-46.9-5.1-69.94-9.06-13.26-2.27-25.86-4.83-36.81-7.62-3-.77-5.79-1.53-8.48-2.32l-.76-.22c-2.74-.81-5.33-1.65-7.75-2.5-12.23-4.26-20.16-9-21.13-13.94-.88-4.53,1.26-15.27,5.38-29.86,1.13-4,2.41-8.3,3.82-12.84.23-.75.47-1.52.72-2.28.15-.48.29-1,.46-1.44,4.22-13.41,9.47-28.72,15.2-44.74.72-2,1.44-4,2.17-6,2.59-7.17,5.25-14.45,8-21.74,10.5-28.32,21.57-56.84,30.58-79.69,9.13-23.12,11.57-44,21.42-54.62a22.06,22.06,0,0,1,13.62-7l1-.13c1.14-.12,2.35-.18,3.61-.19,13.5,0,32.57.27,53.51.74,43.77,1,95.66,2.79,121.66,3.72h0l8.08.29Q2505.46,1017.56,2507.47,1025.11Z"/><path class="cls-7" d="M1968.59,1403c7.69,49.29,58,80.68,109.59,80.68h50.12C2094.88,1461,2064.65,1391.15,1968.59,1403Z"/><path class="cls-11" d="M2049.06,1439.48c19.73,27.41,50,45,83.69,44.43l144.89.08,69.42,0L2269,1226.78s-197.69-19.67-222.07,6.56c-11.32,12.18-17.67,67.32-21.23,122.9C2023.65,1387.58,2032.77,1416.88,2049.06,1439.48Z"/><path class="cls-7" d="M2049.06,1439.48c19.73,27.41,50,45,83.69,44.43l144.89.08c-17-14.32-70.67-54.93-128.09-53C2106,1432.44,2071.47,1431.81,2049.06,1439.48Z"/><path class="cls-7" d="M2169.13,1405.52c8.29,47.81,53.76,78.11,100.38,78.11h94l-7.35-287.31s-89.66-31.3-112.18-1.53c-19.74,26.09-73.24,129.32-76.06,190.43A93.71,93.71,0,0,0,2169.13,1405.52Z"/><path class="cls-7" d="M2169.13,1405.52c8.29,47.81,53.76,78.11,100.38,78.11h75.2C2309.51,1459.77,2262.11,1393.85,2169.13,1405.52Z"/><path class="cls-4" d="M2517.31,1070.83c-1.09-6.54-2.31-13.12-3.68-19.7-.61-2.92-1.24-5.83-1.93-8.76-.1-.46-.2-.93-.31-1.39q-1.21-5.36-2.58-10.72-.66-2.57-1.34-5.15-2-7.56-4.3-15.13c-.36-1.22-.73-2.44-1.11-3.65-.59.21-1.17.43-1.75.67s-.9.38-1.35.59a36.24,36.24,0,0,0-3.87,2.09h0c-.53.32-1,.66-1.55,1s-.95.66-1.41,1a43.64,43.64,0,0,0-15.22,22.38c-10.91,36.26-30.39,101.08-50.65,168.88-.09.33-.2.68-.31,1q-1.72,5.85-3.49,11.71c-.12.41-.24.8-.36,1.19l-.17.6-3.56-1.58-.13-.05c-4.85-2.16-10.35-4.51-16.28-6.92-3.09-1.24-6.27-2.51-9.56-3.77-9.28-3.55-19.28-7.07-29.43-10.09-4.5-1.35-9-2.6-13.54-3.71-5.79-1.44-11.54-2.66-17.13-3.55l-.49-.09-2-.3c-3.92-.57-7.78-1-11.51-1.22h-.05c-19.1-1.17-34.92,2.64-42.17,15.42a264.94,264.94,0,0,0-11.67,24.74c-6.45,15.21-13.93,34.89-20.84,56.08-4.67,14.32-9.08,29.35-12.74,44.14v0s0,0,0,.05a0,0,0,0,1,0,0c-5.12,20.71-8.76,41-9.55,58.35a93,93,0,0,0,1.63,22.5c.13.69.27,1.35.43,2v0c9.53,42.81,49.17,70.67,91.47,73.85.72,0,1.41.1,2.12.13l1.59.08h.19c.89,0,1.79.06,2.68.07h95.48v0l5.42.08,18.52.2c2.38-4.89,8.08-16.75,14.82-31.16,6.6-14.12,14.77-32.86,23.26-55.42h0c1.58-4.19,3.18-8.52,4.77-13,2.22-6.25,4.47-12.74,6.69-19.48q1.24-3.74,2.47-7.58c4.91-15.34,9.69-31.81,14.1-49.22.2-.81.4-1.63.61-2.43q.64-2.84,1.28-5.68c.79-3.55,1.54-7.14,2.28-10.75l.14-.76c.29-1.33.55-2.68.82-4a665.24,665.24,0,0,0,11-82q.54-7.57.88-15.28c.24-5.16.41-10.38.51-15.63A545.27,545.27,0,0,0,2517.31,1070.83Z"/><path class="cls-7" d="M2508.81,1030.27q-.66-2.58-1.34-5.16-2-7.56-4.3-15.13c-.36-1.21-.73-2.44-1.11-3.65-.59.21-1.17.43-1.75.67s-.9.38-1.35.59a34.54,34.54,0,0,0-3.87,2.09h0c-.53.32-1.05.66-1.55,1s-.95.66-1.41,1a43.39,43.39,0,0,0-15.22,22.29c-11.69,38.73-33.2,110.14-55,182.86l.17,0c1.78.34,14.73,4,26,7.14,9.27,2.61,17.44,5,17.44,5s32.11-130.86,45.82-188Q2510.18,1035.63,2508.81,1030.27Z"/><path class="cls-12" d="M618.69,1252.47l-9.79,44h0l-40.77,183.13h-4.29l23.56-151.93c0-.15.06-.3.08-.47l11.66-75.14Z"/><path class="cls-4" d="M618.69,1252.47l-9.79,44h0c-.57.33-18.39,11.26-21.42,30.73l11.66-75.14Z"/><path class="cls-12" d="M811.24,1479.61H807l-33.22-149.18v0l-7.56-33.93h0l-9.79-44,19.56-.4,6.67,43,5,32.17c0,.17.06.32.08.47Z"/><path class="cls-4" d="M782.6,1295c-3.61,6.23-8.59,17.94-8.87,35.37l-7.56-33.93h0l-9.79-44,19.56-.4Z"/><path class="cls-13" d="M848.13,1261.66H515.72a2.13,2.13,0,0,1-2.11-2.12V1225a2.12,2.12,0,0,1,2.11-2.11H848.13a2.12,2.12,0,0,1,2.12,2.11v34.53A2.13,2.13,0,0,1,848.13,1261.66Z"/><path class="cls-14" d="M584.88,919.87c-14.35-7.21-26.1-33.58-24.86-38.29a37.58,37.58,0,0,1,1.89-4.21l68.21-28.85S622.8,805.87,601,800.06c-.63-8.32-5-26.34-31.18-26.34,0,0,10.3,2.8,15.64,8.39,0,0-21.7-12.74-45.31,6.84s-8.94,68.65-16.12,78-35.14,11.19-31.72,41.32,88.73,67.88,83.25,92.81c0,0,31.33-46,11.66-69.34,3.42,3.86,9.85,12.27,10.71,21.79C597.92,953.49,601.09,928,584.88,919.87Zm.2,9.6.57.56C585.46,929.84,585.28,929.65,585.08,929.47Z"/><path class="cls-15" d="M552.58,933c-13.53-22-47-18.18-54.54,6.49a27.34,27.34,0,0,0-.55,14.31c6.43,28.17,89.29,122.37,99.06,130.08C614.34,1097.9,703,1136,703,1136l9.52-11.8s-75.7-62.48-85.66-67.28C615.32,1051.35,578.27,974.69,552.58,933Z"/><path class="cls-15" d="M695.68,1130.32s13.57-18.14,20.58-19.82,28.55-3.14,29.82-.35-20,12.52-21,14.62-12.22,17.46-18.76,16.29S695.68,1130.32,695.68,1130.32Z"/><path class="cls-16" d="M505.48,1462.47,488.57,1460s-56.87-45.19-65.33-129.51a150.06,150.06,0,0,1-.41-26.07,4.54,4.54,0,0,0-.59-2.88l0,0c-1.82-2.79-6.35-9.78-12.48-19.72-6.05-9.79-16.39-28.31-27.77-49.08-20.51-37.42-44.38-82.17-52.57-96.42-26.09-45.43-13.51-76-13.51-76s72.78-7.2,92.72-24.64l7.19,11.07s15.77,69.81,15,70.13c.78,2.38,1.57,4.79,2.37,7.25,12.44,38.42,26.76,86.43,34.56,125.53,4.39,22,6.72,41.17,5.47,54.23-.43,4.48.09,11.36,1.28,19.86C481.55,1373.85,505.48,1462.47,505.48,1462.47Z"/><path class="cls-17" d="M541,1483.87H470.4s-1.69-10.75,2-18.91c3.53-7.83,8.57-8.08.64-20.35,4.49,4.62,18.9,6.53,29.1,5.15,1.25,2,8.06,15.62,12.23,18.62C519,1471.7,539.54,1470.52,541,1483.87Z"/><path class="cls-17" d="M433.19,1124.12c-6.16,34-20.72,90.57-51.22,108.58-20.51-37.42-44.38-82.17-52.57-96.42-26.09-45.43-13.51-76-13.51-76s72.78-7.2,92.73-24.65l7.18,11.08s15.77,69.81,15,70.13C431.6,1119.25,432.39,1121.66,433.19,1124.12Z"/><path class="cls-4" d="M562.6,931.73s10,10.37,14.53,22.8c0,0-15.92,45.7-53.11,51.43C524,1006,553.45,931.71,562.6,931.73Z"/><path class="cls-16" d="M383.7,1065.56l.24-13.2c-26.29,3.32-90.66-31.42-90.66-31.42s-27.5,18.3-31.27,70.54c-1.84,25.51-13.46,133.36-14.75,165.56-.47,11.67-.62,20-.68,23.33a.08.08,0,0,1,0,0,4.63,4.63,0,0,1-1.12,2.71A150.63,150.63,0,0,0,231.22,1305C191.1,1379.61,212.08,1481,212.08,1481l9.32-2.37s33.92-105.15,56.09-150.63c3.77-7.72,7.18-13.72,10.05-17.19,8.33-10.13,17.12-27.32,25.79-48,16.38-39.12,32.28-90.75,43.62-130.72C357.75,1132.25,383.7,1065.56,383.7,1065.56Z"/><path class="cls-18" d="M537.57,977.48c-43-9.86-15.52-70.26-13-69.2,6-1.21,19-11.67,30.73-32.09l1.58,1.37,26.4,23.14s-6.1,9-11.23,17.82c-4,6.9-7.42,13.71-6.88,16C567.26,936.23,549,980.11,537.57,977.48Z"/><path class="cls-15" d="M583.25,900.71s-6.1,9-11.23,17.82c-16.42-10.12-16.43-30.44-15.17-41Z"/><path class="cls-18" d="M584,912.3s-39.85-22.18-25.66-46.78,18.61-44,44.65-30.92,25.53,25.33,22.8,34.7S594.72,917.44,584,912.3Z"/><path class="cls-14" d="M632.5,855c-1.83-10.93-7.38-12-11.25-11.24-14.72-24.34-38.76-14.84-38.76-14.84a54.26,54.26,0,0,1-31.41,18.86s4.62,8.61,23.68,13.94c5.82,1.62,12.43.64,18.8-1.51a106.57,106.57,0,0,1-27,10.2c25.11,2.3,49-20.66,51.48-23.12,1.16,3.56,3.19,11,2,16.45-1.65,7.4-8.22,20.81-4.21,22.54C615.75,886.23,635.24,871.33,632.5,855Z"/><path class="cls-17" d="M268.19,1483.87H197.63s-1.69-10.75,2-18.91c3.53-7.83,9.06-11.39,7.74-20.86,4.48,4.62,11.79,9.79,22,8.41,1.25,2,8.06,12.88,12.24,15.87C246.21,1471.7,266.77,1470.52,268.19,1483.87Z"/><path class="cls-6" d="M542.63,1025.36c-9.08,3.17-21.83,4.91-34.86,6.32-18.55,2-37.71,3.41-47.74,7.41-3.66,1.46-6.11,3.27-6.88,5.57-4.35,13.08-23.51,33.26-23.51,33.26-122.87-5.59-136.36-57-136.36-57C376,924.82,515.91,897,515.91,897s10-4.23,35.17,15.78c16.8,13.35,14.59,18.48,14.59,18.48S569.34,1016,542.63,1025.36Z"/><path class="cls-4" d="M507.77,1031.68c-18.55,2-37.71,3.41-47.75,7.41-4.1-61.27,24.82-107.36,24.82-107.36S503.7,1008.49,507.77,1031.68Z"/><path class="cls-18" d="M526.86,919.87s-46.5,4.6-50.22,34.81S521.22,1108,528.13,1119.1c12.6,20.29,86.77,89.83,86.77,89.83l13.66-8.28s-52.6-89.06-60.75-97.4C555,1090.17,542.61,930.34,526.86,919.87Z"/><path class="cls-6" d="M478,972.86c.12.69,42.91,14,70.45,0,0,0,5.9-63.54-27-60.09s-52.35,13.8-53.18,29.54S478,972.86,478,972.86Z"/><path class="cls-18" d="M628.57,1200.65s19.4-2.11,24.39,3.21,17,13.3,14,16-27.26-2.57-31.58-2.57-13.3,6.65-15.63,3.33-4.81-11.65-4.81-11.65Z"/><path class="cls-7" d="M599.09,1223.48s38-10.31,45.11-9,22.06,5.37,32.53,7,19.45,1.64,20.2,3.13Z"/><path class="cls-19" d="M750.73,1166.78s-20.16,8.18-34.49-12.37C716.24,1154.41,739.5,1150.46,750.73,1166.78Z"/><path class="cls-19" d="M752.15,1158.35s1.41-7.21,9.86-7.45C762,1150.9,758.83,1158.19,752.15,1158.35Z"/><path class="cls-19" d="M747.9,1116.18s-9.77,1-13.44-9.66C734.46,1106.52,745.05,1107.7,747.9,1116.18Z"/><path class="cls-19" d="M724.71,974.58c19.72-4.23,20-20.36,20-20.36C721.53,961.56,724.71,974.58,724.71,974.58Z"/><path class="cls-19" d="M723.35,970.91s-12.3,5-21.05-7.56C702.3,963.35,716.5,960.94,723.35,970.91Z"/><path class="cls-19" d="M750.35,1214.1l2.54,2.93a.65.65,0,0,0,1.13-.42c-.15-83-10.69-156.81-19.55-200.33-9.66-47.51-19.46-75.59-19.56-75.87h0c.1.28,8.94,28.81,18.57,76.18,8.87,43.6,19,100.58,16.45,196.38A1.7,1.7,0,0,0,750.35,1214.1Z"/><path class="cls-17" d="M715.08,929.09c3.15,2.53,15.19,13.3,3.51,21.61,0,0-9,2.84-11.93-4.06a43.91,43.91,0,0,1-3-13.63,1.18,1.18,0,0,1,1.09-1.25,9.8,9.8,0,0,0,2.53-.57c1.1-.44,1.67-2.11,3.16-2.48a9.07,9.07,0,0,1,3-.33A3.16,3.16,0,0,1,715.08,929.09Z"/><path class="cls-19" d="M721.76,947.69a7.25,7.25,0,0,0-2.24,7.43l0,1.69a8,8,0,0,0-5.32-5.53S718.18,951.72,721.76,947.69Z"/><path class="cls-20" d="M724.71,974.58c19.72-4.23,20-20.36,20-20.36S729.14,962.8,724.71,974.58Z"/><path class="cls-19" d="M743.65,963.53s12.4,4.75,20.9-8C764.55,955.56,750.31,953.44,743.65,963.53Z"/><path class="cls-19" d="M721.53,1207.22l-2.48,3a.64.64,0,0,1-1.13-.4c-1.52-83,7.54-157,15.52-200.68,8.71-47.69,17.95-76,18-76.24h0c-.09.27-8.36,29-17,76.53-8,43.77-17,100.94-12.51,196.68A1.64,1.64,0,0,1,721.53,1207.22Z"/><path class="cls-17" d="M751.09,921.56c-3.1,2.59-14.92,13.61-3.07,21.68,0,0,9,2.65,11.83-4.3a44.08,44.08,0,0,0,2.77-13.68A1.2,1.2,0,0,0,761.5,924a9.47,9.47,0,0,1-2.54-.52c-1.11-.41-1.71-2.07-3.22-2.41a8.84,8.84,0,0,0-3-.27A3.14,3.14,0,0,0,751.09,921.56Z"/><path class="cls-19" d="M744.77,940.3a7.22,7.22,0,0,1,2.4,7.37v1.69a8,8,0,0,1,5.21-5.63S748.44,944.24,744.77,940.3Z"/><path class="cls-19" d="M738.4,949s-13.1,2.19-18.9-12C719.5,937,733.88,937.78,738.4,949Z"/><path class="cls-19" d="M711.71,1192.22l1.85,3.41a.64.64,0,0,0,1.18-.16c18-81.07,23.77-155.37,24.62-199.77.93-48.47-2.52-78-2.55-78.31h0c0,.29,2.44,30.07,1.51,78.4-.85,44.48-3.38,102.3-26.77,195.24A1.65,1.65,0,0,0,711.71,1192.22Z"/><path class="cls-17" d="M739.44,906.38c2.52,3.15,11.92,16.29-1.29,21.85,0,0-9.36.82-10.75-6.56a44.1,44.1,0,0,1,0-14,1.18,1.18,0,0,1,1.34-1,9.41,9.41,0,0,0,2.6,0c1.17-.18,2.09-1.69,3.63-1.72a8.88,8.88,0,0,1,3,.32A3.18,3.18,0,0,1,739.44,906.38Z"/><path class="cls-19" d="M741.91,926a7.26,7.26,0,0,0-3.81,6.76l-.34,1.66a8,8,0,0,0-4-6.56S737.53,929.14,741.91,926Z"/><path class="cls-19" d="M727.59,934.41s0-10.37-8.94-13.63C718.65,920.78,716.68,929.43,727.59,934.41Z"/><path class="cls-21" d="M748.58,917.74s-.27-7.91,7-10.19C755.63,907.55,757.4,914.91,748.58,917.74Z"/><path class="cls-21" d="M724.56,965.35c-.26.23-3.82-7.7,3.41-14.07C728,951.28,731,959.76,724.56,965.35Z"/><path class="cls-19" d="M719.5,964.73a4.29,4.29,0,0,0-3.7-4.52S715.16,963.54,719.5,964.73Z"/><path class="cls-19" d="M756.93,951.28s3.17-6.56,13.31-5.42C770.24,945.86,768.72,952.9,756.93,951.28Z"/><path class="cls-17" d="M700.88,1223.81h65a7.16,7.16,0,0,0,7.09-8.19l-30.26-208.57a4,4,0,0,0-3.92-3.39h-9.66a4.23,4.23,0,0,0-4.18,3.6l-31,208.56A7,7,0,0,0,700.88,1223.81Z"/><path class="cls-5" d="M751.49,1217.5l-16.07-213.79a4,4,0,0,1,3.4,3.34l30.26,208.57a7.17,7.17,0,0,1-7.1,8.19H749A7.68,7.68,0,0,0,751.49,1217.5Z"/><g id="man"><path class="cls-14" d="M1429.65,1402.72s16.36,15.17,13.17,25.94-18,18-20,31.13-10,20.35-17.16,20.35h-34.24s-5.29-9.27,7.48-12.06,17.58-18.27,16.78-32.63,1.2-33.52,1.2-33.52l27.13-6.39Z"/><path class="cls-14" d="M1228.94,1444.07s4,31.92-3.19,35.51-93,2.4-93,2.4,0-10.78,14.76-13.17,40.71-11.17,45.1-30.73S1228.94,1444.07,1228.94,1444.07Z"/><path class="cls-16" d="M1151.33,956.61s4.85,60.49,10.55,133.2c7.74,98.77,17.06,220.1,18,243.08,1.59,39.91,8,103.75,8,103.75s15.16,15.17,45.49,8.78c0,0,27-91.14,34.75-187.56.12-1.58.24-3.18.36-4.77,7.18-98.16,18.35-304.86,18.35-304.86Z"/><path class="cls-17" d="M1151.33,956.61s4.85,60.49,10.55,133.2l106.2,168c.12-1.58.24-3.18.36-4.77,7.19-98.16,18.35-304.86,18.35-304.86Z"/><path class="cls-16" d="M1173.47,963.79s87.39,219.07,144.85,322,75.42,131.68,75.42,131.68,32.92-13.17,35.91-22.14c0,0-22-198.76-60.45-247.21-21.75-27.37-47.29-109.53-48.48-138.26s-7.79-85.59-7.79-85.59Z"/><path class="cls-18" d="M1063.75,1035.2s-19.76,27.92-21.55,33.25-1.67,26.62-.3,27.47,2.92.48,4.43-2.57,4.43-13.92,5.41-12.75-5.43,33.31.41,36.11,23.69-8.91,30.11-22.37,1.59-47.1,2.34-49.51C1091,1024.45,1063.75,1035.2,1063.75,1035.2Z"/><path class="cls-4" d="M1070.24,1049.73c-11.1-2.35-12.22-3.89-12.22-3.89s1.85-109.21,1.58-119.46-43.66-148.61-43.66-148.61l74.28-74.91s27.28,196,27.47,222c.31,42.94-31.5,124.09-31.5,124.09A31.58,31.58,0,0,1,1070.24,1049.73Z"/><path class="cls-18" d="M1064.93,684.12s-19.77,69.39-51.69,85.6c0,0-3.58-20.81,1.24-36.83-4.34-3.16-8.2-6.09-11.56-8.74a209,209,0,0,1-16.87-14.54l4-33.69,2.69-22.87a103.89,103.89,0,0,0,16.47,14.59C1037.57,687.74,1064.93,684.12,1064.93,684.12Z"/><path class="cls-22" d="M1009.15,667.64s11.59,29.53-6.24,56.51a209.73,209.73,0,0,1-16.86-14.54l4-33.69C1001.41,669.16,1009.15,667.64,1009.15,667.64Z"/><path class="cls-18" d="M978,716.34s46.84-32.8,26-61.65-28.89-52.52-59.68-32.8-28.56,34.89-23.94,46.22S965.29,724.13,978,716.34Z"/><path class="cls-6" d="M1319.11,953.5c-13.55,35.1-159.89,113.28-163.09,92.06a232.66,232.66,0,0,0-10-41q-2.22-6.54-5.11-13.75c-10.64-26.35-28.61-59.14-59.54-94.66-2.31-2.67-4.7-5.33-7.16-8a323.91,323.91,0,0,1-33.49-43.35c-18.44-28.61-30.11-57.46-29.41-78.34a1.42,1.42,0,0,1,0-.29c28.95-23,27.32-84.63,27.32-84.63s116.2-7.17,214.75,126c0,0,10,14.83,22.19,35.28,14.86,24.79,33.05,57.82,40.86,82.64C1320.17,937.23,1321.54,947.18,1319.11,953.5Z"/><path class="cls-16" d="M996.89,593.36c.19-.8,1.06-1.82,3.44-3.24a11.1,11.1,0,0,0-5.26,1.08c-2.32-3.19-7.32-8.37-14-6.8a8.39,8.39,0,0,1,6.37,3.53c-10.48-3.54-27.72-1.11-66.32,23.13-50.86,31.94-15.37,57.33-6.35,57.86s20.44-19.77,33.78-25.42,25.58,11.88,31.27,12.19,1.6-3.35,6.07-9.12,10.19,3.84,11.85,11.16,14.15,11.59,14.15,11.59l3.51-13.19c3.51-13.18-8.52-55-16.43-61.12C998.31,594.47,997.61,593.91,996.89,593.36Z"/><path class="cls-4" d="M1316.44,925.45c-144.21-7.76-204.63-162.71-204.63-162.71s90.73,39.8,163.77,80.07C1290.43,867.61,1308.63,900.63,1316.44,925.45Z"/><path class="cls-23" d="M1729.76,1461.83a19.24,19.24,0,1,1,19.24,19.24A19.24,19.24,0,0,1,1729.76,1461.83Z"/><path class="cls-8" d="M1737.25,1461.83a11.75,11.75,0,1,1,11.75,11.75A11.75,11.75,0,0,1,1737.25,1461.83Z"/><path class="cls-24" d="M1594.76,1442.39c-3.58,0-75.44-.71-124.9-54-33.95-36.58-48.63-88.42-43.62-154.06,10.24-134.06-11.66-242.53-60.08-297.6-21.8-24.8-48.52-38.19-79.41-39.81-52.87-2.77-102.45,57.9-102.94,58.52L1166,941c2.32-2.87,57.6-70.38,122-67,37.3,2,69.41,18,95.45,47.57,26.77,30.44,46,74,57.27,129.6,10.88,53.76,13.72,116,8.46,184.89-4.5,59,8.13,105,37.55,136.71,42.87,46.19,107.3,46.67,108.09,46.67h0l0,23Z"/><path class="cls-8" d="M1794.15,1452.62a27.67,27.67,0,0,1-19.65,8.05H1570.4a16.78,16.78,0,0,1-16.16-21.34c8.34-29.43,26.26-80.76,53.44-97.48a54.5,54.5,0,0,1,16.49-6.37c48.15-10.93,141.43,16.67,174,82,0,0,.78,1.42,1.89,3.88A27.8,27.8,0,0,1,1794.15,1452.62Z"/><polygon class="cls-7" points="1194.84 957.71 918.74 1323.04 813.94 1461.72 796.21 1448.79 896.76 1307 1161.64 933.49 1194.84 957.71"/><polygon class="cls-23" points="918.74 1323.04 813.94 1461.72 796.21 1448.79 896.76 1307 918.74 1323.04"/><path class="cls-7" d="M849.43,1457.58v11.74a10.62,10.62,0,0,1-10.58,10.59H736.14a10.62,10.62,0,0,1-10.58-10.59v-11.74A10.61,10.61,0,0,1,736.14,1447H838.85A10.62,10.62,0,0,1,849.43,1457.58Z"/><path class="cls-23" d="M824.23,1457.58v11.74a10.61,10.61,0,0,1-10.58,10.59h-77.5a10.62,10.62,0,0,1-10.59-10.59v-11.74A10.61,10.61,0,0,1,736.15,1447h77.5A10.61,10.61,0,0,1,824.23,1457.58Z"/><path class="cls-9" d="M1794.15,1452.62a27.67,27.67,0,0,1-19.65,8.05H1570.4a16.78,16.78,0,0,1-16.16-21.34c8.34-29.43,26.26-80.76,53.44-97.48a54.5,54.5,0,0,1,16.49-6.37C1642.79,1370.69,1693.57,1445.85,1794.15,1452.62Z"/><path class="cls-23" d="M1586.12,1435.1a46,46,0,1,1,46,46A46,46,0,0,1,1586.12,1435.1Z"/><path class="cls-8" d="M1604,1435.1a28.08,28.08,0,1,1,28.08,28.08A28.08,28.08,0,0,1,1604,1435.1Z"/><path class="cls-18" d="M1329.9,871.57s-6.21,25.61-6,29.93,3.68,17.53,4.9,17.75,4.94.81,5.15-1.8-1.19-5.23-.15-4.67.17,10.4,5.15,10.73,20.22-3.41,21-14.86-12.26-34.17-12.4-36.11C1346.35,856.13,1329.9,871.57,1329.9,871.57Z"/><path class="cls-6" d="M1340.52,873.88c-11.9,2-20.08,0-20.08,0s-66.91-67.74-76.27-73.33-137.63-10.45-137.63-10.45-51.39.12-63.63-26.37c-10.63-23-2.8-42.69,8.51-57.1a53.1,53.1,0,0,1,57.1-17.85c46.91,14.14,140.21,43,157.62,53.86,38.74,24.17,88.35,119.66,88.35,119.66S1350.25,872.28,1340.52,873.88Z"/></g><path class="cls-18" d="M1831.87,1087.49s-34.74,56.63-33.41,73.26c.79,9.89,15.73,6.9,29.67-7.7,9.49-9.94,18.46-27.73,22.41-40.9C1860.31,1079.62,1831.87,1087.49,1831.87,1087.49Z"/><path class="cls-18" d="M1924.08,1068.11,1890,1085.55l-6.84-23.68s4.35-8.19,6.31-21.61a90,90,0,0,0,.71-19.49l27.8,14.24a52.64,52.64,0,0,0-1.1,6.36,46,46,0,0,0,.48,14.88C1918.32,1060.76,1920.34,1065.06,1924.08,1068.11Z"/><path class="cls-18" d="M1947.82,1071.08s45,51.65,61.92,55.64,57.81,7.67,57.81,7.67l-4.43,12.28s-51.78,5-59.77,3.33-65.72-33.26-65.72-33.26Z"/><path class="cls-25" d="M1958.27,1456.59a18.15,18.15,0,0,0,11.44,8.66,19.7,19.7,0,0,1,11.86,7.29,4.62,4.62,0,0,1-3.71,7.37h-40a5.75,5.75,0,0,1-5.73-6.33c.3-3,.61-6.42.74-9.07.3-5.77,6.09-10.43,6.09-10.43Z"/><path class="cls-8" d="M1959.24,1458.34s-9.6,5.67-25.85,2.24c0,0-27.61-70.6-29.24-103.83-.08-1.33-.1-2.61-.08-3.81.56-31.26-28.29-112.63-20.51-129.3s70.67,7.49,70.67,7.49l1.25,56.7Z"/><path class="cls-14" d="M1955.48,1287.83l-51.33,68.92c-.07-1.33-.1-2.61-.07-3.81.55-31.26-28.3-112.63-20.52-129.3s70.67,7.49,70.67,7.49Z"/><path class="cls-25" d="M1855,1456.59a18.15,18.15,0,0,0,11.44,8.66,19.7,19.7,0,0,1,11.86,7.29,4.62,4.62,0,0,1-3.72,7.37h-40a5.75,5.75,0,0,1-5.72-6.33c.3-3,.61-6.42.74-9.07.3-5.77,6.09-10.43,6.09-10.43Z"/><path class="cls-8" d="M1917.45,1232.47s-55.58,207.41-57.28,227.71c0,0-10.84,5.56-28.44-4.26,0,0-10.22-93,0-118.37s-2-102.19,24-119.51S1917.45,1232.47,1917.45,1232.47Z"/><path class="cls-17" d="M1972.76,1092.47l-24.94-21.39s-9.4-5.11-27.41-8.08c.15,4.91-1.8,9.39-10.41,10.51-11.45,1.49-21.7-6.32-26.88-11.63-13.55,1.94-21.55,3.1-37.8,11.36,0,0-22.1,11.92-30.83,35.86,0,0,13,15.47,30.64,22.29l.46,3.84,3.78,31.37-11.25,62.47a9.18,9.18,0,0,0,6.9,10.58s1,.16,2.75.41c11.93,1.67,60.34,7.45,98.3-2.86a18.42,18.42,0,0,0,13.45-19.29l-7.08-88.89C1971,1121.41,1972.76,1092.47,1972.76,1092.47Z"/><path class="cls-5" d="M1863.13,1192.89c-.75,21.79-2.89,40.26-15.36,47.17-1.78-.25-2.75-.41-2.75-.41a9.21,9.21,0,0,1-7-8.94,9,9,0,0,1,.15-1.63l11.25-62.48-3.78-31.37.28-.84S1864.09,1165,1863.13,1192.89Z"/><path class="cls-7" d="M1864.57,1202.77s6.71,22.9,21.83,37.25a55.05,55.05,0,0,0,33.89,14.62Z"/><path class="cls-26" d="M1918.54,1143.18s-42.73,30.89-54,59.59c0,0,23.34,38.63,55.72,51.87,0,0,33.84-43.78,50-51.5C1970.32,1203.14,1958.73,1167.1,1918.54,1143.18Z"/><path class="cls-27" d="M1917.32,1056.25c-15.81-.42-27.89-16-27.89-16l27.41,1.11A46,46,0,0,0,1917.32,1056.25Z"/><path class="cls-18" d="M1925,1047.44s-31.53,8.33-42.41-16.75c-11.74-27.06,1.14-46.78,11.85-48.11,21.35-2.65,33.76,5.49,37.51,14.1S1942.39,1043,1925,1047.44Z"/><path class="cls-28" d="M1912.48,1033.32s1.32,3.26,9.64,1.43c0,0,7-1.53,6.19-5.21C1928.32,1029.54,1921.07,1028,1912.48,1033.32Z"/><path class="cls-14" d="M1888.2,1039.47s-3.7-10.86-3.26-16.65c0,0-8.23-10.5-3.43-13.09s7.38,3.61,8.48,2.39,2.81-21.84,8.64-21.19,27.36,7.33,36.81-.82-13.47-40-52.3-27.67S1852.24,1017.91,1888.2,1039.47Z"/><path class="cls-14" d="M1864,979.37s-1.76-5.25.13-9c0,0,.1,5.16,2.12,7.45S1864,979.37,1864,979.37Z"/><path class="cls-14" d="M1864.79,975.7s-4.8-.54-7.07,3.15a6.18,6.18,0,0,1,6.81.14Z"/><path class="cls-18" d="M1885.09,1173.54a27.58,27.58,0,0,0,9.69-1.68c4.4-1.8,16-1,15.35,1.15s-4.76,1.31-4.22,3.73,14,6,12.87,9.23-5.6,5.6-15.37,4.83-19.54-5-19.54-5Z"/><path class="cls-18" d="M2067.55,1134.39s15.94-13.32,24.58-11-8.14,27.59-29,23.27S2067.55,1134.39,2067.55,1134.39Z"/><path class="cls-18" d="M1888.06,1173.4s-62-27.11-73.31-28.78-16.29,16.13-16.29,16.13-2,18.33,88.74,26.3Z"/><path class="cls-17" d="M2170.89,1154s5.88,39.54-4.33,55.43-34.91,30.35-34.91,30.35Z"/><path class="cls-3" d="M2079.78,1124.1s72.57,12.78,91.11,29.91c0,0-7,60.84-39.24,85.78,0,0-92.55-28.35-95.76-36.91C2033.9,1197.56,2079.78,1124.1,2079.78,1124.1Z"/><path class="cls-29" d="M2555.92,1486.83H.37a.37.37,0,0,1-.37-.37v-6a.38.38,0,0,1,.37-.37H2555.92a.37.37,0,0,1,.37.37v6A.36.36,0,0,1,2555.92,1486.83Z"/><ellipse class="cls-1" cx="1794.12" cy="255.62" rx="235.96" ry="355.18" transform="translate(893 1827.94) rotate(-68.29)"/><path class="cls-1" d="M1327.52,208.68a104.92,104.92,0,1,1-58.67-136.29A104.92,104.92,0,0,1,1327.52,208.68Z"/><path class="cls-1" d="M2541.66,510.61c-37.11,93.22-142.77,138.7-236,101.59a181.68,181.68,0,0,1,134.41-337.58C2533.3,311.74,2578.78,417.4,2541.66,510.61Z"/></g></g></svg>