<?xml version="1.0" encoding="utf-8"?>
<!-- Generator: Adobe Illustrator 27.5.0, SVG Export Plug-In . SVG Version: 6.00 Build 0)  -->
<svg version="1.1" xmlns="http://www.w3.org/2000/svg" xmlns:xlink="http://www.w3.org/1999/xlink" x="0px" y="0px"
	 viewBox="0 0 3710 3710" style="enable-background:new 0 0 3710 3710;" xml:space="preserve">
<g id="Background">
	<g>
		<g>
			<rect style="fill:#FFFFFF;" width="3710" height="3710"/>
		</g>
	</g>
</g>
<g id="Illustration">
	<g>
		<path style="fill:#F4F7FA;" d="M3187.759,2117.871c-165.244,648.976-862.048,1159.147-1576.85,1050.035
			c-545.084-83.215-1009.19-512.612-1127.014-1050.035c-30.709-139.923-37.895-287.202-16.948-437.566
			c92.774-665.686,706.938-1173.01,1415.911-1152.368c720.734,20.982,1280.969,579.997,1337.033,1196.907
			C3232.06,1858.769,3220.061,1990.964,3187.759,2117.871z"/>
		<path style="fill:#EAEDF3;" d="M3187.759,2117.871c-165.244,648.976-862.048,1159.147-1576.85,1050.035
			c-545.084-83.215-1009.19-512.612-1127.014-1050.035H3187.759z"/>
		<g>
			<path style="fill:#D8DEE8;" d="M659.003,1382.324v783.001h1335.509v-783.001H659.003z M1286.082,1778.909h-532.17v-335.572
				h532.17V1778.909z M1896.212,1778.909h-532.17v-335.572h532.17V1778.909z"/>
			<g>
				<g>
					<rect x="750.522" y="1853.481" style="fill:#BFC8D6;" width="257.611" height="254.221"/>
					<rect x="1025.081" y="1853.481" style="fill:#BFC8D6;" width="254.221" height="254.221"/>
				</g>
				<path style="fill:#97A6B7;" d="M984.406,1996.48c0,3.393-2.751,6.144-6.144,6.144h-1.271c-3.393,0-6.144-2.751-6.144-6.144
					v-31.778c0-3.393,2.751-6.144,6.144-6.144h1.271c3.393,0,6.144,2.751,6.144,6.144V1996.48z"/>
				<path style="fill:#97A6B7;" d="M1062.367,1996.48c0,3.393-2.75,6.144-6.144,6.144h-1.271c-3.393,0-6.144-2.751-6.144-6.144
					v-31.778c0-3.393,2.751-6.144,6.144-6.144h1.271c3.393,0,6.144,2.751,6.144,6.144V1996.48z"/>
			</g>
			<g>
				<g>
					<rect x="1360.653" y="1853.481" style="fill:#BFC8D6;" width="257.611" height="254.221"/>
					<rect x="1635.212" y="1853.481" style="fill:#BFC8D6;" width="254.221" height="254.221"/>
				</g>
				<path style="fill:#97A6B7;" d="M1594.537,1996.48c0,3.393-2.751,6.144-6.144,6.144h-1.271c-3.393,0-6.144-2.751-6.144-6.144
					v-31.778c0-3.393,2.751-6.144,6.144-6.144h1.271c3.393,0,6.144,2.751,6.144,6.144V1996.48z"/>
				<path style="fill:#97A6B7;" d="M1672.498,1996.48c0,3.393-2.751,6.144-6.144,6.144h-1.271c-3.393,0-6.144-2.751-6.144-6.144
					v-31.778c0-3.393,2.751-6.144,6.144-6.144h1.271c3.393,0,6.144,2.751,6.144,6.144V1996.48z"/>
			</g>
			<g>
				<rect x="808.146" y="1531.467" style="fill:#97A6B7;" width="50.844" height="247.442"/>
				<rect x="947.12" y="1531.467" style="fill:#97A6B7;" width="50.844" height="247.442"/>
				
					<rect x="1031.86" y="1528.078" transform="matrix(0.966 -0.2584 0.2584 0.966 -390.9354 329.32)" style="fill:#BFC8D6;" width="50.844" height="247.442"/>
				<rect x="869.159" y="1531.467" style="fill:#BFC8D6;" width="64.403" height="247.442"/>
				<rect x="825.094" y="1555.194" style="fill:#BFC8D6;" width="16.948" height="196.598"/>
				<g>
					<rect x="869.159" y="1555.194" style="fill:#97A6B7;" width="64.403" height="13.558"/>
					<rect x="869.159" y="1745.013" style="fill:#97A6B7;" width="64.403" height="13.559"/>
				</g>
				<rect x="960.679" y="1565.363" style="fill:#D8DEE8;" width="23.727" height="193.208"/>
			</g>
			<g>
				<rect x="1408.108" y="1531.467" style="fill:#97A6B7;" width="50.844" height="247.442"/>
				<rect x="1547.082" y="1531.467" style="fill:#97A6B7;" width="50.844" height="247.442"/>
				<rect x="1604.705" y="1551.805" style="fill:#D8DEE8;" width="50.844" height="227.104"/>
				<rect x="1469.121" y="1531.467" style="fill:#BFC8D6;" width="64.403" height="247.442"/>
				<rect x="1425.056" y="1555.194" style="fill:#BFC8D6;" width="16.948" height="196.598"/>
				<g>
					<rect x="1469.121" y="1555.194" style="fill:#97A6B7;" width="64.403" height="13.558"/>
					<rect x="1469.121" y="1745.013" style="fill:#97A6B7;" width="64.403" height="13.559"/>
				</g>
				<rect x="1560.641" y="1565.363" style="fill:#D8DEE8;" width="23.727" height="193.208"/>
			</g>
			<g>
				<rect x="1665.719" y="1531.467" style="fill:#97A6B7;" width="50.844" height="247.442"/>
				<rect x="1804.693" y="1531.467" style="fill:#97A6B7;" width="50.844" height="247.442"/>
				<rect x="1726.732" y="1531.467" style="fill:#BFC8D6;" width="64.403" height="247.442"/>
				<rect x="1682.667" y="1555.194" style="fill:#BFC8D6;" width="16.948" height="196.598"/>
				<g>
					<rect x="1726.732" y="1555.194" style="fill:#97A6B7;" width="64.403" height="13.558"/>
					<rect x="1726.732" y="1745.013" style="fill:#97A6B7;" width="64.403" height="13.559"/>
				</g>
				<rect x="1818.251" y="1565.363" style="fill:#D8DEE8;" width="23.727" height="193.208"/>
			</g>
			<g>
				<g>
					<rect x="1604.705" y="1568.753" style="fill:#BFC8D6;" width="50.844" height="6.779"/>
					<rect x="1604.705" y="1582.311" style="fill:#BFC8D6;" width="50.844" height="6.779"/>
				</g>
				<g>
					<rect x="1604.705" y="1741.623" style="fill:#BFC8D6;" width="50.844" height="6.779"/>
					<rect x="1604.705" y="1755.182" style="fill:#BFC8D6;" width="50.844" height="6.779"/>
				</g>
			</g>
		</g>
		<g>
			
				<linearGradient id="SVGID_1_" gradientUnits="userSpaceOnUse" x1="824.9458" y1="1783.8372" x2="1884.7665" y2="1422.2788" gradientTransform="matrix(-1 0 0 1 4153.4253 0)">
				<stop  offset="0" style="stop-color:#FFC444"/>
				<stop  offset="0.9964" style="stop-color:#F36F56"/>
			</linearGradient>
			<path style="fill:url(#SVGID_1_);" d="M3070.411,1696.034c8.468,3.186,21.639,7.028,37.774,6.873
				c29.026-0.276,37.277-13.194,59.266-7.949c17.123,4.083,36.233,17.669,36.237,17.67l0,0
				c-0.112,0.053-22.499,13.501-44.765,19.899c-16.976,4.879-30.76,4.762-40.709,4.603c-22.114-0.354-45.02-0.722-51.657-14.055
				C3065.308,1720.564,3061.876,1712.051,3070.411,1696.034z"/>
			<g>
				
					<linearGradient id="SVGID_00000065796099902432491130000017559577596751718043_" gradientUnits="userSpaceOnUse" x1="-787.9396" y1="2835.5984" x2="-717.2393" y2="2835.5984" gradientTransform="matrix(0.9987 -0.0516 0.0516 0.9987 3092.9358 20.3958)">
					<stop  offset="0" style="stop-color:#AA80F9"/>
					<stop  offset="0.9964" style="stop-color:#6165D7"/>
				</linearGradient>
				<path style="fill:url(#SVGID_00000065796099902432491130000017559577596751718043_);" d="M2507.601,2861.714
					c4.809,7.072,10.654,17.625,13.959,31.392c1.449,6.034,2.15,11.604,2.433,16.485c-3.009,6.441-18.23,29.339-42.319,38.253
					c-14.901,5.515-41.945-3.528-16.514-25.723c25.43-22.195,28.972-27.124,13.422-70.931c-4-11.271-3.843-15.655-2.149-16.764
					C2480.387,2831.833,2495.383,2847.696,2507.601,2861.714z"/>
				
					<linearGradient id="SVGID_00000094614835736102950140000011937437883437984411_" gradientUnits="userSpaceOnUse" x1="-652.9467" y1="2856.157" x2="-582.2453" y2="2856.157" gradientTransform="matrix(0.9987 -0.0516 0.0516 0.9987 3092.9358 20.3958)">
					<stop  offset="0" style="stop-color:#AA80F9"/>
					<stop  offset="0.9964" style="stop-color:#6165D7"/>
				</linearGradient>
				<path style="fill:url(#SVGID_00000094614835736102950140000011937437883437984411_);" d="M2643.479,2875.28
					c4.809,7.072,10.656,17.626,13.961,31.393c1.448,6.033,2.149,11.604,2.433,16.484c-3.01,6.44-18.231,29.338-42.32,38.253
					c-14.901,5.515-41.945-3.529-16.514-25.724c25.431-22.195,28.973-27.123,13.423-70.931c-4.001-11.271-3.843-15.654-2.15-16.764
					C2616.266,2845.399,2631.261,2861.261,2643.479,2875.28z"/>
				
					<linearGradient id="SVGID_00000121238497252376041130000012263336736614855045_" gradientUnits="userSpaceOnUse" x1="-903.5557" y1="2327.2104" x2="-473.7364" y2="2327.2104" gradientTransform="matrix(0.9987 -0.0516 0.0516 0.9987 3092.9358 20.3958)">
					<stop  offset="0" style="stop-color:#444B8C"/>
					<stop  offset="0.9964" style="stop-color:#26264F"/>
				</linearGradient>
				<path style="fill:url(#SVGID_00000121238497252376041130000012263336736614855045_);" d="M2691.926,1932.261
					c11.428,57.276,22.857,114.553,34.285,171.83c-18.852,55.198-36.087,115.228-50.218,179.906
					c-51.041,233.633-42.758,441.824-20.083,600.123c-12.079,6.697-24.156,13.391-36.235,20.089
					c-36.894-83.069-83.314-206.975-109.342-362.842c-30.753-184.148-19.087-329.329-27.608-329.546
					c-8.167-0.207-26.466,132.965-21.339,284.154c5.421,159.823,35.349,290.459,61.698,379.843
					c-15.216,3.382-30.431,6.764-45.647,10.146c-61.909-113.859-127.195-270.103-155.577-461.807
					c-19.71-133.129-43.648-310.064,39.375-496.29c8.291-18.596,38.028-60.264,43.521-70.498
					C2507.813,1873.459,2588.867,1916.171,2691.926,1932.261z"/>
				
					<linearGradient id="SVGID_00000181089315858018603930000006193113916041009045_" gradientUnits="userSpaceOnUse" x1="-874.4068" y1="2500.1765" x2="-459.2184" y2="2500.1765" gradientTransform="matrix(0.9976 0.069 -0.069 0.9976 3337.3716 -76.9363)">
					<stop  offset="0" style="stop-color:#444B8C"/>
					<stop  offset="0.9964" style="stop-color:#26264F"/>
				</linearGradient>
				<path style="opacity:0.25;fill:url(#SVGID_00000181089315858018603930000006193113916041009045_);" d="M2675.993,2283.999
					c14.13-64.679,31.365-124.708,50.218-179.907c-11.428-57.277-22.857-114.554-34.285-171.83
					c-103.059-16.091-184.113-58.801-287.171-74.892c-5.493,10.233-35.23,51.9-43.521,70.497
					c-27.987,62.778-43.785,124.489-51.722,183.832c198.016-8.937,256.752,30.352,273.834,67.835
					c27.193,59.669-47.118,123.66-15.895,245.232c9.389,36.563,22.154,54.301,25.156,100.402
					c3.942,60.498-15.623,67.046-16.612,128.758c-1.083,67.521,21.326,122.927,39.714,168.396
					c11.431,28.268,23.133,50.864,31.837,66.436c2.788-1.545,5.575-3.09,8.364-4.636
					C2633.235,2725.822,2624.952,2517.631,2675.993,2283.999z"/>
			</g>
			
				<linearGradient id="SVGID_00000098905183856530508130000009587030701018034305_" gradientUnits="userSpaceOnUse" x1="-33.0264" y1="1633.1262" x2="-840.079" y2="1207.8225" gradientTransform="matrix(1 0 0 1 3198.7454 0)">
				<stop  offset="0" style="stop-color:#311944"/>
				<stop  offset="1" style="stop-color:#6B3976"/>
			</linearGradient>
			<path style="fill:url(#SVGID_00000098905183856530508130000009587030701018034305_);" d="M2516.774,1135.744
				c7.197,7.793-1.019,20.1,1.381,61.555c1.098,18.961,3.875,34.667,6.312,45.777c1.412,10.131,2.964,19.501,4.62,27.75
				c1.216,6.051,2.334,10.762,3.739,15.755c2.603,9.26,5.903,18.369,9.805,27.075c0.258,0.576,0.03,1.245-0.51,1.548
				c-0.032,0.018-0.065,0.034-0.099,0.049c-0.61,0.274-1.324,0.001-1.597-0.609c-3.951-8.813-7.292-18.034-9.928-27.407
				c-1.422-5.055-2.553-9.822-3.781-15.936c-0.872-4.347-1.714-9.023-2.525-13.929c-0.002,13.145,1.209,27.54,7.821,46.244
				c20.066,56.77-21.155,99.777-56.615,105.009c-40.893,6.033-72.11-23.633-81.825-33.392
				c-39.156-39.337-53.087-108.613-25.748-163.168C2403.64,1140.599,2499.138,1116.646,2516.774,1135.744z"/>
			
				<linearGradient id="SVGID_00000041255167236212929990000017870855558193090486_" gradientUnits="userSpaceOnUse" x1="-1080.6219" y1="1607.2781" x2="-574.7308" y2="1832.1187" gradientTransform="matrix(0.994 0.1095 -0.1095 0.994 3126.2712 -108.4884)">
				<stop  offset="0" style="stop-color:#FF9085"/>
				<stop  offset="1" style="stop-color:#FB6FBB"/>
			</linearGradient>
			<path style="fill:url(#SVGID_00000041255167236212929990000017870855558193090486_);" d="M1995.255,1620.214
				c-11.42,7.701-22.64,18.427-24.348,32.412c-5.644,46.185,94.74,109.102,183.741,120.092
				c118.384,14.619,281.438-54.562,301.166-179.272c16.071-101.585-61.4-210.938-104.201-204.679
				c-53.741,7.856-29.467,194.544-135.317,248.411C2167.85,1661.832,2033.678,1634.121,1995.255,1620.214z"/>
			
				<linearGradient id="SVGID_00000138564520648650794400000017168321988749327763_" gradientUnits="userSpaceOnUse" x1="-42.2385" y1="1650.605" x2="-849.2878" y2="1225.303" gradientTransform="matrix(1 0 0 1 3198.7454 0)">
				<stop  offset="0" style="stop-color:#311944"/>
				<stop  offset="1" style="stop-color:#6B3976"/>
			</linearGradient>
			<path style="fill:url(#SVGID_00000138564520648650794400000017168321988749327763_);" d="M2418.712,1202.562
				c1.083-6.691,6.282-34.049,28.847-53.203c42.813-36.338,119.304-18.666,165.508,14.116
				c48.346,34.301,32.704,63.117,80.742,101.789c52.176,42.004,83.258,18.078,153.716,56.574
				c27.714,15.141,102.405,55.949,114.827,130.393c10.736,64.328-28.336,133.91-81.772,164.729
				c-91.481,52.764-219.525-11.268-283.487-75.727c-61.346-61.822-26.381-82.135-117.164-204.405
				C2447.104,1292.62,2410.618,1252.554,2418.712,1202.562z"/>
			
				<linearGradient id="SVGID_00000002360145334156129450000012990911131468029324_" gradientUnits="userSpaceOnUse" x1="-835.7803" y1="1637.8545" x2="-88.4751" y2="2313.9878" gradientTransform="matrix(1 0 0 1 3191.939 0)">
				<stop  offset="0" style="stop-color:#FF9085"/>
				<stop  offset="1" style="stop-color:#FB6FBB"/>
			</linearGradient>
			<path style="fill:url(#SVGID_00000002360145334156129450000012990911131468029324_);" d="M2351.613,1388.766
				c32.3-13.942,83.746-31.718,148.794-35.364c65.004-3.645,110.357-7.931,141.454,18.683
				c66.163,56.624-1.293,161.686,64.055,298.922c8.284,17.399,64.864,132.255,168.144,154.799
				c58.374,12.742,73.651-16.671,141.454-13.345c138.24,6.781,253.615,137.821,238.08,169.042
				c-10.397,20.895-71.901-18.058-131.322,18.101c-54.855,33.381-37.48,87.899-90.744,130.463
				c-61.131,48.847-152.268,31.579-192.164,24.021c-86.517-16.393-88.976-50.947-189.495-77.399
				c-79.219-20.848-147.301-17.706-178.82-16.014c-129.296,6.939-174.573,49.947-197.502,26.689
				c-44.311-44.946,133.813-196.407,90.586-370.541c-15.879-63.969-49.466-92.141-50.552-173.925
				C2312.717,1477.876,2333.546,1424.284,2351.613,1388.766z"/>
			
				<linearGradient id="SVGID_00000012470211175870256510000013161592647217381792_" gradientUnits="userSpaceOnUse" x1="3819.7148" y1="1283.54" x2="3832.5884" y2="940.6337" gradientTransform="matrix(-0.9962 0.0867 0.0867 0.9962 6200.9414 -81.7878)">
				<stop  offset="0" style="stop-color:#FFC444"/>
				<stop  offset="0.9964" style="stop-color:#F36F56"/>
			</linearGradient>
			<path style="fill:url(#SVGID_00000012470211175870256510000013161592647217381792_);" d="M2493.208,1262.805
				c-7.928,21.417-13.763,47.784-0.938,63.734c7.814,9.718,19.561,14.366,31.136,18.693c27.352,10.227,38.881,3.728,44.829,11.036
				c13.09,16.085-12.088,85.254-63.695,96.381c-51.358,11.073-104.236-40.655-98.894-65.371
				c4.82-22.303,56.661-20.839,62.978-49.047c3.181-14.201-6.824-28.568-15.288-38.123l-6.063,1.169L2493.208,1262.805z"/>
			
				<linearGradient id="SVGID_00000004533206643319683400000012246087876150447260_" gradientUnits="userSpaceOnUse" x1="-694.7167" y1="1480.3143" x2="-684.174" y2="1199.4927" gradientTransform="matrix(1 0 0 1 3198.7454 0)">
				<stop  offset="0" style="stop-color:#FFC444"/>
				<stop  offset="0.9964" style="stop-color:#F36F56"/>
			</linearGradient>
			<path style="opacity:0.4;fill:url(#SVGID_00000004533206643319683400000012246087876150447260_);" d="M2568.235,1356.269
				c-5.948-7.308-17.476-0.81-44.829-11.037c-11.575-4.327-23.322-8.976-31.136-18.694c-12.825-15.951-6.99-42.317,0.938-63.733
				l-45.935,38.472l6.063-1.168c6.717,7.583,14.296,18.208,15.592,29.366c3.847,2.111,7.162,4.521,9.585,6.943
				c-5.291,15.402-6.287,28.328-6.322,36.625c-0.056,12.938-0.098,22.547,6.322,30.957c7.002,9.174,17.592,11.547,26.848,13.621
				c20.569,4.608,38.916,0.468,50.816-3.719C2570.863,1391.07,2575.585,1365.301,2568.235,1356.269z"/>
			
				<linearGradient id="SVGID_00000025436381049650939830000011582224805686558136_" gradientUnits="userSpaceOnUse" x1="3606.0518" y1="1238.8613" x2="3602.5798" y2="1518.5782" gradientTransform="matrix(-1 -0.0041 -0.0043 1.043 6067.5215 -42.6284)">
				<stop  offset="0" style="stop-color:#FFC444"/>
				<stop  offset="0.9964" style="stop-color:#F36F56"/>
			</linearGradient>
			<path style="fill:url(#SVGID_00000025436381049650939830000011582224805686558136_);" d="M2480.069,1284.706
				c0,0-2.61,26.23-28.584,26.367c-32.005,0.168-35.556-84.281-27.773-89.106c9.024-5.596,16.919,8.109,37.925,3.33
				c8.845-2.012,16.49-13.388,20.972-1.129c5.101,13.948,0.792,38.637,0.792,38.637s7.604-6.27,8.771,1.275
				C2493.698,1273.954,2486.291,1280.123,2480.069,1284.706z"/>
			
				<linearGradient id="SVGID_00000161631146974150616730000013307586174847095702_" gradientUnits="userSpaceOnUse" x1="-15.2666" y1="1599.4253" x2="-822.3157" y2="1174.1234" gradientTransform="matrix(1 0 0 1 3198.7454 0)">
				<stop  offset="0" style="stop-color:#311944"/>
				<stop  offset="1" style="stop-color:#6B3976"/>
			</linearGradient>
			<path style="fill:url(#SVGID_00000161631146974150616730000013307586174847095702_);" d="M2429.443,1192.945
				c-10.157,10.358-15.759,30.453-8.719,40.554c10.113,14.512,40.023-0.64,52.256,17.111c5.362,7.783,5.052,18.586,7.833,18.409
				c2.302-0.145,3.664-7.63,4.99-13.788c7.313-33.949,15.775-37.759,13.197-47.479
				C2493.758,1187.996,2450.297,1171.677,2429.443,1192.945z"/>
			
				<linearGradient id="SVGID_00000165236351094328279250000006440629291625134248_" gradientUnits="userSpaceOnUse" x1="-621.2273" y1="1382.7117" x2="140.9705" y2="2072.3193" gradientTransform="matrix(1 0 0 1 3191.939 0)">
				<stop  offset="0" style="stop-color:#FF9085"/>
				<stop  offset="1" style="stop-color:#FB6FBB"/>
			</linearGradient>
			<path style="fill:url(#SVGID_00000165236351094328279250000006440629291625134248_);" d="M2591.151,1438.809
				c-4.412-49.352-20.373-71.024-8.777-81.666c17.933-16.457,74.779,18.248,91.641,28.71
				c93.807,58.201,126.119,123.502,174.244,174.836c41.649,44.428,113.099,97.547,241.985,124.551
				c-4.745,20.166-9.49,40.331-14.235,60.496c-115.24,28.671-181.626,7.642-220.633-16.014
				c-77.892-47.236-98.148-136.193-186.826-149.461c-37.327-5.586-61.358,6.042-78.544-12.796
				C2569.03,1544.473,2597.682,1511.874,2591.151,1438.809z"/>
			
				<linearGradient id="SVGID_00000122697816585798090100000003837885352320690560_" gradientUnits="userSpaceOnUse" x1="-1266.9303" y1="1626.2322" x2="-1185.0719" y2="1700.2946" gradientTransform="matrix(1 0 0 1 3191.939 0)">
				<stop  offset="0" style="stop-color:#FFC444"/>
				<stop  offset="0.9964" style="stop-color:#F36F56"/>
			</linearGradient>
			<path style="fill:url(#SVGID_00000122697816585798090100000003837885352320690560_);" d="M1902.676,1657.838
				c2.042-6.609,7.328-20.171,20.418-28.697c27.036-17.61,69.817-2.304,72.062,12.01c1.467,9.358-13.683,22.831-28.024,24.021
				c-12.902,1.07-18.372-8.363-36.031-10.676C1919.496,1652.976,1909.481,1655.428,1902.676,1657.838z"/>
			
				<linearGradient id="SVGID_00000134251888118709631710000010260313638079892626_" gradientUnits="userSpaceOnUse" x1="-840.1606" y1="1642.696" x2="-92.8543" y2="2318.8306" gradientTransform="matrix(1 0 0 1 3191.939 0)">
				<stop  offset="0" style="stop-color:#FF9085"/>
				<stop  offset="1" style="stop-color:#FB6FBB"/>
			</linearGradient>
			<path style="opacity:0.3;fill:url(#SVGID_00000134251888118709631710000010260313638079892626_);" d="M3015.514,1812.462
				c-67.803-3.327-83.08,26.086-141.454,13.345c-103.28-22.544-159.859-137.401-168.144-154.799
				c-14.44-30.326-22.382-59.073-26.727-86.08c-5.199-2.742-10.829-4.628-16.736-5.432c-22.239-3.026-48.231,8.863-51.284,24.788
				c-4.377,22.815,43.213,33.445,76.065,84.072c26.967,41.56,14.763,59.608,33.362,101.42
				c42.588,95.744,153.974,107.649,148.127,141.454c-4.591,26.537-76.497,38.077-125.44,38.7
				c-104.107,1.322-119.006-46.575-192.164-42.703c-112.666,5.962-155.258,123.679-230.864,105.423
				c-13.456-3.25-25.074-10.167-35.13-19.008c-17.016,33.723-25.834,59.259-11.577,73.722
				c22.928,23.257,68.206-19.75,197.502-26.689c31.518-1.692,99.601-4.834,178.82,16.014
				c100.519,26.452,102.979,61.007,189.495,77.399c39.896,7.558,131.034,24.826,192.164-24.021
				c53.264-42.563,35.889-97.082,90.744-130.463c59.42-36.159,120.925,2.794,131.322-18.101
				C3269.129,1950.283,3153.754,1819.243,3015.514,1812.462z"/>
		</g>
		<g>
			<g>
				<path style="fill:#97A6B7;" d="M1255.575,2341.853c0,14.828-12.021,26.849-26.849,26.849H943.463
					c-14.828,0-26.849-12.021-26.849-26.849v-0.536c0-14.828,12.021-26.849,26.849-26.849h285.264
					c14.828,0,26.849,12.021,26.849,26.849V2341.853z"/>
				<path style="fill:#97A6B7;" d="M1021.692,2483.05c0,7.985-6.473,14.457-14.457,14.457h-1.592
					c-7.984,0-14.457-6.473-14.457-14.457v-120.229c0-7.985,6.473-14.457,14.457-14.457h1.592c7.984,0,14.457,6.473,14.457,14.457
					V2483.05z"/>
				<path style="fill:#97A6B7;" d="M1174.224,2476.271c0,7.984-6.473,14.457-14.457,14.457h-1.592
					c-7.984,0-14.457-6.473-14.457-14.457v-120.229c0-7.984,6.473-14.457,14.457-14.457h1.592c7.984,0,14.457,6.473,14.457,14.457
					V2476.271z"/>
			</g>
			<g>
				<path style="fill:#97A6B7;" d="M1248.796,2324.905c0,14.828-12.021,26.849-26.849,26.849H936.683
					c-14.828,0-26.849-12.021-26.849-26.849v-0.536c0-14.828,12.021-26.849,26.849-26.849h285.263
					c14.828,0,26.849,12.021,26.849,26.849V2324.905z"/>
				<path style="fill:#97A6B7;" d="M1014.912,2466.102c0,7.985-6.473,14.457-14.457,14.457h-1.592
					c-7.984,0-14.457-6.473-14.457-14.457v-120.229c0-7.984,6.473-14.457,14.457-14.457h1.592c7.984,0,14.457,6.473,14.457,14.457
					V2466.102z"/>
				<path style="fill:#97A6B7;" d="M1167.445,2462.713c0,7.984-6.473,14.457-14.457,14.457h-1.592
					c-7.984,0-14.457-6.473-14.457-14.457v-120.229c0-7.984,6.473-14.457,14.457-14.457h1.592c7.984,0,14.457,6.473,14.457,14.457
					V2462.713z"/>
			</g>
			<g>
				<path style="fill:#97A6B7;" d="M2333.473,2337.928c0-14.828-12.021-26.849-26.849-26.849H2021.36
					c-14.828,0-26.849,12.021-26.849,26.849v0.536c0,14.828,12.021,26.849,26.849,26.849h285.263
					c14.828,0,26.849-12.021,26.849-26.849V2337.928z"/>
				<path style="fill:#97A6B7;" d="M2262.291,2356.042c0-7.984-6.473-14.457-14.457-14.457h-1.592
					c-7.985,0-14.457,6.473-14.457,14.457v120.229c0,7.984,6.473,14.457,14.457,14.457h1.592c7.984,0,14.457-6.473,14.457-14.457
					V2356.042z"/>
				<path style="fill:#97A6B7;" d="M2109.758,2352.653c0-7.984-6.473-14.457-14.457-14.457h-1.592
					c-7.984,0-14.457,6.473-14.457,14.457v120.229c0,7.985,6.473,14.457,14.457,14.457h1.592c7.984,0,14.457-6.473,14.457-14.457
					V2352.653z"/>
			</g>
			<g>
				<g>
					
						<linearGradient id="SVGID_00000158004615263686919970000003081383589541249463_" gradientUnits="userSpaceOnUse" x1="632.4821" y1="749.7565" x2="684.3928" y2="749.7565" gradientTransform="matrix(0.3774 0.9261 -0.9261 0.3774 2304.7278 2005.3546)">
						<stop  offset="0.0036" style="stop-color:#E38DDD"/>
						<stop  offset="1" style="stop-color:#9571F6"/>
					</linearGradient>
					<path style="fill:url(#SVGID_00000158004615263686919970000003081383589541249463_);" d="M1883.216,2868.386
						c0.122,0.249,0.505,0.718,1.03,1.39c2.352,3.004,7.577,10.054,5.265,19.509c-2.829,11.567-20.138,24.877-41.47,40.057
						c-21.332,15.18-12.906-10.213-10.807-13.823c2.099-3.611,33.038-50.102,33.038-50.102L1883.216,2868.386z"/>
					
						<linearGradient id="SVGID_00000171701751143558423010000007316902868499096222_" gradientUnits="userSpaceOnUse" x1="2954.8633" y1="1992.1202" x2="2932.3633" y2="2096.1821" gradientTransform="matrix(0.8385 0.5449 -0.5449 0.8385 576.3808 -512.5641)">
						<stop  offset="0" style="stop-color:#FFC444"/>
						<stop  offset="0.0985" style="stop-color:#FEBC46"/>
						<stop  offset="0.9964" style="stop-color:#F36F56"/>
					</linearGradient>
					<path style="fill:url(#SVGID_00000171701751143558423010000007316902868499096222_);" d="M1853.907,2859.082l19.91,23.223
						c0,0,7.159-0.252,6.424-9.887l-1.842-24.202L1853.907,2859.082z"/>
					
						<linearGradient id="SVGID_00000032613185493598063820000001186173972553731715_" gradientUnits="userSpaceOnUse" x1="1666.4424" y1="2566.9353" x2="1917.7294" y2="2625.647">
						<stop  offset="0" style="stop-color:#444B8C"/>
						<stop  offset="0.9964" style="stop-color:#26264F"/>
					</linearGradient>
					<path style="fill:url(#SVGID_00000032613185493598063820000001186173972553731715_);" d="M2243.403,2517.073
						c-12.928,16.812-30.897,35.565-54.771,47.585c-7.642,3.842-15.861,6.98-24.743,9.171
						c-42.048,10.326-73.938-7.229-109.627-19.497c-24.163-8.303-50.064-14.168-82.076-7.229
						c-10.655,2.313-67.451,15.903-85.751,58.449c-15.944,37.01,10.121,65.718,15.407,130.899
						c0.496,6.361,0.785,12.599,0.827,18.671c0.494,40.149-7.973,73.855-15.863,97.359c-2.602,1.321-5.204,2.602-7.805,3.924
						c-6.361,3.222-12.723,6.443-19.084,9.666c-2.025,0.99-4.09,2.023-6.113,3.056c-88.106-140.11-114.459-287.201-52.46-371.59
						c19.167-26.022,43.868-42.215,56.59-50.435c76.043-48.948,159.854-49.443,217.188-41.348
						c26.932,3.759,47.996,9.459,59.646,12.847C2170.951,2451.438,2207.177,2484.235,2243.403,2517.073z"/>
					
						<linearGradient id="SVGID_00000021104870076038069650000009639542205290022793_" gradientUnits="userSpaceOnUse" x1="672.6199" y1="651.2624" x2="724.5306" y2="651.2624" gradientTransform="matrix(0.3774 0.9261 -0.9261 0.3774 2304.7278 2005.3546)">
						<stop  offset="0.0036" style="stop-color:#E38DDD"/>
						<stop  offset="1" style="stop-color:#9571F6"/>
					</linearGradient>
					<path style="fill:url(#SVGID_00000021104870076038069650000009639542205290022793_);" d="M1989.58,2868.386
						c0.122,0.249,0.505,0.718,1.03,1.39c2.353,3.004,7.577,10.054,5.265,19.509c-2.829,11.567-20.138,24.877-41.47,40.057
						c-21.332,15.18-12.906-10.213-10.807-13.823c2.098-3.611,33.038-50.102,33.038-50.102L1989.58,2868.386z"/>
					
						<linearGradient id="SVGID_00000177474331209596981330000003343862830071779750_" gradientUnits="userSpaceOnUse" x1="3044.0493" y1="1934.1624" x2="3021.5493" y2="2038.2245" gradientTransform="matrix(0.8385 0.5449 -0.5449 0.8385 576.3808 -512.5641)">
						<stop  offset="0" style="stop-color:#FFC444"/>
						<stop  offset="0.0985" style="stop-color:#FEBC46"/>
						<stop  offset="0.9964" style="stop-color:#F36F56"/>
					</linearGradient>
					<path style="fill:url(#SVGID_00000177474331209596981330000003343862830071779750_);" d="M1960.271,2859.082l19.91,23.223
						c0,0,7.159-0.252,6.425-9.887l-1.842-24.202L1960.271,2859.082z"/>
					
						<linearGradient id="SVGID_00000103241182465352880070000010678190797121792389_" gradientUnits="userSpaceOnUse" x1="1793.1342" y1="2584.1106" x2="1986.3214" y2="2629.2476">
						<stop  offset="0" style="stop-color:#444B8C"/>
						<stop  offset="0.9964" style="stop-color:#26264F"/>
					</linearGradient>
					<path style="fill:url(#SVGID_00000103241182465352880070000010678190797121792389_);" d="M2243.403,2517.073
						c-12.928,16.812-30.897,35.565-54.771,47.585c-32.714-12.02-65.513-27.22-110.083-17.555
						c-3.717,0.785-12.969,2.975-24.288,7.229c-21.19,8.013-49.525,23.462-61.463,51.22c-15.944,37.01,10.121,65.718,15.407,130.899
						c3.883,48.369-5.948,88.974-15.036,116.03c-2.602,1.321-5.204,2.602-7.805,3.924c-6.361,3.222-12.723,6.443-19.084,9.666
						c-2.025,0.99-4.09,2.023-6.113,3.056c-23.874-37.96-43.206-76.417-57.498-114.004c-38.416-101.2-40.151-196.081,5.038-257.586
						c19.167-26.022,43.868-42.215,56.59-50.435c36.431-23.462,74.599-35.771,110.825-41.348
						c26.932,3.759,47.996,9.459,59.646,12.847C2170.951,2451.438,2207.177,2484.235,2243.403,2517.073z"/>
				</g>
				
					<linearGradient id="SVGID_00000162345884454544351960000013172297024172552850_" gradientUnits="userSpaceOnUse" x1="2169.2192" y1="1918.0408" x2="1813.9778" y2="3062.2458">
					<stop  offset="0.0036" style="stop-color:#E38DDD"/>
					<stop  offset="1" style="stop-color:#9571F6"/>
				</linearGradient>
				<path style="fill:url(#SVGID_00000162345884454544351960000013172297024172552850_);" d="M2279.257,2226.774
					c-5.246,28.789-17.803,74.722-36.516,165.348c-13.63,66.09-15.736,84.1-34.903,98.969
					c-14.415,11.236-32.135,15.738-50.395,16.317c-16.771,0.536-33.995-2.189-49.567-6.073c-0.083-0.04-0.163-0.04-0.248-0.04
					c-20.941-5.246-38.91-12.475-48.781-16.44c-37.589-15.119-74.105-29.824-81.662-59.894c-0.083-0.207-0.125-0.414-0.165-0.62
					c-7.519-31.764,23.007-55.515,17.43-114.087c-2.271-24.288-8.096-26.23-9.459-26.519c-12.515-2.891-20.528,47.957-58.157,67.866
					c-28.13,14.912-70.799,11.359-89.387-10.491c-30.691-36.102,12.971-112.312,20.322-125.034
					c55.556-96.863,196.122-181.211,315.208-135.319c11.154,4.296,78.276,30.154,103.306,92.608
					C2283.015,2190.094,2283.801,2202.196,2279.257,2226.774z"/>
				
					<linearGradient id="SVGID_00000155833759848639071080000002629862206088477571_" gradientUnits="userSpaceOnUse" x1="1929.3521" y1="2288.2686" x2="2015.5887" y2="2288.2686" gradientTransform="matrix(1 0 0 1 -77.146 0)">
					<stop  offset="0.0036" style="stop-color:#E38DDD"/>
					<stop  offset="1" style="stop-color:#9571F6"/>
				</linearGradient>
				<path style="fill:url(#SVGID_00000155833759848639071080000002629862206088477571_);" d="M1854.888,2328.146
					c-0.372,0-0.75-0.079-1.111-0.243c-1.347-0.613-1.942-2.205-1.33-3.555c1.021-2.233,25.597-54.978,82.389-75.791
					c1.395-0.516,2.933,0.202,3.442,1.597c0.511,1.391-0.204,2.933-1.597,3.442c-54.626,20.021-79.106,72.454-79.346,72.98
					C1856.882,2327.565,1855.908,2328.146,1854.888,2328.146z"/>
				
					<linearGradient id="SVGID_00000143616213509504190030000000002875995869850023_" gradientUnits="userSpaceOnUse" x1="1977.1854" y1="2356.9089" x2="2279.2571" y2="2356.9089">
					<stop  offset="0.0036" style="stop-color:#E38DDD"/>
					<stop  offset="1" style="stop-color:#9571F6"/>
				</linearGradient>
				<path style="opacity:0.45;fill:url(#SVGID_00000143616213509504190030000000002875995869850023_);" d="M2279.257,2226.774
					c-5.246,28.789-17.803,74.722-36.516,165.348c-13.63,66.09-15.736,84.1-34.903,98.969
					c-14.415,11.236-32.135,15.738-50.395,16.317c-17.099-0.414-34.283-2.933-49.567-6.073c-0.083-0.04-0.163-0.04-0.248-0.04
					c-20.941-5.246-38.91-12.475-48.781-16.44c-37.589-15.119-74.105-29.824-81.662-59.894c0.494-1.653,1.033-3.346,1.692-5.04
					c6.569,13.425,14.375,17.803,20.778,19.043c20.445,3.924,33.664-22.058,77.655-29.535c30.857-5.286,43.041,4.338,53.615-3.18
					c23.172-16.481-33.003-64.562-8.467-93.89c20.693-24.741,78.605-11.896,93.145-36.927c10.161-17.472-13.547-31.392-5.617-47.502
					c4.131-8.384,16.522-16.563,46.675-21.521C2264.8,2212.317,2272.525,2219.091,2279.257,2226.774z"/>
				
					<linearGradient id="SVGID_00000108307021424594691350000006561805863454039227_" gradientUnits="userSpaceOnUse" x1="1836.269" y1="2518.4087" x2="2091.196" y2="2159.918" gradientTransform="matrix(1 0 0 1 -77.146 0)">
					<stop  offset="0" style="stop-color:#FFC444"/>
					<stop  offset="0.0985" style="stop-color:#FEBC46"/>
					<stop  offset="0.9964" style="stop-color:#F36F56"/>
				</linearGradient>
				<path style="fill:url(#SVGID_00000108307021424594691350000006561805863454039227_);" d="M1926.272,2259.062l2.368-3.873
					c2.095-8.043,9.821-13.292,18.071-12.275l12.443,1.535c3.894,0.48,6.529,4.184,5.728,8.026
					c-1.158,5.554-4.137,12.199-11.783,11.683c-12.988-0.876-21.29,18.051-21.29,18.051l-4.985-7.021
					C1923.431,2270.408,1923.214,2264.063,1926.272,2259.062z"/>
				<g>
					
						<linearGradient id="SVGID_00000097471539642643165390000001511062199541193114_" gradientUnits="userSpaceOnUse" x1="2145.439" y1="2282.5034" x2="2239.3984" y2="2228.8123" gradientTransform="matrix(1 0 0 1 -77.146 0)">
						<stop  offset="0" style="stop-color:#311944"/>
						<stop  offset="1" style="stop-color:#6B3976"/>
					</linearGradient>
					<path style="fill:url(#SVGID_00000097471539642643165390000001511062199541193114_);" d="M2167.103,2162.595h-53.228
						l9.742,168.287l46.167-12.863c4.319-1.203,7.307-5.137,7.307-9.621v-135.816
						C2177.091,2167.067,2172.619,2162.595,2167.103,2162.595z"/>
					
						<linearGradient id="SVGID_00000079453965762977225560000003700512906926353854_" gradientUnits="userSpaceOnUse" x1="2207.1453" y1="2270.946" x2="2044.0216" y2="2222.613" gradientTransform="matrix(1 0 0 1 -77.146 0)">
						<stop  offset="0" style="stop-color:#311944"/>
						<stop  offset="1" style="stop-color:#6B3976"/>
					</linearGradient>
					<path style="fill:url(#SVGID_00000079453965762977225560000003700512906926353854_);" d="M2113.875,2333.597l-139.237-4.9
						c-8.657-0.305-15.652-7.535-15.652-16.151v-134.351c0-8.616,6.995-15.601,15.652-15.601h139.237
						c9.209,0,16.701,7.239,16.701,16.169v139.251C2130.576,2326.946,2123.084,2333.922,2113.875,2333.597z"/>
				</g>
				
					<linearGradient id="SVGID_00000016789377112938902260000008438059617519874946_" gradientUnits="userSpaceOnUse" x1="3949.2104" y1="2533.561" x2="4204.1377" y2="2175.0708" gradientTransform="matrix(-1 0 0 1 6231.7412 0)">
					<stop  offset="0" style="stop-color:#FFC444"/>
					<stop  offset="0.0985" style="stop-color:#FEBC46"/>
					<stop  offset="0.9964" style="stop-color:#F36F56"/>
				</linearGradient>
				<path style="fill:url(#SVGID_00000016789377112938902260000008438059617519874946_);" d="M2126.398,2284.89l-2.838-4.64
					c-2.51-9.638-11.769-15.928-21.655-14.709l-14.911,1.839c-4.666,0.575-7.823,5.014-6.863,9.617
					c1.387,6.655,4.957,14.618,14.119,14c15.563-1.05,25.511,21.63,25.511,21.63l5.973-8.413
					C2129.802,2298.486,2130.063,2290.883,2126.398,2284.89z"/>
				
					<linearGradient id="SVGID_00000112615020865475152700000007129653498831774655_" gradientUnits="userSpaceOnUse" x1="2403.5325" y1="1958.8829" x2="2042.1647" y2="3122.8213" gradientTransform="matrix(1 0 0 1 -77.146 0)">
					<stop  offset="0.0036" style="stop-color:#E38DDD"/>
					<stop  offset="1" style="stop-color:#9571F6"/>
				</linearGradient>
				<path style="fill:url(#SVGID_00000112615020865475152700000007129653498831774655_);" d="M2126.491,2280.222
					c3.212,2.921,35.783,31.61,74.964,21.813c34.122-8.532,55.072-41.707,58.742-69.622
					c8.728-66.389-124.289-143.468-113.627-156.903c6.349-8.001,86.927,28.849,109.601,42.827
					c23.536,14.509,87.138,53.715,100.694,130.653c1.153,6.54,16.109,98.267-36.256,136.151
					c-48.417,35.027-143.254,15.974-207.483-66.88C2117.581,2305.582,2122.036,2292.902,2126.491,2280.222z"/>
				
					<linearGradient id="SVGID_00000008869705110013418840000003307290754502849447_" gradientUnits="userSpaceOnUse" x1="2202.7463" y1="2193.6167" x2="2082.3601" y2="1887.8579">
					<stop  offset="0" style="stop-color:#444B8C"/>
					<stop  offset="0.9964" style="stop-color:#26264F"/>
				</linearGradient>
				<path style="fill:url(#SVGID_00000008869705110013418840000003307290754502849447_);" d="M2184.2,1937.327
					c0,0-0.544-52.2-64.163-54.375s-168.02-2.719-103.857,71.776s111.156,79.932,111.156,79.932s-23.611,30.45,10.102,21.206
					s76.126-27.732,75.038-75.582C2211.388,1932.434,2184.2,1937.327,2184.2,1937.327z"/>
				
					<linearGradient id="SVGID_00000109721307773032003590000012100508094243814582_" gradientUnits="userSpaceOnUse" x1="1801.5127" y1="1471.9984" x2="1777.2386" y2="1678.967" gradientTransform="matrix(0.9939 0.1103 -0.1103 0.9939 520.6897 263.1535)">
					<stop  offset="0" style="stop-color:#FFC444"/>
					<stop  offset="0.0985" style="stop-color:#FEBC46"/>
					<stop  offset="0.9964" style="stop-color:#F36F56"/>
				</linearGradient>
				<path style="fill:url(#SVGID_00000109721307773032003590000012100508094243814582_);" d="M2088.451,2055.604
					c1.922,11.4-6,22.147-17.469,23.602c-13.893,1.764-30.876,4.448-38.445,7.73c-13.895,6.026,39.924,3.257,88.672,7.513
					c30.433,2.657,53.494,1.768,66.526,0.725c3.5-0.281,4.295-5.033,1.098-6.479c-11.712-5.302-30.819-13.314-47.28-17.265
					c-20.379-4.892-37.481-52.96-37.481-52.96l-19.499,14.124L2088.451,2055.604z"/>
				
					<linearGradient id="SVGID_00000152957214469432505520000016211488035188811937_" gradientUnits="userSpaceOnUse" x1="-988.0109" y1="112.4308" x2="-871.9612" y2="189.8246" gradientTransform="matrix(0.7805 0.6252 -0.6252 0.7805 2923.1206 2519.6465)">
					<stop  offset="0" style="stop-color:#FFC444"/>
					<stop  offset="0.4526" style="stop-color:#FEBC46"/>
					<stop  offset="0.9964" style="stop-color:#F36F56"/>
				</linearGradient>
				<path style="fill:url(#SVGID_00000152957214469432505520000016211488035188811937_);" d="M2130.58,2046.658
					c0,0-31.906,36.241-80.616,24.355c-43.615-10.646-32.647-110.723-0.767-126.756c10.633-5.348,29.975-4.939,44.53,2.048
					c8.596,4.126,10.996,8.423,25.172,14.895c13.075,5.966,17.218,5.13,20.738,9.341c4.408,5.265,6.316,16.609-7.417,44.011
					c9.918-7.042,20.6-8.531,27.16-3.891c1.048,0.741,3.716,3.335,4.868,6.758
					C2168.425,2029.808,2155.564,2042.422,2130.58,2046.658z"/>
			</g>
			<g>
				
					<linearGradient id="SVGID_00000064349206870846870100000015156292499874180787_" gradientUnits="userSpaceOnUse" x1="1155.0699" y1="1560.5192" x2="1260.9967" y2="1893.9481">
					<stop  offset="0" style="stop-color:#444B8C"/>
					<stop  offset="0.9964" style="stop-color:#26264F"/>
				</linearGradient>
				<path style="fill:url(#SVGID_00000064349206870846870100000015156292499874180787_);" d="M1184.631,1866.278
					c-0.518-7.273,1.07-14.574,6-21.727c15.731-22.818,53.868-32.362,79.836-26.951c66.312,13.818,49.416,67.999,40.068,112.586
					s29.361,63.873,36.454,64.113c7.092,0.24-27.237,28.247-51.253,6.12c-2.163,12.213-21.199,25.715-35.672,4.62
					c-8.57-12.489-18.034-24.339-26.594-36.835c-10.858-15.851-15.868-34.718-25.196-51.389
					C1199.93,1901.901,1185.904,1884.176,1184.631,1866.278z"/>
				
					<linearGradient id="SVGID_00000052806743957395732880000007623903998948296598_" gradientUnits="userSpaceOnUse" x1="1960.0664" y1="-3384.2876" x2="1829.8376" y2="-2545.0376">
					<stop  offset="0" style="stop-color:#444B8C"/>
					<stop  offset="0.9964" style="stop-color:#26264F"/>
				</linearGradient>
				<path style="fill:url(#SVGID_00000052806743957395732880000007623903998948296598_);" d="M1235.903,1896.97
					c-25.88-44.153-77.009-66.917-127.14-56.606c-50.128,10.31-88.092,51.412-94.48,102.19
					c-2.048,16.264,1.672,34.563,15.228,54.447c54.167,79.445,122.177,63.797,148.057,59.584
					c25.88-4.213,63.195-42.732,68.612-72.223C1248.883,1969.643,1254.584,1928.843,1235.903,1896.97z"/>
				<g>
					
						<linearGradient id="SVGID_00000020366987230085228390000013032400808926851248_" gradientUnits="userSpaceOnUse" x1="5976.5254" y1="2107.3545" x2="5902.0405" y2="2014.6624" gradientTransform="matrix(0.8609 0.5087 -0.5087 0.8609 -2457.167 -1908.157)">
						<stop  offset="0" style="stop-color:#AA80F9"/>
						<stop  offset="0.9964" style="stop-color:#6165D7"/>
					</linearGradient>
					<path style="fill:url(#SVGID_00000020366987230085228390000013032400808926851248_);" d="M1585.191,2874.307
						c0,0,13.787-1.222,25.044,11.814c11.255,13.036,31.313,30.041,27.219,36.892c-4.095,6.851-28.961-2.042-42.72-13.982
						C1581.572,2897.608,1577.545,2877.922,1585.191,2874.307z"/>
					<path style="fill:#7C346F;" d="M1577.93,2854.191l20.946,23.602c0,0,0.066,9.48-8.227,10.568
						c-8.292,1.088-22.447-19.941-22.447-19.941L1577.93,2854.191z"/>
					
						<linearGradient id="SVGID_00000141449484193377039740000015020374426422948526_" gradientUnits="userSpaceOnUse" x1="3015.5125" y1="2880.1794" x2="3014.9253" y2="2417.3525" gradientTransform="matrix(-1 0 0 1 4347.3086 0)">
						<stop  offset="0" style="stop-color:#893976"/>
						<stop  offset="1" style="stop-color:#311944"/>
					</linearGradient>
					<path style="fill:url(#SVGID_00000141449484193377039740000015020374426422948526_);" d="M1071.9,2491.632
						c-0.231,25.079,119.371,12.841,243.377,90.397c32.45,20.305,61.1,44.179,81.497,57.437
						c16.689,41.259,47.562,66.848,86.456,114.271c23.317,28.37,54.099,70.185,84.324,126.741
						c7.789-4.312,15.53-8.576,23.272-12.887c3.57-57.576,8.762-241.244-97.86-313.47c-0.466-0.316-1.231-0.827-2.759-1.844
						c-22.753-15.141-57.331-36.661-157.546-84.983c-35.834-17.279-58.275-27.48-81.089-43.863
						c-2.024-1.453-3.382-2.614-5.831-3.654c-20.954-8.901-41.767,6.536-89.238,30.132
						C1089.886,2483.055,1071.993,2481.896,1071.9,2491.632z"/>
					<g>
						
							<linearGradient id="SVGID_00000027594473683483112960000004854810307243739278_" gradientUnits="userSpaceOnUse" x1="3611.8115" y1="2807.0972" x2="3611.6492" y2="2679.1851" gradientTransform="matrix(1 0 0 1 -2028.4384 0)">
							<stop  offset="0" style="stop-color:#893976"/>
							<stop  offset="1" style="stop-color:#311944"/>
						</linearGradient>
						<path style="fill:url(#SVGID_00000027594473683483112960000004854810307243739278_);" d="M1592.083,2807.086
							c-0.811-37.472-4.946-83.706-17.581-127.89c3.228,13.606,5.885,27.939,8.696,43.364
							C1587.245,2744.767,1591.048,2773.343,1592.083,2807.086z"/>
						
							<linearGradient id="SVGID_00000102522798508972101500000006891537239557004974_" gradientUnits="userSpaceOnUse" x1="3619.1848" y1="2867.6848" x2="3619.1846" y2="2867.4265" gradientTransform="matrix(1 0 0 1 -2028.4384 0)">
							<stop  offset="0" style="stop-color:#893976"/>
							<stop  offset="1" style="stop-color:#311944"/>
						</linearGradient>
						<path style="fill:url(#SVGID_00000102522798508972101500000006891537239557004974_);" d="M1590.824,2867.591
							c-0.056,0.031-0.112,0.063-0.168,0.094c0.056-0.031,0.114-0.063,0.17-0.094c0.002-0.051,0.006-0.113,0.01-0.165
							C1590.832,2867.482,1590.828,2867.536,1590.824,2867.591z"/>
						
							<linearGradient id="SVGID_00000000922786375966860950000015285216040638449556_" gradientUnits="userSpaceOnUse" x1="3356.0269" y1="2880.7834" x2="3355.4758" y2="2446.4546" gradientTransform="matrix(1 0 0 1 -2028.4384 0)">
							<stop  offset="0" style="stop-color:#893976"/>
							<stop  offset="1" style="stop-color:#311944"/>
						</linearGradient>
						<path style="opacity:0.3;fill:url(#SVGID_00000000922786375966860950000015285216040638449556_);" d="M1572.45,2785.396
							c1.025-16.907,3.746-29.681-4.251-42.507c-11.97-19.198-31.775-12.873-43.241-29.284
							c-16.868-24.137,14.165-54.706-0.975-77.27c-13.213-19.687-40.778-2.294-71.438-23.744
							c-31.219-21.841-25.085-55.573-51.234-65.494c-9.565-3.628-20.256-2.77-31.491,1.119
							c1.472-10.004-165.845-121.902-213.318-98.306c-66.616,33.145-84.509,31.986-84.601,41.721
							c-0.232,25.079,119.37,12.842,243.376,90.397c32.45,20.304,61.1,44.179,81.496,57.437
							c16.688,41.259,47.562,66.847,86.457,114.272c23.317,28.37,54.099,70.185,84.323,126.741
							c5.094-2.82,10.152-5.622,15.218-8.427C1572.146,2834.745,1571.231,2805.474,1572.45,2785.396z"/>
					</g>
					
						<linearGradient id="SVGID_00000182520041591939746720000002304420481136214680_" gradientUnits="userSpaceOnUse" x1="5974.0073" y1="2154.0774" x2="5899.5225" y2="2061.3853" gradientTransform="matrix(0.8609 0.5087 -0.5087 0.8609 -2457.167 -1908.157)">
						<stop  offset="0" style="stop-color:#AA80F9"/>
						<stop  offset="0.9964" style="stop-color:#6165D7"/>
					</linearGradient>
					<path style="fill:url(#SVGID_00000182520041591939746720000002304420481136214680_);" d="M1559.255,2913.25
						c0,0,13.787-1.222,25.044,11.814c11.255,13.036,31.313,30.041,27.219,36.892c-4.095,6.851-28.961-2.042-42.72-13.982
						C1555.636,2936.55,1551.609,2916.865,1559.255,2913.25z"/>
					<path style="fill:#7C346F;" d="M1551.995,2893.134l20.946,23.602c0,0,0.066,9.48-8.227,10.568
						c-8.292,1.088-22.447-19.941-22.447-19.941L1551.995,2893.134z"/>
					
						<linearGradient id="SVGID_00000020363393898893347620000004268943634945404546_" gradientUnits="userSpaceOnUse" x1="2946.0168" y1="2613.7825" x2="3212.9092" y2="2792.0698" gradientTransform="matrix(-1 0 0 1 4347.3086 0)">
						<stop  offset="0" style="stop-color:#893976"/>
						<stop  offset="1" style="stop-color:#311944"/>
					</linearGradient>
					<path style="fill:url(#SVGID_00000020363393898893347620000004268943634945404546_);" d="M1010.476,2600.572
						c36.993,33.47,60.45,4.496,168.046,31.291c0,0,37.086,9.225,86.456,10.059c14.512,37.689,38.616,75.146,47.1,88.311
						c31.477,48.907,97.027,130.357,229.191,192.105l22.67-26.98c-13.167-15.39-32.219-39.08-52.385-69.814
						c-34.349-52.477-42.695-80.384-85.947-160.768c-18.96-35.278-33.283-59.477-45.244-76.351
						c-5.795-15.808-16.366-33.749-32.543-47.332c-8.807-7.371-17.246-14.695-71.112-26.052
						c-62.166-13.12-93.227-19.702-121.365-30.365c-46.45-17.662-46.265-28.232-71.854-30.132
						c-39.635-2.967-94.014,17.43-105.463,59.106C969.125,2545.963,988.828,2580.963,1010.476,2600.572z"/>
				</g>
				
					<linearGradient id="SVGID_00000003791781164709050660000005305104466193203851_" gradientUnits="userSpaceOnUse" x1="3462.0547" y1="2348.6592" x2="3485.6934" y2="2533.3909" gradientTransform="matrix(1 0 0 1 -2113.6362 0)">
					<stop  offset="0" style="stop-color:#FF9085"/>
					<stop  offset="1" style="stop-color:#FB6FBB"/>
				</linearGradient>
				<path style="fill:url(#SVGID_00000003791781164709050660000005305104466193203851_);" d="M1350.062,2144.829
					c0,0,115.206,121.495,92.639,198.664c-22.567,77.169-203.227-53.495-203.227-53.495L1350.062,2144.829z"/>
				
					<linearGradient id="SVGID_00000032639419760753786850000009982680576807816582_" gradientUnits="userSpaceOnUse" x1="1125.1328" y1="2387.4368" x2="1156.1489" y2="2629.8206">
					<stop  offset="0" style="stop-color:#FF9085"/>
					<stop  offset="1" style="stop-color:#FB6FBB"/>
				</linearGradient>
				<path style="fill:url(#SVGID_00000032639419760753786850000009982680576807816582_);" d="M1438.057,2499.684
					c1.115,15.531-37.631,30.443-47.296,34.16c-57.415,22.058-86.247,2.189-149.695,13.136
					c-54.565,9.376-45.395,26.146-99.794,35.44c-34.905,5.989-71.461,0.495-144.489-10.492
					c-62.455-9.418-111.857-21.231-111.279-26.023c0.083-0.371,0.371-0.412,0.494-0.95c1.529-6.898-42.462-15.902-42.71-26.972
					c-0.165-8.675,26.684-13.095,69.972-29.162c36.722-13.59,55.104-20.365,71.707-33.789c31.476-25.362,42.133-60.389,49.114-83.48
					c8.056-26.477,23.503-72.038,1.9-121.646c-0.536-1.281-1.115-2.52-1.692-3.759c-22.884-48.907-66.132-74.806-82.076-83.48
					c19.951-17.886,72.988-60.431,158.119-75.466c26.23-4.627,76.665-14.169,136.187,2.891
					c81.993,23.503,147.379,86.99,137.839,110.163c-9.005,21.893-82.036,1.239-109.05,47.295c-1.404,2.437-2.436,4.09-3.757,7.766
					c-17.515,48.617-7.559,94.137,0.083,116.773c2.106,6.196,4.006,10.698,5.163,13.052c4.088,8.509,15.944,31.187,40.439,52.831
					C1372.792,2487.086,1436.651,2480.518,1438.057,2499.684z"/>
				
					<linearGradient id="SVGID_00000171698997766026976590000015895016756158414755_" gradientUnits="userSpaceOnUse" x1="3264.6904" y1="1959.2358" x2="3267.9133" y2="2112.3333" gradientTransform="matrix(1 0 0 1 -2113.6362 0)">
					<stop  offset="0" style="stop-color:#FFC444"/>
					<stop  offset="0.9964" style="stop-color:#F36F56"/>
				</linearGradient>
				<path style="fill:url(#SVGID_00000171698997766026976590000015895016756158414755_);" d="M1145.264,2021.622
					c0,0-5.429,43.406-21.451,53.352c-16.021,9.94-41.92,22.931-44.773,26.458c-2.854,3.521,99.246,14.5,149.844-11.033l0,0
					c-16.674-3.478-21.208-4.757-21.208-4.757c-4.525-1.28-12.967-3.659-21.43-8.481c-5.761-3.28-15.045-9.688-23.56-21.789
					l0.186-24.034L1145.264,2021.622z"/>
				
					<linearGradient id="SVGID_00000061452121126205001670000018018675131242539432_" gradientUnits="userSpaceOnUse" x1="1135.5496" y1="1944.2269" x2="1208.1486" y2="2253.5891">
					<stop  offset="0" style="stop-color:#FFC444"/>
					<stop  offset="0.9964" style="stop-color:#F36F56"/>
				</linearGradient>
				<path style="fill:url(#SVGID_00000061452121126205001670000018018675131242539432_);" d="M1106.65,2046.986
					c0,0,39.428,51.038,98.356,27.647c52.761-20.941,17.071-157.731-25.656-172.245c-14.25-4.842-40.088-1.797-57.094,9.492
					c-11.964,7.941-43.344,49.246-23.431,93.99c-13.578-3.523-25.332,0.356-28.11,7.107c-3.531,8.563,8.198,19.764,10.855,22.299
					C1090.778,2044.072,1101.649,2046.299,1106.65,2046.986z"/>
				
					<linearGradient id="SVGID_00000024700045764076838010000018184400248488104115_" gradientUnits="userSpaceOnUse" x1="17.0384" y1="326.042" x2="-28.9877" y2="622.654" gradientTransform="matrix(-1 0 0 1 1055.627 0)">
					<stop  offset="0" style="stop-color:#FFC444"/>
					<stop  offset="0.9964" style="stop-color:#F36F56"/>
				</linearGradient>
				<path style="fill:url(#SVGID_00000024700045764076838010000018184400248488104115_);" d="M1328.647,2250.97
					c0,0,18.362-16.972,20.36-36.687c1.997-19.716-11.86-35.492-25.283-39.513c-13.424-4.021-20.589,1.909-11.577,21.323
					C1321.159,2215.506,1335.454,2228.107,1328.647,2250.97z"/>
				
					<linearGradient id="SVGID_00000031921735469031952840000008369122668091012766_" gradientUnits="userSpaceOnUse" x1="9725.9971" y1="-5817.2822" x2="9679.9717" y2="-5520.6704" gradientTransform="matrix(0.7481 -0.6636 0.6636 0.7481 -8429.5107 3559.0403)">
					<stop  offset="0" style="stop-color:#FFC444"/>
					<stop  offset="0.9964" style="stop-color:#F36F56"/>
				</linearGradient>
				<path style="fill:url(#SVGID_00000031921735469031952840000008369122668091012766_);" d="M1143.014,2307.572
					c0,0-24.999-0.514-39.575-13.937c-14.577-13.424-14.679-34.422-7.305-46.337c7.375-11.916,16.67-12.234,22.81,8.27
					C1125.084,2276.071,1122.75,2294.984,1143.014,2307.572z"/>
				
					<linearGradient id="SVGID_00000137095078371269871580000010462510232981203077_" gradientUnits="userSpaceOnUse" x1="1651.2607" y1="-1191.0959" x2="1574.5563" y2="-696.7792">
					<stop  offset="0" style="stop-color:#444B8C"/>
					<stop  offset="0.9964" style="stop-color:#26264F"/>
				</linearGradient>
				<path style="fill:url(#SVGID_00000137095078371269871580000010462510232981203077_);" d="M1153.693,1884.854
					c-29.244,4.941-28.985,8.726-21.208,11.299c-35.18,6.419-58.364,66.993-43.985,108.405
					c53.575,9.363,68.003-104.389,68.003-104.389s52.291,72.156,74.896,74.964
					C1254.003,1977.941,1213.077,1874.823,1153.693,1884.854z"/>
				
					<linearGradient id="SVGID_00000131336698978564905760000005528530076455771801_" gradientUnits="userSpaceOnUse" x1="887.7134" y1="1966.2146" x2="1051.6266" y2="1966.2146">
					<stop  offset="0" style="stop-color:#444B8C"/>
					<stop  offset="0.9964" style="stop-color:#26264F"/>
				</linearGradient>
				<path style="fill:url(#SVGID_00000131336698978564905760000005528530076455771801_);" d="M1051.577,1900.536
					c-0.388-8.124-3.113-16.001-9.519-23.271c-20.442-23.193-63.945-28.721-91.992-19.294
					c-71.621,24.074-45.741,81.852-29.491,130.001c16.25,48.148-24.074,74.63-31.898,75.834c-7.824,1.204,33.904,27.685,57.578,0
					c4.011,13.241,26.881,25.679,40.122,0.4c7.841-14.967,16.756-29.343,24.585-44.316c9.931-18.992,12.984-40.552,21.112-60.251
					C1039.343,1942.016,1052.534,1920.528,1051.577,1900.536z"/>
				
					<linearGradient id="SVGID_00000177481565924463679480000014123620559062847388_" gradientUnits="userSpaceOnUse" x1="1132.2314" y1="2442.9106" x2="1154.3795" y2="2615.9927">
					<stop  offset="0" style="stop-color:#FF9085"/>
					<stop  offset="1" style="stop-color:#FB6FBB"/>
				</linearGradient>
				<path style="opacity:0.3;fill:url(#SVGID_00000177481565924463679480000014123620559062847388_);" d="M1438.057,2499.684
					c1.115,15.531-37.631,30.443-47.296,34.16c-57.415,22.058-86.247,2.189-149.695,13.136
					c-54.565,9.376-45.395,26.146-99.794,35.44c-34.905,5.989-71.461,0.495-144.489-10.492
					c-62.455-9.418-111.857-21.231-111.279-26.023c0.083-0.371,0.371-0.412,0.494-0.95c1.529-6.898-42.462-15.902-42.71-26.972
					c-0.165-8.675,26.684-13.095,69.972-29.162c36.722-13.59,55.104-20.365,71.707-33.789c31.476-25.362,42.133-60.389,49.114-83.48
					c8.056-26.477,23.503-72.038,1.9-121.646c-0.536-1.281-1.115-2.52-1.692-3.759c7.021-5.494,39.447-27.51,57.167,18.34
					c19.951,51.633,25.899,81.208,67.328,82.943c15.159,0.619,60.555,9.624,112.85,24.66c2.106,6.196,4.006,10.698,5.163,13.052
					c4.088,8.509,15.944,31.187,40.439,52.831C1372.792,2487.086,1436.651,2480.518,1438.057,2499.684z"/>
				
					<linearGradient id="SVGID_00000072258295289576318370000016427098932276381626_" gradientUnits="userSpaceOnUse" x1="26.1173" y1="2261.3193" x2="-259.4039" y2="2342.4065" gradientTransform="matrix(-1 0 0 1 1055.627 0)">
					<stop  offset="0" style="stop-color:#FF9085"/>
					<stop  offset="1" style="stop-color:#FB6FBB"/>
				</linearGradient>
				<path style="fill:url(#SVGID_00000072258295289576318370000016427098932276381626_);" d="M1146.487,2311.641
					c13.743,26.447-75.519,90.863-142.48,97.408c-36.292,3.547-72.104-14.085-93.561-40.723
					c-33.117-41.111-22.873-92.295-19.288-110.212c21.159-105.723,145.461-149.73,156.858-153.58
					c30.243,46.868,29.759,76.429,23.374,94.931c-5.265,15.259-19.043,31.559-46.599,64.16
					c-24.54,29.032-36.707,39.373-33.064,48.217c4.328,10.504,27.823,11.292,42.708,8.266c27.578-5.609,83.858-15.567,87.804-21.789
					C1129.808,2299.526,1141.764,2302.552,1146.487,2311.641z"/>
				<g>
					
						<linearGradient id="SVGID_00000005964695649750282080000015339921839726486167_" gradientUnits="userSpaceOnUse" x1="1106.6392" y1="2328.7393" x2="1248.2905" y2="1605.9545" gradientTransform="matrix(0.9487 -0.3161 0.3161 0.9487 -554.721 810.5916)">
						<stop  offset="0" style="stop-color:#AA80F9"/>
						<stop  offset="0.9964" style="stop-color:#6165D7"/>
					</linearGradient>
					<polygon style="fill:url(#SVGID_00000005964695649750282080000015339921839726486167_);" points="1084.228,2362.654 
						1060.132,2130.65 1271.937,2151.699 1275.062,2411.071 					"/>
					
						<linearGradient id="SVGID_00000160880556992220151560000016453382706320192654_" gradientUnits="userSpaceOnUse" x1="1373.7574" y1="1885.1327" x2="1180.8583" y2="2138.9478" gradientTransform="matrix(0.9487 -0.3161 0.3161 0.9487 -554.721 810.5916)">
						<stop  offset="0" style="stop-color:#AA80F9"/>
						<stop  offset="0.9964" style="stop-color:#6165D7"/>
					</linearGradient>
					<polygon style="fill:url(#SVGID_00000160880556992220151560000016453382706320192654_);" points="1375.958,2067.11 
						1271.937,2151.699 1275.062,2411.071 1367.863,2322.036 					"/>
				</g>
				
					<linearGradient id="SVGID_00000119096416258461682710000010399782647578912420_" gradientUnits="userSpaceOnUse" x1="1023.7491" y1="2136.0583" x2="1072.4277" y2="2289.2856">
					<stop  offset="0" style="stop-color:#FFC444"/>
					<stop  offset="0.9964" style="stop-color:#F36F56"/>
				</linearGradient>
				<path style="fill:url(#SVGID_00000119096416258461682710000010399782647578912420_);" d="M1077.515,2345.55
					c0,0-16.969-14.914-13.877-45.437c3.092-30.523,4.583-58.823,13.877-47.225
					C1086.809,2264.487,1106.43,2362.072,1077.515,2345.55z"/>
				
					<linearGradient id="SVGID_00000071540561575606767570000013336099439953884314_" gradientUnits="userSpaceOnUse" x1="1331.9353" y1="2109.2434" x2="1366.1217" y2="2216.853">
					<stop  offset="0" style="stop-color:#FFC444"/>
					<stop  offset="0.9964" style="stop-color:#F36F56"/>
				</linearGradient>
				<path style="fill:url(#SVGID_00000071540561575606767570000013336099439953884314_);" d="M1366.142,2260.356
					c0,0,14.061-12.411,12.392-32.701c-1.669-20.29-6.196-45.093-12.392-37.176
					C1359.946,2198.396,1366.142,2260.356,1366.142,2260.356z"/>
			</g>
			<g>
				<g>
					<path style="fill:#97A6B7;" d="M1021.867,2715.003c-14.07-2.992-28.721,5.976-31.754,20.237l-72.891,342.729
						c-3.033,14.26,6.7,28.415,20.77,31.407c14.07,2.992,28.721-5.975,31.754-20.237l72.891-342.729
						C1045.67,2732.15,1035.937,2717.995,1021.867,2715.003z"/>
					<path style="fill:#97A6B7;" d="M2463.57,3077.969l-72.891-342.729c-3.033-14.261-17.684-23.229-31.754-20.237
						c-14.07,2.992-23.803,17.146-20.77,31.407l72.891,342.729c3.033,14.261,17.684,23.229,31.754,20.237
						C2456.87,3106.385,2466.603,3092.23,2463.57,3077.969z"/>
				</g>
				<g>
					<path style="fill:#97A6B7;" d="M2589.554,2925.136l-72.891-342.729c-3.033-14.26-17.684-23.229-31.754-20.237
						c-14.07,2.992-23.803,17.147-20.77,31.407l72.891,342.729c3.033,14.262,17.684,23.229,31.754,20.237
						C2582.854,2953.552,2592.587,2939.397,2589.554,2925.136z"/>
					<path style="fill:#97A6B7;" d="M791.238,2925.136l72.891-342.729c3.033-14.26,17.684-23.229,31.754-20.237
						c14.07,2.992,23.804,17.147,20.77,31.407l-72.891,342.729c-3.033,14.262-17.684,23.229-31.754,20.237
						C797.938,2953.552,788.205,2939.397,791.238,2925.136z"/>
				</g>
				<path style="fill:#AABBCC;" d="M2638.473,2602.586h-38.737c-116.777-74.572-479.672-130.003-909.339-130.003
					s-792.565,55.431-909.339,130.003h-40.704v47.544c0,1.583,0.449,3.172,0.449,4.765c0,100.575,425.188,182.107,949.208,182.107
					s949.013-81.591,949.013-182.166c0-0.451,0.12-1.407,0.104-1.407L2638.473,2602.586z"/>
				<path style="fill:#D8DEE8;" d="M2639.2,2604.147c0,100.581-424.794,182.119-948.804,182.119s-948.804-81.539-948.804-182.119
					c0-49.319,102.275-94.137,268.409-126.934c172.369-34.036,413.516-55.185,680.394-55.185
					c468.206,0,857.229,65.098,934.718,150.725C2634.367,2582.958,2639.2,2593.449,2639.2,2604.147z"/>
				<path style="opacity:0.2;fill:#97A6B7;" d="M2639.2,2604.147c0,100.581-424.794,182.119-948.804,182.119
					s-948.804-81.539-948.804-182.119c0-49.319,102.275-94.137,268.409-126.934c-11.732,36.102,4.088,69.271,82.693,84.388
					c216.321,41.596,527.481-127.223,571.554,23.297c41.802,142.919,617.61,135.195,960.865-12.145
					C2634.367,2582.958,2639.2,2593.449,2639.2,2604.147z"/>
			</g>
			<g>
				
					<linearGradient id="SVGID_00000016775698759512084540000005006870740729246643_" gradientUnits="userSpaceOnUse" x1="1463.613" y1="2203.7212" x2="1309.1875" y2="2543.6646">
					<stop  offset="0" style="stop-color:#FFC444"/>
					<stop  offset="0.9964" style="stop-color:#F36F56"/>
				</linearGradient>
				<path style="fill:url(#SVGID_00000016775698759512084540000005006870740729246643_);" d="M1414.02,2498.908l-40.349-23.709
					c-0.407-0.261-0.955-0.508-1.383-0.74l-0.074-0.004l-0.033,0.163c-2.966-1.607-6.444-2.334-10.139-2.255l-60.509,1.301
					l-42.413,0.921c-11.523,0.248-20.763,8.914-20.763,19.681v98.686c0,6.961,3.613,12.971,9.592,16.204l0,0l43.372,23.984
					l21.89-24.25l10.564-0.5l38.651-1.805c11.025-0.52,20.602-9.454,20.602-19.931v-53.166L1414.02,2498.908z"/>
				<g>
					<g>
						
							<linearGradient id="SVGID_00000054957674083007518270000001308017667714545337_" gradientUnits="userSpaceOnUse" x1="1330.3851" y1="2523.9609" x2="1510.4413" y2="2882.7097">
							<stop  offset="0" style="stop-color:#FFC444"/>
							<stop  offset="0.9964" style="stop-color:#F36F56"/>
						</linearGradient>
						<path style="fill:url(#SVGID_00000054957674083007518270000001308017667714545337_);" d="M1422.91,2514.804v95.281
							c0,10.396-8.612,19.475-19.465,20.04l-102.365,5.291c-11.339,0.59-21.276-7.803-21.276-18.483v-97.886
							c0-10.68,9.862-19.943,21.201-20.241l102.153-2.67C1414.01,2495.851,1422.91,2504.409,1422.91,2514.804z"/>
						<g>
							<path style="fill:#FFFFFF;" d="M1360.96,2594.032c-15.258,0.682-22.915-8.652-22.915-28.007
								c0-9.302,2.001-16.634,6.008-21.973c3.548-4.73,8.381-7.461,14.49-8.187c0.787-0.09,1.592-0.154,2.417-0.181
								c3.315-0.111,6.682,0.349,10.113,1.371c3.426,1.03,6.819,2.249,10.198,3.659l6.166-15.033
								c-8.84-3.761-17.663-5.517-26.477-5.246c-2.791,0.086-5.479,0.36-8.046,0.813c-5.41,0.952-10.319,2.723-14.715,5.314
								c-6.506,3.836-11.513,9.209-15.002,16.138c-3.494,6.929-5.237,14.932-5.237,23.994c0,14.383,3.554,25.264,10.658,32.619
								c7.085,7.345,17.276,10.688,30.538,10.056c4.17-0.198,8.826-0.719,12.629-1.5c4.569-0.944,7.331-2.245,13.587-4.136v-15.298
								c-6.256,1.764-9.266,3.022-13.081,3.947C1368.405,2593.327,1364.179,2593.888,1360.96,2594.032z"/>
						</g>
					</g>
					
						<linearGradient id="SVGID_00000118382196375104671360000017327561315620166549_" gradientUnits="userSpaceOnUse" x1="1279.8037" y1="2566.5723" x2="1371.6793" y2="2566.5723">
						<stop  offset="0" style="stop-color:#FFC444"/>
						<stop  offset="0.9964" style="stop-color:#F36F56"/>
					</linearGradient>
					<path style="opacity:0.2;fill:url(#SVGID_00000118382196375104671360000017327561315620166549_);" d="M1279.804,2616.933
						v-97.886c0-10.68,9.862-19.943,21.201-20.241l42.453-1.107c2.98,8.231,6.264,15.641,9.314,23.366
						c1.932,4.869,3.896,9.835,5.7,14.709c6.871,18.623,12.413,37.387,13.12,56.58c0.2,5.131,0.066,10.309-0.488,15.511
						c-0.755,7.115-2.255,14.427-4.693,21.743c-0.258,0.787-0.531,1.122-0.828,2.477l-64.58,3.33
						C1289.663,2636.006,1279.804,2627.613,1279.804,2616.933z"/>
				</g>
			</g>
			<g>
				
					<linearGradient id="SVGID_00000099650917180308125750000005189342441126348987_" gradientUnits="userSpaceOnUse" x1="2093.6899" y1="2282.9617" x2="1939.2644" y2="2622.9048" gradientTransform="matrix(-1 0 0 1 3533.6514 0)">
					<stop  offset="0" style="stop-color:#AB316D"/>
					<stop  offset="1" style="stop-color:#792D3D"/>
				</linearGradient>
				<path style="fill:url(#SVGID_00000099650917180308125750000005189342441126348987_);" d="M1489.554,2578.148l40.349-23.709
					c0.407-0.261,0.955-0.508,1.383-0.74l0.074-0.004l0.033,0.163c2.966-1.607,6.444-2.334,10.139-2.255l60.509,1.301l42.413,0.921
					c11.523,0.248,20.763,8.914,20.763,19.681v98.686c0,6.961-3.613,12.971-9.592,16.205l0,0l-43.372,23.984l-21.89-24.25
					l-10.564-0.5l-38.651-1.805c-11.025-0.52-20.602-9.454-20.602-19.931v-53.166L1489.554,2578.148z"/>
				<g>
					
						<linearGradient id="SVGID_00000183957026412035976110000007151544779213128381_" gradientUnits="userSpaceOnUse" x1="1960.462" y1="2603.2014" x2="2140.5183" y2="2961.95" gradientTransform="matrix(-1 0 0 1 3533.6514 0)">
						<stop  offset="0" style="stop-color:#FF9085"/>
						<stop  offset="1" style="stop-color:#FB6FBB"/>
					</linearGradient>
					<path style="fill:url(#SVGID_00000183957026412035976110000007151544779213128381_);" d="M1480.665,2594.045v95.281
						c0,10.396,8.612,19.475,19.465,20.04l102.365,5.292c11.339,0.59,21.276-7.803,21.276-18.483v-97.886
						c0-10.68-9.862-19.943-21.201-20.241l-102.153-2.67C1489.564,2575.092,1480.665,2583.649,1480.665,2594.045z"/>
					<g>
						<path style="fill:#FFFFFF;" d="M1501.511,2689.396l20.776,0.61l7.255-22.479l33.16,0.973l5.925,22.866l20.776,0.61
							l-28.52-89.097l-0.914-2.537l-23.577-0.692L1501.511,2689.396z M1534.582,2652.837c6.689-19.878,10.443-30.69,11.286-33.248
							c0.843-2.548,1.457-4.821,1.827-6.308c0.594,2.648,1.761,7.39,3.5,13.893c1.773,6.647,4.125,15.798,7.089,26.358
							L1534.582,2652.837z"/>
					</g>
					
						<linearGradient id="SVGID_00000076587954448016341630000016374893092893723536_" gradientUnits="userSpaceOnUse" x1="1909.8806" y1="2645.8125" x2="2001.7562" y2="2645.8125" gradientTransform="matrix(-1 0 0 1 3533.6514 0)">
						<stop  offset="0" style="stop-color:#FF9085"/>
						<stop  offset="1" style="stop-color:#FB6FBB"/>
					</linearGradient>
					<path style="opacity:0.2;fill:url(#SVGID_00000076587954448016341630000016374893092893723536_);" d="M1623.771,2696.174
						v-97.886c0-10.68-9.862-19.943-21.201-20.241l-42.453-1.107c-2.98,8.231-6.264,15.641-9.314,23.366
						c-1.932,4.869-3.896,9.834-5.701,14.709c-6.871,18.623-12.413,37.387-13.12,56.58c-0.201,5.13-0.066,10.309,0.488,15.511
						c0.755,7.115,2.255,14.427,4.693,21.743c0.258,0.787,0.531,1.121,0.828,2.477l64.58,3.33
						C1613.911,2715.246,1623.771,2706.854,1623.771,2696.174z"/>
				</g>
			</g>
			<g>
				
					<linearGradient id="SVGID_00000146495947011855340320000006404491040201878913_" gradientUnits="userSpaceOnUse" x1="1169.1472" y1="2579.3452" x2="878.3864" y2="2898.8796">
					<stop  offset="0" style="stop-color:#444B8C"/>
					<stop  offset="0.9964" style="stop-color:#26264F"/>
				</linearGradient>
				<path style="fill:url(#SVGID_00000146495947011855340320000006404491040201878913_);" d="M1216.29,2569.568l-36.617-5.943
					c-1.647-0.382-3.631-0.438-5.411-0.438h-68.348h-38.807c-11.947,0-20.76,8.261-20.76,19.441v102.467
					c0,9.76,6.474,18.777,16.368,19.59h-0.022l-0.001-0.064c0.45,0.076,0.899,0.103,1.357,0.152l40.453,5.547l5.1-6.368l1.065-0.041
					l63.908-1.636c11.431-0.293,21.403-9.596,21.403-20.474v-85.908L1216.29,2569.568z"/>
				<g>
					<g>
						
							<linearGradient id="SVGID_00000062168324395748891310000012175961788173375364_" gradientUnits="userSpaceOnUse" x1="1097.9252" y1="2478.0029" x2="1363.3606" y2="3198.4688">
							<stop  offset="0" style="stop-color:#AA80F9"/>
							<stop  offset="0.9964" style="stop-color:#6165D7"/>
						</linearGradient>
						<path style="fill:url(#SVGID_00000062168324395748891310000012175961788173375364_);" d="M1211.237,2568.876l-106.073,0.117
							c-11.782,0.013-22.222,8.765-22.222,19.867v101.759c0,11.102,10.464,19.822,22.246,19.507l105.846-2.824
							c11.276-0.301,20.726-9.297,20.726-20.102v-99.034C1231.759,2577.36,1222.514,2568.864,1211.237,2568.876z"/>
						<g>
							<path style="fill:#FFFFFF;" d="M1190.026,2643.228c-2.629-3.436-6.246-5.747-12.752-6.928v-0.605
								c5.692-0.772,7.758-2.867,10.38-6.328c2.629-3.467,3.881-7.861,3.881-13.21c0-7.867-3.034-13.469-9.04-17.035
								c-6.019-3.583-15.304-5.212-28.737-5.136l-29.343,0.169v91.176l35.263-0.795c10.689-0.238,18.913-3.143,25.106-7.85
								c6.179-4.696,9.219-11.333,9.219-19.49C1194.004,2651.453,1192.652,2646.651,1190.026,2643.228z M1143.932,2608.748
								l10.621-0.09c5.748-0.048,9.901,1.024,12.552,2.498c2.649,1.473,3.953,4.102,3.953,7.539c0,3.683-1.223,6.42-3.652,8.049
								c-2.441,1.621-6.301,2.556-11.748,2.623l-11.726,0.144V2608.748z M1169.228,2664.399c-2.619,2.058-6.621,2.82-12.145,2.926
								l-13.151,0.253v-23.359l12.501-0.187c11.218-0.167,16.771,3.553,16.771,11.002
								C1173.205,2659.17,1171.855,2662.343,1169.228,2664.399z"/>
						</g>
					</g>
					
						<linearGradient id="SVGID_00000150782322518642580610000009005681750604305548_" gradientUnits="userSpaceOnUse" x1="1082.9415" y1="2639.5425" x2="1148.5428" y2="2639.5425">
						<stop  offset="0" style="stop-color:#AA80F9"/>
						<stop  offset="0.9964" style="stop-color:#6165D7"/>
					</linearGradient>
					<path style="opacity:0.2;fill:url(#SVGID_00000150782322518642580610000009005681750604305548_);" d="M1082.942,2690.619
						v-101.759c0-11.102,10.464-19.854,22.246-19.867l38.477-0.042c-2.231,6.927-4.211,16.574-5.932,25.003
						c-4.071,19.71-6.178,39.591-4.07,59.747c1.069,10.239,3.361,20.347,6.331,30.429c2.464,8.331,5.41,16.283,8.551,24.848
						l-43.362,1.148C1093.399,2710.441,1082.942,2701.721,1082.942,2690.619z"/>
				</g>
			</g>
			<g>
				
					<linearGradient id="SVGID_00000068665782480587049340000011999245941070462864_" gradientUnits="userSpaceOnUse" x1="1915.9885" y1="2220.093" x2="1860.9714" y2="2341.2043">
					<stop  offset="0" style="stop-color:#FFC444"/>
					<stop  offset="0.9964" style="stop-color:#F36F56"/>
				</linearGradient>
				<path style="fill:url(#SVGID_00000068665782480587049340000011999245941070462864_);" d="M1904.155,2231.097
					c-2.41-12.736-14.802-11.014-18.588,19.409c-3.786,30.423,16.522,44.095,16.522,44.095
					C1906.221,2295.113,1906.566,2243.833,1904.155,2231.097z"/>
				<g>
					
						<linearGradient id="SVGID_00000078019477799937112470000007825184913045118868_" gradientUnits="userSpaceOnUse" x1="1907.0387" y1="2599.3247" x2="2048.6902" y2="1876.54" gradientTransform="matrix(-0.9487 -0.3161 -0.3161 0.9487 4672.0142 810.5916)">
						<stop  offset="0" style="stop-color:#FF9085"/>
						<stop  offset="1" style="stop-color:#FB6FBB"/>
					</linearGradient>
					<polygon style="fill:url(#SVGID_00000078019477799937112470000007825184913045118868_);" points="2188.194,2366.352 
						2212.29,2134.349 2000.485,2155.397 1997.359,2414.769 					"/>
					
						<linearGradient id="SVGID_00000039816592676662786270000004705237033688951694_" gradientUnits="userSpaceOnUse" x1="2174.157" y1="2155.7183" x2="1981.2578" y2="2409.5334" gradientTransform="matrix(-0.9487 -0.3161 -0.3161 0.9487 4672.0142 810.5916)">
						<stop  offset="0" style="stop-color:#FF9085"/>
						<stop  offset="1" style="stop-color:#FB6FBB"/>
					</linearGradient>
					<polygon style="fill:url(#SVGID_00000039816592676662786270000004705237033688951694_);" points="1896.464,2070.808 
						2000.485,2155.397 1997.359,2414.769 1904.558,2325.734 					"/>
				</g>
				
					<linearGradient id="SVGID_00000092452617900684152210000004056486890556534668_" gradientUnits="userSpaceOnUse" x1="2209.491" y1="2265.0486" x2="2146.9331" y2="2402.7595">
					<stop  offset="0" style="stop-color:#FFC444"/>
					<stop  offset="0.9964" style="stop-color:#F36F56"/>
				</linearGradient>
				<path style="fill:url(#SVGID_00000092452617900684152210000004056486890556534668_);" d="M2185.554,2346.066
					c0,0,19.104-11.116,17.039-33.439c-2.065-22.324-7.229-55.877-17.039-38.068
					C2175.744,2292.368,2178.325,2343.485,2185.554,2346.066z"/>
			</g>
		</g>
		<g>
			
				<linearGradient id="SVGID_00000098195085834978338870000004216642094651319703_" gradientUnits="userSpaceOnUse" x1="932.7413" y1="2612.366" x2="653.4312" y2="3086.1587">
				<stop  offset="0" style="stop-color:#AA80F9"/>
				<stop  offset="0.9964" style="stop-color:#6165D7"/>
			</linearGradient>
			<path style="fill:url(#SVGID_00000098195085834978338870000004216642094651319703_);" d="M949.937,2890.575
				c0.007,14.973-0.63,29.572-5.213,43.825c-0.409,1.354-0.875,2.712-1.372,4.072v0.03
				c-20.424,83.219-93.793,148.311-181.365,153.742c-11.926,0.74-23.297,0.323-34.609-1.132c-0.088-0.024-0.205-0.017-0.293-0.041
				c-54.664-7.035-100.775-38.552-127.688-83.958c-0.029-0.057-0.088-0.142-0.117-0.199c-15.855-26.866-24.844-59.06-24.859-93.494
				c-0.025-55.018,23.161-105.746,60.15-143.478l0.029-0.002c7.334-6.361,15.223-14.204,23.58-20.334
				c2.367-1.771,4.793-2.099,7.247-5.204l0.029-0.002c6.137-3.334,12.507-7.42,19.112-10.872
				c23.729-12.398,50.122-19.883,77.919-21.606c21.718-1.347,42.619,1.226,62.03,6.903c30.053,8.709,56.602,25.225,77.483,47.291
				l0.351,0.037v0.03c0.001,2.097,3.392,4.042,5.206,6.115c1.784,2.075,3.378,4.191,5.045,6.361
				C936.264,2808.968,949.917,2847.665,949.937,2890.575z"/>
			
				<linearGradient id="SVGID_00000180337724844910817950000007112974781268418193_" gradientUnits="userSpaceOnUse" x1="669.896" y1="2935.1584" x2="64.1857" y2="4248.5332" gradientTransform="matrix(0.9949 -0.0617 5.000000e-04 1.0051 11.8587 135.7289)">
				<stop  offset="0" style="stop-color:#FF9085"/>
				<stop  offset="1" style="stop-color:#FB6FBB"/>
			</linearGradient>
			<path style="fill:url(#SVGID_00000180337724844910817950000007112974781268418193_);" d="M727.378,3091.111
				c-0.088-0.024-0.205-0.017-0.293-0.041c-54.664-7.035-100.775-38.552-127.688-83.958
				c49.205-172.923,201.625-212.557,201.625-212.557l31.199,23.168c1.143,5.599,2.051,11.184,2.726,16.694
				C850.612,2956.804,765.536,3054.192,727.378,3091.111z"/>
			
				<linearGradient id="SVGID_00000087390905476366152970000011825781761875878818_" gradientUnits="userSpaceOnUse" x1="876.1126" y1="2799.0344" x2="601.4457" y2="3394.6006" gradientTransform="matrix(0.9949 -0.0617 5.000000e-04 1.0051 11.8587 135.7289)">
				<stop  offset="0" style="stop-color:#FF9085"/>
				<stop  offset="1" style="stop-color:#FB6FBB"/>
			</linearGradient>
			<path style="fill:url(#SVGID_00000087390905476366152970000011825781761875878818_);" d="M949.937,2890.575
				c0.007,14.973-0.63,29.572-5.213,43.825c-0.529-70.019-41.617-111.947-62.144-128.541c-6.843-5.541-11.404-8.271-11.404-8.271
				l-9.745-23.996l19.641-3.581l20.635-3.79C931.889,2798.047,949.915,2841.552,949.937,2890.575z"/>
			
				<linearGradient id="SVGID_00000153695972506430434990000011673248851002437255_" gradientUnits="userSpaceOnUse" x1="759.2626" y1="2594.2275" x2="710.6051" y2="2699.7329" gradientTransform="matrix(0.9949 -0.0617 5.000000e-04 1.0051 11.8587 135.7289)">
				<stop  offset="0" style="stop-color:#FF9085"/>
				<stop  offset="1" style="stop-color:#FB6FBB"/>
			</linearGradient>
			<path style="fill:url(#SVGID_00000153695972506430434990000011673248851002437255_);" d="M836.818,2769.95l-13.385,5.26
				c-4.444-2.825-8.859-5.416-13.245-7.773c-71.019-38.27-135.96-18-175.587,3.388c33.542-33.562,78.488-55.575,127.887-58.638
				c21.718-1.347,42.619,1.078,62.03,6.755c5.792,10.42,8.838,22.044,10.45,31.542
				C836.902,2761.676,836.818,2769.95,836.818,2769.95z"/>
			
				<ellipse transform="matrix(0.3989 -0.917 0.917 0.3989 -2058.082 2442.1584)" style="fill:#FFFFFF;" cx="833.795" cy="2790.948" rx="35.534" ry="37.81"/>
			<g style="opacity:0.2;">
				
					<linearGradient id="SVGID_00000054242811319275143560000005881874732141768886_" gradientUnits="userSpaceOnUse" x1="334.956" y1="2888.2595" x2="623.9349" y2="2888.2595" gradientTransform="matrix(0.9997 -0.0236 0.0236 0.9997 171.2402 29.3035)">
					<stop  offset="0" style="stop-color:#FF9085"/>
					<stop  offset="1" style="stop-color:#FB6FBB"/>
				</linearGradient>
				<path style="fill:url(#SVGID_00000054242811319275143560000005881874732141768886_);" d="M764.994,3042.121
					c-16.543-22.681,8.893-45.883,4.392-94.426c-6.834-73.715-72.249-93.118-71.114-156.102
					c0.315-17.514,5.883-42.496,34.664-75.204c-91.728,21.249-160.734,105.196-158.461,201.6
					c2.497,105.862,89.979,183.939,195.073,174.42c35.829-3.245,69.068-18.066,97.201-37.997
					C827.95,3061.598,782.501,3066.122,764.994,3042.121z"/>
			</g>
		</g>
		<g>
			<g>
				
					<ellipse transform="matrix(0.7071 -0.7071 0.7071 0.7071 31.8285 1969.4467)" style="fill:#D8DEE8;" cx="2393.247" cy="946.303" rx="160.218" ry="160.218"/>
				<circle style="fill:#FFFFFF;" cx="2393.247" cy="946.303" r="126.27"/>
			</g>
			<g>
				<path style="fill:#D8DEE8;" d="M2396.615,953.975c2.498,2.744,2.298,6.994-0.447,9.492l-0.523,0.476
					c-2.744,2.498-6.994,2.298-9.492-0.447l-48.082-52.829c-2.498-2.744-2.298-6.994,0.447-9.492l0.523-0.476
					c2.744-2.498,6.994-2.298,9.492,0.446L2396.615,953.975z"/>
				<path style="fill:#D8DEE8;" d="M2434.276,919.699c2.498,2.744,2.298,6.994-0.447,9.492l-38.183,34.752
					c-2.744,2.498-6.994,2.298-9.492-0.447l-0.476-0.523c-2.498-2.744-2.298-6.994,0.447-9.492l38.184-34.752
					c2.744-2.498,6.994-2.298,9.492,0.446L2434.276,919.699z"/>
			</g>
		</g>
		<g>
			<path style="fill:#BFC8D6;" d="M1189.524,1277.246c-19.651,0-35.637-15.986-35.637-35.637V780.714
				c0-19.651,15.986-35.637,35.637-35.637h735.454c19.649,0,35.637,15.987,35.637,35.637v460.895
				c0,19.651-15.988,35.637-35.637,35.637H1189.524z"/>
			<path style="fill:#D8DEE8;" d="M1947.057,780.713c0-12.193-9.885-22.078-22.078-22.078h-735.455
				c-12.193,0-22.078,9.885-22.078,22.078v460.896c0,12.193,9.885,22.078,22.078,22.078h735.455
				c12.194,0,22.078-9.885,22.078-22.078V780.713z"/>
			<g>
				<g>
					<path style="fill:#FFFFFF;" d="M1260.095,873.415c-6.986,3.646-13.727,12.086-12.165,21.778
						c1.583,9.829,10.97,16.381,18.339,18.674c10.323,3.212,13.695-2.874,24.73-1.539c16.602,2.009,29.48,18.322,34.852,30.186
						c5.268,11.635,1.195,14.314,4.615,27.629c5.997,23.346,24.328,37.823,41.661,51.511c14.338,11.323,36.023,24.945,39.878,20.957
						c1.379-1.426,0.122-4.715-0.637-6.7c-3.012-7.882-9.849-9.738-19.218-17.194c-6.686-5.321-15.153-12.059-13.8-17.335
						c1.333-5.194,12.001-8.257,19.93-5.855c7.914,2.397,12.174,9.961,14.225,13.601c1.751,3.109,1.476,7.116,3.09,7.329
						c1.113,0.147,2.344-1.468,2.896-2.862c1.422-3.585-1.098-7.093-2.022-9.895c-2.129-6.458,2.837-13.309,7.765-20.108
						c8.217-11.338,13.038-11.315,25.666-24.344c8.405-8.672,12.598-13.12,13.034-19.576c0.748-11.066-8.789-19.699-10.392-21.149
						c-7.746-7.011-20.922-12.152-26.531-7.541c-5.045,4.147,0.31,12.653-5.618,18.754c-4.155,4.276-11.453,4.921-17.168,3.027
						c-8.098-2.684-12.785-10.383-13.276-17.212c-0.097-1.347-0.544-7.572,3.691-11.671c1.206-1.167,4.138-3.465,13.995-3.429
						c13.776,0.051,16.652,4.598,24.819,3.161c6.785-1.193,14.928-6.117,14.811-11.338c-0.137-6.113-11.492-7.304-24.637-21.808
						c-5.136-5.668-9.323-10.414-9.012-16.293c0.439-8.273,9.535-14.245,11.335-15.427c7.047-4.626,13.282-8.34,13.282-8.34
						c1.752-1.044,4.294-2.535,3.996-4.128c-0.196-1.049-1.568-1.852-4.02-2.695c-7.762-2.668-13.722-1.798-13.722-1.798
						c-9.281,1.355-12.233,5.606-23.652,10.877c-4.63,2.137-12.463,5.752-23.205,7.419c-12.322,1.911-16.584-0.574-22.728,3.461
						c-5.944,3.903-4.053,7.591-10.174,13.836c-6.43,6.559-14.331,8.434-26.674,11.363c-4.747,1.126-14.371,3.107-27.604,3.534
						C1271.456,872.887,1267.41,869.597,1260.095,873.415z"/>
				</g>
				<g>
					<path style="fill:#FFFFFF;" d="M1461.742,830.461c-12.396,2.412-23.235,4.522-25.476,11.855
						c-1.166,3.816-0.05,9.22,3.257,12.251c6.563,6.014,16.367-2.241,23.504,3.051c3.807,2.823,2.383,6.188,6.796,25.446
						c2.94,12.828,5.335,19.021,9.895,24.687c2.581,3.207,6.196,7.698,9.766,7.152c5.277-0.807,3.237-11.538,11.529-18.78
						c2.902-2.534,3.437-1.463,17.203-7.363c7.99-3.424,11.986-5.161,12.859-6.725c4.458-7.984-7.532-18.682-2.759-28.19
						c0.899-1.79,1.028-0.814,7.13-8.087c6.99-8.331,6.897-9.71,6.71-10.397c-0.791-2.918-6.016-3.503-19.62-6.07
						c-22.783-4.299-24.645-5.765-31.461-4.644c-4.536,0.746-5.742,1.727-15.571,3.615
						C1467.8,829.742,1466.935,829.45,1461.742,830.461z"/>
				</g>
				<g>
					<path style="fill:#FFFFFF;" d="M1430.921,1042.602c-6.951,5.055-8.309,13.843-8.86,17.407
						c-1.363,8.821,1.267,14.571,6.189,29.051c5.966,17.55,8.94,26.301,9.4,31.28c0.713,7.727-0.711,9.113-6.319,39.758
						c-4.182,22.854-4.618,28.78-0.695,32.775c5.757,5.864,18.036,4.665,18.52,3.088c0.235-0.767-2.411-1.312-4.419-3.797
						c-4.478-5.542-1.301-15.156-0.464-17.687c3.297-9.977,9.634-14.405,19.834-24.464c11.973-11.808,19.733-19.461,25.388-30.639
						c2.805-5.544,8.769-17.728,6.855-33.368c-0.386-3.152-1.99-13.797-9.802-24.417c-10.183-13.844-23.946-18.188-27.99-19.399
						C1450.666,1039.825,1439.386,1036.447,1430.921,1042.602z"/>
				</g>
				<g>
					<path style="fill:#FFFFFF;" d="M1546.165,988.63c-4.244,8.257-8.947,17.409-10.774,25.885
						c-1.636,7.595-3.16,24.851,5.395,31.535c7.71,6.024,16.503-2.135,27.166,4.577c5.418,3.41,7.817,8.462,10.708,14.55
						c6.202,13.06,3.305,20.328,6.004,37.116c1.267,7.885,5.289,32.906,15.014,34.383c8.075,1.226,16.75-14.317,18.195-16.906
						c3.833-6.868,5.287-13.946,8.034-27.8c3.697-18.646,2.278-21.236,6.23-26.487c5.074-6.74,11.237-7.537,12.556-13.982
						c0.969-4.733-1.417-8.995-2.85-11.623c-5.306-9.728-12.657-8.694-17.679-18.132c-2.893-5.436-3.699-11.877-2.539-12.485
						c1.037-0.544,3.932,3.419,5.335,5.339c4.303,5.89,3.79,8.003,6.398,10.972c5.261,5.991,14.062,5.03,14.721,4.948
						c4.022-0.501,11.235-2.876,12.094-7.781c0.661-3.775-2.649-7.845-6.634-12.745c-3.221-3.961-5.628-5.676-5.241-6.42
						c0.392-0.753,3.246,0.271,10.761,3.127c8.126,3.088,12.172,4.625,12.743,4.982c2.723,1.698,5.044,3.976,12.691,17.499
						c7.719,13.65,10.53,20.488,12.256,19.92c0.859-0.282,0.7-2.15,1.301-8.462c0.898-9.437,1.391-14.222,3.599-17.625
						c1.86-2.867,5.844-6.736,9.978-6.153c2.476,0.349,5.465,4.53,11.324,12.852c5.757,8.177,7.694,10.95,11.563,13.111
						c2.027,1.132,5.652,3.158,8.483,1.442c3.137-1.902,4.185-7.728,2.857-11.927c-1.608-5.085-6.007-5.599-5.896-8.709
						c0.158-4.434,9.227-7.27,10.016-7.509c5.824-1.764,7.325,0.306,10.294-1.701c4.398-2.974,6.169-10.955,5.027-17.16
						c-1.177-6.393-5.062-8.814-3.903-11.551c0.974-2.301,4.075-1.423,10.196-3.008c4.531-1.173,11.202-2.899,14.811-8.565
						c2.146-3.368,2.507-7.023,3.068-12.706c0.093-0.945,0.498-5.315-0.065-11.363c-0.778-8.376-2.392-9.017-1.634-11.422
						c1.664-5.272,9.814-3.477,25.143-7.825c8.712-2.471,14.97-5.578,15.59-4.242c0.779,1.675-9.36,5.971-9.997,14.656
						c-0.483,6.583,4.668,13.424,6.807,12.866c1.765-0.461,0.458-5.696,3.579-13.17c1.148-2.749,2.888-6.915,6.621-9.512
						c4.469-3.109,7.125-0.713,11.13-4.046c3.197-2.661,2.374-4.919,5.046-7.749c6.04-6.399,16.268-1.248,16.907-3.683
						c0.59-2.25-7.309-9.805-17.6-11.944c-9.2-1.911-10.593,2.508-21.094,2.029c-5.991-0.273-13.291-3.354-28.012-9.566
						c-8.367-3.531-12.744-5.878-20.375-6.806c-5.331-0.649-5.486,0.215-11.084-0.63c-6.37-0.962-14.293-2.158-20.547-8.366
						c-4.92-4.884-3.439-7.535-7.501-10.55c-6.576-4.881-15.565-1.734-23.235,1.078c-8.182,3-14.003,6.91-23.911,13.564
						c-11.588,7.783-15.479,11.765-21.963,10.597c-4.858-0.875-5.867-3.68-11.333-3.941c-4.434-0.212-5.818,1.531-14.856,5.18
						c-8.782,3.546-13.272,5.309-17.132,4.38c-5.995-1.443-6.246-5.883-12.778-8.946c-6.991-3.278-13.661-1.468-21.843,0.752
						c-10.152,2.755-20.194,5.48-25.059,14.44c-5.167,9.517-0.299,18.308-6.162,22.425c-4.878,3.425-9.923-1.455-14.453,2.149
						c-5.458,4.343-3.779,15.885-2.892,21.973c1.745,11.986,5.962,15.03,4.574,23.353
						C1550.725,980.801,1549.612,981.924,1546.165,988.63z"/>
				</g>
				<g>
					<path style="fill:#FFFFFF;" d="M1644.868,1087.878c-2.462-0.232-6.537,10.394-5.5,20.391c0.062,0.595,0.912,8.346,3.192,8.562
						c2.117,0.201,4.286-6.204,4.507-6.871c0.364-1.096,1.454-4.671,0.995-10.519
						C1647.933,1097.806,1647.171,1088.096,1644.868,1087.878z"/>
				</g>
				<g>
					<path style="fill:#FFFFFF;" d="M1731.018,1062.814c-0.171,0.453,0.501,1.219,2.365,2.837c4.917,4.267,7.369,6.394,11.395,7.904
						c3.47,1.301,12.07,3.632,13.888,0.194c1.165-2.203-0.55-6.58-3.264-8.606c-2.896-2.163-5.058-0.252-11.972-0.617
						C1736.238,1064.145,1731.435,1061.707,1731.018,1062.814z"/>
				</g>
				<g>
					<path style="fill:#FFFFFF;" d="M1755.287,1043.893c-1.421,0.253-1.041,3.37-3.815,10.102c-1.296,3.145-2.004,3.984-1.588,5.06
						c0.916,2.373,6.351,3.48,9.027,0.66c2.495-2.63,1.325-7.34,0.914-8.995C1759.047,1047.586,1756.95,1043.597,1755.287,1043.893z
						"/>
				</g>
				<g>
					<path style="fill:#FFFFFF;" d="M1784.106,1069.876c1.065,1.715,2.869,3.832,7.265,5.964c1.531,0.743,12.804,6.211,15.596,1.917
						c1.136-1.747,0.558-4.623-0.347-6.357c-1.401-2.686-3.937-3.311-8.109-4.516c-12.482-3.604-15.324-5.379-16.336-3.765
						C1781.038,1064.936,1783.524,1068.939,1784.106,1069.876z"/>
				</g>
				<g>
					<path style="fill:#FFFFFF;" d="M1762.604,1031.317c-1.509,0.516-1.37,8.232,1.359,14.362c1.418,3.185,3.987,6.954,5.145,6.441
						c1.251-0.555,0.584-5.993-0.372-9.673C1767.314,1036.974,1764.065,1030.818,1762.604,1031.317z"/>
				</g>
				<g>
					<path style="fill:#FFFFFF;" d="M1774.516,995.268c0.014-1.797,3.988-1.294,9.142-4.827c3.573-2.449,8.786-7.574,11.524-14.666
						c0.554-1.436,1.123-3.253,1.543-3.149c0.633,0.156,0.736,4.635,0.048,8.501c-1.271,7.148-5.481,13.505-10.871,16.471
						c-2.118,1.166-3.705,1.415-5.035,1.343C1777.907,998.781,1774.504,996.933,1774.516,995.268z"/>
				</g>
				<g>
					<path style="fill:#FFFFFF;" d="M1764.264,1100.258c-6.974,6.93-10.82,5.777-11.842,9.643
						c-1.159,4.382,3.681,6.232,4.595,15.016c0.568,5.458-0.899,8.588,0.373,9.357c1.926,1.165,5.052-6.164,12.442-9.038
						c0.572-0.223,8.282-3.088,14.591,0.969c3.655,2.35,3.21,4.693,9.173,10.372c3.806,3.625,5.781,5.451,8.148,5.024
						c3.896-0.703,6.06-7.012,7.388-10.884c1.099-3.203,3.613-10.535,1.745-19.128c-0.809-3.723-1.385-2.828-12.223-19.888
						c-3.007-4.733-4.216-6.774-6.925-8.044c-5.542-2.599-11.601,0.729-12.592,1.273c-2.175,1.195-4.079,3.225-7.895,7.294
						C1766.723,1097.042,1767.009,1097.53,1764.264,1100.258z"/>
				</g>
			</g>
		</g>
	</g>
</g>
</svg>
