<svg xmlns="http://www.w3.org/2000/svg" xmlns:xlink="http://www.w3.org/1999/xlink" viewBox="0 0 837.96 870.68"><defs><style>.cls-1,.cls-10,.cls-11,.cls-12,.cls-13,.cls-23,.cls-24,.cls-5{fill:none;}.cls-2{isolation:isolate;}.cls-19,.cls-3{fill:#f2f4ff;}.cls-4{fill:#ffb685;}.cls-24,.cls-5{stroke:#2d2c70;}.cls-10,.cls-11,.cls-12,.cls-13,.cls-23,.cls-5{stroke-miterlimit:10;stroke-width:0.75px;}.cls-6{fill:#b8c5fc;}.cls-14,.cls-7{fill:#2d2c70;}.cls-8{fill:#fcc803;}.cls-25,.cls-9{fill:#6468b1;}.cls-10,.cls-11,.cls-12,.cls-13{stroke:#b8c5fc;}.cls-10{stroke-dasharray:8.05 4.02;}.cls-12{stroke-dasharray:7.98 3.99;}.cls-13{stroke-dasharray:8.07 4.03;}.cls-14,.cls-27{opacity:0.3;}.cls-14,.cls-19,.cls-27{mix-blend-mode:multiply;}.cls-15{fill:#df48a9;}.cls-16{fill:#ea98aa;}.cls-17{fill:#fff;}.cls-18{clip-path:url(#clip-path);}.cls-20{clip-path:url(#clip-path-2);}.cls-21{fill:#fe69c5;}.cls-22{fill:#f38f2d;}.cls-23{stroke:#6468b1;}.cls-24{stroke-linecap:round;stroke-linejoin:round;stroke-width:3.01px;}.cls-25,.cls-26{opacity:0.5;}</style><clipPath id="clip-path"><path class="cls-1" d="M473,125.06s2.86-10.8,12.3-10.83c10,0,10.77,7.85,10.77,7.85s-.29,7.61-9.66,8.35S473,125.06,473,125.06Z"/></clipPath><clipPath id="clip-path-2"><path class="cls-1" d="M452.32,120.6s.91-11.1-7.47-13.95c-8.9-3-12.07,4.21-12.07,4.21s-2.18,7.3,5.91,10.8S452.32,120.6,452.32,120.6Z"/></clipPath></defs><g class="cls-2"><g id="Layer_2" data-name="Layer 2"><g id="OBJECTS"><path class="cls-3" d="M751.09,759c10.55-69.3,94.37-80,65.72-186.7C796,494.74,729.19,491.1,713.15,472.6c-34.55-39.84-28.94-110.48-72.73-142.49-25.94-18.95-61.83-18-94.8-13.46s-66.58,20.92-98,12.77c-41.35-8-43.46-19.4-77.85-31.16-51.8-17.71-135.86,1.66-164.43,49.87-26.77,45.15-21.1,81-42.41,127.06C129.22,548.06,40.46,580.68,10,650.94c-16.57,38.23-12.28,84.39,10.68,119.7,24.58,37.79,68.3,63,90.69,99.73H771.55S741.34,823.08,751.09,759Z"/><path class="cls-3" d="M298.29,210.11c24.58-67.92-51.91-114.24-130-92.9S29.12,216.7,42.1,283.8s31.84,115.13,82.49,105.65c48-9,32.63-49,66.86-94.13S274.21,276.67,298.29,210.11Z"/><path class="cls-4" d="M382,231.24a460.11,460.11,0,0,0-61.84,47.95c-29.95,28-50.56,53.5-50.56,58.41s24.72,56.46,59.73,88.06l19.27-26.21S337.69,357.18,331,340.9l68.87-49.82Z"/><path class="cls-5" d="M280.42,335.15s30.39-14.52,50.53,5.75"/><path class="cls-4" d="M520.33,298.83c2.73,16.08,41.84,83.54,48.71,89.26,9.75,8.11,80.84,35.63,87.38,37.57,9.89,2.92,26,7.48,41.45,8.65,3,.23,25.21-45.4,25.21-45.4a6.29,6.29,0,0,0,.79-3.25c-.13-4-.82-13.49-4.42-14.59-4.59-1.4-27.2-6.59-29.16-5.45-1.4.81-19.63,17.91-21.8,17-13.15-5.37-55-27.5-59.2-31.27-4.86-4.42-48.59-102-55.46-108S514.25,263,520.33,298.83Z"/><path class="cls-5" d="M609.29,351.38s-16.19-.88-33.87,27.28"/><path class="cls-5" d="M682.92,390.62s8.2,13.31,5.57,32.67"/><path class="cls-6" d="M452.46,199.92s-47.37,11-57.67,14.48-45.65,26-46.14,27.73,4.9,43.69,26.26,59.64l-1.72,65.29,139.16,13,16.2-52.27,3.11,2c1.23-.24,18.12-12.66,24.5-21.11,16-21.13,21.47-32.45,21.72-35.15s-23.73-34.91-27.24-37.92c-7.73-6.63-58-31.65-58-31.65Z"/><path class="cls-5" d="M528.55,327.79s-4.55-5.65-13.14-17.18.13-42.95,12.65-59.15,17.91-17.67,22.58-15.83"/><path class="cls-5" d="M394.79,214.4s1.47,30.92-19.88,87.37"/><path class="cls-4" d="M455.14,174.69s-1.69,22-2.68,25.23-16.69,14-18.4,22.08,3.12,20.62,15.55,21.11,37.21-10.06,44.09-21.84-1.72-14.73-2.7-21.6,7-34.83,7-34.83Z"/><path class="cls-7" d="M454.28,184.9c1.71,3,4.59,5.8,9.33,5.2,7-.88,22.91-9.22,31.34-13.86,1.58-6.34,3-11.4,3-11.4l-42.83,9.85S454.77,179.47,454.28,184.9Z"/><path class="cls-7" d="M387.67,253.91s-8.35,21.6-12.76,37.31a192.88,192.88,0,0,0-6.14,33.13c0,1.47,2,41.48,1.72,42.71s-50.07,79.27-51.05,82.71-3.68,92.28-12,168.85-13,163-13,163l119,7.36,20.62-244.2S454.67,613,467.43,655.19s45.29,129.1,45.29,129.1L633,781.35,518,380.06l3-11.78s-8.35-3.19-11.29-28.22,6.63-67,6.63-67S459.58,255.63,387.67,253.91Z"/><path class="cls-7" d="M391.6,259s2.94-16.93,6.62-28.16,9.94-21.6,10.86-22.15,25.16-5.89,24.64-5.15-11.2,14.23-17.64,55.46Z"/><path class="cls-7" d="M484.53,268.22s7.59-20.85,13.44-31.12,15.76-23,16.77-23.38,20.58,10.13,19.92,10.75S523.05,234,508.52,273.1Z"/><circle class="cls-8" cx="401.54" cy="268.58" r="4.53"/><circle class="cls-8" cx="494.2" cy="281.64" r="4.53"/><path class="cls-9" d="M435.88,351.09a5.79,5.79,0,0,1-4.94-.65s-28-18.25-27.73-20.4l5.49-40.47a3.92,3.92,0,0,1,4.42-3.36l56.67,7.69a3.92,3.92,0,0,1,3.36,4.41l-5.49,40.47C467.37,340.93,435.88,351.09,435.88,351.09Z"/><path class="cls-10" d="M436.08,346.77a4.94,4.94,0,0,1-4.24-.57s-24-15.64-23.78-17.49L412.77,294a3.37,3.37,0,0,1,3.79-2.89l48.61,6.59a3.38,3.38,0,0,1,2.89,3.79l-4.71,34.72C463.1,338.05,436.08,346.77,436.08,346.77Z"/><path class="cls-11" d="M386.46,257.1s62.2,1.17,129,20"/><path class="cls-11" d="M513.23,272.17s-7.58,26.48-8.66,54.15c-1.13,28.84,8,43.13,15.76,44.39"/><path class="cls-11" d="M434.06,544.75l-6.75-27.86S394.17,496.28,383.5,486s-19.15-28.72-19.15-28.72"/><path class="cls-11" d="M362.14,475.66s26.67,24.3,45.92,32.76"/><path class="cls-11" d="M418.47,395.37s-8.1,92.07-7,98.33S414.92,509,414.92,509"/><path class="cls-11" d="M403.21,390.62s-7.29,58.07-6.19,62.85,15.09,22.19,15.09,22.19"/><path class="cls-11" d="M517.87,365.62s-.62,1.52-1.44,3.74"/><path class="cls-12" d="M515.1,373.12c-1.43,4.24-2.86,9.17-2.7,11.61.29,4.44,91.23,342.55,104.31,391.18"/><path class="cls-11" d="M617.23,777.83l1,3.88"/><line class="cls-11" x1="428.9" y1="523.49" x2="428.46" y2="527.48"/><line class="cls-13" x1="428.01" y1="531.49" x2="399.88" y2="782.08"/><line class="cls-11" x1="399.65" y1="784.08" x2="399.2" y2="788.07"/><polygon class="cls-4" points="396.57 822.27 402.82 773.86 356.62 773.86 356.62 821.35 396.57 822.27"/><polygon class="cls-4" points="584.22 822.27 579.16 773.86 532.96 773.86 544.28 821.35 584.22 822.27"/><path class="cls-14" d="M512.72,784.29,633,781.35,581.6,602.05,481.53,697.91C495.76,739,512.72,784.29,512.72,784.29Z"/><path class="cls-14" d="M298.26,722.19c-2.52,34.69-3.86,59.4-3.86,59.4l119,7.36,12.47-147.74Z"/><path class="cls-15" d="M526.58,80.88s-2.94-16.8,17.18-25.7,35.35,9.72,35.35,9.72,20.37-6.6,29.45,7.39-1.23,27.16-1.23,27.16,8.1,10.89,2,22.91-16.68,9.36-16.68,9.36.49,7.56-5.4,11.68-13.5.12-13.5.12,2.7,14.94-12.27,18.11-22.34-9.82-22.34-9.82-8.92,3.34-17.67-8.34,1-22.58,1-22.58-5.57-11-5.57-23.52C516.84,84.32,526.58,80.88,526.58,80.88Z"/><path class="cls-15" d="M533.1,84.32C530.22,74.15,481.18,57.81,462,55.6S424.61,59.77,417.92,76c0,0-10.37,2.46-14.3,11s-3.68,15-12.51,21.1-8.59,18.9,7.36,26S520,151.81,520,151.81,540.46,110.33,533.1,84.32Z"/><path class="cls-4" d="M475.17,70.33c-38.29-5.89-51.54,16.2-56,44.18s1.66,55.35,31.66,59.64c30.92,4.41,51.17-2.58,61.48-33.14S517.17,76.79,475.17,70.33Z"/><path class="cls-16" d="M515.1,131a20.63,20.63,0,0,0-8.11-3.31c-10.05-1.8-19.46,3.8-21,12.5s5.33,17.2,15.38,19c.53.09,1.06.15,1.59.21a62.5,62.5,0,0,0,9.4-18.42A93.1,93.1,0,0,0,515.1,131Z"/><path class="cls-5" d="M462,111.56s-.5,10.55-3.93,15.46-9.08,4.17-9.82,6.63,8.35,9.82,8.35,9.82"/><path class="cls-5" d="M448.25,153s19.68,8.83,30.72-6.63"/><path class="cls-16" d="M426.65,115.09a20.69,20.69,0,0,0-7.53,0c-1.67,11-1.71,21.82.68,31.2.41.1.81.2,1.22.27,10.05,1.8,19.46-3.8,21-12.49S436.7,116.88,426.65,115.09Z"/><path class="cls-17" d="M473,125.06s2.86-10.8,12.3-10.83c10,0,10.77,7.85,10.77,7.85s-.29,7.61-9.66,8.35S473,125.06,473,125.06Z"/><g class="cls-18"><circle class="cls-7" cx="482.75" cy="120.28" r="7.45"/></g><path class="cls-19" d="M485.3,114.23c-9.44,0-12.3,10.83-12.3,10.83s11.78-7.4,23.07-3C496.07,122.08,495.33,114.2,485.3,114.23Z"/><path class="cls-7" d="M473,125.06a14.43,14.43,0,0,1,1.13-3.94,14.62,14.62,0,0,1,2.18-3.57,11.45,11.45,0,0,1,7.39-4.2,15.37,15.37,0,0,1,4.29.15,10.62,10.62,0,0,1,4,1.51,8.42,8.42,0,0,1,4.05,7.07,9.37,9.37,0,0,0-4.82-5.71,10.86,10.86,0,0,0-3.56-1,15.12,15.12,0,0,0-3.74,0,7,7,0,0,0-.89.17,5.24,5.24,0,0,0-.89.21,10.42,10.42,0,0,0-1.69.71,11.65,11.65,0,0,0-3,2.19,17.87,17.87,0,0,0-2.47,3A24.61,24.61,0,0,0,473,125.06Z"/><path class="cls-17" d="M452.32,120.6s.91-11.1-7.47-13.95c-8.9-3-12.07,4.21-12.07,4.21s-2.18,7.3,5.91,10.8S452.32,120.6,452.32,120.6Z"/><g class="cls-20"><path class="cls-7" d="M434.59,110a7,7,0,1,0,9-4.83A7.23,7.23,0,0,0,434.59,110Z"/></g><path class="cls-19" d="M444.85,106.65c8.38,2.85,7.47,13.95,7.47,13.95s-8.1-10.54-19.54-9.74C432.78,110.86,436,103.62,444.85,106.65Z"/><path class="cls-7" d="M452.32,120.6a24.24,24.24,0,0,0-1.89-7.35c-.24-.56-.57-1.07-.86-1.6a10.8,10.8,0,0,0-1.09-1.41,9,9,0,0,0-2.74-2.12,13,13,0,0,0-3.39-1.11,9.09,9.09,0,0,0-9.57,3.85,8.34,8.34,0,0,1,5.69-5.46,9.55,9.55,0,0,1,4.18-.26,13.82,13.82,0,0,1,4,1.19,10.73,10.73,0,0,1,5.23,6.35A15.39,15.39,0,0,1,452.32,120.6Z"/><path class="cls-15" d="M479,97.57c7.47-2.63,16.32,4,16.44,11.78C489.17,105.89,484.45,102.13,479,97.57Z"/><path class="cls-21" d="M533.1,84.32C530.22,74.15,481.18,57.81,462,55.6S424.61,59.77,417.92,76c0,0-10.37,2.46-14.3,11s-3.68,15-12.51,21.1-8.59,18.9,7.36,26a25.38,25.38,0,0,0,2.85,1c12.5,2.91,21.94.93,28.07-7.66s1-19.88,12-29.94,21.34-2.63,31.66-2.45c14.11.24,21.11-12.52,21.11-12.52S493.51,119,515,131.72a35.08,35.08,0,0,0,11.53,4.49C531.74,121.76,537.58,100.17,533.1,84.32Z"/><path class="cls-15" d="M436.26,100.11c3.44-6.48,13.77-8.53,18.88-2.94C448.61,98.91,443.06,100.24,436.26,100.11Z"/><path class="cls-4" d="M515,131.72s5.72-9.87,14.81-5.43c9.33,4.55,5.86,34.68-24.12,29.26Z"/><path class="cls-7" d="M534.11,139.19c-6.56-12.14-19.15-7.47-19.15-7.47l-9.31,23.83C524.25,158.91,532.64,148.59,534.11,139.19Z"/><path class="cls-8" d="M515.1,71.66h0A223.7,223.7,0,0,0,492.29,63s40.24,20.39,22.67,68.7C515,131.72,538.47,101,515.1,71.66Z"/><path class="cls-22" d="M495.41,64.9S499.1,49,497.62,37.44,488.79,9,487.19,8.23s-10.92,21.36-8.22,30S488,59,495.41,64.9Z"/><path class="cls-22" d="M495.12,64.9s14.87-6.78,23.13-15,17.2-24.34,16.82-26.06-23.59,4.34-28.76,11.71S495.28,55.41,495.12,64.9Z"/><path class="cls-4" d="M336.64,439.88h0a6.29,6.29,0,0,1-8.86.82l-12.16-10.08a6.29,6.29,0,0,1-.82-8.86h0a6.29,6.29,0,0,1,8.86-.82L335.81,431A6.29,6.29,0,0,1,336.64,439.88Z"/><path class="cls-4" d="M345.23,429.53h0a7.17,7.17,0,0,1-10.08.94L321.31,419a7.17,7.17,0,0,1-.94-10.08h0a7.15,7.15,0,0,1,10.08-.94l13.84,11.48A7.16,7.16,0,0,1,345.23,429.53Z"/><path class="cls-4" d="M354.37,418.51h0a7.17,7.17,0,0,1-10.08.94L330.45,408a7.17,7.17,0,0,1-.94-10.08h0a7.17,7.17,0,0,1,10.08-.94l13.84,11.48A7.16,7.16,0,0,1,354.37,418.51Z"/><path class="cls-4" d="M363.51,407.49h0a7.16,7.16,0,0,1-10.08.94L339.59,397a7.15,7.15,0,0,1-.93-10.08h0a7.16,7.16,0,0,1,10.08-.94l13.83,11.48A7.15,7.15,0,0,1,363.51,407.49Z"/><path class="cls-5" d="M314.8,421.76a6.29,6.29,0,0,1,8.86-.82L335.81,431"/><path class="cls-5" d="M315.62,430.62a6.29,6.29,0,0,1-.82-8.86h0"/><path class="cls-5" d="M320.37,408.91a7.15,7.15,0,0,1,10.08-.94l13.84,11.48"/><path class="cls-5" d="M321.31,419a7.17,7.17,0,0,1-.94-10.08h0"/><path class="cls-5" d="M329.51,397.89a7.17,7.17,0,0,1,10.08-.94l13.84,11.48"/><path class="cls-5" d="M330.45,408a7.17,7.17,0,0,1-.94-10.08h0"/><path class="cls-5" d="M338.66,386.87a7.16,7.16,0,0,1,10.08-.94l13.83,11.48"/><path class="cls-5" d="M339.59,397a7.15,7.15,0,0,1-.93-10.08h0"/><rect class="cls-9" x="341.16" y="707.62" width="24.16" height="138.94" rx="6.26" transform="translate(-440.02 1092.34) rotate(-87.23)"/><path class="cls-9" d="M634,785.59,507.66,789a6.25,6.25,0,0,1-6.42-6.09l-.31-11.64A6.24,6.24,0,0,1,507,764.8l126.38-3.37a6.27,6.27,0,0,1,6.43,6.09l.31,11.65A6.26,6.26,0,0,1,634,785.59Z"/><path class="cls-9" d="M368.28,365.83c1.75-1.82,21.76,8.64,76,13.9,47.79,4.63,72.19-.55,76-1.07,1.41-.19,6.56,20.06,6.19,22.27s-33.13,15.27-94.43,6.81-75.84-21-76.2-22.46S366.11,368.09,368.28,365.83Z"/><rect class="cls-7" x="373.51" y="365.89" width="12.18" height="32.95" rx="4.14" transform="translate(108.76 -83.41) rotate(14.62)"/><rect class="cls-7" x="483.7" y="378.89" width="12.18" height="32.95" rx="4.14" transform="translate(-23.95 31.66) rotate(-3.61)"/><path class="cls-6" d="M399.2,822.09s2.7,36.81,2.34,37.92-116.34,0-116.34,0-1.84-15.1,4.05-20.62,40.5-8.47,43.81-9.2,18.41-10.68,18.41-10.68-1.24-11,1.77-12.15,24.73-1.84,26.21,0,2.21,11.78,4.78,12.15,9.57-7,12.15-5.52S399,818.78,399.2,822.09Z"/><path class="cls-23" d="M399.91,832a54.19,54.19,0,0,0-19.36,28.49"/><path class="cls-23" d="M304.88,834.24s14.74-2.77,23.76,6.44,7.36,19.7,7.36,19.7"/><path class="cls-24" d="M333.06,830.19s11.78-.92,24.48,10.49"/><path class="cls-24" d="M343.25,824.73s14.66-1.17,23.5,9.51"/><path class="cls-24" d="M351.47,819.51s13.44-2,23.19,8.1"/><path class="cls-24" d="M360.47,820s-19.13-9.29-15.17-17.57,13.31,8.74,15.17,17.57c0,0,6.26-22.58,14.19-19.41C381.1,803.13,369.21,814.43,360.47,820Z"/><rect class="cls-7" x="280.11" y="858.53" width="126.28" height="12.15" rx="3.68"/><line class="cls-11" x1="280.11" y1="864.61" x2="406.39" y2="864.61"/><path class="cls-6" d="M586.86,822.09s2.7,36.81,2.33,37.92-116.33,0-116.33,0-1.84-15.1,4.05-20.62,40.49-8.47,43.81-9.2,18.41-10.68,18.41-10.68-1.24-11,1.77-12.15,24.73-1.84,26.2,0,2.21,11.78,4.79,12.15,9.57-7,12.15-5.52S586.62,818.78,586.86,822.09Z"/><path class="cls-23" d="M587.57,832a54.19,54.19,0,0,0-19.36,28.49"/><path class="cls-23" d="M492.53,834.24s14.75-2.77,23.77,6.44,7.36,19.7,7.36,19.7"/><path class="cls-24" d="M520.72,830.19s11.78-.92,24.48,10.49"/><path class="cls-24" d="M530.91,824.73s14.66-1.17,23.49,9.51"/><path class="cls-24" d="M539.13,819.51s13.43-2,23.19,8.1"/><path class="cls-24" d="M548.13,820S529,810.67,533,802.39s13.31,8.74,15.17,17.57c0,0,6.26-22.58,14.19-19.41C568.76,803.13,556.87,814.43,548.13,820Z"/><rect class="cls-7" x="467.77" y="858.53" width="126.27" height="12.15" rx="3.68"/><line class="cls-11" x1="467.77" y1="864.61" x2="594.04" y2="864.61"/><path class="cls-6" d="M592.67,870.5h0a6.29,6.29,0,0,1-4.61-7.62L731.67,279.75a6.3,6.3,0,0,1,7.62-4.6h0a6.28,6.28,0,0,1,4.6,7.61L600.28,865.89A6.29,6.29,0,0,1,592.67,870.5Z"/><path class="cls-25" d="M596,867.35h0a1.88,1.88,0,0,1-1.38-2.28L740.34,273.38a1.89,1.89,0,0,1,2.29-1.38h0a1.89,1.89,0,0,1,1.38,2.29L598.29,866A1.89,1.89,0,0,1,596,867.35Z"/><path class="cls-6" d="M815.58,260.82,678.14,227a4.22,4.22,0,0,1-3.22-4.12l.86-38.55a4.23,4.23,0,0,1,5.24-4.08l153.72,37.85a4.23,4.23,0,0,1,2.74,6.05l-17.14,34.55A4.22,4.22,0,0,1,815.58,260.82Z"/><g class="cls-26"><polygon class="cls-9" points="683.87 228.38 701.38 185.23 688.4 182.03 683.87 228.38"/><polygon class="cls-9" points="709.06 234.59 726.58 191.44 713.59 188.24 709.06 234.59"/><polygon class="cls-9" points="734.26 240.79 751.77 197.64 738.79 194.44 734.26 240.79"/><polygon class="cls-9" points="759.46 247 776.97 203.85 763.99 200.65 759.46 247"/><polygon class="cls-9" points="784.65 253.21 802.16 210.05 789.18 206.85 784.65 253.21"/><polygon class="cls-9" points="809.85 259.41 827.36 216.26 814.38 213.06 809.85 259.41"/></g><path class="cls-7" d="M797.88,280.73,684.81,252.89a18.77,18.77,0,0,1-13.74-22.72h0c2.48-10.07,2.16-8.79,2.16-8.79l149.53,36.83s.32-1.28-2.16,8.78h0A18.77,18.77,0,0,1,797.88,280.73Z"/><rect class="cls-8" x="726.13" y="266.28" width="19.99" height="43.39" transform="translate(90.22 -167.68) rotate(13.84)"/><line class="cls-11" x1="671.7" y1="227.61" x2="821.23" y2="264.44"/><g class="cls-27"><path class="cls-7" d="M822.77,258.16Z"/><path class="cls-7" d="M822.76,258.21v0Z"/><path class="cls-7" d="M787.34,278.14l10.54,2.59A18.77,18.77,0,0,0,820.6,267h0c1.73-7,2.1-8.52,2.16-8.78L807,254.32C800.19,269.68,792.84,275.8,787.34,278.14Z"/></g><path class="cls-6" d="M705.87,258.18h0A8.9,8.9,0,0,0,712.38,269L766,282.16a8.91,8.91,0,0,0,10.77-6.52h0Z"/><path class="cls-4" d="M715.82,435.51h0a6.31,6.31,0,0,1-8.2,3.46L693,433a6.31,6.31,0,0,1-3.47-8.2h0a6.29,6.29,0,0,1,8.2-3.46l14.64,5.94A6.31,6.31,0,0,1,715.82,435.51Z"/><path class="cls-4" d="M720.88,423h0a7.16,7.16,0,0,1-9.33,3.94l-16.66-6.76A7.15,7.15,0,0,1,691,410.9h0a7.15,7.15,0,0,1,9.33-3.94l16.65,6.76A7.16,7.16,0,0,1,720.88,423Z"/><path class="cls-4" d="M726.26,409.78h0a7.17,7.17,0,0,1-9.33,3.94L700.28,407a7.17,7.17,0,0,1-3.95-9.33h0a7.17,7.17,0,0,1,9.33-3.94l16.66,6.76A7.16,7.16,0,0,1,726.26,409.78Z"/><path class="cls-4" d="M731.64,396.51h0a7.15,7.15,0,0,1-9.32,3.94l-16.66-6.76a7.16,7.16,0,0,1-3.94-9.33h0a7.16,7.16,0,0,1,9.32-3.94l16.66,6.76A7.16,7.16,0,0,1,731.64,396.51Z"/><path class="cls-5" d="M689.52,424.83a6.29,6.29,0,0,1,8.2-3.46l14.64,5.94"/><path class="cls-5" d="M693,433a6.31,6.31,0,0,1-3.47-8.2h0"/><path class="cls-5" d="M691,410.9a7.15,7.15,0,0,1,9.33-3.94l16.65,6.76"/><path class="cls-5" d="M694.89,420.22A7.15,7.15,0,0,1,691,410.9h0"/><path class="cls-5" d="M696.33,397.63a7.17,7.17,0,0,1,9.33-3.94l16.66,6.76"/><path class="cls-5" d="M700.28,407a7.17,7.17,0,0,1-3.95-9.33h0"/><path class="cls-5" d="M701.72,384.36a7.16,7.16,0,0,1,9.32-3.94l16.66,6.76"/><path class="cls-5" d="M705.66,393.69a7.16,7.16,0,0,1-3.94-9.33h0"/><circle class="cls-6" cx="816.14" cy="581.08" r="21.11" transform="translate(-33.04 1112.72) rotate(-67.5)"/><path class="cls-17" d="M828.79,568.37a25.79,25.79,0,0,0-10.2-5.57l-2.45,3.26a50.64,50.64,0,0,1,11,5.4Z"/><path class="cls-17" d="M831.44,571.4l-1.26,2.45A16.82,16.82,0,0,1,834.3,579,16.43,16.43,0,0,0,831.44,571.4Z"/><circle class="cls-6" cx="806.91" cy="69.37" r="21.11" transform="translate(34.88 314.07) rotate(-22.5)"/><path class="cls-17" d="M819.57,56.66a25.64,25.64,0,0,0-10.2-5.57l-2.46,3.26a50.76,50.76,0,0,1,11,5.39Z"/><path class="cls-17" d="M822.21,59.68,821,62.14a16.53,16.53,0,0,1,4.12,5.14A16.36,16.36,0,0,0,822.21,59.68Z"/><circle class="cls-6" cx="74.55" cy="578.07" r="21.11" transform="translate(-508.3 581.07) rotate(-82.95)"/><path class="cls-17" d="M87.21,565.36A25.79,25.79,0,0,0,77,559.79l-2.46,3.26a50.53,50.53,0,0,1,11,5.39Z"/><path class="cls-17" d="M89.85,568.39l-1.26,2.45A16.78,16.78,0,0,1,92.72,576,16.43,16.43,0,0,0,89.85,568.39Z"/><circle class="cls-6" cx="714.71" cy="13.72" r="13.72" transform="translate(199.63 509.39) rotate(-45)"/><path class="cls-17" d="M722.94,5.46a16.72,16.72,0,0,0-6.63-3.63L714.71,4a33.52,33.52,0,0,1,7.15,3.51Z"/><path class="cls-17" d="M724.66,7.42,723.84,9a10.67,10.67,0,0,1,2.67,3.34A10.61,10.61,0,0,0,724.66,7.42Z"/><path class="cls-6" d="M213.87,500.52a13.72,13.72,0,1,1-13.71-13.71A13.71,13.71,0,0,1,213.87,500.52Z"/><path class="cls-17" d="M208.38,492.26a16.71,16.71,0,0,0-6.63-3.62l-1.59,2.12a32.72,32.72,0,0,1,7.14,3.51Z"/><path class="cls-17" d="M210.1,494.23l-.82,1.59a10.92,10.92,0,0,1,2.68,3.35A10.73,10.73,0,0,0,210.1,494.23Z"/></g></g></g></svg>