<svg xmlns="http://www.w3.org/2000/svg" xmlns:xlink="http://www.w3.org/1999/xlink" viewBox="0 0 442.72 337.04"><defs><style>.cls-1{isolation:isolate;}.cls-2,.cls-3{opacity:0.25;}.cls-2{fill:url(#Degradado_sin_nombre_15);}.cls-3{fill:url(#Degradado_sin_nombre_15-2);}.cls-4,.cls-5{fill:url(#Degradado_sin_nombre_64);}.cls-15,.cls-19,.cls-5{opacity:0.4;}.cls-11,.cls-14,.cls-15,.cls-16,.cls-18,.cls-20,.cls-21,.cls-27,.cls-5,.cls-6,.cls-8{mix-blend-mode:multiply;}.cls-6{fill:url(#Degradado_sin_nombre_64-3);}.cls-7{fill:url(#Degradado_sin_nombre_64-4);}.cls-8{fill:url(#Degradado_sin_nombre_64-5);}.cls-9{fill:#ffbe00;}.cls-10,.cls-15,.cls-16{fill:#003aa5;}.cls-12{fill:url(#Degradado_sin_nombre_14);}.cls-13{fill:url(#Degradado_sin_nombre_14-2);}.cls-14,.cls-16,.cls-18,.cls-21{opacity:0.5;}.cls-14{fill:url(#Degradado_sin_nombre_14-3);}.cls-17,.cls-18,.cls-20{fill:#259aff;}.cls-19{fill:#f9f9f9;}.cls-22{fill:url(#Degradado_sin_nombre_64-6);}.cls-23{fill:url(#Degradado_sin_nombre_64-7);}.cls-24{fill:url(#Degradado_sin_nombre_64-8);}.cls-25{fill:url(#Degradado_sin_nombre_64-9);}.cls-26{fill:url(#Degradado_sin_nombre_64-10);}.cls-27{opacity:0.3;}.cls-28{fill:url(#Degradado_sin_nombre_64-12);}.cls-29{fill:url(#Degradado_sin_nombre_64-13);}.cls-30{fill:url(#Degradado_sin_nombre_64-14);}</style><linearGradient id="Degradado_sin_nombre_15" x1="-2.52" y1="199.26" x2="428.38" y2="199.26" gradientTransform="translate(313.43 455.39) rotate(-155.37)" gradientUnits="userSpaceOnUse"><stop offset="0" stop-color="#c2e1fe"/><stop offset="1" stop-color="#259aff" stop-opacity="0"/></linearGradient><linearGradient id="Degradado_sin_nombre_15-2" x1="5.91" y1="168.52" x2="436.81" y2="168.52" gradientTransform="matrix(1, 0, 0, 1, 0, 0)" xlink:href="#Degradado_sin_nombre_15"/><linearGradient id="Degradado_sin_nombre_64" x1="121.45" y1="102.09" x2="230.56" y2="250.87" gradientTransform="translate(31.24 -69.95) rotate(15.73)" gradientUnits="userSpaceOnUse"><stop offset="0" stop-color="#fdda42"/><stop offset="1" stop-color="#e5a003"/></linearGradient><linearGradient id="Degradado_sin_nombre_64-3" x1="178.9" y1="250" x2="178.9" y2="125.52" xlink:href="#Degradado_sin_nombre_64"/><linearGradient id="Degradado_sin_nombre_64-4" x1="60.2" y1="113.75" x2="186.12" y2="285.45" gradientTransform="matrix(1, 0, 0, 1, 0, 0)" xlink:href="#Degradado_sin_nombre_64"/><linearGradient id="Degradado_sin_nombre_64-5" x1="125.5" y1="284.45" x2="125.5" y2="140.79" gradientTransform="matrix(1, 0, 0, 1, 0, 0)" xlink:href="#Degradado_sin_nombre_64"/><linearGradient id="Degradado_sin_nombre_14" x1="204.28" y1="203.13" x2="204.28" y2="155.86" gradientUnits="userSpaceOnUse"><stop offset="0" stop-color="#003aa5" stop-opacity="0"/><stop offset="1" stop-color="#003aa5"/></linearGradient><linearGradient id="Degradado_sin_nombre_14-2" x1="248.15" y1="203.13" x2="248.15" y2="155.86" xlink:href="#Degradado_sin_nombre_14"/><linearGradient id="Degradado_sin_nombre_14-3" x1="226.22" y1="233.23" x2="226.22" y2="330.46" xlink:href="#Degradado_sin_nombre_14"/><linearGradient id="Degradado_sin_nombre_64-6" x1="309.47" y1="247.08" x2="332.94" y2="247.08" gradientTransform="matrix(1, 0, 0, 1, 0, 0)" xlink:href="#Degradado_sin_nombre_64"/><linearGradient id="Degradado_sin_nombre_64-7" x1="309.34" y1="246.86" x2="333.06" y2="246.86" gradientTransform="matrix(1, 0, 0, 1, 0, 0)" xlink:href="#Degradado_sin_nombre_64"/><linearGradient id="Degradado_sin_nombre_64-8" x1="340.83" y1="247.08" x2="369.28" y2="247.08" gradientTransform="matrix(1, 0, 0, 1, 0, 0)" xlink:href="#Degradado_sin_nombre_64"/><linearGradient id="Degradado_sin_nombre_64-9" x1="340.71" y1="247.03" x2="369.41" y2="247.03" gradientTransform="matrix(1, 0, 0, 1, 0, 0)" xlink:href="#Degradado_sin_nombre_64"/><linearGradient id="Degradado_sin_nombre_64-10" x1="329.65" y1="225.9" x2="345.74" y2="225.9" gradientTransform="matrix(1, 0, 0, 1, 0, 0)" xlink:href="#Degradado_sin_nombre_64"/><linearGradient id="Degradado_sin_nombre_64-12" x1="315.47" y1="249.84" x2="334.15" y2="249.84" gradientTransform="matrix(1, 0, 0, 1, 0, 0)" xlink:href="#Degradado_sin_nombre_64"/><linearGradient id="Degradado_sin_nombre_64-13" x1="339.66" y1="250.17" x2="361.87" y2="250.17" gradientTransform="matrix(1, 0, 0, 1, 0, 0)" xlink:href="#Degradado_sin_nombre_64"/><linearGradient id="Degradado_sin_nombre_64-14" x1="337.55" y1="270.59" x2="337.55" y2="189.36" gradientTransform="matrix(1, 0, 0, 1, 0, 0)" xlink:href="#Degradado_sin_nombre_64"/></defs><g class="cls-1"><g id="Layer_2" data-name="Layer 2"><g id="OBJECTS"><path class="cls-2" d="M437.84,147.76a44.12,44.12,0,0,1,2.92,33.18c-11.36,37-55,110.94-158.23,142.26-125.25,38-215.79-10.08-251.77-50.54C-8.88,228.08-6.87,140.53,17.88,73.08,36.51,22.33,83.8-7,137.2,1.43,226.79,15.54,399.54,73.5,437.84,147.76Z"/><path class="cls-3" d="M23.56,300.75A44.1,44.1,0,0,1,7.07,271.81C2,233.44,10.86,148,91.61,76.54c98-86.76,200.36-80.78,249.92-59,54.62,24,89.28,104.43,94.89,176.05,4.22,53.9-26.54,100.26-78.59,114.87C270.51,333,89.32,352.29,23.56,300.75Z"/><path class="cls-4" d="M207.89,191.44c.35-10.47-4.11-21.09-12.85-27.18-5.2-3.62-13.95-4.69-16.29-11.36-2-5.74.64-12,.71-17.9a33.24,33.24,0,0,0-13.39-26.75c-5.68-4.17-13.25-5.57-18.06-10.94-4.43-5-5.87-11.74-8-17.86-3-8.82-11-21-22-16.82-9.37,3.53-11.07,15.81-10.11,24.42a43.74,43.74,0,0,0,2,9c1.14,3.39,3.07,6.51,4,10,1,3.65,1.77,7.95,1.2,11.7-.5,3.4-1.7,6.66-2.19,10.07-1.8,12.53,3.13,25,10.46,35,4.89,6.65,8.52,12.15,8.71,20.68.15,6.62-.83,13.31.53,19.86,2.68,12.92,13.55,21.7,25.72,25.29a1.2,1.2,0,0,0,.95-.13C182.39,232.48,206.11,215.22,207.89,191.44Z"/><path class="cls-5" d="M207.89,191.44c.35-10.47-4.11-21.09-12.85-27.18-5.2-3.62-13.95-4.69-16.29-11.36-2-5.74.64-12,.71-17.9a33.24,33.24,0,0,0-13.39-26.75c-5.68-4.17-13.25-5.57-18.06-10.94-4.43-5-5.87-11.74-8-17.86-3-8.82-11-21-22-16.82-9.37,3.53-11.07,15.81-10.11,24.42a43.74,43.74,0,0,0,2,9c1.14,3.39,3.07,6.51,4,10,1,3.65,1.77,7.95,1.2,11.7-.5,3.4-1.7,6.66-2.19,10.07-1.8,12.53,3.13,25,10.46,35,4.89,6.65,8.52,12.15,8.71,20.68.15,6.62-.83,13.31.53,19.86,2.68,12.92,13.55,21.7,25.72,25.29a1.2,1.2,0,0,0,.95-.13C182.39,232.48,206.11,215.22,207.89,191.44Z"/><path class="cls-6" d="M186.48,239.92q-7.64-18.71-15.23-37.44l0,0A130.15,130.15,0,0,0,179.44,167c.14-1.58-2.34-1.59-2.48,0a127.85,127.85,0,0,1-7.09,32.11q-6.44-15.87-12.83-31.75a1.16,1.16,0,0,0,.18-.33,152.74,152.74,0,0,0,8.87-36.54c.19-1.59-2.29-1.59-2.48,0A149.7,149.7,0,0,1,155.69,164q-6-14.89-12-29.78a164.7,164.7,0,0,0,6-25.85c.23-1.56-2.15-2.25-2.39-.67a163.84,163.84,0,0,1-5,22.86q-5.94-14.83-11.85-29.68a1.44,1.44,0,0,0,.25-.44q2.84-8.22,4.93-16.66c.38-1.54-2-2.22-2.39-.67q-1.8,7.26-4.16,14.34-4-9.95-7.92-19.89c-.58-1.46-3-.86-2.4.63q5.46,13.74,10.94,27.47c-4.09-3.31-8.28-6.5-12.6-9.53-1.3-.92-2.58,1.21-1.28,2.12q8.14,5.73,15.76,12.13,4.83,12.09,9.67,24.17a1.19,1.19,0,0,0,.11.26l5.41,13.51a144,144,0,0,1-27.19-17.89c-1.22-1-2.94.76-1.72,1.79a146.89,146.89,0,0,0,30.31,19.57Q155,169,162,186.19L138.66,175c-1.43-.68-2.72,1.43-1.28,2.12l26,12.47q10.44,25.78,20.94,51.55C184.92,242.61,187.08,241.38,186.48,239.92Z"/><path class="cls-7" d="M198,231c-2.88-11.74-11.16-22.14-22.78-26.17-6.91-2.4-17-.85-21.65-7.52-4-5.75-3-13.57-4.8-20.11a38.4,38.4,0,0,0-23.25-25.52c-7.61-2.86-16.46-2-23.48-6.51-6.48-4.11-10.2-11.2-14.44-17.35C81.52,119,68.86,108,57.87,116.05c-9.31,6.86-7.35,21-3.59,30.29a49.72,49.72,0,0,0,5,9.43c2.33,3.41,5.44,6.27,7.58,9.79,2.26,3.73,4.44,8.27,5,12.62.5,3.93.2,7.93.72,11.87,1.92,14.49,11.3,26.82,22.58,35.64,7.5,5.86,13.26,10.83,16.14,20.25,2.24,7.31,3.25,15,6.8,21.9,7,13.5,21.85,19.86,36.49,20a1.39,1.39,0,0,0,1-.44C182.55,284.59,203.49,258,198,231Z"/><path class="cls-8" d="M187.73,289.4q-13.48-17.31-26.94-34.65a.13.13,0,0,1,0-.06,150,150,0,0,0-2-41.93c-.34-1.81-3.1-1-2.76.76a146.75,146.75,0,0,1,2.17,37.88q-12.1-15.61-24.18-31.26a1.37,1.37,0,0,0,.1-.41,176.49,176.49,0,0,0-1.58-43.38c-.29-1.81-3-1-2.76.76a172.72,172.72,0,0,1,1.69,39.73q-11.31-14.65-22.6-29.33a190.64,190.64,0,0,0-1.47-30.58c-.24-1.8-3.1-1.82-2.87,0a190.1,190.1,0,0,1,1.56,27q-11.23-14.62-22.45-29.26a1.65,1.65,0,0,0,.15-.57q.57-10,.26-20c-.06-1.84-2.93-1.85-2.87,0,.19,5.75.14,11.49-.12,17.23q-7.51-9.81-15-19.62c-1.1-1.44-3.59,0-2.47,1.45q10.37,13.56,20.75,27.09c-5.59-2.4-11.24-4.63-17-6.64-1.74-.62-2.49,2.15-.76,2.75q10.85,3.83,21.31,8.55,9.14,11.92,18.3,23.83a1.5,1.5,0,0,0,.19.25q5.13,6.65,10.25,13.31a166.27,166.27,0,0,1-35.8-11.36c-1.67-.75-3,1.77-1.35,2.52a169.41,169.41,0,0,0,39.78,12.26q13.08,16.95,26.19,33.89L116,234.41c-1.8-.32-2.57,2.44-.76,2.76L148,242.88q18,23.3,36.14,46.52Z"/><circle class="cls-9" cx="330.89" cy="140.91" r="18.09"/><path class="cls-9" d="M308.37,122.82a7.64,7.64,0,0,1-7.64,7.64,7.64,7.64,0,0,1,7.64,7.63,7.63,7.63,0,0,1,7.63-7.63A7.63,7.63,0,0,1,308.37,122.82Z"/><rect class="cls-10" x="196.32" y="171.45" width="15.93" height="30.24"/><rect class="cls-10" x="240.18" y="171.45" width="15.93" height="30.24"/><g class="cls-11"><rect class="cls-12" x="196.32" y="171.45" width="15.93" height="30.24"/><rect class="cls-13" x="240.18" y="171.45" width="15.93" height="30.24"/></g><path class="cls-10" d="M256.11,191.27H196.32l-49.89,56.28a8.69,8.69,0,0,0-2.19,5.76v28.82a8.68,8.68,0,0,0,8.68,8.68H299.51a8.68,8.68,0,0,0,8.68-8.68V253.31a8.73,8.73,0,0,0-2.18-5.76Z"/><path class="cls-14" d="M256.11,191.27H196.32l-49.89,56.28a8.69,8.69,0,0,0-2.19,5.76v28.82a8.68,8.68,0,0,0,8.68,8.68H299.51a8.68,8.68,0,0,0,8.68-8.68V253.31a8.73,8.73,0,0,0-2.18-5.76Z"/><path class="cls-10" d="M270.17,152.78H153.64a13.89,13.89,0,0,0-13.89,13.89v23.44H182V176.22h88.13v13.89h42.29V166.67a13.89,13.89,0,0,0-13.89-13.89Z"/><rect class="cls-10" x="136" y="180.13" width="49.47" height="15.63" rx="1.09"/><rect class="cls-10" x="266.96" y="180.13" width="49.47" height="15.63" rx="1.09"/><rect class="cls-15" x="136" y="180.13" width="49.47" height="15.63" rx="1.09"/><rect class="cls-15" x="266.96" y="180.13" width="49.47" height="15.63" rx="1.09"/><path class="cls-16" d="M206.9,229.18a27.78,27.78,0,1,0,39.27.64A27.77,27.77,0,0,0,206.9,229.18Zm29.43,30.41a14.54,14.54,0,1,1,.34-20.57A14.55,14.55,0,0,1,236.33,259.59Z"/><path class="cls-17" d="M206.9,227.44a27.78,27.78,0,1,0,39.27.64A27.77,27.77,0,0,0,206.9,227.44Zm29.43,30.42a14.55,14.55,0,1,1,.34-20.57A14.56,14.56,0,0,1,236.33,257.86Z"/><path class="cls-10" d="M237.49,265.64a4.22,4.22,0,1,1,6,.1A4.22,4.22,0,0,1,237.49,265.64Z"/><circle class="cls-10" cx="226.99" cy="268.32" r="4.22" transform="translate(-111.26 172.88) rotate(-34.01)"/><path class="cls-10" d="M209.88,261.16a4.22,4.22,0,1,1,.79,5.91A4.22,4.22,0,0,1,209.88,261.16Z"/><path class="cls-10" d="M204.49,247.16a4.22,4.22,0,1,1-3.25,5A4.22,4.22,0,0,1,204.49,247.16Z"/><path class="cls-10" d="M209.54,233a4.22,4.22,0,1,1-5.73,1.67A4.22,4.22,0,0,1,209.54,233Z"/><path class="cls-10" d="M222.58,225.62a4.22,4.22,0,1,1-5.44-2.47A4.23,4.23,0,0,1,222.58,225.62Z"/><circle class="cls-10" cx="233.34" cy="227.04" r="4.22" transform="translate(-19.99 22.54) rotate(-5.3)"/><path class="cls-10" d="M246.32,240a4.22,4.22,0,1,1,1.62-5.74A4.21,4.21,0,0,1,246.32,240Z"/><path class="cls-10" d="M246.23,253.54a4.22,4.22,0,1,1,5-3.29A4.23,4.23,0,0,1,246.23,253.54Z"/><path class="cls-10" d="M250.37,261.13l-11.07-7.36,12.49,4.48S250.92,260.21,250.37,261.13Z"/><path class="cls-15" d="M250.37,261.13l-11.07-7.36,12.49,4.48S250.92,260.21,250.37,261.13Z"/><polygon class="cls-17" points="62.38 246.05 98.35 213.2 134.31 246.05 134.31 276.07 62.38 276.07 62.38 246.05"/><polygon class="cls-18" points="62.38 246.05 98.35 213.2 134.31 246.05 134.31 276.07 62.38 276.07 62.38 246.05"/><polygon class="cls-17" points="63.73 196.03 119.69 196.03 131.48 207.82 131.48 275.58 63.73 275.58 63.73 196.03"/><polygon class="cls-19" points="63.73 196.03 119.69 196.03 131.48 207.82 131.48 275.58 63.73 275.58 63.73 196.03"/><polygon class="cls-17" points="119.69 207.82 131.48 207.82 119.69 196.03 119.69 207.82"/><g class="cls-11"><path class="cls-17" d="M112.85,231.62c0,5.7-2.61,9-6.53,9A4.25,4.25,0,0,1,102,237.8a6,6,0,0,1-5.45,2.78c-4.11,0-7.36-3.26-7.36-8.07s3.22-8,7.36-8a6.1,6.1,0,0,1,4.91,2.1V224.7h4.34V235c0,1.53.67,2,1.53,2,1.46,0,2.36-1.69,2.36-5.39,0-6.47-4.79-10.93-11.86-10.93s-11.86,4.85-11.86,11.51,4.66,11.6,11.73,11.6a14.6,14.6,0,0,0,6.28-1.4l1,2.93a17.23,17.23,0,0,1-7.3,1.53c-9.21,0-15.3-6.25-15.3-14.66s6.15-14.54,15.43-14.54C106.73,217.72,112.85,223.62,112.85,231.62Zm-11.37.89c0-2.77-1.69-4.33-4-4.33s-3.95,1.62-3.95,4.33,1.62,4.4,3.95,4.4S101.48,235.32,101.48,232.51Z"/></g><polygon class="cls-20" points="134.31 289.04 62.38 289.04 62.38 246.05 98.35 266.67 134.31 246.05 134.31 289.04"/><polygon class="cls-17" points="134.31 290.81 62.38 290.81 62.38 246.05 98.35 268.43 134.31 246.05 134.31 290.81"/><g class="cls-21"><path class="cls-17" d="M131.07,288.7s-1.54-1-3.74-2.73c-1.11-.84-2.38-1.84-3.72-2.93-.67-.55-1.37-1.11-2.06-1.7l-2.11-1.78-2.07-1.81c-.69-.6-1.34-1.21-2-1.79-1.28-1.16-2.46-2.27-3.46-3.24-2-1.92-3.25-3.3-3.25-3.3s1.55,1,3.75,2.73c1.11.84,2.38,1.84,3.72,2.93.67.55,1.37,1.11,2.06,1.7l2.1,1.78,2.08,1.82c.69.59,1.34,1.2,2,1.78,1.29,1.16,2.47,2.27,3.46,3.24C129.82,287.33,131.07,288.7,131.07,288.7Z"/></g><g class="cls-21"><path class="cls-17" d="M65.62,288.7s1.26-1.37,3.26-3.3c1-1,2.17-2.08,3.45-3.24.65-.58,1.3-1.19,2-1.78l2.07-1.82,2.11-1.78c.68-.59,1.39-1.15,2.06-1.7,1.34-1.09,2.61-2.09,3.72-2.93,2.2-1.69,3.74-2.73,3.74-2.73s-1.25,1.38-3.25,3.3c-1,1-2.17,2.08-3.45,3.24-.65.58-1.3,1.19-2,1.79l-2.08,1.81-2.1,1.78c-.69.59-1.39,1.15-2.06,1.7-1.35,1.09-2.62,2.09-3.72,2.93C67.17,287.66,65.62,288.7,65.62,288.7Z"/></g><path class="cls-17" d="M289,49.6c-24.83-16.32-92.63-18.39-104.45,18.83s0,53,10.51,56.5c7.5,2.5,29.82,6,53.23,5.78,2.28,5.53.09,13.07.09,13.07,5.69-2.5,9-9.4,10.5-13.42,1.66-.1,3.31-.21,4.95-.36,12.21-1.35,34.25-6.83,40.6-22.59C311.56,89.78,310.68,63.85,289,49.6Z"/><circle class="cls-20" cx="272.68" cy="87.98" r="7.74" transform="translate(17.65 218.58) rotate(-45)"/><circle class="cls-20" cx="244.03" cy="87.98" r="7.74" transform="translate(9.26 198.32) rotate(-45)"/><circle class="cls-20" cx="215.38" cy="87.98" r="7.74" transform="translate(0.87 178.06) rotate(-45)"/><circle class="cls-17" cx="376.46" cy="173" r="20.22"/><g class="cls-11"><rect class="cls-17" x="373.11" y="167.44" width="6.71" height="18.69"/><rect class="cls-17" x="373.11" y="159.87" width="6.71" height="5.73"/></g><path class="cls-22" d="M332.61,262.77c-1.75-4.75-6-8.06-10.2-10.94s-8.62-5.77-11.07-10.21a15.25,15.25,0,0,1-1.7-9.58,2.52,2.52,0,0,1,.47-1.29,2.32,2.32,0,0,1,.89-.59c3.48-1.49,7.68-.26,10.56,2.2s4.66,5.95,6.1,9.46a73.11,73.11,0,0,1,5.28,22.82"/><path class="cls-23" d="M333.28,262.59c-4.52-11.09-20.1-13.69-22.36-25.78-.36-1.94-.46-4.86,1.72-6,1.84-1,5.71.47,7.3,1.5,3.46,2.24,5.43,6.22,7,9.89,3.11,7.17,4.23,14.72,5.09,22.43.12,1.11,1.83,1.16,1.78,0a67.79,67.79,0,0,0-7.14-27c-2.7-5.24-9.47-11.78-16-8.61-5.39,2.62-1.27,12.35,1.33,15.63,5.7,7.2,16,9.68,20,18.43.32.72,1.59.2,1.28-.54Z"/><path class="cls-24" d="M340.83,268.81a95.48,95.48,0,0,1,10.1-33.89c2.63-5.12,6.43-10.47,12.12-11.34a5.9,5.9,0,0,1,4.07.65,5.42,5.42,0,0,1,2.15,4.9,13.28,13.28,0,0,1-1.77,5.28,55.2,55.2,0,0,1-12,15.47c-2.69,2.42-5.62,4.59-8,7.28a26.56,26.56,0,0,0-6.4,13.51"/><path class="cls-25" d="M341.56,268.81a103.58,103.58,0,0,1,8-28.56,51.53,51.53,0,0,1,5.26-9.89,14.53,14.53,0,0,1,7.12-5.63q5.44-2.16,6.66,5.64a17.8,17.8,0,0,1-1.33,3.07c-4,8-9.88,13.65-16.55,19.26-5.61,4.71-9.4,10.39-10.47,17.73-.16,1.11,1.47,1.64,1.74.48a30.5,30.5,0,0,1,9.5-16.17c4-3.72,8.07-7.29,11.41-11.67,3-3.94,12-16.66,3.36-20-7.47-2.92-13.81,6.91-16.56,12.17a91.46,91.46,0,0,0-9.56,33.61c-.09.94,1.34.91,1.46,0Z"/><path class="cls-26" d="M339,178.33c-4.71-.19-6.93,6.5-8.15,10.06-2.64,7.77-2.93,16.22-2.64,24.35a299.49,299.49,0,0,0,7.31,55.63.89.89,0,0,0,.92.76c0,1.18.07,2.35.15,3.52.06.91,1.41,1.2,1.65.23,4.54-18.36,6.64-38.23,8.25-57.07C347,209.29,351.29,178.82,339,178.33Z"/><path class="cls-26" d="M339,178.33c-4.71-.19-6.93,6.5-8.15,10.06-2.64,7.77-2.93,16.22-2.64,24.35a299.49,299.49,0,0,0,7.31,55.63.89.89,0,0,0,.92.76c0,1.18.07,2.35.15,3.52.06.91,1.41,1.2,1.65.23,4.54-18.36,6.64-38.23,8.25-57.07C347,209.29,351.29,178.82,339,178.33Z"/><g class="cls-27"><path class="cls-28" d="M334.51,265c-2-12.18-8.52-23.59-18.72-30.73-.5-.34-1.12.46-.65.84,9.63,8,16.09,17.74,18.5,30.13.12.56,1,.32.87-.24Z"/></g><g class="cls-27"><path class="cls-29" d="M340.33,269c5.05-13.82,13.21-25.81,21.82-37.59.26-.36-.31-.79-.61-.47-10.06,10.92-16.72,24.17-22.42,37.73-.31.73.93,1.1,1.21.33Z"/></g><g class="cls-27"><path class="cls-30" d="M338.69,268.26c.13-12.92-.17-25.84-.26-38.75s1-26,0-38.74c0-.57-1-.8-1.08-.15-1.85,12.18-.89,25.23-.75,37.53q.22,20.06.56,40.11a.76.76,0,0,0,1.52,0Z"/></g><polygon class="cls-10" points="353.61 290.81 325.26 290.81 323.81 265.34 355.06 265.34 353.61 290.81"/><rect class="cls-10" x="321.2" y="261.33" width="36.46" height="8.78"/><rect class="cls-16" x="321.2" y="261.33" width="36.46" height="8.78"/></g></g></g></svg>