<svg xmlns="http://www.w3.org/2000/svg" xmlns:xlink="http://www.w3.org/1999/xlink" viewBox="0 0 997.47 625.82"><defs><style>.cls-1{fill:url(#linear-gradient);}.cls-2{fill:url(#linear-gradient-2);}.cls-18,.cls-3,.cls-40{fill:none;stroke:#222;stroke-miterlimit:10;}.cls-3{stroke-width:12.59px;}.cls-4{fill:url(#linear-gradient-3);}.cls-5{fill:url(#linear-gradient-4);}.cls-6{fill:#222;}.cls-7{fill:url(#linear-gradient-5);}.cls-8{fill:url(#linear-gradient-6);}.cls-9{fill:url(#linear-gradient-7);}.cls-10{fill:#fff;}.cls-11{fill:url(#linear-gradient-8);}.cls-12{fill:url(#linear-gradient-9);}.cls-13{fill:#6aaffc;}.cls-14{fill:#ffab7c;}.cls-15{fill:url(#linear-gradient-10);}.cls-16{fill:url(#linear-gradient-11);}.cls-17{fill:url(#linear-gradient-12);}.cls-18{stroke-width:3.15px;}.cls-19{fill:#e1effe;}.cls-20{fill:url(#linear-gradient-13);}.cls-21{fill:url(#linear-gradient-14);}.cls-22{fill:url(#linear-gradient-15);}.cls-23{fill:url(#linear-gradient-16);}.cls-24{fill:url(#linear-gradient-17);}.cls-25{fill:url(#linear-gradient-18);}.cls-26{fill:url(#linear-gradient-19);}.cls-27{fill:url(#linear-gradient-20);}.cls-28{fill:url(#linear-gradient-21);}.cls-29{fill:url(#linear-gradient-22);}.cls-30{fill:url(#linear-gradient-23);}.cls-31{fill:url(#linear-gradient-24);}.cls-32{fill:url(#linear-gradient-25);}.cls-33{fill:#ffbb38;}.cls-34{fill:url(#linear-gradient-26);}.cls-35{fill:url(#linear-gradient-27);}.cls-36{fill:url(#linear-gradient-28);}.cls-37{fill:url(#linear-gradient-29);}.cls-38{fill:url(#linear-gradient-30);}.cls-39{fill:url(#linear-gradient-31);}.cls-40{stroke-linecap:round;stroke-width:2px;}</style><linearGradient id="linear-gradient" x1="3114.47" y1="957.52" x2="3114.47" y2="-114.96" gradientTransform="matrix(1, 0, 0, -1, -2606.94, 605.88)" gradientUnits="userSpaceOnUse"><stop offset="0" stop-color="#6aaffc"/><stop offset="1" stop-color="#e1effe"/></linearGradient><linearGradient id="linear-gradient-2" x1="175" y1="-48.79" x2="682.09" y2="647.3" gradientUnits="userSpaceOnUse"><stop offset="0" stop-color="#fff"/><stop offset="1" stop-color="#fff" stop-opacity="0"/></linearGradient><linearGradient id="linear-gradient-3" x1="728.32" y1="366.85" x2="674.14" y2="470.93" xlink:href="#linear-gradient-2"/><linearGradient id="linear-gradient-4" x1="629.87" y1="516.07" x2="761.14" y2="516.07" gradientUnits="userSpaceOnUse"><stop offset="0" stop-color="#ff885f"/><stop offset="1" stop-color="#eec9b5"/></linearGradient><linearGradient id="linear-gradient-5" x1="616.21" y1="499.79" x2="578.78" y2="499.79" gradientUnits="userSpaceOnUse"><stop offset="0" stop-color="#bf6647"/><stop offset="1" stop-color="#bf6647" stop-opacity="0"/></linearGradient><linearGradient id="linear-gradient-6" x1="683.57" y1="499.79" x2="629.57" y2="499.79" xlink:href="#linear-gradient-5"/><linearGradient id="linear-gradient-7" x1="757.71" y1="499.79" x2="702.82" y2="499.79" xlink:href="#linear-gradient-5"/><linearGradient id="linear-gradient-8" x1="494.61" y1="497.4" x2="494.61" y2="-22.29" gradientUnits="userSpaceOnUse"><stop offset="0" stop-color="#5a76c7"/><stop offset="1" stop-color="#6aaffc"/></linearGradient><linearGradient id="linear-gradient-9" x1="564.61" y1="497.94" x2="564.61" y2="-18.69" xlink:href="#linear-gradient-8"/><linearGradient id="linear-gradient-10" x1="426.53" y1="25.49" x2="500.6" y2="25.49" xlink:href="#linear-gradient-8"/><linearGradient id="linear-gradient-11" x1="399.65" y1="54.35" x2="446.18" y2="54.35" xlink:href="#linear-gradient-8"/><linearGradient id="linear-gradient-12" x1="518.19" y1="497.94" x2="518.19" y2="-18.69" xlink:href="#linear-gradient-8"/><linearGradient id="linear-gradient-13" x1="481.13" y1="75.17" x2="485.41" y2="99.17" gradientUnits="userSpaceOnUse"><stop offset="0" stop-color="#86513c"/><stop offset="1" stop-color="#86513c" stop-opacity="0"/></linearGradient><linearGradient id="linear-gradient-14" x1="39.36" y1="583.28" x2="167.67" y2="583.28" xlink:href="#linear-gradient-4"/><linearGradient id="linear-gradient-15" x1="651.32" y1="450.87" x2="713.99" y2="450.87" gradientTransform="translate(1442.23 551.17) rotate(-180)" xlink:href="#linear-gradient-4"/><linearGradient id="linear-gradient-16" x1="682.66" y1="454.21" x2="682.66" y2="488.9" gradientTransform="translate(-49.43 -21.19) rotate(-24.9)" gradientUnits="userSpaceOnUse"><stop offset="0" stop-color="#e1effe"/><stop offset="1" stop-color="#fff"/></linearGradient><linearGradient id="linear-gradient-17" x1="682.65" y1="412.38" x2="682.65" y2="427.21" gradientTransform="translate(1431.65 503.27) rotate(-180)" xlink:href="#linear-gradient-16"/><linearGradient id="linear-gradient-18" x1="722.13" y1="400.48" x2="739.36" y2="400.48" gradientTransform="matrix(-1, 0, 0, -1, 1512.72, 434.82)" xlink:href="#linear-gradient-4"/><linearGradient id="linear-gradient-19" x1="721.5" y1="410.76" x2="721.5" y2="432.89" gradientTransform="translate(-49.43 -21.19) rotate(-24.9)" xlink:href="#linear-gradient-4"/><linearGradient id="linear-gradient-20" x1="677.33" y1="404.54" x2="683.91" y2="425.84" gradientTransform="translate(-49.43 -21.19) rotate(-24.9)" gradientUnits="userSpaceOnUse"><stop offset="0" stop-color="#5a76c7"/><stop offset="1" stop-color="#5a76c7" stop-opacity="0"/></linearGradient><linearGradient id="linear-gradient-21" x1="710.73" y1="406.07" x2="716.87" y2="425.97" gradientTransform="translate(-49.43 -21.19) rotate(-24.9)" xlink:href="#linear-gradient-13"/><linearGradient id="linear-gradient-22" x1="960.5" y1="-360.6" x2="960.5" y2="-402.22" gradientTransform="translate(-114.38 297.82) rotate(27.55)" xlink:href="#linear-gradient-8"/><linearGradient id="linear-gradient-23" x1="960.5" y1="-303.2" x2="960.5" y2="-356.6" gradientTransform="translate(-114.38 297.82) rotate(27.55)" xlink:href="#linear-gradient-8"/><linearGradient id="linear-gradient-24" x1="960.5" y1="-309.5" x2="960.5" y2="-327.18" gradientTransform="translate(-73.74 778.69)" xlink:href="#linear-gradient-8"/><linearGradient id="linear-gradient-25" x1="960.5" y1="-332.51" x2="960.5" y2="-235.51" gradientTransform="translate(-114.38 297.82) rotate(27.55)" gradientUnits="userSpaceOnUse"><stop offset="0" stop-color="#ffbb38"/><stop offset="1" stop-color="#f7dead"/></linearGradient><linearGradient id="linear-gradient-26" x1="960.5" y1="-347.27" x2="960.5" y2="-375.53" gradientTransform="translate(-114.38 297.82) rotate(27.55)" gradientUnits="userSpaceOnUse"><stop offset="0" stop-color="#2b3c6a"/><stop offset="1" stop-color="#2b3c6a" stop-opacity="0"/></linearGradient><linearGradient id="linear-gradient-27" x1="-177.64" y1="798.5" x2="44.25" y2="798.5" gradientTransform="translate(-132.56 -467.41) rotate(-35.87)" xlink:href="#linear-gradient-4"/><linearGradient id="linear-gradient-28" x1="175.95" y1="424.95" x2="175.95" y2="298.74" gradientTransform="translate(540.59 491.65) rotate(127)" xlink:href="#linear-gradient-25"/><linearGradient id="linear-gradient-29" x1="175.95" y1="434.64" x2="175.95" y2="404.36" gradientTransform="translate(540.59 491.65) rotate(127)" xlink:href="#linear-gradient-8"/><linearGradient id="linear-gradient-30" x1="175.95" y1="511.79" x2="175.95" y2="425.28" gradientTransform="translate(540.59 491.65) rotate(127)" xlink:href="#linear-gradient-8"/><linearGradient id="linear-gradient-31" x1="175.95" y1="488.81" x2="175.95" y2="468.79" gradientTransform="translate(540.59 491.65) rotate(127)" xlink:href="#linear-gradient-8"/></defs><g id="Layer_2" data-name="Layer 2"><g id="OBJECTS"><path class="cls-1" d="M17.59,42.6H997.47a0,0,0,0,1,0,0v0A520.68,520.68,0,0,1,476.78,563.28H17.59a0,0,0,0,1,0,0V42.6A0,0,0,0,1,17.59,42.6Z" transform="translate(1015.05 605.88) rotate(-180)"/><path class="cls-2" d="M17.59,563.28s117.07-1.18,190.86-39.67S328.21,407.41,371,408.3s33,29.59,55.55,56.94,82.26-20.42,110.13-56.95,85.79-92.7,145-76.91,48.41,49.68,77.9,60,92.92.86,115.48-52.76c32-76.2,122.39-86.56,122.39-86.56V563.28Z"/><path class="cls-3" d="M562.86,187.81l47.43,24.26s140.35,84.31,178.05,113.26S820.18,440.6,721,458"/><path class="cls-4" d="M664.54,356h0a89.31,89.31,0,0,1,89.31,89.31v110a0,0,0,0,1,0,0H575.23a0,0,0,0,1,0,0v-110A89.31,89.31,0,0,1,664.54,356Z"/><path class="cls-5" d="M574.77,416.41H754.31a11.91,11.91,0,0,1,11.91,11.91V615.73a0,0,0,0,1,0,0H562.86a0,0,0,0,1,0,0V428.32A11.91,11.91,0,0,1,574.77,416.41Z"/><rect class="cls-6" x="562.86" y="467.99" width="203.36" height="12.62"/><rect class="cls-6" x="562.86" y="607.85" width="203.36" height="12.62"/><path class="cls-7" d="M575.23,480.61h34.33a0,0,0,0,1,0,0v21.2A17.16,17.16,0,0,1,592.39,519h0a17.16,17.16,0,0,1-17.16-17.16v-21.2A0,0,0,0,1,575.23,480.61Z"/><path class="cls-8" d="M664.54,519h0a17.16,17.16,0,0,1-17.16-17.17v-21.2H681.7v21.2A17.16,17.16,0,0,1,664.54,519Z"/><path class="cls-9" d="M736.69,519h0a17.17,17.17,0,0,1-17.17-17.17v-21.2h34.33v21.2A17.16,17.16,0,0,1,736.69,519Z"/><circle class="cls-6" cx="753.85" cy="590.07" r="34.75"/><circle class="cls-10" cx="753.85" cy="590.07" r="18.17"/><polygon class="cls-10" points="445.57 117.94 421.81 195.52 465.2 214.35 471.65 161.19 445.57 117.94"/><polygon class="cls-10" points="561.33 95.63 612.76 129.12 599.57 156.38 541.67 142.18 561.33 95.63"/><polygon class="cls-11" points="470.97 258.14 452.57 589.51 494.76 589.51 536.66 240.88 470.97 258.14"/><polygon class="cls-12" points="582.55 235.44 613.27 589.51 570.18 589.51 515.94 248.99 582.55 235.44"/><path class="cls-13" d="M346.7,320.49l-13,21.11,4.29,24,22.32-3.18L374.84,343s3.76-16.45,4.57-17.89,11.17-27.95,11.17-27.95Z"/><polygon class="cls-6" points="500.6 22.04 505.97 32.59 505.38 63.15 471.31 57.98 465.2 25.49 500.6 22.04"/><path class="cls-14" d="M434.56,49.23l1.86,12.07L434.9,77.8a2.41,2.41,0,0,0,3.15,2.52l6.33-2,8.89,12.9A8.14,8.14,0,0,0,464.88,93l9.73-7.34L477,103.2l41.11-10.08-12.73-30-8.27-4.77,2.34-3.49a13.24,13.24,0,0,0-.26-15.12h0a9.37,9.37,0,0,0-12.27-2.63h0a9.35,9.35,0,0,0-4.68,8.11v3L476.34,46,469,33.71Z"/><path class="cls-15" d="M430.33,51,500.6,22S490.46,1.91,473.29.3c-23.59-2.22-38.54,8.59-44.36,13.91a7.33,7.33,0,0,0-2.34,6.32Z"/><path class="cls-10" d="M426.59,20.53,430.33,51l15.85-6.52c-1.28-5.2-4.1-16-7-22.27-4-8.56-10.21-8-10.21-8A7.33,7.33,0,0,0,426.59,20.53Z"/><path class="cls-16" d="M446.18,44.45,411.73,62a20.94,20.94,0,0,1-11.45,2.18h0a.69.69,0,0,1-.26-1.3l29.85-15.64Z"/><polygon class="cls-10" points="471.72 103.2 445.57 117.94 475.01 257.32 577.59 236.45 561.33 95.63 518.11 91.83 471.72 103.2"/><polygon class="cls-17" points="470.97 258.14 453.82 112.29 471.72 103.2 478.18 172.57 537.63 154.3 518.11 91.83 532.97 93.14 558.36 162.29 570.49 174.99 582.55 235.44 512.62 259.94 470.97 258.14"/><path class="cls-18" d="M480.91,197.61l69.37-14.73,12.52,63a20.94,20.94,0,0,1-17.25,24.76l-33.35,5.3a20.94,20.94,0,0,1-24.07-18.18Z"/><polygon class="cls-14" points="421.81 195.52 343.95 308.6 376.13 302.52 462.98 209.94 421.81 195.52"/><path class="cls-3" d="M603.4,208.09l-40.54-20.28a75,75,0,0,0-67.78.35h0a75.06,75.06,0,0,0-22.38,17.55l-324.78,374"/><path class="cls-14" d="M576.3,125.37c7.48-2.69,33.45-4.09,40.4,8.12s-16.48,22.61-35.63,32.65-67.45,21.75-67.45,21.75l-14.46-18.25S568.81,128.07,576.3,125.37Z"/><path class="cls-13" d="M525.62,186.69l-18.25-24.4-17.78,14.49-39.15,26.38a9.3,9.3,0,0,0-4.06,8.62l1.37,13.83a8.12,8.12,0,0,0,8.72,7.3l7.63-.59a17.8,17.8,0,0,0,12.36-6.42l22.7-27.53Z"/><polygon class="cls-13" points="377.95 297.19 346.11 304.67 334.79 325.41 337.22 349.13 340.99 365.57 350.69 356.95 351.23 330.53 372.52 315.98 377.95 297.19"/><polygon class="cls-6" points="452.57 589.51 402.59 609.73 400.2 624.82 501.65 624.82 501.65 610.75 494.76 589.51 452.57 589.51"/><polygon class="cls-19" points="401.62 615.84 400.2 624.82 501.65 624.82 501.65 615.84 401.62 615.84"/><polygon class="cls-6" points="570.18 589.51 558.36 615.84 558.36 624.82 637.96 624.82 637.96 615.84 613.27 589.51 570.18 589.51"/><rect class="cls-19" x="558.36" y="615.84" width="79.6" height="8.98"/><polygon class="cls-20" points="474.61 85.69 489.86 72.97 477 103.2 474.61 85.69"/><polygon class="cls-21" points="167.67 566.46 165.54 607.16 39.36 607.16 157.64 559.39 167.67 566.46"/><path class="cls-6" d="M171.71,624.82H26.41A8.82,8.82,0,0,1,17.59,616h0a8.83,8.83,0,0,1,8.82-8.83h145.3a8.84,8.84,0,0,1,8.83,8.83h0A8.83,8.83,0,0,1,171.71,624.82Z"/><path class="cls-22" d="M728.26,87.13h62.66a0,0,0,0,1,0,0v18a8.36,8.36,0,0,1-8.36,8.36h-46a8.36,8.36,0,0,1-8.36-8.36v-18A0,0,0,0,1,728.26,87.13Z" transform="translate(1490.78 -128.64) rotate(155.09)"/><path class="cls-23" d="M736.72,125.42,793.56,99l16.92,13a61,61,0,0,1,18,22.58l31,66.74a9.92,9.92,0,0,1-4.82,13.18l-69.15,32.11a9.93,9.93,0,0,1-13.18-4.82l-31-66.74a61,61,0,0,1-5.61-28.37Z"/><rect class="cls-24" x="736.38" y="65.55" width="25.27" height="23.92" transform="translate(1461.02 -167.63) rotate(155.09)"/><path class="cls-10" d="M720.94,74.42,702.85,62.23a3.49,3.49,0,0,1,.48-6.06l76.85-35.68a4.43,4.43,0,0,1,5.89,2.16l7.48,16.1a4.45,4.45,0,0,1-2.16,5.9l-65,30.2A5.51,5.51,0,0,1,720.94,74.42Z"/><path class="cls-25" d="M777.82,21h12.79a0,0,0,0,1,0,0V47.64a0,0,0,0,1,0,0H777.82a4.44,4.44,0,0,1-4.44-4.44V25.45A4.44,4.44,0,0,1,777.82,21Z" transform="matrix(-0.91, 0.42, -0.42, -0.91, 1505.72, -263.87)"/><path class="cls-26" d="M779.79,50l5,10.85a6.3,6.3,0,0,0,2.46,2.75l18.82,11.42a3.73,3.73,0,0,1-.36,6.57h0a3.72,3.72,0,0,1-3,.07l-23.95-9.77a19.27,19.27,0,0,1-10.2-9.74L766,56.45Z"/><polygon class="cls-27" points="755.44 61.34 758.74 68.44 739.25 86.47 732.52 71.98 755.44 61.34"/><path class="cls-28" d="M773.67,68.71,784,59.14,779.79,50,766,56.45l2.66,5.73A19.27,19.27,0,0,0,773.67,68.71Z"/><path class="cls-29" d="M937.36,358.35a12.64,12.64,0,0,0-17.06,5.36L894,414.16l22.42,11.69,26.32-50.44A12.65,12.65,0,0,0,937.36,358.35Zm-7.72,14.79a4.56,4.56,0,1,1,6.16-1.93A4.57,4.57,0,0,1,929.64,373.14Z"/><path class="cls-30" d="M940.6,474.52,840.23,422.17l37.28-13.35a9,9,0,0,1,7.19.5l41,21.38a9,9,0,0,1,4.51,5.61Z"/><rect class="cls-31" x="830.15" y="447.45" width="113.21" height="15.8" transform="translate(311.12 -358.48) rotate(27.55)"/><polygon class="cls-32" points="832.92 436.18 811.64 476.97 828.92 485.99 835.64 476.22 831.47 487.31 847.46 495.65 858.98 478.89 851.82 497.93 884.98 515.23 896.5 498.46 889.34 517.5 892.61 519.21 902.22 505.21 896.25 521.11 912.01 529.33 933.29 488.54 832.92 436.18"/><polygon class="cls-33" points="895.24 481.96 901.96 472.19 900.69 471.53 899.41 470.87 895.24 481.96"/><polygon class="cls-33" points="875.08 480.95 886.6 464.18 884.41 463.04 882.24 461.9 875.08 480.95"/><polygon class="cls-33" points="909.17 498.73 920.69 481.96 918.51 480.83 916.33 479.69 909.17 498.73"/><polygon class="cls-33" points="844.97 465.24 856.49 448.48 854.31 447.34 852.13 446.2 844.97 465.24"/><polygon class="cls-33" points="839.24 458.49 848.86 444.5 847.04 443.55 845.22 442.6 839.24 458.49"/><polygon class="cls-34" points="899.79 403.02 893.98 414.16 916.4 425.86 920.26 418.46 899.79 403.02"/><circle class="cls-10" cx="244.57" cy="331.38" r="40.73" transform="translate(-162.69 270) rotate(-45)"/><circle class="cls-10" cx="377.95" cy="455.72" r="20.16" transform="translate(-213.97 468.25) rotate(-51.54)"/><circle class="cls-10" cx="706.49" cy="214.35" r="20.16" transform="translate(238.1 785.03) rotate(-67.5)"/><polygon class="cls-33" points="278.09 213.32 260.53 168.84 241.34 182.72 278.09 213.32"/><polygon class="cls-10" points="287.69 206.38 270.13 161.9 250.94 175.78 287.69 206.38"/><polygon class="cls-33" points="297.28 199.44 279.73 154.95 260.53 168.84 297.28 199.44"/><polygon class="cls-10" points="306.88 192.5 289.33 148.01 270.13 161.9 306.88 192.5"/><polygon class="cls-33" points="316.48 185.56 298.93 141.07 279.73 154.95 316.48 185.56"/><polygon class="cls-10" points="326.08 178.62 308.52 134.13 289.33 148.01 326.08 178.62"/><polygon class="cls-33" points="335.67 171.68 318.12 127.19 298.93 141.07 335.67 171.68"/><polygon class="cls-10" points="345.27 164.74 327.72 120.25 308.52 134.13 345.27 164.74"/><polygon class="cls-33" points="354.87 157.8 337.32 113.31 318.12 127.19 354.87 157.8"/><path class="cls-35" d="M352.37,150.66,194.45,264.86a13.5,13.5,0,0,0-3,18.85h0a13.49,13.49,0,0,0,18.84,3l157.92-114.2a13.5,13.5,0,0,0,3-18.85h0A13.51,13.51,0,0,0,352.37,150.66Z"/><path class="cls-36" d="M95.32,384l105.41,79.42a6,6,0,0,0,8.39-1.18h0a6,6,0,0,0-1.18-8.39L102.53,374.41a6,6,0,0,0-8.39,1.18h0A6,6,0,0,0,95.32,384Z"/><path class="cls-37" d="M114.75,391.11h0a12.28,12.28,0,0,0-2.42-17.18l-4.68-3.52L92.89,390l4.68,3.52A12.27,12.27,0,0,0,114.75,391.11Z"/><path class="cls-38" d="M103.62,382.72h0a42.5,42.5,0,0,0-8.37-59.51l-7.42-5.59L36.69,385.51l7.41,5.58A42.49,42.49,0,0,0,103.62,382.72Z"/><path class="cls-39" d="M36.37,385.93,88.16,317.2A6,6,0,0,0,87,308.81h0A6,6,0,0,0,78.59,310L26.8,378.73A6,6,0,0,0,28,387.11h0A6,6,0,0,0,36.37,385.93Z"/><line class="cls-40" x1="1" y1="624.82" x2="875.08" y2="624.82"/></g></g></svg>