<svg xmlns="http://www.w3.org/2000/svg" viewBox="0 0 988.09 729.19"><defs><style>.cls-1{fill:#fffcff;}.cls-2{fill:#ff9e9a;}.cls-3{fill:#e6686a;}.cls-4{fill:#d7e5fa;}.cls-5{fill:#0099de;}.cls-10,.cls-6,.cls-7{fill:none;stroke:#25293d;stroke-miterlimit:10;}.cls-6{stroke-width:1.5px;}.cls-7{stroke-width:2.5px;}.cls-8{fill:#1a2661;}.cls-9{fill:#024a97;}.cls-10{stroke-width:2px;}.cls-11{fill:#ffab00;}.cls-12{fill:#fff;}.cls-13{fill:#ebf8f7;}.cls-14{fill:#ffcf69;}</style></defs><g id="Layer_2" data-name="Layer 2"><g id="BACKGROUND"><rect class="cls-1" width="988.09" height="729.19"/><path class="cls-2" d="M369,184.39s-59.13-3.57-105.66,36C243.62,237.1,116.73,451.86,116.73,451.86l50,143.08,213.38-181.6Z"/><polygon class="cls-3" points="203.94 328.92 277.73 500.49 344.45 443.71 203.94 328.92"/><path class="cls-4" d="M369,184.39s-75.41,4.57-98.68,19.69-97.71,107-97.71,107L314.25,490Z"/><path class="cls-5" d="M234.49,238.68c35.1,30.29,80.42,69.39,108.07,93.19l1.68-9.42-103-91.08C239,233.74,236.77,236.18,234.49,238.68Z"/><path class="cls-5" d="M340.6,187l24.16,20.84,1.86-10.38-13.34-11.79C349.5,186,345.21,186.47,340.6,187Z"/><path class="cls-5" d="M260.28,212.22C289,237,323.8,267,350.11,289.68l1.74-9.71-83.94-74.22C265.68,207.43,263.11,209.62,260.28,212.22Z"/><path class="cls-5" d="M317.29,190.24c15.12,13,30.28,26.12,43.85,37.81l1.77-9.89-33.62-29.72C325.36,189,321.33,189.58,317.29,190.24Z"/><path class="cls-5" d="M357.28,249.63l-62.11-54.92c-3.95,1-7.71,2-11.17,3.21l71.5,61.66Z"/><path class="cls-5" d="M347.8,302.57,253.25,219c-2.27,2.26-4.65,4.69-7.1,7.24,29.39,25.36,69.5,60,99.9,86.17Z"/><path class="cls-5" d="M183.07,298.31c-2.54,3.07-4.7,5.7-6.39,7.76,52.39,45.21,133.07,114.79,138.53,119.39,1.49,1.25,4.73,4.43,9,8.78l1.72-9.58Z"/><path class="cls-5" d="M311.19,453.86l-85.32-75.45,29.89,37.75c22.92,19.75,40.07,34.52,42.49,36.56s10.05,9.75,19.22,19.27l1.86-10.37Z"/><path class="cls-5" d="M199,279.3c-2.25,2.66-4.41,5.23-6.46,7.67,51.08,44.08,128,110.46,137,118l1.59-8.9Z"/><polygon class="cls-5" points="290.79 460.39 314.25 490.02 315.36 483.8 290.79 460.39"/><path class="cls-5" d="M337.41,360.63,219.05,256q-3.31,3.79-6.58,7.56c40.46,34.91,97.07,83.75,123.29,106.31Z"/><path class="cls-6" d="M274.11,273.22s18.63,60.23,35.11,60.22Z"/><path class="cls-6" d="M268.74,298s8.6,40.85,41.92,45.15"/><path class="cls-2" d="M617.4,197.74s85-3,113.06,25.12c51.2,51.2,141.26,204.4,176.65,266.17A16.3,16.3,0,0,1,892,513.4L649.72,498.22Z"/><polyline class="cls-3" points="772.82 330.22 679.07 417.16 628.58 337.55 770.55 323.88"/><polygon class="cls-3" points="690.38 500.77 747.99 504.38 863.1 470.06 668.97 376.26 690.38 500.77"/><path class="cls-4" d="M659.71,192.45s71.41,9.26,87.94,21.16,55.54,95.87,55.54,95.87L669,376.26Z"/><path class="cls-5" d="M696.05,198.3c-4.83-.92-9.52-1.74-13.84-2.46l-21.85,9.45.44,8.8Z"/><path class="cls-5" d="M733.22,211.4c1-.49,3-1.25,5.63-2.22-3.27-1.28-7.05-2.51-11.15-3.68L661.8,234l.47,9.21C699.29,226.63,729.71,213,733.22,211.4Z"/><path class="cls-5" d="M743.41,235.25c2.26-1,8.59-3.33,17-6.23-1.7-2.56-3.35-4.92-4.91-7l-5.6,2.17L663.2,261.64l.47,9.34C704.57,252.69,739.64,237,743.41,235.25Z"/><path class="cls-5" d="M659.71,192.45l.15,3,5.07-2.27C661.65,192.7,659.71,192.45,659.71,192.45Z"/><path class="cls-5" d="M778.71,295.14c2.06-1,7.56-3,14.92-5.53-1.16-2.34-2.39-4.82-3.69-7.4l-4.8,1.87L666.9,335.18l.49,9.79C720.25,321.35,774,297.32,778.71,295.14Z"/><polygon class="cls-5" points="802.62 309.77 797.87 311.62 668.53 367.51 668.97 376.26 802.62 309.77"/><path class="cls-5" d="M760.2,267.57c2.4-1.11,9.44-3.64,18.64-6.81-1.33-2.49-2.68-5-4-7.43l-8.18,3.18L665.15,300.37l.48,9.55C712.56,289,756,269.53,760.2,267.57Z"/><path class="cls-5" d="M766.81,246.19c.7-.33,1.8-.77,3.23-1.32-1.31-2.28-2.62-4.51-3.92-6.66l-101.88,44,.48,9.66C714.44,269.68,762.36,248.25,766.81,246.19Z"/><path class="cls-2" d="M334,604.2s-26.08-109-11.93-327.58c5.85-90.44,43.34-89.3,98-93.78,77.35-6.34,217.58-10.52,246.39,37.56,16.21,27-5,326.26-23.49,372.14C624.08,639.34,340,618.61,334,604.2Z"/><path class="cls-4" d="M441.86,181.56s-17.08,27.7,30.26,41,75.8,4.38,85.83-42c0,0,95.47-.47,113.35,18.49s12.82,155.48,12.82,155.48l-17,209.94s12.76,45.93,1.7,53.2S504,655.21,483.42,653.53s-160.76-29.64-167.9-45,1.1-37.93,1.1-37.93-7-243.18-8.57-263.83,1.66-94.32,28.21-112S441.86,181.56,441.86,181.56Z"/><path class="cls-5" d="M345,283.08s231,3,241.62,3,98,10.43,98,10.43h0c0-4.09-.14-8.27-.25-12.47l-87.16-5.41-218.83-5.46-70,3.21c-.23,3.25-.4,6.39-.52,9.37Z"/><path class="cls-5" d="M343.48,227.47s231,3,241.62,3c9.91,0,86.4,9,96.83,10.28-.44-4.36-.94-8.55-1.51-12.48L595.74,223l-62-1.55c-14.74,9.05-35.27,8.55-61.67,1.13-3.2-.9-6.09-1.87-8.72-2.88l-86.49-2.16-57.8,2.65c-1.1,2.95-2.1,6.05-3,9.23Z"/><path class="cls-5" d="M380.13,413.34,312,416.47q.15,4.61.29,9.26l34.41-2.46s231,3,241.63,3c8.56,0,66.84,6.76,89.25,9.39l1-11.9L599,418.8Z"/><path class="cls-5" d="M338.16,194.2,439,195.49a23.12,23.12,0,0,1,1-9.51l-68.38-1.71-2.63.12c-12.74,2-24.33,5.1-32,9.89Z"/><path class="cls-5" d="M579.78,197.18c9.68,0,82.83,8.62,96,10.18a23.76,23.76,0,0,0-4.47-8.26,24.67,24.67,0,0,0-6.81-4.78l-74.07-4.59-34.57-.86c-.84,2.85-1.77,5.52-2.79,8C567.83,197.07,577.77,197.18,579.78,197.18Z"/><path class="cls-5" d="M387,502.22l-72.26,3.31q.15,4.8.28,9.38l38.54-2.76s231,3,241.63,3c7.12,0,48.7,4.68,75.36,7.77l.9-11.15-65.62-4.07Z"/><path class="cls-5" d="M605.8,611,387,605.5l-71.31,3.27c1.41,2.53,6.31,5.38,13.59,8.4l24.28-1.74s231,3,241.63,3c5.43,0,30.91,2.72,54.52,5.39,10.14-2.59,17.12-4.73,19.18-6.08a7.34,7.34,0,0,0,2.35-2.7Z"/><path class="cls-5" d="M586.8,556.84,368,551.38l-51.84,2.38c.1,3.42.19,6.39.26,8.85l18.15-1.3s231,3,241.62,3c9.15,0,75.1,7.71,93.35,9.87-1.27-5.72-2.35-9.64-2.35-9.64l.21-2.68Z"/><path class="cls-5" d="M385.45,477.39,314,480.67q.13,4.74.28,9.35L352,487.33s231,3,241.63,3c7.45,0,52.49,5.11,78.85,8.18l.92-11.34-69.13-4.28Z"/><path class="cls-5" d="M387.73,579.18l-74.15,3.4a67.58,67.58,0,0,0-.95,9.51l41.66-3s231,3,241.63,3c7.31,0,50.86,4.93,77.39,8a113.67,113.67,0,0,0-1.11-11.38l-65.64-4.07Z"/><path class="cls-5" d="M343.48,258.25s231,3,241.62,3,98,10.43,98,10.43l.9.2c-.18-4.24-.39-8.47-.64-12.64l-87.64-5.44-218.83-5.46-65.58,3c-.51,3.12-.95,6.23-1.34,9.32Z"/><path class="cls-6" d="M483.74,258.17s51.6-28,50.53-24.72S519.22,260.32,483.74,258.17Z"/><path class="cls-6" d="M428.91,199s16.13,28,53.76,33.33,69.87-10.75,70.95-20.43"/><path class="cls-5" d="M391.52,534l-75.86,3.48c.1,3.36.19,6.53.28,9.46l42.15-3s231,3,241.63,3c6.52,0,41.9,3.92,68.3,7l.87-10.77-58.54-3.63Z"/><path class="cls-5" d="M395.32,396.46l-83.84,3.84q.15,4.8.31,9.67l50.1-3.58s231,3,241.63,3c7.14,0,48.89,4.7,75.55,7.79L680,406l-65.82-4.08Z"/><path class="cls-6" d="M308.15,308.36s-3.76-39.46,1.84-47.71,24.64-27.29,24.64-27.29Z"/><path class="cls-5" d="M586.62,389.34c9.25,0,76.47,7.87,93.89,9.93l1-12.16-84.24-5.22-218.83-5.46-67.62,3.1c.1,3,.2,6.12.3,9.25L345,386.36S576,389.34,586.62,389.34Z"/><path class="cls-5" d="M349.55,314.86s231,3,241.63,3c9.18,0,75.54,7.77,93.52,9.89,0-3.8.08-7.89.08-12.2l-83-5.14L383,304.93l-74.84,3.43c.13,2.12.28,5.32.46,9.42Z"/><path class="cls-5" d="M345.76,360s231,3,241.62,3c9.51,0,80.3,8.33,95.25,10.1l1-12.24L598,355.57l-218.83-5.46-69.26,3.18q.15,4.5.32,9.29Z"/><path class="cls-5" d="M326,332.24s231,3,241.63,3,98,10.42,98,10.42l3.39.78,11.81,2.7,1.52-14.9-104.1-6.45-218.83-5.46-50.54,2.31q.17,4.06.33,8.82Z"/><path class="cls-7" d="M319.21,219.91c4.16-11.13,9.72-20.28,17.05-25.16,26.55-17.66,105.6-13.19,105.6-13.19"/><path class="cls-7" d="M684.12,354.58l-17,209.94s12.76,45.93,1.7,53.2S504,655.21,483.42,653.53s-160.76-29.64-167.9-45,1.1-37.93,1.1-37.93S313,444.8,310.38,366.47"/><path class="cls-7" d="M558,180.61s95.47-.47,113.35,18.49"/><path class="cls-8" d="M357.1,184.55s41.15,102.79,41.09,104.6.26,32.66.26,32.66l32.68-.86-1.29-38.74-37.47-104.5S364.47,180.53,357.1,184.55Z"/><path class="cls-8" d="M552.42,329.93s8.27-34.83,9.69-42.05,28-108.64,28-108.64l47.63,5L602,288.44l-5,48.23Z"/><path class="cls-9" d="M310.15,423.55S363.5,385.77,367,377.48s13.49-70.1,18-70,228.52,2.43,228.52,2.43,6.89,91.7,11.25,97,60.81,82.39,60.81,82.39l-9.92,52.91s10.4,19.65,8.84,28.64-3.16,19.9-3.16,19.9,16,26.26,15.87,30.77,11.33,98.37,11.33,98.37l-430-5.45s10.4-113.21,15.86-123.37S308,564.4,308,564.4s-5.92-18.23-5.05-25.94,6.37-19.17,6.37-19.17-11.05-63.84-10.88-69.64S310.15,423.55,310.15,423.55Z"/><path class="cls-6" d="M401.14,341.64s-25.44,83.76-26.5,96.48,1.06,76.34,1.06,76.34"/><path class="cls-10" d="M639.62,709.66c1.57-15.58-21.54-161.44-21.54-161.44s-130.32,7.37-146.51,7.45-95.07-14.5-95.07-14.5-10.12,79-11.66,93.47-3.93,77.51-3.93,77.51"/><path class="cls-10" d="M388.33,576.14s82.28,12.45,88.4,13.19,133.08-6.17,133.08-6.17"/><line class="cls-6" x1="392.5" y1="318.28" x2="594" y2="320.81"/><path class="cls-11" d="M531,168.87l3.52,10.65,21,2.83s8.38,55.13,9.33,60.86-7.64,49.64-2.86,53.46,92.61,19.1,97.38,6.68,14.32-105,10.5-110.75S646,179.24,646,179.24s1-19.1-6.68-21S531,168.87,531,168.87Z"/><path class="cls-6" d="M646,179.24,624.93,287.76s17.71-7.08,18.9-19.49,2.36-91.53,2.36-91.53"/><path class="cls-6" d="M565.29,179.7s70.86-3.55,68.5-2.37S580.05,193.28,565.29,179.7Z"/><path class="cls-7" d="M564.85,243.21c1,5.72-7.64,49.64-2.86,53.46,2.13,1.7,20.78,5.69,41.22,8.47"/><path class="cls-7" d="M569.55,164.28c-21,2.4-38.53,4.59-38.53,4.59l3.52,10.65,21,2.83"/><path class="cls-7" d="M668.59,237.51c2-22.38,3-42.34,1.28-44.91-3.82-5.72-23.87-13.36-23.87-13.36s1-19.1-6.68-21c-2.13-.53-11.48.06-23.86,1.19"/><path class="cls-7" d="M636.12,308.08c12.4.3,21.78-.9,23.25-4.73s3.38-15.16,5.22-29.24"/><path class="cls-2" d="M469,144.31c10.45-4,65.46,14.43,65.46,14.43s24.64,60.35-35.94,66.81C448.48,230.89,458.53,148.29,469,144.31Z"/><path class="cls-3" d="M534.43,158.74s-55-18.41-65.46-14.43c-4.65,1.78-9.21,19.16-8.43,37.41,22.7,16,51.07,18.9,71.94,5a25.26,25.26,0,0,0,6.66-7.21A79.28,79.28,0,0,0,534.43,158.74Z"/><path class="cls-10" d="M461,165.32s-3.06,20.57-.87,30"/><path class="cls-10" d="M534.33,152.24s6,38.29,6.37,46.8"/><path class="cls-2" d="M451.86,116.24s-14.27-14.1-24.32-6.34,6,29.87,23.69,20.58Z"/><path class="cls-3" d="M430.67,113.8c-7.33,4.8,3.67,17.07,11.89,12.18S438,109,430.67,113.8Z"/><path class="cls-2" d="M493.85,65.09a75.34,75.34,0,0,1,15.87,1.75c50.95,11.48,44.69,76.12,21,93.24-21.73,15.71-48.73,18-69.31,5.43C436.89,150.45,427.84,64.42,493.85,65.09Z"/><path class="cls-8" d="M427.54,109.9s14-.13,16,13.08h4.17s-3.48-20.16-.35-24.68a10.8,10.8,0,0,1,8.09-4.59s-2.61-9.57,3.64-15.48,16.42-12.24,34.14-7c0,0,20.5-6.25,29.89,1s9,16.33,9,16.33,8.34,3.48,9,8.69.34,24.67.34,24.67l5.08-.06s-1.25-14.18,6.39-13.49l3.48.35S554.44,93.44,554.44,90s3.13-17.72,3.13-17.72l-3.13-4.51s6.26,2.78,5.21,1.39-2.43-5.91-8-5.22c0,0,.7-8-1-11.12s-8.69-9-8.69-9L543,50s-3.47-10.77-9.38-14.94-19.46-9.73-18.42-7A27.73,27.73,0,0,1,516.56,34s-10.77-11.47-19.8-13.55-36.49,1-34.06,3.12,9,3.48,8,3.48-10.42-3.48-18.41-.35a43.31,43.31,0,0,0-13.9,9.38l9-.69s-8.34,3.47-12.16,6.25-11.82,16-9,16a25.27,25.27,0,0,0,4.52-.35s-5.56,5.21-3.82,4.87a12.36,12.36,0,0,1,3.82,0,16.3,16.3,0,0,1,0,4.51c-.35,2.44.35,24,.35,24Z"/><path class="cls-6" d="M447.91,80.05a26.87,26.87,0,0,1,20.55-8.45"/><path class="cls-6" d="M448.52,67.91S480,62.76,492,71"/><path class="cls-6" d="M481.61,54.25s16.69,6.68,16.09,15.18"/><path class="cls-6" d="M492.54,51.21s14.57,10,13,16.7"/><path class="cls-6" d="M500.43,48.18s16.09,9.41,11.23,19.43"/><path class="cls-10" d="M546.66,121.87c-1.84,54.53-52.28,51.35-52.28,51.35"/><path class="cls-10" d="M444.83,128.19s-2.39,37.85,32.4,43.13"/><path class="cls-3" d="M539.57,136.48a13,13,0,1,1-15.48-9.67A12.85,12.85,0,0,1,539.57,136.48Z"/><path class="cls-12" d="M486.51,114.8S473.3,97.9,458,108.36C458,108.36,469.79,139.69,486.51,114.8Z"/><path class="cls-8" d="M466.82,105a14.85,14.85,0,0,0-1.38,5.92c-.2,6.72,3.85,12.3,9,12.45,5,.15,9.19-4.76,9.7-11.1C480.92,109.17,474.52,104.31,466.82,105Z"/><path class="cls-12" d="M502.43,113.61s12.7-18.35,31.34-3.08C533.77,110.53,517,142.47,502.43,113.61Z"/><path class="cls-8" d="M506,109.78c0,.26,0,.51-.05.77-.2,7.1,4,13,9.4,13.14s9.94-5.47,10.15-12.57a16.16,16.16,0,0,0-.87-5.78C516.24,102.71,509.73,106.51,506,109.78Z"/><path class="cls-8" d="M503.59,97.15S521.48,83.22,530,99.8c0,0-17.62-4.27-24.17,1Z"/><path class="cls-8" d="M485.46,98.9s-16.34-15.36-26.57.45c0,0,18-2.79,23.95,3Z"/><path class="cls-3" d="M474.37,135a13,13,0,1,1-15.48-9.67A12.85,12.85,0,0,1,474.37,135Z"/><path class="cls-3" d="M494.22,118.61s0,6.33-1.08,6-2.51-3.09-3.77-2.56.66,6.38,3.49,6.26S494.22,118.61,494.22,118.61Z"/><path class="cls-2" d="M539.78,125.21c-.65-3.28,1.07-8.84,4.87-12.77,4.28-4.43,10-6.21,17.23-2.23,8.46,4.62,3.23,19.86-8.09,24.07a10.34,10.34,0,0,1-13.71-7.59Z"/><path class="cls-3" d="M559.37,114.56c8,3.57-1,17.44-9.89,13.92S551.4,111,559.37,114.56Z"/><path class="cls-8" d="M494.22,118.61,493,123.88s-2.76-3.59-4.13-2.62c-3.56,2.51,3.33,6.76,2.86,6.55s-3.13-5.61-1.88-5,2.39,3.42,3.77,2.91S494.22,118.61,494.22,118.61Z"/><path class="cls-6" d="M486.66,131.42s2.18,4.77-.57,12.32"/><path class="cls-6" d="M505.49,130a15.09,15.09,0,0,0,3.13,12.14"/><path class="cls-6" d="M487.3,137.24s11.59-.71,17.93-2.83"/><path class="cls-13" d="M772.82,330.22s-22-.65-26.54,8.94-7.86,34.48-6.88,38.68,2.88,5.68,2.88,5.68L721.49,484.25s-6.81,4.41-9.8,11.79-10.25,37.13-7.79,41.27,22.4,11.16,33.92,14.27,38.69,5.44,41.4-2.36,9.76-40.14,8.57-45.11a28.16,28.16,0,0,0-3.43-8.34l19.16-100s6.51-1.2,7.79-3.84,7-35.47,7.31-39c.68-6.87-18.36-20-18.36-20Z"/><path class="cls-11" d="M761.19,331.18s9.3-37.89,12.7-38.29,36.36,4.19,38.24,9.37S807.3,340,807.3,340Z"/><path class="cls-8" d="M672.16,330.15s1.38-14.59,3.48-14.72,29.76,4.93,30.22,6.39-1.73,12.45-1.73,12.45Z"/><path class="cls-8" d="M728.27,277.54s24.09,5.59,23.47,7.28-2.57,18.5-2.57,18.5l-21.36,2Z"/><path class="cls-8" d="M723.35,296.77S731,327,737.49,332c0,0-2.65,3.93-5.72,3.15s-19.84-15.59-20.39-30.45Z"/><path class="cls-9" d="M672.05,318.45s1.45-13.68-.07-15.35-16.41-9-16.63-14.4,7.32-17,11.24-19.27,49-3,71.13,5.88l-7,33.14s-20.43-3.94-21.22-1.21-1.7,16.05-1.7,16.05Z"/><path class="cls-5" d="M667.67,323.47s39.78,4.34,42.07,8.26-7.09,42.91-.81,52.32,27.6,36.4,25.85,72.06c-1.39,28.51-19.7,81.7-23,84.1s-86.19-3.57-93.27-7.93-5.17-125.12,38.25-156.14C656.77,376.14,665.14,323.07,667.67,323.47Z"/><path class="cls-13" d="M567.65,289.26S546,302.32,542.71,326.58c-1.74,12.66-3.26,34.2,11.64,48.23l24.3,133.4s-7.79,20.39-6.14,28.16a20.83,20.83,0,0,0,7.27,11.83l77.28-11.77s2.59-10,1.32-17.81-8.66-20.4-8.66-20.4L626,364s10.2-17.33-3.08-47.32S580.44,288,580.44,288Z"/><path class="cls-5" d="M559,298.43s-4.81-28.1-4-31,1.5-4.8,4.13-5.74,22.79-3.18,23.7-3.84,5.79-.18,6.77,2.7,6.35,31.39,6.35,31.39l-35.25,6"/><path class="cls-11" d="M482.53,335.94l-6.75-15s-2.92,1.55-3.14-1,6.5-8.47,6.5-8.47l6.83-3.53s10,1.06,9.9,2.89a7.67,7.67,0,0,1-1.69,3.71l6.22,13.73Z"/><path class="cls-14" d="M486.43,362.3s-11.77-21.78-10.84-25.16,26.84-16.64,30.05-12.65,10.8,21.6,10.8,21.6Z"/><path class="cls-5" d="M477,361.14c-2.05,7.46,11.37,148.5,59.19,173.05l74.31-32s9.59-13.34-2.5-38.37c-5.26-10.88-80.46-125.75-86.64-124.84S479.05,353.69,477,361.14Z"/><path class="cls-2" d="M621.64,476.51s39.67,2.62,62.7-3.37,124-27.63,182.75-18.18c88.44,14.22,65.25,104.21,38.68,120.66s-285.92-44.71-285.92-44.71Z"/><path class="cls-3" d="M732.69,465.67c-22.15,2.39-40,5.3-48.35,7.47-9.6,2.5-22.1,3.5-33.4,3.82L621,496l-1.15,34.93s73.36,17.3,146,31C760.69,534.47,744.66,493.77,732.69,465.67Z"/><path class="cls-11" d="M608.7,466.27S587.5,444.85,579.52,443s-34.16-13.7-37-15.37-12.83-13.12-16.67-7.8-1.16,11.64,1.94,17,32.33,21.68,29.35,26-20.32,8.63-24.53,8-30.65-9.27-33.53-10.95-11.82-11.79-15.21-6.5S488.72,473,488.72,473s-4,3-1.7,10.29,9.6,13.31,12.47,15,26.29,5.83,23.11,6.95-18.05.16-20-.65-10.33-10-11-6.29,3.23,15.09,8.09,19,15.72,7.39,19.47,8.09,21.79.54,17.75,2.63-17.36,3.83-19.73,3-15.07-12.06-15.26-7.42,7.78,13.89,11.15,16,36.13.15,43.91-1.25,45.48-13.84,46.94-12.54,93.79,47.55,100.25,45.37c54.93-18.58,23.06-103,18.58-108.25S608.7,466.27,608.7,466.27Z"/><line class="cls-6" x1="608.7" y1="466.27" x2="641.56" y2="483.51"/><line class="cls-6" x1="550.22" y1="531.13" x2="538.96" y2="478.32"/><path class="cls-6" d="M717.25,465.83s11.44,23.32,12.71,43.24,3.15,45.37-25.77,62.12"/><path class="cls-6" d="M622.75,522.76l91.73,30s-4.79,6.6-7.79,5.4S622.75,522.76,622.75,522.76Z"/><path class="cls-10" d="M488.72,473s4.55,8,13.63,10.24,27.32,7.62,29.56,9"/><path class="cls-10" d="M533.89,509.75c-2-2.1-14.46-4.23-14.46-4.23s-12.74-.48-19.71-3.44-11.46-7.42-12.21-10.58"/><path class="cls-6" d="M583.22,513.89s25.36.94,31.46-.35,15.64-6.8,15.64-6.8Z"/><path class="cls-2" d="M164.45,174.48S37.25,435,59.05,520.86s114.5,88.77,138,62.82c12.93-14.28,70.45-20.48-1.81-384.14Z"/><path class="cls-3" d="M111.14,296.11c26.22,15.79,84.89,51,111.34,65.78-3.6-28.28-8.49-60.36-14.92-96.8l-91.73,19.36Q113.49,290.21,111.14,296.11Z"/><path class="cls-7" d="M79.26,384.58C62.12,439,51.4,490.69,59.05,520.86"/><path class="cls-7" d="M197,583.68c12.93-14.28,70.45-20.48-1.81-384.14l-30.78-25.06s-38.67,79.2-69.71,164.65"/><path class="cls-11" d="M102.49,296.56s45.66,21.84,50.89,23.3,78.14,7.7,79.71,4.3S209.3,222.91,209.3,222.91s-2.77-15-3.29-17.89c-.38-2.11-.21-8.27-.09-11.54.05-1.26.09-2.09.09-2.09s26.14-12.87,30.53-18,8.79-15.33,8.79-18-.37-16.69-4-17-8.05.68-10.25,3.4-1.1,10.56-6.22,10.56S212,147.52,212,145.14s3.66-7.84,3.66-7.84,6.59,7.16,9.89,5.45,9.52-9.53,8.79-11.24-5.86-13.28-11-13.28-19,1.36-19,1.36,8.42-14.64,9.88-15.66,20.5-15.33,20.14-16.69-2.2-6.81-5.13-7.5-14.64,4.77-17.57,6.82-19.77,20.77-19.77,20.77,12.81-19.07,13.54-22.14,4.76-16.34.74-16.34-14.28,3.74-16.84,7.83-11,39.85-14.28,38.83-11.61-27-15.63-28.36-10.36-3-11.1,2.47,10.25,33.72,11,38.15-.74,36.78-.37,45.3c0,0-4,7.83-4.39,11.58s-.37,9.19-.37,9.19-3.29,1-6.22,8.52C148,202.36,101.22,288.82,102.49,296.56Z"/><path class="cls-7" d="M158.93,173.07s-4,7.83-4.39,11.58-.37,9.19-.37,9.19-3.29,1-6.22,8.52"/><path class="cls-7" d="M209.3,222.91s-2.77-15-3.29-17.89c-.38-2.11-.21-8.27-.09-11.54.05-1.26.09-2.09.09-2.09s26.14-12.87,30.53-18,8.79-15.33,8.79-18-.37-16.69-4-17-8.05.68-10.25,3.4-1.1,10.56-6.22,10.56S212,147.52,212,145.14s3.66-7.84,3.66-7.84,6.59,7.16,9.89,5.45,9.52-9.53,8.79-11.24-5.86-13.28-11-13.28-19,1.36-19,1.36,8.42-14.64,9.88-15.66,20.5-15.33,20.14-16.69-2.2-6.81-5.13-7.5-14.64,4.77-17.57,6.82-19.77,20.77-19.77,20.77,12.81-19.07,13.54-22.14,4.76-16.34.74-16.34-14.28,3.74-16.84,7.83-11,39.85-14.28,38.83-11.61-27-15.63-28.36-10.36-3-11.1,2.47,10.25,33.72,11,38.15"/><path class="cls-7" d="M102.49,296.56s45.66,21.84,50.89,23.3,78.14,7.7,79.71,4.3"/><path class="cls-6" d="M111.14,296.11s43.47,18.24,45.31,18.24,71.12,4.29,71.12,4.29"/><path class="cls-6" d="M140.5,299.63s30.41,13.75,32.07,11.47,31.7-4.11,31.7-4.11Z"/><path class="cls-6" d="M171.16,194.16l27,.62S177.29,200.3,171.16,194.16Z"/><path class="cls-6" d="M126.4,272.65s49.67,20.85,79.71,21.46"/><path class="cls-6" d="M141.12,253s15.33,13.49,27.59,14.1"/><path class="cls-6" d="M208.61,125.18s6.16,15.47,16.95,17.57"/><path class="cls-6" d="M204.14,131.44s5.18,5.91,11.53,5.86"/><path class="cls-6" d="M169.68,108.14s3.3,9.6,8.22,10a64.84,64.84,0,0,0,10,0"/><path class="cls-6" d="M207.28,104s15.19-1.95,19.47-9.74"/><path class="cls-6" d="M185.21,175.23l14.62,8.12S196,171.44,185.21,175.23Z"/><path class="cls-6" d="M161.4,207.16s25.44,6.5,35.72,2.71"/><path class="cls-6" d="M158.15,215.28s33,6,40,1.63"/></g></g></svg>