<svg xmlns="http://www.w3.org/2000/svg" viewBox="0 0 463.37 339.3"><defs><style>.cls-1{fill:#bbe2f2;}.cls-2{fill:#1c31b5;}.cls-3{fill:#009cf8;}.cls-4{fill:#006bde;}.cls-5{fill:#18315b;}.cls-6{fill:#000b29;}.cls-7{fill:#f97853;}.cls-8{fill:#ea5143;}.cls-9{fill:#ffa681;}.cls-10{fill:#fff;}.cls-11{fill:#264cbe;}.cls-12{fill:#e3e3e3;}.cls-13{fill:#1d567e;}</style></defs><g id="Layer_2" data-name="Layer 2"><g id="Layer_1-2" data-name="Layer 1"><g id="OBJECTS"><path class="cls-1" d="M201.08,72.77c-15.63-56.68-86-74.95-126.41-32.58l-1.74,1.86c-57.85,62.89-30.52,217.88,90.23,257.17s246.34-32.45,253.4-96.55-48.65-84.28-135.1-66.35C232.61,146.42,210.8,108.06,201.08,72.77Z"/><path class="cls-1" d="M301.52,82.47c-16.15,2.63-20.63,16.94-8.15,27.1,4.12,3.35,10,6.14,18.39,7.53,32,5.31,48.92-8.83,36.11-27.16C340,78.67,317.53,79.87,301.52,82.47Z"/><path class="cls-1" d="M43.92,197c-10-12.92-24.75-10-27.69,5.81-1,5.23-.6,11.74,2.19,19.77,10.64,30.59,31.17,38.71,41.13,18.69C65.7,228.92,53.88,209.82,43.92,197Z"/><path class="cls-1" d="M428,210.09c-1.49,7.79,4.94,13.31,12.23,10.31a15.38,15.38,0,0,0,7-6.27c8.24-12.81,4.07-23.8-7.4-22.68C432.7,192.15,429.42,202.37,428,210.09Z"/><path class="cls-1" d="M387.11,127.87c7.76,1.62,13.39-4.71,10.51-12a15.42,15.42,0,0,0-6.15-7.11c-12.67-8.45-23.73-4.47-22.8,7C369.29,122.81,379.41,126.27,387.11,127.87Z"/><path class="cls-1" d="M198.38,44.5c6.15,5,14.06,2,14.88-5.87a15.35,15.35,0,0,0-2.18-9.14c-7.36-13.33-19-14.89-23.47-4.26C184.86,31.79,192.29,39.53,198.38,44.5Z"/><path class="cls-2" d="M447.2,249.07c12.33-12.4,21.72-26.41,12.38-28.59s-25.05,22.19-27.79,44.44l-2.74,7.34c2.28-16.16-3.26-35.84-11.36-36.65s-3.18,12,3.22,22.88c4.86,8.31,6.15,14.86,6.47,18.25l-12.93,34.64c3.53-25.59-5.24-56.65-18.07-57.93s-5,19,5.11,36.3c7.67,13.09,9.73,23.44,10.26,28.85l-2.58,6.91c1.13.64,2.26,1.26,3.4,1.88L428,286.18a49.78,49.78,0,0,1,13.89-7.07c12-4.05,24-10.5,17.42-15.17-5.73-4-19.22,3.75-28.52,14.76l5.33-14.26C438.46,260.32,441.88,254.41,447.2,249.07Z"/><path class="cls-2" d="M58.56,87.37c1.6-15,.36-29.44-7.09-25.87s-4.85,28.43,5.29,44.82l2.12,6.4c-7.18-12-21.51-22.3-27.39-18.48S35.8,104,46,107.87c7.75,3,12.15,6.66,14.19,8.77l10,30.23c-11.44-19.09-34.07-35.2-43.37-29.2s6.84,15.46,23,21.62C62,144,69,149.79,72.24,153.14l2,6q1.65-.27,3.3-.57l-11.9-35.9a42.7,42.7,0,0,1,5.52-12.23c5.87-9.19,10.48-20,3.52-19.58-6,.37-10.89,12.88-11.2,25.28l-4.11-12.47A62.69,62.69,0,0,1,58.56,87.37Z"/><path class="cls-3" d="M364,290.24c.16.85.34,1.77.55,2.76h0c2.22,10.32,7.67,27.22,19.94,30.54,0,0-6.68-34.8,17.11-43.87s21.16-17.7,19.8-33.06-6.62-18.29,9.89-32.68,13.35-35.83,13.35-35.83S429,202.58,412.29,203.15s-19.6,14.81-18.89,25.4S380,240.34,372.29,246.48s-9.11,38.41-9.11,38.41S363.38,287,364,290.24Z"/><path class="cls-4" d="M364,290.24c.16.85.34,1.77.55,2.76a52.88,52.88,0,0,1,6.37-12.87c5.34-7.91,12.86-14.4,19.61-16.95,10.77-4.06,16-14.61,17-34.23.59-11.38,12.5-18.11,12.63-18.18a.72.72,0,1,0-.7-1.26c-.52.28-12.74,7.17-13.37,19.37-1,19-5.95,29.12-16.1,33-7.14,2.69-14.72,9.23-20.3,17.49A54.37,54.37,0,0,0,364,290.24Z"/><path class="cls-4" d="M100.65,323.35h16.71c-9-1.49-31.42-11.11-33.42-30.38-2.53-24.42-11.23-24.12-25.88-26.67s-18.68,1.61-28-17.34S0,227.61,0,227.61s18.93,20.64,15.29,36.33,8.93,22,19,23.92S41.93,303.33,45.75,312c1.74,4,8.87,8.06,16.11,11.35Z"/><path class="cls-2" d="M64.44,299.31c.73,7.32,4.93,16,11.25,23.27l.69.77h1.91c-.55-.57-1.06-1.14-1.54-1.69-6-6.94-10.22-15.56-10.92-22.49-1.1-11-9.63-18.55-27.65-24.38-10.46-3.38-13.77-16.15-13.8-16.28a.69.69,0,0,0-.83-.51h0a.7.7,0,0,0-.51.84c.14.56,3.52,13.65,14.72,17.28C55.16,281.75,63.4,288.9,64.44,299.31Z"/><path class="cls-3" d="M109.66,278c-.35,1.19-.75,2.48-1.2,3.85h0C103.7,296.27,94,320.5,76,323.35c0,0,14.25-49.59-18.3-66.17S30.19,228.67,34.49,207s12.25-25.08-9.09-48.14-13.53-53.16-13.53-53.16S30.39,143,54.11,146.36s25.69,24.14,23,39.14,17.39,18.89,27.38,28.84,7.1,56.19,7.1,56.19S111,273.5,109.66,278Z"/><path class="cls-4" d="M109.66,278c-.35,1.19-.75,2.48-1.2,3.85a75.72,75.72,0,0,0-7.11-19.33C95,250.45,85.23,240,76,235.35c-14.73-7.44-20.61-23.3-19-51.45.91-16.33-15-27.76-15.21-27.87a1,1,0,0,1-.29-1.38l0-.06a1,1,0,0,1,1.38-.3l.06,0c.7.49,17.07,12.19,16.1,29.69-1.52,27.2,4,42.47,17.9,49.49,9.76,4.93,19.58,15.42,26.27,28.07A78.24,78.24,0,0,1,109.66,278Z"/><path class="cls-5" d="M122.57,311.67c.06,3.77.13,7.69.21,11.66h36.36c.07-4.34.12-8.51.16-12.41.11-10.58.12-19.29.11-24.71v-6l-37.07-.4v8.45C122.37,294.09,122.44,302.42,122.57,311.67Z"/><path class="cls-6" d="M122.35,288.27c0,5.82.09,14.15.22,23.42a181.83,181.83,0,0,0,36.73-.75c.11-10.58.12-19.29.11-24.7Z"/><path class="cls-5" d="M76.75,303.33c0,5.93.11,12.72.23,20h36.36c.09-4.28.16-8.5.22-12.54.13-8.66.19-16.47.23-22.07s0-8.92,0-8.92l-37.09.4v10.55C76.7,294.27,76.72,298.51,76.75,303.33Z"/><path class="cls-6" d="M76.7,290.77v12.56a227.26,227.26,0,0,0,36.81,7.48c.13-8.66.19-16.47.23-22.07Z"/><path class="cls-5" d="M137.66,84.75s5.84-5.63,5.82-11.18-3.8-3.92-5.82-9.1-8-8.33-11.36-7.7-10.27-12.25-19.73-10-8.64,14.4-12.71,16.17-2.94,9-.79,10.61,3,8.24,4.26,8.09S137.66,84.75,137.66,84.75Z"/><path class="cls-7" d="M98.29,84.67s-3.67-4.9-6.4-.85,1.13,16,7.81,13.09Z"/><path class="cls-8" d="M98.29,93.17a.58.58,0,0,1-.54-.42c-1-3.69-4.86-5.19-4.9-5.2a.57.57,0,0,1,.28-1.1l.12,0a9.72,9.72,0,0,1,5.59,6,.56.56,0,0,1-.39.69h0A.43.43,0,0,1,98.29,93.17Z"/><path class="cls-8" d="M94.42,91.3a.53.53,0,0,1-.3-.09.55.55,0,0,1-.17-.77h0a5.13,5.13,0,0,1,2.12-1.71.58.58,0,0,1,.75.29.56.56,0,0,1-.29.74h0A4.18,4.18,0,0,0,94.9,91,.58.58,0,0,1,94.42,91.3Z"/><path class="cls-7" d="M136.19,84.67s3.67-4.9,6.4-.85-1.13,16-7.81,13.09Z"/><path class="cls-8" d="M136.29,93.17a.58.58,0,0,0,.54-.42c1-3.69,4.86-5.19,4.9-5.2a.57.57,0,0,0-.4-1.06,9.72,9.72,0,0,0-5.59,6,.56.56,0,0,0,.39.69h0A.43.43,0,0,0,136.29,93.17Z"/><path class="cls-8" d="M140.1,91.3a.53.53,0,0,0,.3-.09.56.56,0,0,0,.19-.76l0,0a5.13,5.13,0,0,0-2.12-1.71.58.58,0,0,0-.75.29.56.56,0,0,0,.29.74h0A4.18,4.18,0,0,1,139.62,91,.58.58,0,0,0,140.1,91.3Z"/><path class="cls-9" d="M126.29,107V118.9s-3.55,6.06-8.34,6.48-9-5.22-9-5.22V107.85Z"/><path class="cls-7" d="M126.29,107v5.28c-3.22,3.57-8.93,4.46-17.4,3.21v-7.65Z"/><path class="cls-9" d="M138.84,76.46a116.05,116.05,0,0,1-1.54,15c-.22,1.16-.47,2.24-.74,3.21-2.51,8.77-8.77,23.8-26.3,17.54-7.74-2.76-11.33-11.39-12.93-20.16a83.79,83.79,0,0,1-1.17-16.28,12.39,12.39,0,0,1,6.3-10.56c10.35-5.87,21.27-3.68,28.45-.92A12.36,12.36,0,0,1,138.84,76.46Z"/><path class="cls-5" d="M97.29,92.07s1.7,10.14,3.31,13.83,6,4.39,7.65,7.51c2.35,4.46,5.93,8,11.82,5.83,4.91-1.78,4.69-4.29,7.44-6.23,4.7-3.33,7-7,7.23-10s2.55-11.53,2.55-11.53l-2.52-.17a65.48,65.48,0,0,1-3.56,6.26c-2.13-4.67-12.37-1.27-12.37-1.27l-2,.63-2-.63s-10.36-3.25-12.41,1.64a18.7,18.7,0,0,1-2.74-6.35Zm19.57,6.44c11.74-2,9.64,4.86,9.57,5.11h0a11.61,11.61,0,0,1-2.41,1.83c-4.55,2.46-5,2.09-6.84,2.16a13.4,13.4,0,0,1-6.9-1.88,19,19,0,0,1-3.29-2.5s-1.82-6.3,9.91-4.72Z"/><path class="cls-5" d="M109.84,86.17c0,1.27-.66,2.3-1.47,2.3s-1.46-1-1.46-2.3.66-2.3,1.46-2.3S109.84,84.9,109.84,86.17Z"/><path class="cls-5" d="M127.22,86.17c0,1.27-.66,2.3-1.47,2.3s-1.46-1-1.46-2.3.65-2.3,1.46-2.3S127.22,84.9,127.22,86.17Z"/><path class="cls-5" d="M131.51,78.6s-6-2.39-10.7-.38l.47,2.59s6.83-.58,10.27.81A4.47,4.47,0,0,0,131.51,78.6Z"/><path class="cls-5" d="M102.79,78.61s6.08-2.4,10.77-.38l-.47,2.61s-6.88-.59-10.34.82A4.5,4.5,0,0,1,102.79,78.61Z"/><path class="cls-7" d="M117.46,95.81a6,6,0,0,0,2-.43.57.57,0,0,0,.31-.74.56.56,0,0,0-.73-.31h0a3.35,3.35,0,0,1-2.27.21.6.6,0,0,1-.28-.52c-.2-2,.34-8.59.34-8.66a.56.56,0,0,0-.52-.6.55.55,0,0,0-.6.51h0a79.62,79.62,0,0,0-.34,8.87,1.74,1.74,0,0,0,.82,1.38A2.45,2.45,0,0,0,117.46,95.81Z"/><path class="cls-10" d="M110.29,99.67c.43,2.16,1.86,6.13,6.66,6.13s6.17-3.63,6.63-6.13Z"/><path class="cls-5" d="M138.84,76.46a116.05,116.05,0,0,1-1.54,15l-2.52-.18s.61-3.9.89-6.44.76-7.3-1.41-7.89-.89-6-3.9-8.36-9.71-4.44-14.15-1.7-9.49,1.22-11.54,1.7-4.83,3.29-4.08,5.93-1.5,4.24-2,7,1.2,10.07,1.2,10.07l-2.41.49A85.39,85.39,0,0,1,96.21,75.8a12.41,12.41,0,0,1,6.3-10.56c10.35-5.87,21.27-3.68,28.46-.92A12.38,12.38,0,0,1,138.84,76.46Z"/><path class="cls-4" d="M167.08,298.09a201.42,201.42,0,0,1-34.32,5.64l-1.55.11c-1.57.1-3.14.19-4.72.26a195.64,195.64,0,0,1-23.35-.4q-2.36-.18-4.71-.42l-1.51-.16a204.48,204.48,0,0,1-27.89-5c-.09-8.56,0-35.66.54-65,.06-3.53.13-7.09.21-10.66.82-38.72,2.41-78,5.27-82,2.75-3.77,11-8.56,18.91-12.88l1.41-.77,5.15-2.79c3.5-1.9,6.52-3.6,8.39-4.9v1.07s4.25,5.63,9,5.22c4.37-.38,7.7-5.43,8.27-6.33a109.82,109.82,0,0,0,10,5.72l3.69,2,1.4.74c8.74,4.63,18.16,9.86,21,13.74a4.62,4.62,0,0,1,.6,1.43c1.68,5.67,2.72,24.47,3.35,47.24v.24c0,.92.06,1.85.08,2.78v.37c.2,8,.36,16.4.48,24.85v3c0,1.66,0,3.33.06,5v3.66C167.29,260.31,167.2,289.12,167.08,298.09Z"/><path class="cls-11" d="M166.38,192.89c-2.75-4.49-5.71-9.08-8.49-13.13h0c-1.17-1.71-2.31-3.32-3.39-4.79l-.05-.07-1-1.35a.57.57,0,0,1-.12-.23h0a.76.76,0,0,1,1.33-.67c3.34,4.43,7.62,10.8,11.66,17.26v.24C166.29,191,166.36,192,166.38,192.89Z"/><path class="cls-4" d="M162.47,140.58s17.24,31.59,27.75,47.6c0,0,6-5.49,13.76-12.83,8.43-8,20-21.28,20-21.28l6.31,7.6s-25.91,46.62-37.53,52.48-33-35.61-33-35.61Z"/><path class="cls-11" d="M89.45,265.1h0a.79.79,0,0,1-.75-.81c.9-25.52-12.33-33.78-12.46-33.86a.78.78,0,0,1,.8-1.34c.15.08,3.65,2.21,7,7.66,3.09,5,6.68,13.79,6.19,27.59A.8.8,0,0,1,89.45,265.1Z"/><path class="cls-11" d="M145.89,241.06a.77.77,0,0,1-.77-.72c-.42-5.37,1.35-9.29,3.59-14.25.65-1.46,1.33-3,2-4.64,4.35-10.55,2.17-22.6,2.15-22.73a.78.78,0,0,1,1.51-.4.5.5,0,0,1,0,.12c.09.51,2.29,12.63-2.23,23.61-.71,1.7-1.39,3.21-2,4.68-2.23,4.94-3.85,8.52-3.46,13.49a.78.78,0,0,1-.72.84h-.09Z"/><path class="cls-10" d="M100.52,124c.33,2.51.82,5.77,1.36,9.47.16,1.1.32,2.24.49,3.41.54,3.83,1.1,8,1.58,12.19q.19,1.69.36,3.39c.42,4.17.74,8.3.86,12.15,0,1.16,0,2.3,0,3.4a55.58,55.58,0,0,1-.52,7.95c-.23,1.46-.43,2.88-.61,4.27-.15,1.16-.28,2.3-.4,3.41-.45,4.34-.68,8.38-.74,12.19v3.4c0,4.32.28,8.35.64,12.18.11,1.15.22,2.28.35,3.39.46,4.19,1,8.18,1.56,12.13.16,1.13.31,2.25.46,3.38.23,1.8.45,3.61.64,5.42s.33,4.18.39,6.67v3.41c0,3.73-.08,7.87-.26,12.19,0,1.13-.09,2.27-.15,3.43-.19,4-.44,8.15-.73,12.22-.08,1.15-.16,2.29-.25,3.43-.32,4.24-.66,8.38-1,12.22-.1,1.17-.21,2.31-.32,3.42-.4,4.23-.79,8-1.14,11a195.78,195.78,0,0,0,23.36.4c.18-3.2.67-8.35,1.16-14.42q.14-1.67.27-3.42c.29-3.86.56-8,.73-12.14q.07-1.71.12-3.42c.12-4.16.12-8.28-.06-12.15,0-1.18-.12-2.32-.21-3.44s-.2-2.26-.33-3.33a67.14,67.14,0,0,1-.5-8.85q0-1.71.09-3.42c.17-4,.61-7.92,1.11-12.13.13-1.11.27-2.25.41-3.41.45-3.74.92-7.71,1.29-12.06q.15-1.66.27-3.42c.26-3.73.43-7.73.46-12.1V193c0-3.78-.2-7.82-.51-12.17,0-.39-.05-.78-.08-1.17-.06-.76-.11-1.53-.14-2.3a116.86,116.86,0,0,1,.07-12.13c.06-1.14.14-2.29.23-3.43.31-4.08.77-8.12,1.3-12,.15-1.15.32-2.29.48-3.41.64-4.25,1.33-8.24,2-11.81.2-1.17.4-2.3.59-3.38.43-2.41.8-4.56,1.08-6.38a110.82,110.82,0,0,1-10.06-5.72c-.56.91-3.89,6-8.26,6.33-4.8.42-9-5.21-9-5.21v-1.08C107,120.39,104,122.09,100.52,124Z"/><path class="cls-12" d="M101.88,133.46c.16,1.1.32,2.24.49,3.41a62.83,62.83,0,0,0,15.44-2,41,41,0,0,1,16.79-.39l.6-3.38a44.45,44.45,0,0,0-18.16.45A58.73,58.73,0,0,1,101.88,133.46Z"/><path class="cls-12" d="M104,149.06c.13,1.13.25,2.27.36,3.39a69.11,69.11,0,0,0,13.5-1.94,40.81,40.81,0,0,1,14.36-.76q.22-1.74.48-3.42a45,45,0,0,0-15.61.85A65,65,0,0,1,104,149.06Z"/><path class="cls-12" d="M105.17,164.6c0,1.16,0,2.3,0,3.4a71.42,71.42,0,0,0,12.6-1.91,41,41,0,0,1,12.83-.92c.06-1.15.14-2.29.22-3.44a45.22,45.22,0,0,0-13.82,1A69.54,69.54,0,0,1,105.17,164.6Z"/><path class="cls-12" d="M103.68,183.67a66.68,66.68,0,0,0,14.13-2,41.19,41.19,0,0,1,13-.9l-.09-1.18c0-.76-.1-1.53-.14-2.3a45.21,45.21,0,0,0-13.52,1.06,65.64,65.64,0,0,1-13,1.87C103.93,181.38,103.8,182.52,103.68,183.67Z"/><path class="cls-12" d="M102.92,199.22a65.09,65.09,0,0,0,14.89-2,41.13,41.13,0,0,1,13.5-.87V192.9a45,45,0,0,0-14.26,1,62.63,62.63,0,0,1-14.1,1.88C102.91,197,102.91,198.11,102.92,199.22Z"/><path class="cls-12" d="M103.56,211.4c.11,1.15.22,2.28.34,3.39a67.38,67.38,0,0,0,13.91-1.95,41.22,41.22,0,0,1,12.77-.93c.1-1.12.18-2.26.27-3.42a44.52,44.52,0,0,0-13.81,1A64.52,64.52,0,0,1,103.56,211.4Z"/><path class="cls-12" d="M105.47,226.92c.16,1.13.31,2.25.46,3.38a74.55,74.55,0,0,0,11.88-1.87,41.13,41.13,0,0,1,11.06-1.05c.14-1.12.28-2.25.42-3.41A44.65,44.65,0,0,0,117,225.1,70.71,70.71,0,0,1,105.47,226.92Z"/><path class="cls-12" d="M107,242.39v3.41A77.34,77.34,0,0,0,117.75,244a42.06,42.06,0,0,1,9.87-1.08q0-1.71.09-3.42A45.61,45.61,0,0,0,117,240.67,76.63,76.63,0,0,1,107,242.39Z"/><path class="cls-12" d="M106.6,261.42a75.93,75.93,0,0,0,11.21-1.83,41.29,41.29,0,0,1,10.91-1c-.05-1.18-.12-2.32-.21-3.44A44.71,44.71,0,0,0,117,256.31,74.65,74.65,0,0,1,106.75,258C106.71,259.12,106.66,260.27,106.6,261.42Z"/><path class="cls-12" d="M105.62,277.07a73.77,73.77,0,0,0,12.19-1.89,41.23,41.23,0,0,1,10.85-1.06q.08-1.71.12-3.42A45.45,45.45,0,0,0,117,271.85a71.61,71.61,0,0,1-11.17,1.8C105.79,274.79,105.7,275.93,105.62,277.07Z"/><path class="cls-12" d="M104.29,292.67a69.38,69.38,0,0,0,13.53-2,40.86,40.86,0,0,1,9.85-1.08q.14-1.66.27-3.42a44.88,44.88,0,0,0-10.89,1.18,67.81,67.81,0,0,1-12.44,1.85C104.5,290.46,104.39,291.6,104.29,292.67Z"/><path class="cls-11" d="M131.21,303.84l1.55-.11c3.07-18.05,1.3-44.53.64-52.65-.68-8.43.63-19.26,3.6-29.72,2.3-8.12.89-27-.24-42.09-.32-4.25-.62-8.26-.8-11.56-.58-10.65,3.27-30.37,5.4-40.25l-1.4-.74c-2.13,9.78-6.12,29.94-5.52,41.08.18,3.31.49,7.33.81,11.58,1.12,15,2.52,33.7.29,41.56-3,10.63-4.34,21.66-3.65,30.26C132.55,259.33,134.29,286,131.21,303.84Z"/><path class="cls-11" d="M99.77,230.42c1.81,11.09,1.24,18.3.58,26.64-.21,2.7-.43,5.48-.59,8.56-.48,9.65-2.11,29.09-2.83,37.5l1.5.16c.73-8.41,2.36-27.9,2.85-37.59.15-3,.37-5.83.58-8.51.67-8.44,1.24-15.73-.59-27-.39-2.42-.81-4.88-1.22-7.32-2-12.09-4.16-24.6-3.16-30.59.24-1.46.55-3.12.89-4.88,1.35-7.23,3-16.22,2.51-24s-3.7-28.68-4.91-36.58l-1.42.77c1.27,8.26,4.31,28.4,4.82,35.91S97.63,180,96.29,187.14c-.33,1.77-.65,3.43-.89,4.91-1,6.24,1,18.31,3.16,31.09C99,225.55,99.38,228,99.77,230.42Z"/><path class="cls-9" d="M70,153.29s-15.44,51.48-19.26,69.83-4.12,56.48-4.12,56.48-6.75,14-6.91,20.25c-.17,6.64,3.32,11.93,2.92,16.28s4.9,2,3.41-6.82,2.74-16.79,4.58-16.53-1.52,9.61.11,13,3.73-3.18,5.82-7.16,2-13.14,1.06-19.57,10.67-45.51,10.73-56.83l14.77-49.89S78.17,151.5,70,153.29Z"/><path class="cls-4" d="M84.94,171.08c-.52,3.31-2.35,9-4.72,16.13h0l-.61,1.85v.08c-.59,1.78-1.21,3.64-1.84,5.56h0c-2.62,8-5.52,17-8,26.38-.84,3.2-1.62,6.43-2.31,9.65-.89,4.12-1.64,8.22-2.19,12.23-2,14.45-5.75,32.76-5.75,32.76C54,278,45.33,275,45.33,275s-.22-26.36,1-36.61a273.64,273.64,0,0,1,5.88-32c6.63-28.48,18.3-56.36,21.5-63.75l.59-1.37h2.79C82.51,144.67,86.35,162.17,84.94,171.08Z"/><path class="cls-3" d="M44.89,269.76l.44,6.06s8.22,2.68,14.39.79l1.63-5.41C55.41,271.52,49.93,271.37,44.89,269.76Z"/><path class="cls-11" d="M80.22,187.21h0a1.22,1.22,0,0,1,0,.27c-.19.51-.38,1-.57,1.58v.08c-.6,1.72-1.22,3.59-1.84,5.56h0a294.18,294.18,0,0,0-8,31.37c0-1.66,0-3.33.06-5-.84,3.19-1.62,6.43-2.31,9.65a116.2,116.2,0,0,1,2.35-12.67,297.56,297.56,0,0,1,8.93-31.15.75.75,0,0,1,1-.47l0,0A.74.74,0,0,1,80.22,187.21Z"/><path class="cls-5" d="M356.36,323.35h36.47c-.12-2.53-.24-5-.36-7.24-.64-12.49-1.18-21-1.18-21l-29.65,1.32-2.46.11-4.36.19s.42,7.6,1.07,18.74C356,318,356.19,320.59,356.36,323.35Z"/><path class="cls-6" d="M359.18,296.55l-4.36.19s.42,7.6,1.07,18.74a265.85,265.85,0,0,0,36.58.63c-.64-12.49-1.18-21-1.18-21l-29.65,1.32Z"/><path class="cls-6" d="M363.15,323.35c-.67-11.56-1.21-21.43-1.51-26.91l-2.46.11c.3,5.46.84,15.28,1.51,26.8Z"/><path class="cls-5" d="M345.66,323.35c.19-3.13.37-6.1.53-8.84.63-10.61,1-17.77,1-17.77l-4.73-.21-2.46-.11-29.29-1.3s-.32,5.07-.76,13.12c-.23,4.29-.5,9.44-.77,15.11Z"/><path class="cls-6" d="M310,308.24a321.81,321.81,0,0,0,36.22,6.27c.63-10.61,1-17.77,1-17.77l-4.73-.21-2.46-.11-29.29-1.3S310.41,300.19,310,308.24Z"/><path class="cls-6" d="M341,323.35c.66-11.53,1.21-21.36,1.51-26.82l-2.46-.11c-.3,5.48-.85,15.36-1.51,26.93Z"/><path class="cls-4" d="M396.59,300.8a172.68,172.68,0,0,1-22.3,4.62c-2.59.37-5.17.68-7.75.91q-5.22.48-10.44.65a165.62,165.62,0,0,1-17.26-.38,175.11,175.11,0,0,1-33.39-5.8c-.1-10.37.06-47.58.84-83.48,0-1.61.07-3.22.11-4.82v-2.11c0-1.14.05-2.27.08-3.4.06-2.31.12-4.59.19-6.86,0-1.35.08-2.7.12-4v-.83l.09-2.62h0v-.81c0-.8.06-1.6.08-2.39s.05-1.34.07-2c.86-24.21,2.12-43.31,3.93-46,3.06-4.56,13.48-10.62,21.86-15.56,3-1.75,6.56-3.58,8.6-4.93,3,2.4,5.13,4.56,9.55,4.41,4.93-.16,6.15-3.13,8-5.68,1.14.75,4.06,3.14,5.58,4,1.3.77,2.7,1.58,4.17,2.42,2.27,1.3,4.68,2.68,7.07,4.08,3.54,2.09,7,4.24,9.93,6.29a24.86,24.86,0,0,1,6.32,5.72c1.64,2.46,2.7,18.39,3.39,39.35,0,.73,0,1.47.07,2.22v.28c0,.76.06,1.54.07,2.32.07,2.36.13,4.77.2,7.22v2.73c0,1,0,2,.07,3V200c.05,2.69.11,5.41.15,8.17v2.41C396.87,248.3,396.73,289.67,396.59,300.8Z"/><path class="cls-11" d="M396.29,210.57l-11.8,11.93-11-11.11L362.54,222.5l-11-11.16-11,11.16-11-11.23L318.43,222.5l-12-12.13c0-1.14.05-2.27.08-3.4.06-2.31.12-4.59.19-6.86l11.69-11.85,11.07,11.23,11.07-11.23,11,11.15,11-11.15,11,11.11,11-11.11L396.05,200c.05,2.69.1,5.42.15,8.17C396.23,209,396.29,209.76,396.29,210.57Z"/><path class="cls-11" d="M376,272.06h0c-15.75-.07-29.2-7.23-37.7-13.23a86.75,86.75,0,0,1-14.83-13.16.76.76,0,0,1,.1-1.07.75.75,0,0,1,1.06.09h0a85.54,85.54,0,0,0,14.58,12.89c8.32,5.87,21.45,12.87,36.79,12.94a.76.76,0,1,1,.17,1.51.48.48,0,0,1-.17,0Z"/><path class="cls-11" d="M366.12,262.75c-13.41-2.64-25.28-12.91-25.81-13.38a.76.76,0,0,1,1-1.15h0c.14.12,14.11,12.2,28.35,13.5a.75.75,0,0,1,.68.81h0a.76.76,0,0,1-.82.69C368.37,263.13,367.29,263,366.12,262.75Z"/><path class="cls-11" d="M339.29,146.2a.76.76,0,0,1-.14-1.51c19.2-3.64,25-16,25-16.12a.75.75,0,0,1,1-.37h0a.75.75,0,0,1,.37,1h0c-.24.54-6.17,13.2-26.14,17Z"/><path class="cls-11" d="M315.84,179.45h0a1.09,1.09,0,0,1-.1.25c-.29.46-.59.93-.89,1.42l-.05.08c-1,1.55-2,3.25-3,5h0c-1.61,2.82-3.27,5.88-4.91,9l.09-2.62h0v-.81c2.64-4.89,5.26-9.46,7.47-12.93a.75.75,0,0,1,1-.24A.76.76,0,0,1,315.84,179.45Z"/><path class="cls-9" d="M412.6,151.36s24.55-7.89,31.82-24c2.1-4.67-15.21-52-15.21-52l-8.36.41s2.38,16.43,3.83,25.74c1.18,7.66,3.1,16.8,3.75,19.81l.22,1-1.24.23c-11.47,2.33-26.12,9.8-26.12,9.8Z"/><path class="cls-7" d="M434.81,126.83a.79.79,0,0,0,1.1-.17.77.77,0,0,0-.14-1.08l0,0a63,63,0,0,0-7.31-4.29c.14.66.22,1,.22,1l-1.24.23A60.11,60.11,0,0,1,434.81,126.83Z"/><path class="cls-4" d="M375,129.67s-7.43,17.43,11.48,27.13C399.59,163.52,429.4,146,429.4,146l-10.62-22.56S391.5,134.67,375,129.67Z"/><path class="cls-9" d="M424.93,48.67c-.74.52-.59,3.72-.26,6.74h-.32c-.88-4-2.63-10.87-4.13-9.56-1,.85.34,6.76,1.23,10.28l-.56.18c-1.12-4.19-3.55-12.26-5.17-10.69-1.08,1,1,8.15,2.14,11.78l-.47.18c-1.1-3.51-3.45-10.17-5.06-8.6-1.46,1.41,2.72,11.47,2.72,11.47h0l1.1,4s-1.31.56-3.34-1.74-4.46-2.7-2.77.62c1.91,3.76,4.73,6.45,6,9.11s5.15,3.54,5.15,3.54l7.85-.38s1.52-13.26-1.41-19.59h0C427.1,52.26,426.22,47.77,424.93,48.67Z"/><path class="cls-5" d="M327.84,79.26c0,13.37,8.23,22.58,21.59,22.58s22.68-9.9,22.68-23.27a28.52,28.52,0,0,0-1.76-10.18,4.87,4.87,0,0,0-.21-.53,10.35,10.35,0,0,0-.44-1c-.24-.52-.5-1-.77-1.51-3.48-6.26-9.72-10.24-18.1-10.24C334.8,55.08,327.84,65.89,327.84,79.26Z"/><path class="cls-7" d="M330.84,85s-3.71-5-6.47-.86,1.14,16.18,7.9,13.23Z"/><path class="cls-8" d="M330.79,93.67a.57.57,0,0,1-.55-.42c-1.05-3.73-4.91-5.25-4.95-5.26a.57.57,0,0,1-.34-.73.58.58,0,0,1,.74-.34c.18.07,4.45,1.72,5.65,6a.56.56,0,0,1-.38.7h0A.43.43,0,0,1,330.79,93.67Z"/><path class="cls-8" d="M326.89,91.78a.5.5,0,0,1-.31-.1.58.58,0,0,1-.17-.79h0a5.28,5.28,0,0,1,2.14-1.72.57.57,0,0,1,.8.08.56.56,0,0,1-.08.8.58.58,0,0,1-.25.12,4.11,4.11,0,0,0-1.65,1.3A.58.58,0,0,1,326.89,91.78Z"/><path class="cls-7" d="M369.11,85s3.71-5,6.47-.86-1.14,16.18-7.9,13.23Z"/><path class="cls-8" d="M369.15,93.67a.57.57,0,0,0,.55-.42c1-3.73,4.92-5.25,5-5.26a.57.57,0,0,0-.41-1.07c-.18.07-4.44,1.72-5.65,6a.58.58,0,0,0,.4.7Z"/><path class="cls-8" d="M373.06,91.78a.5.5,0,0,0,.31-.1.58.58,0,0,0,.17-.79,5.24,5.24,0,0,0-2.15-1.72.57.57,0,0,0-.8.07.58.58,0,0,0,.07.81.66.66,0,0,0,.27.12,4.29,4.29,0,0,1,1.65,1.3A.58.58,0,0,0,373.06,91.78Z"/><path class="cls-9" d="M359.11,107.67v12s-3.58,6.13-8.43,6.54-9.15-5.27-9.15-5.27V108.49Z"/><path class="cls-7" d="M359.11,107.67V113c-3.25,3.62-9,4.52-17.58,3.25v-7.74Z"/><path class="cls-9" d="M371.79,76.77A117.23,117.23,0,0,1,370.23,92c-.22,1.16-.47,2.26-.75,3.24-2.53,8.86-8.86,24.06-26.58,17.73-7.83-2.8-11.46-11.51-13.07-20.38a84.7,84.7,0,0,1-1.18-16.45A12.51,12.51,0,0,1,335,65.42c10.45-5.93,21.49-3.72,28.76-.93A12.52,12.52,0,0,1,371.79,76.77Z"/><path class="cls-5" d="M342.37,86.58c0,1.29-.66,2.33-1.47,2.33s-1.48-1-1.48-2.33.66-2.32,1.48-2.32S342.37,85.3,342.37,86.58Z"/><path class="cls-5" d="M359.79,86.54c0,1.28-.66,2.32-1.48,2.32s-1.47-1-1.47-2.32.66-2.33,1.47-2.33S359.79,85.25,359.79,86.54Z"/><path class="cls-5" d="M363.13,78.55s-4.66-1.84-8.25-.29l.36,2s5.27-.44,7.92.63A3.48,3.48,0,0,0,363.13,78.55Z"/><path class="cls-5" d="M336,78.55s4.66-1.84,8.25-.29l-.36,2s-5.27-.44-7.92.63A3.36,3.36,0,0,1,336,78.55Z"/><path class="cls-7" d="M350.17,96.33a5.9,5.9,0,0,0,2.07-.44.57.57,0,0,0,.31-.74h0a.57.57,0,0,0-.74-.31,3.48,3.48,0,0,1-2.29.22.6.6,0,0,1-.28-.53q0-4.38.34-8.75a.57.57,0,0,0-.52-.62h0a.59.59,0,0,0-.62.52,84.52,84.52,0,0,0-.34,9,1.76,1.76,0,0,0,.83,1.4A2.41,2.41,0,0,0,350.17,96.33Z"/><path class="cls-10" d="M342.5,99.23c1,3.29,3.65,6.58,7.37,6.63s6.41-3.34,7.36-6.63Z"/><path class="cls-7" d="M349.55,109.44a6.06,6.06,0,0,0,2.79-.78.58.58,0,0,0,.19-.79.56.56,0,0,0-.78-.19h0a4.93,4.93,0,0,1-2.19.61,4.49,4.49,0,0,1-2.08-.61.58.58,0,0,0-.6,1A5.5,5.5,0,0,0,349.55,109.44Z"/><path class="cls-5" d="M371.19,85.12H368.6c.29-2.6.7-7.18-1.44-7.84-6.74-2.07,2-6.83-1.05-9.21s-10.62-1.36-15.89-1.53-13.83-.1-15.9.38-.93,3.92-.17,6.58-2.55,5.61-3.1,8.37a11.79,11.79,0,0,0,0,3.25h-2.16c-.25-3.36-.29-6.49-.24-9A12.51,12.51,0,0,1,335,65.44c10.46-5.93,21.49-3.72,28.76-.93a12.52,12.52,0,0,1,8,12.28C371.67,79.33,371.48,82.24,371.19,85.12Z"/><path class="cls-10" d="M340.64,93.31a6.47,6.47,0,1,1,6.46-6.48v0A6.47,6.47,0,0,1,340.64,93.31Zm0-11.92a5.46,5.46,0,1,0,5.46,5.46h0A5.48,5.48,0,0,0,340.64,81.39Z"/><path class="cls-10" d="M358.29,93.31a6.47,6.47,0,1,1,6.47-6.47h0A6.47,6.47,0,0,1,358.29,93.31Zm0-11.92a5.46,5.46,0,1,0,5.46,5.46h0A5.48,5.48,0,0,0,358.29,81.39Z"/><path class="cls-10" d="M335.29,84.76a.5.5,0,0,1-.35-.14h0a8,8,0,0,0-6.82-2,.51.51,0,0,1-.61-.38.5.5,0,0,1,.38-.6h0a8.85,8.85,0,0,1,7.76,2.24.53.53,0,0,1,0,.72A.48.48,0,0,1,335.29,84.76Z"/><path class="cls-10" d="M363.81,84.76a.53.53,0,0,1-.43-.22.51.51,0,0,1,.15-.7c.19-.13,4.77-3.08,8.66-2.44a.51.51,0,0,1,.42.58.52.52,0,0,1-.58.42c-3.51-.58-7.9,2.25-7.95,2.28A.5.5,0,0,1,363.81,84.76Z"/><path class="cls-10" d="M352.2,85.4a4.06,4.06,0,0,0-2.78-1.64,3.73,3.73,0,0,0-2.65,1.63l-.85-.55a4.72,4.72,0,0,1,3.5-2.09,5,5,0,0,1,3.6,2.06Z"/><path class="cls-9" d="M313.71,178.5a183.71,183.71,0,0,1-14.83,23.64,61.64,61.64,0,0,1-7.28,8.12c-3.94,3.56-7.79,5.43-10.92,3.84-11.62-5.85-37.52-52.43-37.52-52.43l6.38-7.56s11.53,13.31,20,21.28c7.75,7.28,13.75,12.79,13.75,12.79,1.08-1.63,2.22-3.43,3.42-5.33s2.58-4.15,3.92-6.34c9.71-15.94,20.48-35.08,20.48-35.08Z"/><path class="cls-7" d="M298.87,202.14a61.56,61.56,0,0,1-7.27,8.12l-4.93-27.41c1.26-2,2.58-4.15,3.92-6.34Z"/><path class="cls-4" d="M311.07,141.43l-23.29,36.62,7.82,32.21,19.27-31.37S317.2,157.42,311.07,141.43Z"/><path class="cls-4" d="M281.79,323.35c-1.66-9.22-3.3-19.61-4.79-29.7-.33-2.23-.65-4.45-1-6.63-1.2-8.36-2.26-16.26-3.12-22.82-.33-2.49-.62-4.79-.89-6.84-.83-6.55-1.32-10.61-1.32-10.61l-36.77,1.39L197,246.75s-1,8-2.47,19.71c-.28,2.12-.58,4.36-.89,6.7-.82,6.12-1.75,12.88-2.76,19.8l-.05.3c-.31,2.16-.65,4.33-1,6.5-.53,3.26,0,.06,0,.09h0c-.79,5.25-1.61,10.5-2.45,15.54-.35,2.08-.69,4.12-1,6.12l-.33,1.84Z"/><path class="cls-11" d="M205.54,257.79a3.47,3.47,0,1,1-3.48-3.46h0A3.48,3.48,0,0,1,205.54,257.79Z"/><path class="cls-11" d="M214.14,271.22a3.47,3.47,0,1,1-3.47-3.47,3.47,3.47,0,0,1,3.47,3.47Z"/><path class="cls-11" d="M231.06,264.29a3.47,3.47,0,1,1-3.47-3.47,3.47,3.47,0,0,1,3.47,3.47Z"/><path class="cls-11" d="M204.35,285.47a3.47,3.47,0,1,1-3.48-3.46h0A3.46,3.46,0,0,1,204.35,285.47Z"/><path class="cls-11" d="M225.5,284a3.47,3.47,0,1,1-3.48-3.46h0A3.48,3.48,0,0,1,225.5,284Z"/><path class="cls-11" d="M196.84,269.67a3.47,3.47,0,0,1-3.14,3.45c.31-2.34.61-4.58.89-6.7A3.46,3.46,0,0,1,196.84,269.67Z"/><path class="cls-11" d="M260,304.35a3.47,3.47,0,1,1-3.48-3.46h0A3.48,3.48,0,0,1,260,304.35Z"/><path class="cls-11" d="M258.29,285.47a3.47,3.47,0,1,1-3.48-3.46h0A3.46,3.46,0,0,1,258.29,285.47Z"/><path class="cls-11" d="M277,293.67a3.51,3.51,0,0,1-1.36.27,3.47,3.47,0,1,1-.37-6.93H276Q276.51,290.29,277,293.67Z"/><path class="cls-11" d="M261.78,318.19a3.47,3.47,0,1,1-3.47-3.47,3.47,3.47,0,0,1,3.47,3.47Z"/><path class="cls-11" d="M276.6,312.67a3.47,3.47,0,1,1-3.47-3.47,3.47,3.47,0,0,1,3.47,3.47Z"/><path class="cls-11" d="M245.75,323.35a3.45,3.45,0,0,0-4.79-.92,3.66,3.66,0,0,0-.92.92Z"/><path class="cls-11" d="M202.07,307.37a3.47,3.47,0,1,1-3.47-3.47h0a3.46,3.46,0,0,1,3.46,3.46Z"/><path class="cls-11" d="M192.93,296.42a3.46,3.46,0,0,1-3,3.43v-.09c.33-2.17.67-4.33,1-6.5A3.5,3.5,0,0,1,192.93,296.42Z"/><path class="cls-11" d="M188.88,318.19a3.46,3.46,0,0,1-2.47,3.32c.35-2,.7-4,1-6.12A3.46,3.46,0,0,1,188.88,318.19Z"/><path class="cls-11" d="M210.67,319.67a3.47,3.47,0,1,1-3.48-3.46h0A3.46,3.46,0,0,1,210.67,319.67Z"/><path class="cls-11" d="M229,316.94a3.47,3.47,0,1,1-3.47-3.47h0a3.46,3.46,0,0,1,3.46,3.46Z"/><path class="cls-11" d="M215.91,299.9a3.47,3.47,0,1,1-3.47-3.47h0A3.48,3.48,0,0,1,215.91,299.9Z"/><path class="cls-11" d="M234.52,296.43A3.47,3.47,0,1,1,231,293h0A3.46,3.46,0,0,1,234.52,296.43Z"/><path class="cls-11" d="M242.9,278.15a3.47,3.47,0,1,1-3.47-3.47,3.47,3.47,0,0,1,3.47,3.47Z"/><path class="cls-11" d="M272.92,264.2a3.2,3.2,0,0,1-.75.09,3.47,3.47,0,0,1-.14-6.93C272.29,259.41,272.59,261.67,272.92,264.2Z"/><path class="cls-11" d="M254.84,264.29a3.47,3.47,0,1,1-3.47-3.47h0a3.46,3.46,0,0,1,3.46,3.46Z"/><path class="cls-11" d="M267.54,276.67a3.47,3.47,0,1,1-3.47-3.47,3.47,3.47,0,0,1,3.47,3.47Z"/><path class="cls-11" d="M246.36,307.37a3.47,3.47,0,1,1-3.47-3.47h0a3.46,3.46,0,0,1,3.46,3.46Z"/><path class="cls-3" d="M273,247.67c-19.4,12.66-55,11.67-77.39,0,2.13-13.32,4.95-26.65,4.34-44.38-.06-1.94-.15-3.87-.24-5.78-.09-1.67-.19-3.32-.29-5-1.94-29.48-7-53.59-4.49-56.71a23.51,23.51,0,0,1,5.09-4.34q1.32-.9,2.79-1.8c2.32-1.41,4.91-2.84,7.5-4.23,6.15-3.29,12.39-6.33,15.53-8.42a19.51,19.51,0,0,0,8.24,2.08h.45a19.81,19.81,0,0,0,8.24-2.08c2.91,1.94,8.37,4.63,14,7.57a119.83,119.83,0,0,1,11.5,6.68,23,23,0,0,1,4.91,4.22c1.23,1.54.71,8.31-.34,18.34-1,9.88-2.58,22.91-3.52,37.24-.26,4-.48,8.05-.62,12.19C268,221,270.81,234.34,273,247.67Z"/><path class="cls-4" d="M261.09,232.93h0c-15.62-.07-29-7.18-37.38-13.13a85.42,85.42,0,0,1-14.71-13,.73.73,0,0,1,1.1-1,85,85,0,0,0,14.46,12.79c8.25,5.81,21.28,12.76,36.49,12.83a.75.75,0,0,1,0,1.5Z"/><path class="cls-4" d="M250.75,223.84c-13.3-2.62-25.08-12.8-25.61-13.27a.75.75,0,1,1,1-1.13c.14.12,14,12.1,28.11,13.39a.74.74,0,0,1,.68.79v0a.75.75,0,0,1-.81.68h0A31.6,31.6,0,0,1,250.75,223.84Z"/><path class="cls-4" d="M231.06,155a.76.76,0,0,1-.77-.73.75.75,0,0,1,.63-.76c19-3.62,24.78-15.87,24.83-16a.75.75,0,0,1,1-.37h0a.73.73,0,0,1,.39,1s0,0,0,0c-.24.53-6.12,13.09-25.92,16.84Z"/><path class="cls-9" d="M256.67,124.61c-3.78,8.62-13.07,17.55-25.15,15.46-11.71-2-17.26-8.21-21.26-14.61,6.15-3.29,12.4-6.33,15.53-8.42a19.8,19.8,0,0,0,8.23,2.08h.46a19.81,19.81,0,0,0,8.24-2.08C245.63,119,251.1,121.67,256.67,124.61Z"/><path class="cls-10" d="M246.57,117.67a.58.58,0,0,0-.6.58h0c0,.48-.2,11.88-10.43,12.76-9.49.83-13.42-8.26-14.63-12a.54.54,0,0,0-.51-.37h-.11a.54.54,0,0,0-.54.52.57.57,0,0,0,0,.18c1.29,3.89,5.43,13.28,15.1,12.93h.76c11.32-1,11.52-13.81,11.53-13.94a.61.61,0,0,0-.53-.67Z"/><path class="cls-5" d="M253.8,57.1S263,71.26,261.94,86s1.35,31.78-11.85,31-36.74,5.3-44.22-6.19S253.8,57.1,253.8,57.1Z"/><path class="cls-6" d="M257.19,83.14s2.37,21.38-7.77,27.27-17.49-.69-17.49-.69S253.29,79.92,257.19,83.14Z"/><path class="cls-7" d="M215.05,83s-3.65-4.86-6.36-.84,1.13,15.88,7.76,13Z"/><path class="cls-8" d="M215,91.52a.57.57,0,0,1-.54-.41c-1-3.66-4.82-5.15-4.86-5.16a.58.58,0,0,1-.33-.73.57.57,0,0,1,.73-.32,9.65,9.65,0,0,1,5.54,5.91.57.57,0,0,1-.39.69Z"/><path class="cls-8" d="M211.17,89.67a.53.53,0,0,1-.3-.09.55.55,0,0,1-.18-.76h0a5.2,5.2,0,0,1,2.1-1.7.56.56,0,0,1,.68.41.55.55,0,0,1-.22.59,4.06,4.06,0,0,0-1.62,1.28A.58.58,0,0,1,211.17,89.67Z"/><path class="cls-7" d="M252.59,83s3.65-4.86,6.35-.84-1.12,15.88-7.75,13Z"/><path class="cls-8" d="M252.64,91.52a.57.57,0,0,0,.54-.41C254.18,87.45,258,86,258,86a.56.56,0,0,0-.39-1.06h0a9.65,9.65,0,0,0-5.54,5.91.57.57,0,0,0,.39.69Z"/><path class="cls-8" d="M256.47,89.67a.56.56,0,0,0,.56-.56.53.53,0,0,0-.09-.3,5.2,5.2,0,0,0-2.1-1.7.56.56,0,0,0-.68.41.55.55,0,0,0,.22.59A4.06,4.06,0,0,1,256,89.39.54.54,0,0,0,256.47,89.67Z"/><path class="cls-9" d="M242.79,105.25V117s-3.52,6-8.28,6.42-9-5.17-9-5.17V106.08Z"/><path class="cls-7" d="M242.79,105.25v5.23c-3.2,3.54-8.86,4.8-17.26,3.56v-8Z"/><path class="cls-9" d="M255.23,75a116.46,116.46,0,0,1-1.53,14.9c-.22,1.14-.47,2.22-.74,3.18-2.49,8.7-8.7,23.61-26.08,17.4-7.68-2.75-11.24-11.3-12.83-20a84.74,84.74,0,0,1-1.16-16.14,12.34,12.34,0,0,1,6.25-10.48c10.26-5.82,21.09-3.65,28.22-.91A12.29,12.29,0,0,1,255.23,75Z"/><path class="cls-5" d="M226.16,83.73c0,1.26-.65,2.28-1.45,2.28s-1.45-1-1.45-2.28.65-2.28,1.45-2.28S226.16,82.47,226.16,83.73Z"/><path class="cls-5" d="M244.06,83.73c0,1.26-.64,2.28-1.45,2.28s-1.45-1-1.45-2.28.65-2.28,1.45-2.28S244.06,82.47,244.06,83.73Z"/><path class="cls-5" d="M221.84,76.94A24.1,24.1,0,0,1,228,76a1.09,1.09,0,0,1,1.09,1.09.55.55,0,0,1,0,.18h0a1.07,1.07,0,0,1-1.11.89c-1.74-.09-6.32.16-8.49,1A1.68,1.68,0,0,1,220,78,3.87,3.87,0,0,1,221.84,76.94Z"/><path class="cls-5" d="M245.29,77a24.18,24.18,0,0,0-6.21-.93A1.09,1.09,0,0,0,238,77.13a1.11,1.11,0,0,0,0,.19h0a1.07,1.07,0,0,0,1.11.88c1.75-.08,6.33.17,8.49,1a1.61,1.61,0,0,0-.49-1.15A3.73,3.73,0,0,0,245.29,77Z"/><path class="cls-7" d="M234,94.14a2.43,2.43,0,0,1-1.21-.29,1.73,1.73,0,0,1-.82-1.37,81,81,0,0,1,.31-8.81.56.56,0,0,1,.6-.52h0a.58.58,0,0,1,.52.61,81.94,81.94,0,0,0-.34,8.58.57.57,0,0,0,.27.52,3.3,3.3,0,0,0,2.25-.21.55.55,0,0,1,.78.11.56.56,0,0,1-.1.78.54.54,0,0,1-.26.11A5.76,5.76,0,0,1,234,94.14Z"/><path class="cls-10" d="M226.9,97.67c.42,2.13,1.83,6,6.57,6s6.09-3.58,6.55-6Z"/><path class="cls-7" d="M233.41,107a5.66,5.66,0,0,1-2.63-.77.56.56,0,0,1-.19-.77h0a.57.57,0,0,1,.77-.18h0a4.64,4.64,0,0,0,2,.6,4.92,4.92,0,0,0,2.15-.6.56.56,0,0,1,.79.1.57.57,0,0,1-.1.79l-.11.06A5.81,5.81,0,0,1,233.41,107Z"/><path class="cls-5" d="M257.48,74a1.87,1.87,0,0,1-1.35,1,35.75,35.75,0,0,1-.2,4.14c-.69,8.11-2.73,9.53-3.2,7.52a94.94,94.94,0,0,1-.14-11.44,27.31,27.31,0,0,1-3-.37L247.71,67l-.66,7.77c-2.82,1-9.39-.59-9.39-.59l-2.21-7.75-1.36,7.45c-4.23,2.06-9.52.69-9.52.69l-1.21-8-2.8,8s-9,3.24-9.12,0c-.06-1.88,1.32-7.18,2.49-11.29a17,17,0,0,1,8.19-10.4c11.18-6,23-2.81,27.07-.38C257.84,57.67,257.48,74,257.48,74Z"/><path class="cls-5" d="M216.45,57.67s-7.43,8.83-9.87,24.6-5.82,27.42,3.68,32.63c10.29,5.64,9.4-5.92,9.25-9.06s-8.9-11.73-3.06-35.92C218.29,62.14,216.45,57.67,216.45,57.67Z"/><path class="cls-6" d="M214.71,90.29h0c0,.11,0,.74.06,1.72,0,.61.06,1.35.12,2.19.4,5.34,1.4,14.47,4.4,17.7,1.2,1.25,3.51,1.89,6.23,2.14v-4.17a16.53,16.53,0,0,1-6.83-6.35,39,39,0,0,1-3.78-11.66Z"/><path class="cls-10" d="M255.36,95.45A1.32,1.32,0,1,1,254,94.14h0A1.31,1.31,0,0,1,255.36,95.45Z"/><path class="cls-3" d="M282.12,194.37c-3.72,10.65-20.38,9.87-39.35,4h-.08l-.18-.06-2.61-.83-1.08-.36c-2-.68-4.1-1.42-6.17-2.21a209.51,209.51,0,0,1-20.05-8.88V186l1.94-5,.66-1.71s35.17,3.83,52.86.13l.88-.19c-.05-.39-.11-.78-.2-1.17-9.37-31.9.87-38,4.3-42.46C273.08,135.5,289.14,174.27,282.12,194.37Z"/><path class="cls-4" d="M276.39,184.5a.75.75,0,0,1-.33.07.73.73,0,0,1-.67-.42c-1.34-2.74-5.89-4.37-7.29-4.82l.88-.19c-.07-.39-.14-.78-.2-1.17,1.78.59,6.42,2.38,8,5.53a.74.74,0,0,1-.33,1Z"/><path class="cls-4" d="M227.13,183.16c-7.18,0-13-.41-13.52-.45a.75.75,0,0,1,0-1.5h.13c.27,0,26.65,1.88,37.05-2.34a.75.75,0,0,1,1,.41h0a.75.75,0,0,1-.38,1h0C245.58,182.61,235.45,183.16,227.13,183.16Z"/><path class="cls-4" d="M239.9,197.51h0c6-1.66,11.49-3.28,14.65-4.29,4.38-1.41,8-5.84,9.66-9.61a.75.75,0,0,1,1.38.6c-1.79,4.08-5.75,8.89-10.59,10.44-2.29.74-5.79,1.79-9.84,2.94a9,9,0,0,1-5.27-.08Z"/><path class="cls-3" d="M256.13,192.35c-54.36,18.32-71.08,6.32-71.08,6.32-3.66-33.09,9.83-62.85,9.83-62.85,4,6.57,8.48,18,8.48,18l1.19,25.36-.09.71v.33l-.22,1.73h0l.35.07c16.44,3.47,46.51-.4,46.51-.4Z"/><path class="cls-4" d="M204.54,182.11a53.93,53.93,0,0,0-8.2,8.55.76.76,0,0,1-1.06.15.75.75,0,0,1-.14-1.05h0a54.84,54.84,0,0,1,9.28-9.49L204.2,182h0Z"/><path class="cls-9" d="M251.05,181.67s6-13.67,15.17-12.46L269,179.1c-5,2.12-5.74,10.71-12.85,13.21Z"/><path class="cls-9" d="M215.29,179.19a21.78,21.78,0,0,0-13.85-11.52c-10-2.59-16.37,2.12-17,3.9s3.77.08,3.77.08a8.6,8.6,0,0,0-4.55,3.54c-1.66,2.72,4-.22,4-.22s-4.09,1.79-4.61,3.45,4.87-1.14,5.88-1.09c0,0-4.81,1.92-4.78,3.63s5.53-1.08,9.64-.86a65.65,65.65,0,0,1,10.4,1.92,67.22,67.22,0,0,0,9.48,1.25Z"/><path class="cls-4" d="M311.83,40.5a6.72,6.72,0,1,1,6.71-6.73v0A6.73,6.73,0,0,1,311.83,40.5Zm0-11.32a4.61,4.61,0,1,0,4.6,4.62h0A4.62,4.62,0,0,0,311.83,29.18Z"/><path class="cls-3" d="M370.4,29.09a6.71,6.71,0,1,1,6.71-6.71h0A6.73,6.73,0,0,1,370.4,29.09Zm0-11.32A4.61,4.61,0,1,0,375,22.38h0A4.63,4.63,0,0,0,370.4,17.77Z"/><path class="cls-4" d="M378.69,50.91a1,1,0,0,1-1-1V45.22A1.06,1.06,0,0,1,379.8,45a.74.74,0,0,1,0,.21v4.64a1,1,0,0,1-1.05,1Z"/><path class="cls-4" d="M378.69,59a1,1,0,0,1-1-1v-4.7a1.06,1.06,0,0,1,2.11,0V58a1,1,0,0,1-1.05,1Z"/><path class="cls-4" d="M385.21,52.67H381a1.05,1.05,0,0,1,0-2.1h4.17a1.05,1.05,0,1,1,0,2.1Z"/><path class="cls-4" d="M376.35,52.67h-4.17a1.05,1.05,0,0,1,0-2.1h4.17a1.05,1.05,0,1,1,0,2.1Z"/><path class="cls-2" d="M343.23,22.78a1.06,1.06,0,0,1-1.05-1.06V17.08a1.06,1.06,0,0,1,2.11,0v4.64A1.08,1.08,0,0,1,343.23,22.78Z"/><path class="cls-2" d="M343.23,30.9a1,1,0,0,1-1.05-.95V25.26a1.06,1.06,0,0,1,2.11-.21.74.74,0,0,1,0,.21V29.9A1.06,1.06,0,0,1,343.23,30.9Z"/><path class="cls-2" d="M349.75,24.52h-4.17a1.06,1.06,0,0,1,0-2.11h4.17a1.06,1.06,0,1,1,.21,2.11A.74.74,0,0,1,349.75,24.52Z"/><path class="cls-2" d="M340.89,24.52h-4.18a1.06,1.06,0,0,1,0-2.11h4.18a1.06,1.06,0,0,1,0,2.11Z"/><path class="cls-4" d="M71.86,16.75a6.72,6.72,0,1,1,6.72,6.72h0A6.72,6.72,0,0,1,71.86,16.75Zm2.11,0a4.61,4.61,0,1,0,4.61-4.61h0A4.62,4.62,0,0,0,74,16.75Z"/><path class="cls-3" d="M44.9,42.34a6.71,6.71,0,1,1,6.71,6.72A6.7,6.7,0,0,1,44.9,42.34Zm2.1,0a4.61,4.61,0,1,0,4.61-4.61A4.6,4.6,0,0,0,47,42.34Z"/><path class="cls-4" d="M30.94,51.76a1,1,0,0,0,1-.94.75.75,0,0,0,0-.15v-4.6a1.06,1.06,0,1,0-2.11-.21.74.74,0,0,0,0,.21v4.6a1.05,1.05,0,0,0,1,1.09Z"/><path class="cls-4" d="M30.94,59.89a1,1,0,0,0,1-1V54.19a1.06,1.06,0,0,0-2.11,0v4.65A1.06,1.06,0,0,0,30.94,59.89Z"/><path class="cls-4" d="M24.42,53.5h4.17a1.05,1.05,0,0,0,0-2.1H24.42a1.05,1.05,0,0,0,0,2.1Z"/><path class="cls-4" d="M33.29,53.5h4.18a1,1,0,0,0,0-2.1H33.29a1,1,0,0,0,0,2.1Z"/><path class="cls-2" d="M55.21,16.06a1,1,0,0,0,1-1V10.37a1.06,1.06,0,0,0-2.11-.21.74.74,0,0,0,0,.21V15a1,1,0,0,0,1,1Z"/><path class="cls-2" d="M55.21,24.19a1,1,0,0,0,1-1V18.54a1.06,1.06,0,0,0-2.11,0v4.65a1.05,1.05,0,0,0,1.1,1Z"/><path class="cls-2" d="M48.69,17.8h4.17a1.05,1.05,0,0,0,0-2.1H48.69a1,1,0,1,0,0,2.1Z"/><path class="cls-2" d="M57.55,17.8h4.17a1.05,1.05,0,1,0,0-2.1H57.55a1.05,1.05,0,1,0,0,2.1Z"/><path class="cls-1" d="M256,17.23a.77.77,0,0,1-.37,0c-1.28-.54-2-.79-2-.8a.73.73,0,0,1-.48-.93h0a.75.75,0,0,1,1-.47s.8.27,2.14.83a.75.75,0,0,1,.41,1v0A.74.74,0,0,1,256,17.23Z"/><path class="cls-1" d="M294.09,57.34c.51,1.36,1,2.76,1.41,4.16a.77.77,0,0,0,.8.53h.14a.75.75,0,0,0,.5-.92v0c-.44-1.43-.92-2.86-1.44-4.24a.76.76,0,0,0-1-.46l0,0A.74.74,0,0,0,294.09,57.34Z"/><path class="cls-1" d="M296.67,65.74c.34,1.4.65,2.85.92,4.3a.75.75,0,0,0,.81.6h.06a.75.75,0,0,0,.6-.87h0c-.27-1.47-.59-3-.94-4.38a.76.76,0,0,0-.86-.63.75.75,0,0,0-.62.86A.61.61,0,0,0,296.67,65.74Z"/><path class="cls-1" d="M299.82,88.32a.75.75,0,0,0,.67-.73V83.11a.74.74,0,0,0-.77-.72.75.75,0,0,0-.73.77c.05,1.44.06,2.93,0,4.4a.73.73,0,0,0,.7.76h.13Z"/><path class="cls-1" d="M298.92,73.54a.76.76,0,0,0-.65.84c.09.68.17,1.36.24,2s.16,1.57.22,2.35a.75.75,0,0,0,.8.69h0a.75.75,0,0,0,.67-.8c-.06-.79-.14-1.6-.22-2.39s-.15-1.37-.24-2.06a.75.75,0,0,0-.82-.65Z"/><path class="cls-1" d="M292.42,53.28a.76.76,0,0,0,.76.44.86.86,0,0,0,.23-.06.76.76,0,0,0,.38-1c-.61-1.36-1.27-2.72-2-4a.77.77,0,0,0-1-.31.75.75,0,0,0-.31,1C291.18,50.67,291.82,52,292.42,53.28Z"/><path class="cls-1" d="M259.58,19c1.29.65,2.58,1.37,3.85,2.12a.76.76,0,0,0,1-.26.76.76,0,0,0-.26-1c-1.3-.77-2.62-1.49-3.93-2.16a.75.75,0,0,0-.69,1.33Z"/><path class="cls-1" d="M270.73,26.08a.75.75,0,0,0,1-1.1l-.12-.09c-1.18-.9-2.41-1.78-3.64-2.62a.75.75,0,0,0-.84,1.24C268.36,24.33,269.57,25.19,270.73,26.08Z"/><path class="cls-1" d="M283.29,38.32a.77.77,0,0,0,.67.28.76.76,0,0,0,.38-.16.73.73,0,0,0,.12-1c-.93-1.16-1.91-2.31-2.91-3.42a.75.75,0,0,0-1.06,0,.75.75,0,0,0-.05,1.06h0A41,41,0,0,1,283.29,38.32Z"/><path class="cls-1" d="M277.39,31.82a.74.74,0,0,0,1,0,.75.75,0,0,0,0-1.06c-1.06-1-2.18-2.06-3.31-3a.73.73,0,0,0-1,.07h0a.74.74,0,0,0,.06,1h0A40.38,40.38,0,0,1,277.39,31.82Z"/><path class="cls-1" d="M288.34,45.51a.73.73,0,0,0,.71.35.67.67,0,0,0,.31-.1.74.74,0,0,0,.25-1c-.77-1.27-1.6-2.53-2.46-3.75a.74.74,0,0,0-1-.28.75.75,0,0,0-.29,1l.09.12C286.77,43,287.58,44.27,288.34,45.51Z"/><polygon class="cls-3" points="255.97 12.12 259.24 0 219.14 0.34 255.97 12.12"/><polygon class="cls-4" points="219.14 0.34 254.02 15.04 254.11 15.08 255.61 17.57 255.97 12.12 219.14 0.34"/><polygon class="cls-4" points="255.61 17.57 252.36 17.06 254.11 15.08 255.61 17.57"/><polygon class="cls-3" points="249.72 13.23 254.11 15.08 245.07 25.27 219.14 0.34 249.72 13.23"/><path class="cls-2" d="M440.34,331v.69a7.62,7.62,0,0,1-7.61,7.63h-396a7.64,7.64,0,0,1-7.58-7.63v-.73a7.65,7.65,0,0,1,7.63-7.63h396A7.63,7.63,0,0,1,440.34,331Z"/><path class="cls-4" d="M440.34,331v.37H29.13V331a7.65,7.65,0,0,1,7.63-7.63h396A7.64,7.64,0,0,1,440.34,331Z"/><path class="cls-5" d="M295.29,299.34H171a5.38,5.38,0,0,1-5.38-5.38h0V228.88A5.38,5.38,0,0,1,171,223.5H295.29a5.38,5.38,0,0,1,5.38,5.38h0V294a5.38,5.38,0,0,1-5.38,5.38Z"/><rect class="cls-6" x="222.68" y="299.25" width="20.93" height="23.86"/><circle class="cls-13" cx="232.91" cy="262.35" r="10.39"/><path class="cls-5" d="M259.8,323.12h-54V321.3a6.65,6.65,0,0,1,6.65-6.65h40.69a6.65,6.65,0,0,1,6.65,6.65v1.82Z"/></g></g></g></svg>